<svg width="190" height="258" viewBox="0 0 190 258" fill="none" xmlns="http://www.w3.org/2000/svg"><path fill-rule="evenodd" clip-rule="evenodd" d="M138.465 110.529a4.365 4.365 0 0 1-4.36 4.36 4.331 4.331 0 0 1-2.376-.703v36.628h6.151v4.58H51.33v-4.58h5.985v-36.398c-.59.3-1.255.473-1.96.473a4.322 4.322 0 0 1-4.216-3.306l-.143-.461v-4.951h.456l5.864-9.31v-3.908h74.413v3.743l6.514 9.475h.135v.197l.013.726h-.013v2.583c.059.287.087.574.087.852Zm-7.661-16.654H58.238v2.32h72.566v-2.32Zm-53.137 3.241.173.05-2.528 9.005h7.272l-.07-.012 1.508-9.043h-6.355Zm52.773 9.055h1.289l5.399-.001-5.396-7.848-.462-.67-.369-.536h-4.873l4.633 8.941-.221.114Zm-72.201-9.044-.923 1.465-4.773 7.579h6.476l-.22-.111 4.553-8.943h-5.107l-.006.01Zm12.006-.01H63.85l.219.112-4.553 8.942h7.391l-.207-.082 3.544-8.972Zm6.89 0h-6.386l.209.081-3.544 8.973h7.366l-.173-.049 2.528-9.005Zm7.514 0 .072.012-1.505 9.042h7.212l.476-9.054h-6.255Zm13.13 0h-6.184l-.476 9.054h7.22l-.56-9.054Zm.693 0 .56 9.054 7.213.001-1.591-9.04.088-.015h-6.27Zm13.241 0h-6.36l1.592 9.04-.085.015h7.286l-2.611-9.003.178-.052Zm6.916 0h-6.387l2.611 9.003-.178.051h7.368l-3.625-8.969.211-.085Zm3.919 9.054h7.392l-4.634-8.94.221-.114h-6.395l3.625 8.97-.209.084Zm-70.63.923v3.781l.055.175a3.41 3.41 0 0 0 3.381 2.915 3.39 3.39 0 0 0 1.96-.63 3.48 3.48 0 0 0 .924-.969c.245-.39.424-.83.5-1.315l.06-.392h.99l.06.392a3.41 3.41 0 0 0 3.382 2.915 3.41 3.41 0 0 0 3.383-2.915l.06-.392h.991l.06.392a3.41 3.41 0 0 0 3.381 2.915 3.41 3.41 0 0 0 3.382-2.915l.06-.392h.985l.06.392a3.41 3.41 0 0 0 3.383 2.915 3.41 3.41 0 0 0 3.382-2.915l.06-.392h.987l.061.392a3.412 3.412 0 0 0 3.382 2.915 3.41 3.41 0 0 0 3.382-2.915l.06-.392h.992l.06.392a3.408 3.408 0 0 0 3.382 2.914 3.41 3.41 0 0 0 3.382-2.915l.061-.392h.992l.06.392a3.412 3.412 0 0 0 3.383 2.915 3.41 3.41 0 0 0 3.381-2.915l.061-.392h.99l.061.392a3.412 3.412 0 0 0 3.382 2.915 3.41 3.41 0 0 0 3.381-2.914l.06-.392h.995l.06.392a3.41 3.41 0 0 0 3.382 2.915 3.41 3.41 0 0 0 3.381-2.914l.061-.392h.986l.061.392a3.413 3.413 0 0 0 3.383 2.915c1.7 0 3.122-1.226 3.383-2.915l.06-.392h.991l.06.392c.02.115.054.223.083.334.098.382.254.734.462 1.049.136.204.289.39.463.56a3.394 3.394 0 0 0 2.376.972 3.442 3.442 0 0 0 3.363-4.149l-.011-.094v-2.63H51.919Zm29.967 43.72h48.912v-37.443a4.409 4.409 0 0 1-.638-.993 4.319 4.319 0 0 1-3.937 2.511 4.315 4.315 0 0 1-3.936-2.51 4.318 4.318 0 0 1-3.938 2.51 4.316 4.316 0 0 1-3.936-2.511 4.317 4.317 0 0 1-3.938 2.511 4.316 4.316 0 0 1-3.935-2.511 4.318 4.318 0 0 1-3.936 2.511 4.317 4.317 0 0 1-3.936-2.511 4.322 4.322 0 0 1-3.939 2.511 4.316 4.316 0 0 1-3.937-2.51 4.32 4.32 0 0 1-3.938 2.51 4.318 4.318 0 0 1-3.936-2.51 4.318 4.318 0 0 1-3.938 2.51 4.319 4.319 0 0 1-3.938-2.51 4.317 4.317 0 0 1-3.937 2.51 4.317 4.317 0 0 1-3.937-2.51 4.32 4.32 0 0 1-3.938 2.51 4.316 4.316 0 0 1-3.937-2.51 4.318 4.318 0 0 1-1.054 1.415v37.02h6.19v-33.625h17.457v33.625ZM85 116.729v29.021h41.743v-29.021H85Zm.922.922h19.444v24.018H85.922v-24.018Zm39.897 24.019h-19.53v-24.019h19.53v24.019Zm-3.857-8.36.651-.651-11.721-11.721-.327.326-.326.326 11.723 11.72Zm-.09-3.235.327-.327-8.397-8.396-.652.652 8.396 8.395.326-.324ZM89.569 126.3l-.652.652 11.719 11.721.653-.653-11.72-11.72Zm.013 3.31 8.395 8.396.652-.651-8.395-8.396-.652.651Zm36.237 15.218H85.922v-2.236h39.897v2.236Zm-73.566 9.643h84.705v-2.735H52.253v2.735Z" fill="#00558C"/><path d="M30.858 72.03c.598-1.295.65-2.612.157-3.95a5.205 5.205 0 0 0-1.034-1.739 5.103 5.103 0 0 0-1.65-1.18c-1.289-.595-2.607-.645-3.954-.149S22.06 66.4 21.464 67.69l-.746 1.614 9.394 4.34.746-1.614ZM19.77 66.905c.812-1.757 2.133-2.972 3.963-3.646.918-.338 1.821-.491 2.708-.46.887.032 1.778.255 2.672.668 1.763.815 2.981 2.137 3.654 3.966.67 1.822.599 3.615-.216 5.377l-1.136 2.46a.904.904 0 0 1-.221.301 1.002 1.002 0 0 1-.306.189.91.91 0 0 1-.715-.025l-11.088-5.123a.908.908 0 0 1-.483-.528 1.003 1.003 0 0 1-.054-.355.902.902 0 0 1 .085-.363l1.137-2.46Zm15.442-11.227-4.072-1.172 2.218 3.61 1.854-2.438Zm-.12 8.852-6.78-11.058c-.223-.405-.212-.77.033-1.091.252-.332.6-.44 1.043-.324l12.514 3.59c.122.034.236.091.344.173a.899.899 0 0 1 .36.617.9.9 0 0 1-.182.69.87.87 0 0 1-.612.353 1 1 0 0 1-.366-.013l-4.312-1.234-2.727 3.587 2.336 3.833a.998.998 0 0 1 .11.349.899.899 0 0 1-.182.69.885.885 0 0 1-.614.357.907.907 0 0 1-.687-.186 1.007 1.007 0 0 1-.278-.333ZM51.2 46.21a.939.939 0 0 1 .216.696c-.307 1.646-1.083 3.005-2.326 4.078-1.474 1.273-3.18 1.839-5.116 1.697-1.936-.142-3.54-.95-4.813-2.424-1.27-1.47-1.833-3.173-1.69-5.109.142-1.945.948-3.551 2.417-4.82 1.262-1.09 2.759-1.657 4.493-1.705.224.008.426.117.606.325a.914.914 0 0 1-.096 1.316.914.914 0 0 1-.66.22 5.055 5.055 0 0 0-3.123 1.256c-1.084.935-1.678 2.119-1.783 3.55-.104 1.415.312 2.664 1.248 3.748.94 1.088 2.116 1.683 3.531 1.787 1.423.104 2.679-.313 3.767-1.253.803-.693 1.34-1.525 1.611-2.495L47.7 45.012l-1.839 1.587a.903.903 0 0 1-.678.231.902.902 0 0 1-.637-.327.951.951 0 0 1-.186-.323.901.901 0 0 1 .048-.698.941.941 0 0 1 .234-.295l2.551-2.203a.854.854 0 0 1 .315-.173.978.978 0 0 1 .704.055.883.883 0 0 1 .29.22l2.697 3.124Zm-1.406-10.916 2.454 4.263 2.136-1.23a2.404 2.404 0 0 0 1.144-1.496 2.6 2.6 0 0 0 .063-.94 2.34 2.34 0 0 0-.305-.916 2.395 2.395 0 0 0-.646-.734 2.491 2.491 0 0 0-.848-.416 2.49 2.49 0 0 0-.942-.067 2.38 2.38 0 0 0-.92.307l-2.136 1.23Zm4.012 10.708-6.094-10.586a.952.952 0 0 1-.121-.351.903.903 0 0 1 .179-.677.942.942 0 0 1 .285-.245l2.944-1.695a4.152 4.152 0 0 1 1.624-.539 4.376 4.376 0 0 1 3.146.854c.46.34.839.768 1.134 1.282.193.335.34.686.439 1.052.099.366.147.738.144 1.115a4.329 4.329 0 0 1-.166 1.141 4.69 4.69 0 0 1-.491 1.13l4.676 2.498a.97.97 0 0 1 .508.723.915.915 0 0 1-.467.918c-.284.164-.592.165-.922.003l-5.172-2.76-2.273 1.309 2.243 3.897c.13.224.16.46.093.708a.899.899 0 0 1-.436.566.899.899 0 0 1-.708.093.899.899 0 0 1-.566-.436ZM68.597 32.67l-2.785-3.193-.095 4.236 2.88-1.042Zm-4.903 7.372.303-12.968c.032-.461.239-.76.62-.899.391-.141.742-.044 1.051.294l8.566 9.804c.084.094.149.205.195.332a.899.899 0 0 1-.032.713.9.9 0 0 1-.528.481.871.871 0 0 1-.705-.034.999.999 0 0 1-.3-.21L69.91 34.18l-4.236 1.534-.116 4.487a.996.996 0 0 1-.097.353.899.899 0 0 1-.528.482.884.884 0 0 1-.709-.034.907.907 0 0 1-.477-.529 1.008 1.008 0 0 1-.053-.43Zm22.475-7.852a.874.874 0 0 1 .368.013c.118.03.226.078.324.145a.911.911 0 0 1 .385.603.938.938 0 0 1-.173.709c-1.112 1.25-2.478 2.015-4.097 2.293-1.92.33-3.672-.066-5.257-1.186-1.586-1.12-2.543-2.64-2.873-4.56-.33-1.914.067-3.663 1.187-5.249 1.125-1.592 2.645-2.552 4.559-2.881 1.642-.282 3.218.003 4.727.857.19.128.306.325.352.591a.917.917 0 0 1-.761 1.077.955.955 0 0 1-.678-.15 5.057 5.057 0 0 0-3.324-.537c-1.411.243-2.53.95-3.36 2.122-.818 1.159-1.106 2.443-.864 3.854.244 1.417.945 2.534 2.103 3.353 1.166.824 2.456 1.114 3.873.87 1.208-.207 2.208-.763 3-1.667a.984.984 0 0 1 .509-.257Zm12.445.951a.9.9 0 0 1 .66.273.899.899 0 0 1 .273.66c0 .258-.09.478-.272.66a.899.899 0 0 1-.66.273l-8.14.003a.914.914 0 0 1-.933-.932l-.005-12.214c0-.13.023-.25.07-.365a.903.903 0 0 1 .492-.498.944.944 0 0 1 .37-.07l8.14-.004a.9.9 0 0 1 .66.273.9.9 0 0 1 .273.66c0 .258-.09.478-.273.66a.899.899 0 0 1-.66.273l-7.206.003.001 4.241 5.175-.002c.258 0 .478.09.66.273a.899.899 0 0 1 .273.66.9.9 0 0 1-.273.66.9.9 0 0 1-.66.273l-5.174.002.002 4.241 7.207-.003Zm2.964 1.079 2.242-12.007a.943.943 0 0 1 .386-.604.915.915 0 0 1 .703-.142c.357.067.597.282.721.645l3.253 11.34 7.127-9.402c.269-.29.57-.404.905-.341.127.024.242.07.346.136a.903.903 0 0 1 .397.58.95.95 0 0 1 .003.372l-2.242 12.007a.903.903 0 0 1-.39.598.899.899 0 0 1-.699.147.899.899 0 0 1-.598-.389.894.894 0 0 1-.147-.699l1.515-8.114-5.891 7.771a.882.882 0 0 1-.882.31c-.38-.07-.626-.308-.735-.71l-2.665-9.27-1.515 8.114a.898.898 0 0 1-.389.598.899.899 0 0 1-.699.147.9.9 0 0 1-.599-.39.902.902 0 0 1-.147-.698Zm24.594.612.066-4.237-2.904 3.086 2.838 1.15Zm-8.575 2.2 8.899-9.438c.333-.32.687-.405 1.062-.253.386.157.581.464.585.921l-.19 13.018c0 .127-.026.252-.076.377a.899.899 0 0 1-.501.51.9.9 0 0 1-.714.004.866.866 0 0 1-.501-.497.998.998 0 0 1-.084-.357l.063-4.485-4.175-1.694-3.088 3.259a.999.999 0 0 1-.308.198.9.9 0 0 1-.714.004.88.88 0 0 1-.505-.499.904.904 0 0 1-.001-.712c.053-.13.136-.25.248-.355Zm19.719-2.962-2.624 4.16 2.084 1.315a2.4 2.4 0 0 0 1.857.313 2.6 2.6 0 0 0 .861-.384 2.34 2.34 0 0 0 .668-.696c.182-.288.298-.593.348-.915a2.473 2.473 0 0 0-1.11-2.479l-2.084-1.314Zm-7.596 8.547 6.515-10.331c.069-.11.154-.2.255-.272a.908.908 0 0 1 1.032-.02l2.873 1.812c.501.316.913.71 1.235 1.184.322.474.543.981.664 1.522.12.54.137 1.094.05 1.66a4.142 4.142 0 0 1-.604 1.6 4.38 4.38 0 0 1-.726.88 4.118 4.118 0 0 1-.918.648 4.324 4.324 0 0 1-1.087.387 4.694 4.694 0 0 1-1.229.093l-.024 5.3a.967.967 0 0 1-.402.787.927.927 0 0 1-.684.152.948.948 0 0 1-.346-.135c-.278-.175-.423-.447-.434-.814l.025-5.863-2.218-1.399-2.399 3.804a.898.898 0 0 1-.582.413.9.9 0 0 1-.704-.122.898.898 0 0 1-.413-.582.901.901 0 0 1 .121-.704Zm17.721-2.853a.899.899 0 0 1 .645-.307.897.897 0 0 1 .672.24.898.898 0 0 1 .307.645.9.9 0 0 1-.24.673l-3.494 3.864 8.266-.417a.929.929 0 0 1 .697.239.96.96 0 0 1 .224.297.91.91 0 0 1-.158 1.02.899.899 0 0 1-.645.307l-6.518.335-.786 7.89a.89.89 0 0 1-.223.51.988.988 0 0 1-.645.32.948.948 0 0 1-.357-.04.825.825 0 0 1-.32-.182c-.257-.233-.362-.505-.316-.82l.758-7.582-1.753.088-2.921 3.231a.899.899 0 0 1-.645.307.898.898 0 0 1-.672-.24.897.897 0 0 1-.307-.645.899.899 0 0 1 .24-.673l8.191-9.06Zm6.276 23.424a.904.904 0 0 1 .18.691.901.901 0 0 1-.363.616.898.898 0 0 1-.691.18.897.897 0 0 1-.615-.363l-4.904-6.496a.902.902 0 0 1-.186-.692.928.928 0 0 1 .368-.615l9.748-7.359a.96.96 0 0 1 .334-.164.902.902 0 0 1 .694.094.96.96 0 0 1 .279.253l4.904 6.496a.904.904 0 0 1 .18.691.901.901 0 0 1-.363.615.898.898 0 0 1-.691.18.899.899 0 0 1-.615-.362l-4.342-5.752-3.385 2.556 3.117 4.13a.895.895 0 0 1 .18.69.9.9 0 0 1-.362.616.9.9 0 0 1-.691.18.9.9 0 0 1-.616-.363l-3.117-4.13-3.385 2.556 4.342 5.752Zm15.108 6.985-1.458-3.156-10.241 4.731a.9.9 0 0 1-.714.03.899.899 0 0 1-.524-.486.895.895 0 0 1-.029-.713.896.896 0 0 1 .484-.525l10.242-4.73-1.458-3.156a.9.9 0 0 1-.029-.713.898.898 0 0 1 .485-.525.898.898 0 0 1 .713-.029.9.9 0 0 1 .525.485l3.697 8.004a.9.9 0 0 1 .029.714.9.9 0 0 1-.484.524.9.9 0 0 1-.714.03.899.899 0 0 1-.524-.485ZM75.497 222.575l-3.31-1.063-3.45 10.74a.897.897 0 0 1-.461.545.897.897 0 0 1-.712.058.9.9 0 0 1-.545-.461.9.9 0 0 1-.058-.712l3.45-10.741-3.309-1.063a.9.9 0 0 1-.545-.462.897.897 0 0 1-.058-.711.897.897 0 0 1 .462-.545.897.897 0 0 1 .712-.058l8.394 2.696a.9.9 0 0 1 .545.462.9.9 0 0 1 .058.712.903.903 0 0 1-.461.545.905.905 0 0 1-.712.058Zm4.969 1.059-.721 4.865 2.437.362a2.41 2.41 0 0 0 1.826-.463c.25-.192.461-.424.632-.698.171-.274.281-.577.33-.908.05-.336.033-.662-.05-.977a2.488 2.488 0 0 0-1.105-1.489 2.366 2.366 0 0 0-.912-.331l-2.437-.361Zm-3.5 10.885 1.791-12.082a.962.962 0 0 1 .124-.351.908.908 0 0 1 .936-.435l3.36.499a4.156 4.156 0 0 1 1.608.585 4.371 4.371 0 0 1 1.937 2.622c.15.553.18 1.123.094 1.709a4.4 4.4 0 0 1-.31 1.097c-.15.349-.342.67-.579.964a4.332 4.332 0 0 1-.838.792 4.696 4.696 0 0 1-1.087.582l2.118 4.86a.967.967 0 0 1-.051.882.922.922 0 0 1-.936.43c-.325-.048-.566-.238-.725-.57l-2.343-5.374-2.594-.384-.66 4.448a.901.901 0 0 1-.366.613.9.9 0 0 1-.693.173.898.898 0 0 1-.613-.367.898.898 0 0 1-.173-.693Zm15.048-10.574.06 8.139c.004.429.089.833.256 1.213.167.38.392.711.676.994a3.2 3.2 0 0 0 1 .67 3 3 0 0 0 1.225.241 3.056 3.056 0 0 0 1.22-.255c.38-.167.712-.396.994-.685a3.24 3.24 0 0 0 .666-1.004c.161-.379.24-.786.237-1.22l-.06-8.14a.899.899 0 0 1 .267-.662.9.9 0 0 1 .658-.278.9.9 0 0 1 .662.268c.184.181.276.4.278.658l.061 8.14c.003.457-.054.898-.171 1.321a5.152 5.152 0 0 1-.497 1.196 5.044 5.044 0 0 1-2.979 2.337 4.844 4.844 0 0 1-1.323.19c-1.384.01-2.564-.471-3.54-1.443-.986-.973-1.485-2.148-1.495-3.527l-.06-8.139a.899.899 0 0 1 .267-.662.9.9 0 0 1 .658-.278.9.9 0 0 1 .662.268.9.9 0 0 1 .278.658Zm15.035 5.379c-.88-.118-1.565-.341-2.055-.668-.491-.327-.854-.684-1.09-1.072a3.459 3.459 0 0 1-.462-1.277 3.658 3.658 0 0 1 .08-1.593c.143-.495.395-.954.756-1.379l-.009.002a3.508 3.508 0 0 1 2.212-1.237 3.634 3.634 0 0 1 1.777.172c.292.106.573.251.842.434.269.184.52.409.752.675.11.138.179.296.207.476a.908.908 0 0 1-.427.939.96.96 0 0 1-.667.122.804.804 0 0 1-.266-.109 1.734 1.734 0 0 1-.244-.19 5.163 5.163 0 0 1-.258-.257 1.286 1.286 0 0 0-.641-.368 1.994 1.994 0 0 0-.802-.03c-.22.034-.428.112-.622.235a1.873 1.873 0 0 0-.808 1.075c-.067.23-.082.47-.043.719.07.446.248.779.535.999.286.219.745.368 1.375.448 1.065.131 1.927.405 2.587.825.659.419 1.132.859 1.417 1.319.286.46.471.963.556 1.507.212 1.357-.117 2.536-.987 3.539l.008-.001c-.698.81-1.561 1.295-2.587 1.455-.342.054-.69.065-1.045.035a4.592 4.592 0 0 1-1.045-.216 4.357 4.357 0 0 1-1.828-1.183.966.966 0 0 1-.256-.9.91.91 0 0 1 .764-.694c.342-.053.622.048.84.305.303.339.651.575 1.046.709.395.135.805.169 1.228.103.33-.052.631-.166.904-.342.272-.176.5-.392.683-.646a2.509 2.509 0 0 0 .438-1.841 2.322 2.322 0 0 0-.319-.872c-.163-.262-.435-.505-.817-.727-.383-.222-.959-.386-1.729-.491Zm15.004-9.452-3.31 1.063 3.45 10.741a.897.897 0 0 1-.058.712.892.892 0 0 1-.545.461.899.899 0 0 1-.711-.057.903.903 0 0 1-.462-.545l-3.45-10.741-3.309 1.063a.897.897 0 0 1-.712-.058.9.9 0 0 1-.462-.545.902.902 0 0 1 .058-.712.902.902 0 0 1 .545-.461l8.395-2.697a.902.902 0 0 1 .712.058.898.898 0 0 1 .461.545.901.901 0 0 1-.057.712.901.901 0 0 1-.545.461Zm-101.54-72.863v-36.023h1.984v36.023h-1.984Zm148.122 0v-36.023h1.984v36.023h-1.984Z" fill="#00558C"/><path fill-rule="evenodd" clip-rule="evenodd" d="M31.055 21.778c-8.644 6.95-15.623 15.03-20.938 24.24C4.61 55.563 1.248 65.712.032 76.466c-.021.19-.032.38-.032.572v103.924c0 .192.01.382.032.572 1.216 10.756 4.578 20.905 10.085 30.447 5.315 9.211 12.294 17.291 20.937 24.241 8.605 6.918 18.28 12.25 29.027 15.997C71.135 256.073 82.633 258 94.574 258c11.94 0 23.438-1.927 34.493-5.781 10.746-3.746 20.421-9.079 29.026-15.997 8.644-6.951 15.624-15.031 20.938-24.241 5.508-9.544 8.869-19.693 10.085-30.447.021-.19.032-.381.032-.572V77.038c0-.191-.011-.382-.032-.572-1.216-10.756-4.578-20.905-10.085-30.447-5.315-9.211-12.294-17.291-20.938-24.24-8.605-6.92-18.28-12.252-29.026-15.998C118.012 1.927 106.514 0 94.574 0 82.633 0 71.135 1.927 60.08 5.781 49.335 9.528 39.659 14.86 31.054 21.778ZM1.159 76.593c1.198-10.598 4.511-20.601 9.94-30.008 5.244-9.088 12.133-17.062 20.666-23.923 8.503-6.837 18.066-12.107 28.69-15.81C71.387 3.04 82.76 1.133 94.573 1.133c11.813 0 23.186 1.906 34.12 5.717 10.623 3.704 20.186 8.974 28.689 15.811 8.534 6.861 15.422 14.836 20.667 23.923 5.428 9.408 8.741 19.41 9.939 30.008.017.148.025.296.025.445v103.924c0 .149-.008.297-.025.445-1.198 10.599-4.512 20.602-9.939 30.007-5.245 9.088-12.134 17.063-20.667 23.924-8.503 6.836-18.066 12.107-28.689 15.811-10.934 3.811-22.307 5.717-34.12 5.717-11.812 0-23.186-1.906-34.12-5.717-10.623-3.704-20.186-8.974-28.69-15.811-8.533-6.861-15.421-14.836-20.665-23.924-5.429-9.406-8.742-19.409-9.94-30.007a3.966 3.966 0 0 1-.025-.445V77.038c0-.149.008-.297.025-.445Z" fill="#00558C"/><path fill-rule="evenodd" clip-rule="evenodd" d="M33.47 24.782c-8.27 6.648-14.94 14.37-20.015 23.163-5.24 9.08-8.437 18.73-9.593 28.954a1.26 1.26 0 0 0-.008.139v103.924c0 .046.003.091.008.137 1.156 10.224 4.354 19.876 9.593 28.956 5.074 8.792 11.745 16.513 20.015 23.163 8.258 6.64 17.55 11.76 27.88 15.361 10.643 3.711 21.718 5.566 33.224 5.566 11.504 0 22.579-1.855 33.224-5.566 10.326-3.599 19.619-8.719 27.88-15.361 8.268-6.647 14.94-14.368 20.015-23.163 5.24-9.08 8.437-18.732 9.593-28.954.005-.048.007-.095.007-.139V77.038a1.17 1.17 0 0 0-.007-.133c-1.156-10.227-4.354-19.88-9.593-28.96-5.074-8.793-11.746-16.514-20.015-23.163-8.258-6.64-17.551-11.76-27.88-15.361-10.643-3.71-21.718-5.566-33.224-5.566-11.507 0-22.581 1.855-33.224 5.566-10.328 3.6-19.622 8.721-27.88 15.361ZM5.838 77.08c1.13-9.934 4.241-19.315 9.335-28.143 4.951-8.58 11.464-16.116 19.54-22.608 8.08-6.498 17.178-11.51 27.29-15.035 10.432-3.637 21.289-5.456 32.57-5.456 11.283 0 22.14 1.819 32.572 5.456 10.113 3.526 19.21 8.538 27.29 15.035 8.076 6.493 14.589 14.029 19.54 22.608 5.095 8.829 8.207 18.21 9.335 28.142V180.92c-1.129 9.932-4.24 19.313-9.335 28.143-4.952 8.579-11.465 16.115-19.54 22.607-8.083 6.499-17.18 11.511-27.29 15.035-10.434 3.637-21.291 5.456-32.571 5.456-11.283 0-22.14-1.819-32.571-5.456-10.114-3.526-19.21-8.538-27.29-15.035-8.076-6.494-14.59-14.03-19.54-22.607-5.094-8.83-8.206-18.211-9.335-28.144V77.08Z" fill="#00558C"/></svg>