<svg xmlns:mydata="http://www.w3.org/2000/svg" mydata:contrastcolor="ffffff" mydata:template="SingleColorHex1" mydata:presentation="2.5" mydata:layouttype="undefined" mydata:specialfontid="undefined" mydata:id1="008" mydata:id2="027" mydata:companyname="Dagracemarket" mydata:companytagline="trust" version="1.1" xmlns="http://www.w3.org/2000/svg" xmlns:xlink="http://www.w3.org/1999/xlink" viewBox="0 0 550 470"><g fill="#00558c" fill-rule="none" stroke="none" stroke-width="1" stroke-linecap="butt" stroke-linejoin="miter" stroke-miterlimit="10" stroke-dasharray="" stroke-dashoffset="0" font-family="none" font-weight="none" font-size="none" text-anchor="none" style="mix-blend-mode: normal"><g data-paper-data="{&quot;isGlobalGroup&quot;:true,&quot;bounds&quot;:{&quot;x&quot;:183.8512726191157,&quot;y&quot;:106,&quot;width&quot;:182.29745476176865,&quot;height&quot;:258.00000000000006}}"><g data-paper-data="{&quot;fillRule&quot;:&quot;evenodd&quot;,&quot;fillRuleOriginal&quot;:&quot;evenodd&quot;,&quot;isIcon&quot;:true,&quot;iconStyle&quot;:&quot;standalone&quot;,&quot;selectedEffects&quot;:{&quot;container&quot;:&quot;&quot;,&quot;transformation&quot;:&quot;&quot;,&quot;pattern&quot;:&quot;&quot;},&quot;bounds&quot;:{&quot;x&quot;:219.33941352388854,&quot;y&quot;:185.3720663851387,&quot;width&quot;:111.35607435039407,&quot;height&quot;:79.49328196539611},&quot;iconType&quot;:&quot;icon&quot;,&quot;rawIconId&quot;:&quot;101810&quot;,&quot;combineTerms&quot;:&quot;store&quot;,&quot;isDetailed&quot;:false,&quot;suitableAsStandaloneIcon&quot;:true}" fill-rule="evenodd"><path d="M330.69549,207.74885c0,3.05993 -2.48977,5.54969 -5.55093,5.54969c-1.11541,0 -2.1549,-0.32616 -3.02507,-0.89507v46.63085h7.83156v5.83103h-110.18588v-5.83103h7.61869v-46.33706c-0.75191,0.38093 -1.59719,0.60128 -2.49599,0.60128c-2.57691,0 -4.76043,-1.74159 -5.36669,-4.20771l-0.18176,-0.58759v-6.30284h0.58136l7.46432,-11.85378v-4.97455h94.73439v4.76542l8.29342,12.06292h0.17179v0.25022l0.01619,0.92495h-0.01619v3.28774c0.07469,0.36599 0.11079,0.73075 0.11079,1.08554zM320.94183,186.54599h-92.3828v2.95286h92.3828zM253.29361,190.67278l0.22035,0.06224l-3.21802,11.46538h9.2582l-0.08839,-0.01494l1.91836,-11.51268zM320.47873,202.2004h1.64075l6.87424,-0.00125l-6.87051,-9.99143l-0.58759,-0.85399l-0.46932,-0.68095h-6.2045l5.89826,11.38197zM228.56026,190.68647l-1.17517,1.86484l-6.07628,9.64909h8.24486l-0.2801,-0.14192l5.79618,-11.38446h-6.50203zM243.84494,190.67402h-8.14029l0.27885,0.14192l-5.79618,11.38446h9.41007l-0.26391,-0.10457zM252.61639,190.67402h-8.12909l0.26516,0.10333l-4.51146,11.42305h9.37771l-0.22035,-0.06224zM262.18332,190.67402l0.09088,0.01494l-1.91588,11.51144h9.18226l0.60501,-11.52638zM278.89962,190.67402h-7.87389l-0.60626,11.52638h9.19097zM279.781,190.67402l0.71207,11.52638l9.18351,0.00125l-2.02543,-11.5077l0.11204,-0.01992zM296.63797,190.67402h-8.09672l2.02667,11.50895l-0.1083,0.01867h9.27563l-3.32384,-11.46164zM305.44178,190.67402h-8.13034l3.32384,11.46164l-0.22657,0.06473h9.3802l-4.61479,-11.41807zM310.43128,202.2004h9.41132l-5.89951,-11.38072l0.28134,-0.14565h-8.14154l4.61479,11.41931zM220.51458,203.37557v4.81272l0.06847,0.22283c0.32989,2.15116 2.1412,3.711 4.30481,3.711c0.92993,0 1.78516,-0.30126 2.49599,-0.8017c0.21163,-0.14814 0.40583,-0.31371 0.58759,-0.49671c0.22159,-0.22283 0.41828,-0.46807 0.58759,-0.73697c0.31247,-0.49671 0.54028,-1.05691 0.63613,-1.67437l0.07718,-0.49795h1.26107l0.07594,0.49795c0.32989,2.15116 2.1412,3.711 4.30481,3.711c2.16485,0 3.97741,-1.55984 4.3073,-3.711l0.07718,-0.49795h1.26107l0.07594,0.49795c0.32989,2.15116 2.1412,3.711 4.30481,3.711c2.16361,0 3.97367,-1.55984 4.30481,-3.711l0.07594,-0.49795h1.25484l0.07718,0.49795c0.32989,2.15116 2.1412,3.711 4.30605,3.711c2.16485,0 3.97616,-1.55984 4.30605,-3.711l0.07718,-0.49795h1.25609l0.07718,0.49795c0.33114,2.14991 2.14245,3.711 4.30481,3.711c2.16485,0 3.97491,-1.55984 4.30605,-3.711l0.07718,-0.49795h1.26231l0.07718,0.49795c0.32989,2.14991 2.13996,3.70976 4.30481,3.70976c2.16485,0 3.97616,-1.55984 4.30605,-3.711l0.07718,-0.49795h1.26231l0.07718,0.49795c0.33238,2.15116 2.14369,3.711 4.30605,3.711c2.16361,0 3.97367,-1.55984 4.30481,-3.711l0.07718,-0.49795h1.26107l0.07718,0.49795c0.33238,2.15116 2.14369,3.711 4.30605,3.711c2.16361,0 3.97367,-1.55984 4.30356,-3.70976l0.07718,-0.49795h1.26605l0.07718,0.49795c0.33114,2.15116 2.1412,3.711 4.30481,3.711c2.16361,0 3.97491,-1.55984 4.30481,-3.70976l0.07718,-0.49795h1.25609l0.07718,0.49795c0.33238,2.15116 2.14369,3.711 4.3073,3.711c2.16361,0 3.97491,-1.55984 4.30605,-3.711l0.07718,-0.49795h1.26107l0.07718,0.49795c0.0249,0.1469 0.06847,0.28508 0.10457,0.42575c0.12573,0.48675 0.32367,0.93491 0.58883,1.33576c0.17304,0.25894 0.36848,0.49671 0.58883,0.71207c0.78676,0.7656 1.84865,1.23742 3.02507,1.23742c2.41383,0 4.37701,-1.96318 4.37701,-4.37576c0,-0.29379 -0.03237,-0.59879 -0.09586,-0.90628l-0.01369,-0.11951v-3.34749zM258.66404,259.03432h62.26908v-47.66783c-0.32118,-0.37969 -0.59754,-0.8017 -0.81166,-1.26356c-0.88511,1.91712 -2.80597,3.19562 -5.0119,3.19562c-2.20842,0 -4.12679,-1.27725 -5.0119,-3.19437c-0.88636,1.91712 -2.80348,3.19437 -5.01314,3.19437c-2.20718,0 -4.12554,-1.2785 -5.01066,-3.19686c-0.88511,1.91836 -2.80348,3.19686 -5.01314,3.19686c-2.20594,0 -4.1243,-1.27725 -5.00941,-3.19562c-0.88884,1.91836 -2.80348,3.19562 -5.0119,3.19562c-2.20718,0 -4.12554,-1.2785 -5.01066,-3.19562c-0.8876,1.91712 -2.80597,3.19562 -5.01439,3.19562c-2.20842,0 -4.12679,-1.27725 -5.0119,-3.19437c-0.88636,1.91712 -2.80597,3.19437 -5.01314,3.19437c-2.20718,0 -4.12554,-1.27725 -5.0119,-3.19437c-0.88636,1.91712 -2.80472,3.19437 -5.01314,3.19437c-2.20842,0 -4.12679,-1.27725 -5.01314,-3.19437c-0.88636,1.91712 -2.80348,3.19437 -5.0119,3.19437c-2.20842,0 -4.12554,-1.27725 -5.0119,-3.19437c-0.8876,1.91712 -2.80597,3.19437 -5.01439,3.19437c-2.20842,0 -4.12679,-1.27725 -5.0119,-3.19437c-0.32243,0.69589 -0.78303,1.30464 -1.34199,1.80135v47.1288h7.88136v-42.80657h22.22366zM262.63024,215.64141v36.9469h53.14159v-36.9469zM263.80416,216.81534h24.75326v30.57683h-24.75326zM314.59541,247.39341h-24.86282v-30.57807h24.86282zM309.68559,236.7509l0.82909,-0.82909l-14.92242,-14.92242l-0.41579,0.41579l-0.41579,0.41455zM309.57106,232.63158l0.41579,-0.41579l-10.68982,-10.68857l-0.83034,0.83034l10.68982,10.68733zM268.44633,227.82633l-0.83034,0.83034l14.91993,14.92117l0.83158,-0.83158zM268.46251,232.04026l10.68857,10.68857l0.82909,-0.82909l-10.68733,-10.68857zM314.59541,251.41438h-50.79125v-2.84705h50.79125zM220.94034,263.69018h107.83679v-3.48194h-107.83679z" data-paper-data="{&quot;isPathIcon&quot;:true}"></path></g><g fill-rule="nonzero"><path d="M205.54107,153.65479c1.31072,-0.4392 2.27452,-1.27811 2.8914,-2.51673c0.31203,-0.62651 0.49138,-1.25507 0.53806,-1.88566c0.04668,-0.63059 -0.04204,-1.28031 -0.26615,-1.94916c-0.43739,-1.30533 -1.279,-2.26822 -2.52482,-2.88869c-1.24582,-0.62047 -2.5214,-0.71201 -3.82673,-0.27462l-1.63435,0.54764l3.18824,9.51486zM201.77809,142.42467c1.77999,-0.59644 3.51614,-0.47324 5.20844,0.36959c0.84975,0.42321 1.55847,0.95817 2.12614,1.60489c0.56767,0.64672 1.00333,1.42317 1.30697,2.32934c0.59825,1.78538 0.47595,3.52423 -0.36688,5.21653c-0.83925,1.6851 -2.15156,2.82678 -3.93694,3.42503l-2.49199,0.83501c-0.11867,0.03976 -0.23827,0.05434 -0.35882,0.04374c-0.12054,-0.0106 -0.23257,-0.04056 -0.33609,-0.08987c-0.10352,-0.04931 -0.19582,-0.11887 -0.27691,-0.20869c-0.08109,-0.08982 -0.14152,-0.19406 -0.18128,-0.31273l-3.76299,-11.23012c-0.03976,-0.11867 -0.05434,-0.23827 -0.04374,-0.35882c0.0106,-0.12054 0.04236,-0.23168 0.09527,-0.3334c0.05291,-0.10172 0.12427,-0.19313 0.21409,-0.27422c0.08982,-0.08109 0.19406,-0.14152 0.31273,-0.18128z" data-paper-data="{&quot;glyphName&quot;:&quot;D&quot;,&quot;glyphIndex&quot;:0,&quot;firstGlyphOfWord&quot;:true,&quot;word&quot;:1}"></path><path d="M214.95361,151.94885c-0.07184,0.40332 -0.29149,0.65557 -0.65895,0.75678c-0.12614,0.03474 -0.24736,0.04452 -0.36365,0.02935c-0.11629,-0.01518 -0.22515,-0.05158 -0.32657,-0.1092c-0.10143,-0.05762 -0.18843,-0.13249 -0.261,-0.22462c-0.07257,-0.09212 -0.12623,-0.20125 -0.16097,-0.3274c-0.03172,-0.11517 -0.03951,-0.23989 -0.02339,-0.37414l1.28963,-12.54259c0.06373,-0.45419 0.28481,-0.73339 0.66323,-0.83761c0.37843,-0.10422 0.71128,0.02242 0.99856,0.37994l7.52939,10.11375c0.08108,0.10158 0.13824,0.2127 0.17147,0.33336c0.03474,0.12614 0.04452,0.24736 0.02935,0.36365c-0.01518,0.11629 -0.05158,0.22515 -0.1092,0.32657c-0.05762,0.10143 -0.13387,0.1888 -0.22873,0.26213c-0.09486,0.07333 -0.20262,0.12661 -0.32328,0.15984c-0.38391,0.10573 -0.70448,0.00226 -0.96171,-0.31043l-6.20182,-8.34636z" data-paper-data="{&quot;glyphName&quot;:&quot;Λ&quot;,&quot;glyphIndex&quot;:1,&quot;word&quot;:1}"></path><path d="M235.59689,145.2955c0.05017,0.2336 0.0038,0.46466 -0.13912,0.69318c-1.02764,1.25641 -2.32011,2.05186 -3.87742,2.38636c-1.84652,0.39662 -3.56029,0.08397 -5.1413,-0.93795c-1.58101,-1.02192 -2.56982,-2.45614 -2.96644,-4.30266c-0.39542,-1.84096 -0.08218,-3.55194 0.93974,-5.13295c1.02629,-1.58777 2.45991,-2.57936 4.30087,-2.97478c1.57955,-0.33928 3.11786,-0.12567 4.61491,0.64082c0.18679,0.11116 0.30826,0.29744 0.36441,0.55884c0.02748,0.12792 0.03032,0.2495 0.00852,0.36473c-0.0218,0.11523 -0.06436,0.22183 -0.12768,0.3198c-0.06332,0.09797 -0.14444,0.18085 -0.24333,0.24864c-0.0989,0.06779 -0.20953,0.11483 -0.33189,0.14111c-0.22803,0.04898 -0.44896,0.00916 -0.66278,-0.11947c-0.49438,-0.24292 -1.01513,-0.39871 -1.56227,-0.46738c-0.54713,-0.06867 -1.10713,-0.04148 -1.68,0.08157c-1.35708,0.29149 -2.41338,1.02167 -3.16891,2.19053c-0.74679,1.15535 -0.97444,2.41157 -0.68295,3.76865c0.29269,1.36264 1.0167,2.41736 2.17206,3.16415c1.16211,0.75115 2.42449,0.98039 3.78713,0.6877c1.00669,-0.21623 1.85096,-0.67395 2.53281,-1.37315l-0.5555,-2.58624l-2.30259,0.49458c-0.25028,0.05376 -0.47846,0.01404 -0.68453,-0.11916c-0.20607,-0.1332 -0.33599,-0.32494 -0.38975,-0.57522c-0.02628,-0.12236 -0.02882,-0.24255 -0.00762,-0.36056c0.0212,-0.11801 0.06346,-0.226 0.12678,-0.32397c0.06332,-0.09797 0.14304,-0.18055 0.23916,-0.24774c0.09612,-0.06719 0.20814,-0.11453 0.33606,-0.142l3.19526,-0.68632c0.1168,-0.02509 0.23311,-0.02534 0.34894,-0.00076c0.11583,0.02458 0.22273,0.06853 0.3207,0.13185c0.09797,0.06332 0.18224,0.14414 0.25281,0.24244c0.07057,0.0983 0.1184,0.20585 0.14349,0.32265z" data-paper-data="{&quot;glyphName&quot;:&quot;G&quot;,&quot;glyphIndex&quot;:2,&quot;word&quot;:1}"></path><path d="M236.96154,135.25006l0.75363,4.71003l2.35923,-0.37749c0.3258,-0.05213 0.62205,-0.1629 0.88875,-0.33232c0.2667,-0.16942 0.48808,-0.37911 0.66412,-0.62908c0.17604,-0.24997 0.30316,-0.52667 0.38135,-0.83011c0.07819,-0.30344 0.09167,-0.61525 0.04044,-0.93544c-0.05213,-0.3258 -0.1629,-0.62205 -0.33232,-0.88875c-0.16942,-0.2667 -0.37793,-0.48971 -0.62554,-0.66901c-0.24761,-0.1793 -0.52454,-0.30782 -0.83079,-0.38556c-0.30625,-0.07774 -0.61947,-0.091 -0.93965,-0.03977zM236.90363,146.33778l-1.87127,-11.69504c-0.01977,-0.12358 -0.01595,-0.24373 0.01146,-0.36046c0.02741,-0.11673 0.07533,-0.22233 0.14374,-0.31681c0.06842,-0.09448 0.15239,-0.17273 0.25193,-0.23474c0.09954,-0.06201 0.2139,-0.10336 0.3431,-0.12403l3.25237,-0.5204c0.56734,-0.09078 1.1199,-0.06685 1.6577,0.07178c0.53779,0.13863 1.02357,0.36624 1.45733,0.68282c0.43376,0.31658 0.8004,0.70872 1.09991,1.17641c0.29951,0.46769 0.49466,0.9852 0.58543,1.55254c0.05932,0.37074 0.07072,0.73906 0.03421,1.10496c-0.03651,0.36591 -0.1211,0.71934 -0.25378,1.06031c-0.13268,0.34097 -0.31389,0.66665 -0.54363,0.97706c-0.22974,0.31041 -0.50819,0.59548 -0.83533,0.85523l3.37675,3.87553c0.12066,0.142 0.19447,0.29726 0.22143,0.46578c0.02067,0.1292 0.01708,0.25075 -0.01078,0.36467c-0.02786,0.11392 -0.076,0.21812 -0.14442,0.3126c-0.06842,0.09448 -0.1538,0.17295 -0.25614,0.23542c-0.10235,0.06246 -0.21531,0.10358 -0.33889,0.12336c-0.31456,0.05033 -0.59352,-0.05482 -0.83685,-0.31546l-3.73603,-4.28468l-2.5109,0.40176l0.68892,4.3056c0.03955,0.24716 -0.01382,0.47173 -0.16009,0.67373c-0.14627,0.202 -0.34299,0.32277 -0.59014,0.36231c-0.24716,0.03955 -0.47173,-0.01382 -0.67373,-0.16009c-0.202,-0.14627 -0.32277,-0.34299 -0.36231,-0.59014z" data-paper-data="{&quot;glyphName&quot;:&quot;R&quot;,&quot;glyphIndex&quot;:3,&quot;word&quot;:1}"></path><path d="M248.50147,144.94733c-0.13575,0.38652 -0.3931,0.60017 -0.77205,0.64098c-0.13009,0.01401 -0.2513,0.00417 -0.36363,-0.02951c-0.11234,-0.03368 -0.21392,-0.08711 -0.30477,-0.16029c-0.09084,-0.07318 -0.16467,-0.16107 -0.22149,-0.26366c-0.05682,-0.10259 -0.09223,-0.21893 -0.10624,-0.34902c-0.01279,-0.11878 -0.00043,-0.24312 0.03708,-0.37303l3.2896,-12.17203c0.13593,-0.43803 0.39902,-0.67805 0.78929,-0.72007c0.39026,-0.04202 0.69842,0.1365 0.92448,0.53556l5.80522,11.19282c0.06369,0.11329 0.10224,0.23216 0.11563,0.35659c0.01401,0.13009 0.00417,0.2513 -0.02951,0.36363c-0.03368,0.11234 -0.08711,0.21392 -0.16029,0.30477c-0.07318,0.09084 -0.16248,0.16482 -0.2679,0.22195c-0.10542,0.05712 -0.22035,0.09238 -0.34478,0.10578c-0.39592,0.04263 -0.69568,-0.11105 -0.89929,-0.46103l-4.7791,-9.23496z" data-paper-data="{&quot;glyphName&quot;:&quot;Λ&quot;,&quot;glyphIndex&quot;:4,&quot;word&quot;:1}"></path><path d="M268.99737,140.84154c0.12499,-0.00627 0.24268,0.01204 0.35305,0.05492c0.11037,0.04288 0.20874,0.10202 0.29511,0.17743c0.08637,0.07541 0.15648,0.1673 0.21033,0.27567c0.05385,0.10837 0.08391,0.22505 0.09018,0.35004c0.01197,0.23862 -0.07095,0.45922 -0.24876,0.6618c-1.21627,1.07485 -2.61981,1.65216 -4.21064,1.73193c-1.88627,0.09459 -3.52747,-0.48952 -4.92362,-1.75233c-1.39615,-1.26281 -2.14151,-2.83735 -2.2361,-4.72361c-0.0943,-1.88059 0.48995,-3.51895 1.75276,-4.9151c1.26821,-1.40211 2.8426,-2.15032 4.72319,-2.24463c1.61355,-0.08091 3.0975,0.37723 4.45185,1.37443c0.16678,0.14542 0.25672,0.34881 0.26982,0.61016c0.00655,0.13068 -0.01019,0.25113 -0.05023,0.36136c-0.04004,0.11023 -0.09918,0.2086 -0.17743,0.29511c-0.07825,0.08651 -0.17163,0.15527 -0.28014,0.20628c-0.10851,0.05101 -0.22526,0.07965 -0.35026,0.08591c-0.22158,0.01111 -0.43323,-0.06371 -0.63495,-0.22447c-0.44889,-0.31924 -0.93782,-0.55673 -1.4668,-0.71247c-0.52898,-0.15574 -1.08606,-0.21894 -1.67126,-0.18959c-1.38629,0.06952 -2.54625,0.62037 -3.47986,1.65257c-0.92282,1.02026 -1.34947,2.22354 -1.27996,3.60983c0.0698,1.39197 0.61483,2.54937 1.63509,3.47219c1.02623,0.92822 2.23533,1.35743 3.6273,1.28762c1.18744,-0.05955 2.21446,-0.47843 3.08107,-1.25665c0.14259,-0.10968 0.31601,-0.17248 0.52026,-0.18842z" data-paper-data="{&quot;glyphName&quot;:&quot;C&quot;,&quot;glyphIndex&quot;:5,&quot;word&quot;:1}"></path><path d="M279.74445,130.22434c0.12515,0.00044 0.24311,0.02362 0.35387,0.06952c0.11077,0.0459 0.20725,0.11024 0.28944,0.19302c0.08219,0.08278 0.14585,0.17971 0.19096,0.2908c0.04512,0.11109 0.06745,0.22921 0.06701,0.35436c-0.00046,0.13084 -0.02364,0.25022 -0.06954,0.35814c-0.04589,0.10792 -0.11023,0.20298 -0.19301,0.28517c-0.08278,0.08219 -0.17971,0.14585 -0.2908,0.19096c-0.11109,0.04512 -0.22921,0.06745 -0.35436,0.06701l-7.89297,-0.02801c-0.13084,-0.00046 -0.25022,-0.02364 -0.35814,-0.06954c-0.10792,-0.04589 -0.20298,-0.11023 -0.28517,-0.19301c-0.08219,-0.08278 -0.14585,-0.17829 -0.19098,-0.28653c-0.04513,-0.10825 -0.06746,-0.22779 -0.06699,-0.35863c0.00044,-0.12515 0.02362,-0.24311 0.06952,-0.35387c0.0459,-0.11077 0.11024,-0.20725 0.19302,-0.28944c0.08278,-0.08219 0.17829,-0.14585 0.28653,-0.19098c0.10825,-0.04513 0.22779,-0.06746 0.35863,-0.06699zM279.70242,142.06807c0.12515,0.00044 0.24311,0.02362 0.35387,0.06952c0.11077,0.0459 0.20725,0.11024 0.28944,0.19302c0.08219,0.08278 0.14585,0.17971 0.19096,0.2908c0.04512,0.11109 0.06745,0.22921 0.06701,0.35436c-0.00046,0.13084 -0.02364,0.25022 -0.06954,0.35814c-0.04589,0.10792 -0.11023,0.20298 -0.19301,0.28517c-0.08278,0.08219 -0.17971,0.14585 -0.2908,0.19096c-0.11109,0.04512 -0.22921,0.06745 -0.35436,0.06701l-7.89297,-0.02801c-0.13084,-0.00046 -0.25022,-0.02364 -0.35814,-0.06954c-0.10792,-0.04589 -0.20298,-0.11023 -0.28517,-0.19301c-0.08219,-0.08278 -0.14585,-0.17829 -0.19098,-0.28653c-0.04513,-0.10825 -0.06746,-0.22779 -0.06699,-0.35863c0.00044,-0.12515 0.02362,-0.24311 0.06952,-0.35387c0.0459,-0.11077 0.11024,-0.20725 0.19302,-0.28944c0.08278,-0.08219 0.17829,-0.14585 0.28653,-0.19098c0.10825,-0.04513 0.22779,-0.06746 0.35863,-0.06699zM279.0664,136.14388c0.12515,0.00044 0.24311,0.02362 0.35387,0.06952c0.11077,0.0459 0.20725,0.11024 0.28944,0.19302c0.08219,0.08278 0.14585,0.17971 0.19096,0.2908c0.04512,0.11109 0.06745,0.22921 0.06701,0.35436c-0.00046,0.13084 -0.02364,0.25022 -0.06954,0.35814c-0.04589,0.10792 -0.11023,0.20298 -0.19301,0.28517c-0.08278,0.08219 -0.17971,0.14585 -0.2908,0.19096c-0.11109,0.04512 -0.22921,0.06745 -0.35436,0.06701l-6.58743,-0.02337c-0.21046,-0.00644 -0.41209,-0.09533 -0.6049,-0.26667c-0.18145,-0.16562 -0.27171,-0.37926 -0.27078,-0.64094c0.0004,-0.11377 0.02355,-0.22462 0.06944,-0.33254c0.04589,-0.10792 0.10881,-0.20299 0.18874,-0.28519c0.07993,-0.0822 0.17261,-0.14872 0.27803,-0.19954c0.10542,-0.05082 0.22072,-0.07886 0.34589,-0.0841z" data-paper-data="{&quot;glyphName&quot;:&quot;Ξ&quot;,&quot;glyphIndex&quot;:6,&quot;word&quot;:1}"></path><path d="M281.50705,143.00004l0.74143,-11.82057c0.00783,-0.12491 0.03793,-0.24129 0.0903,-0.34915c0.05236,-0.10786 0.12229,-0.20037 0.20978,-0.27753c0.08749,-0.07716 0.18659,-0.13507 0.29731,-0.17372c0.11072,-0.03865 0.23137,-0.05389 0.36196,-0.04569c0.35201,0.02208 0.6087,0.20063 0.77008,0.53564l4.46929,10.5315l5.75023,-9.8905c0.22469,-0.3108 0.50168,-0.45587 0.83098,-0.43521c0.12491,0.00783 0.24129,0.03793 0.34915,0.0903c0.10786,0.05236 0.20037,0.12229 0.27753,0.20978c0.07716,0.08749 0.13498,0.18801 0.17345,0.30157c0.03848,0.11356 0.0538,0.23279 0.04596,0.3577l-0.74143,11.82057c-0.01567,0.24981 -0.11702,0.4572 -0.30407,0.62216c-0.18704,0.16496 -0.40547,0.23961 -0.65528,0.22394c-0.24981,-0.01567 -0.4572,-0.11702 -0.62216,-0.30407c-0.16496,-0.18704 -0.23961,-0.40547 -0.22394,-0.65528l0.50105,-7.98825l-4.75343,8.17467c-0.19488,0.28987 -0.46548,0.42394 -0.81181,0.40222c-0.37472,-0.0235 -0.63868,-0.22246 -0.79189,-0.59686l-3.658,-8.60821l-0.50105,7.98825c-0.01567,0.24981 -0.11702,0.4572 -0.30407,0.62216c-0.18704,0.16496 -0.40547,0.23961 -0.65528,0.22394c-0.24981,-0.01567 -0.4572,-0.11702 -0.62216,-0.30407c-0.16496,-0.18704 -0.23961,-0.40547 -0.22394,-0.65528z" data-paper-data="{&quot;glyphName&quot;:&quot;M&quot;,&quot;glyphIndex&quot;:7,&quot;word&quot;:1}"></path><path d="M297.77919,144.51387c-0.22113,0.34486 -0.52077,0.4935 -0.89893,0.44592c-0.12982,-0.01633 -0.2455,-0.05382 -0.34706,-0.11247c-0.10156,-0.05865 -0.18811,-0.13404 -0.25965,-0.22617c-0.07154,-0.09214 -0.12315,-0.19467 -0.15481,-0.30759c-0.03166,-0.11292 -0.03933,-0.23429 -0.02299,-0.3641c0.01491,-0.11853 0.05558,-0.23668 0.122,-0.35446l6.00464,-11.08711c0.23316,-0.39495 0.54447,-0.56792 0.93391,-0.51892c0.38945,0.049 0.6482,0.29369 0.77627,0.73408l3.07118,12.22896c0.03589,0.12492 0.04602,0.24946 0.03039,0.37364c-0.01633,0.12982 -0.05382,0.2455 -0.11247,0.34706c-0.05865,0.10156 -0.13404,0.18811 -0.22617,0.25965c-0.09214,0.07154 -0.19608,0.12297 -0.31182,0.15428c-0.11574,0.03131 -0.2357,0.03915 -0.35987,0.02353c-0.39509,-0.04971 -0.6514,-0.26829 -0.76892,-0.65576l-2.52359,-10.0874z" data-paper-data="{&quot;glyphName&quot;:&quot;Λ&quot;,&quot;glyphIndex&quot;:8,&quot;word&quot;:1}"></path><path d="M311.66633,135.0188l-0.83857,4.69566l2.35203,0.42003c0.3248,0.058 0.64101,0.05091 0.94861,-0.02129c0.30761,-0.0722 0.58566,-0.19735 0.83417,-0.37545c0.24851,-0.1781 0.45961,-0.39755 0.63332,-0.65835c0.17371,-0.2608 0.28906,-0.5508 0.34607,-0.87001c0.058,-0.3248 0.05091,-0.64101 -0.02129,-0.94861c-0.0722,-0.30761 -0.1957,-0.58681 -0.37049,-0.83762c-0.1748,-0.25081 -0.394,-0.46331 -0.6576,-0.63752c-0.2636,-0.17421 -0.555,-0.28981 -0.87421,-0.34682zM307.96235,145.4697l2.08217,-11.65934c0.022,-0.1232 0.06515,-0.2354 0.12946,-0.3366c0.0643,-0.1012 0.1443,-0.18515 0.24001,-0.25185c0.0957,-0.0667 0.20075,-0.11295 0.31516,-0.13875c0.1144,-0.0258 0.236,-0.0272 0.36481,-0.0042l3.24244,0.57905c0.56561,0.10101 1.07951,0.30547 1.54171,0.61338c0.4622,0.30791 0.846,0.68272 1.1514,1.12443c0.3054,0.44171 0.52255,0.93267 0.65144,1.47288c0.1289,0.54021 0.14284,1.09312 0.04183,1.65872c-0.06601,0.3696 -0.17646,0.72116 -0.33137,1.05466c-0.15491,0.3335 -0.35111,0.6394 -0.58862,0.91771c-0.23751,0.2783 -0.51581,0.5262 -0.83492,0.7437c-0.31911,0.2175 -0.67586,0.39505 -1.07027,0.53264l1.91307,4.77099c0.0672,0.1738 0.0858,0.34471 0.05579,0.51271c-0.023,0.1288 -0.0664,0.2424 -0.13021,0.3408c-0.0638,0.0984 -0.14355,0.18095 -0.23926,0.24765c-0.0957,0.0667 -0.20215,0.1127 -0.31936,0.138c-0.1172,0.0253 -0.2374,0.02695 -0.36061,0.00495c-0.3136,-0.056 -0.5424,-0.24711 -0.6864,-0.57332l-2.11767,-5.2756l-2.50323,-0.44704l-0.76656,4.29245c-0.044,0.2464 -0.16831,0.4409 -0.37291,0.5835c-0.2046,0.1426 -0.43011,0.1919 -0.67651,0.14789c-0.2464,-0.044 -0.4409,-0.16831 -0.5835,-0.37291c-0.1426,-0.2046 -0.1919,-0.43011 -0.14789,-0.67651z" data-paper-data="{&quot;glyphName&quot;:&quot;R&quot;,&quot;glyphIndex&quot;:9,&quot;word&quot;:1}"></path><path d="M320.39044,135.69296c0.05549,-0.24407 0.18876,-0.43254 0.39981,-0.56541c0.21105,-0.13287 0.43862,-0.17156 0.68269,-0.11607c0.24407,0.05549 0.43254,0.18876 0.56541,0.39981c0.13287,0.21105 0.17156,0.43862 0.11607,0.68269l-1.11981,4.92585l6.79116,-4.27537c0.22467,-0.14144 0.45904,-0.18442 0.70312,-0.12893c0.12204,0.02774 0.2321,0.0761 0.33018,0.14507c0.09808,0.06897 0.1782,0.15281 0.24034,0.25153c0.06215,0.09872 0.10312,0.20721 0.1229,0.32546c0.01979,0.11826 0.01581,0.2384 -0.01193,0.36044c-0.05549,0.24407 -0.18876,0.43254 -0.39981,0.56541l-5.35312,3.37718l3.08018,7.0445c0.07563,0.18054 0.09327,0.35957 0.05292,0.53707c-0.02648,0.11649 -0.07452,0.22516 -0.14412,0.32602c-0.0696,0.10085 -0.15268,0.18406 -0.24926,0.24961c-0.09658,0.06555 -0.20324,0.11131 -0.31998,0.13727c-0.11674,0.02596 -0.23614,0.02507 -0.35817,-0.00267c-0.32728,-0.0744 -0.54575,-0.25533 -0.65542,-0.54278l-2.95841,-6.7718l-1.43993,0.90651l-0.93633,4.11875c-0.05549,0.24407 -0.18876,0.43254 -0.39981,0.56541c-0.21105,0.13287 -0.43862,0.17156 -0.68269,0.11607c-0.24407,-0.05549 -0.43254,-0.18876 -0.56541,-0.39981c-0.13287,-0.21105 -0.17156,-0.43862 -0.11607,-0.68269z" data-paper-data="{&quot;glyphName&quot;:&quot;K&quot;,&quot;glyphIndex&quot;:10,&quot;word&quot;:1}"></path><path d="M339.37122,139.55351c0.12055,0.03361 0.22815,0.08723 0.32278,0.16085c0.09463,0.07363 0.1706,0.16124 0.22791,0.26285c0.0573,0.10161 0.09298,0.21195 0.10703,0.33102c0.01405,0.11908 0.00427,0.23889 -0.02934,0.35944c-0.03514,0.12603 -0.08914,0.235 -0.162,0.32689c-0.07286,0.09189 -0.1601,0.16649 -0.26171,0.2238c-0.10161,0.0573 -0.21195,0.09298 -0.33102,0.10703c-0.11908,0.01405 -0.23889,0.00427 -0.35944,-0.02934l-7.60308,-2.11967c-0.12603,-0.03514 -0.235,-0.08914 -0.32689,-0.162c-0.09189,-0.07286 -0.16649,-0.1601 -0.2238,-0.26171c-0.0573,-0.10161 -0.09336,-0.21058 -0.10817,-0.32691c-0.01481,-0.11634 -0.00465,-0.23752 0.03049,-0.36355c0.03361,-0.12055 0.08723,-0.22815 0.16085,-0.32278c0.07363,-0.09463 0.16124,-0.1706 0.26285,-0.22791c0.10161,-0.0573 0.21058,-0.09336 0.32691,-0.10817c0.11634,-0.01481 0.23752,-0.00465 0.36355,0.03049zM336.19057,150.96224c0.12055,0.03361 0.22815,0.08723 0.32278,0.16085c0.09463,0.07363 0.1706,0.16124 0.22791,0.26285c0.0573,0.10161 0.09298,0.21195 0.10703,0.33102c0.01405,0.11908 0.00427,0.23889 -0.02934,0.35944c-0.03514,0.12603 -0.08914,0.235 -0.162,0.32689c-0.07286,0.09189 -0.1601,0.16649 -0.26171,0.2238c-0.10161,0.0573 -0.21195,0.09298 -0.33102,0.10703c-0.11908,0.01405 -0.23889,0.00427 -0.35944,-0.02934l-7.60308,-2.11967c-0.12603,-0.03514 -0.235,-0.08914 -0.32689,-0.162c-0.09189,-0.07286 -0.16649,-0.1601 -0.2238,-0.26171c-0.0573,-0.10161 -0.09336,-0.21058 -0.10817,-0.32691c-0.01481,-0.11634 -0.00465,-0.23752 0.03049,-0.36355c0.03361,-0.12055 0.08723,-0.22815 0.16085,-0.32278c0.07363,-0.09463 0.16124,-0.1706 0.26285,-0.22791c0.10161,-0.0573 0.21058,-0.09336 0.32691,-0.10817c0.11634,-0.01481 0.23752,-0.00465 0.36355,0.03049zM337.14799,145.08143c0.12055,0.03361 0.22815,0.08723 0.32278,0.16085c0.09463,0.07363 0.1706,0.16124 0.22791,0.26285c0.0573,0.10161 0.09298,0.21195 0.10703,0.33102c0.01405,0.11908 0.00427,0.23889 -0.02934,0.35944c-0.03514,0.12603 -0.08914,0.235 -0.162,0.32689c-0.07286,0.09189 -0.1601,0.16649 -0.26171,0.2238c-0.10161,0.0573 -0.21195,0.09298 -0.33102,0.10703c-0.11908,0.01405 -0.23889,0.00427 -0.35944,-0.02934l-6.34549,-1.76906c-0.20122,-0.062 -0.37207,-0.20117 -0.51255,-0.4175c-0.13105,-0.2078 -0.16143,-0.43773 -0.09116,-0.68979c0.03055,-0.10959 0.08226,-0.21034 0.15513,-0.30223c0.07286,-0.09189 0.15873,-0.16687 0.2576,-0.22494c0.09887,-0.05807 0.20586,-0.09763 0.32099,-0.11868c0.11512,-0.02106 0.23373,-0.01752 0.35581,0.01061z" data-paper-data="{&quot;glyphName&quot;:&quot;Ξ&quot;,&quot;glyphIndex&quot;:11,&quot;word&quot;:1}"></path><path d="M350.14233,144.97795l-3.19587,-1.07094l-3.47582,10.37242c-0.07953,0.23733 -0.23092,0.41158 -0.45416,0.52276c-0.22324,0.11118 -0.45353,0.127 -0.69086,0.04747c-0.23733,-0.07953 -0.41158,-0.23092 -0.52276,-0.45416c-0.11118,-0.22324 -0.127,-0.45353 -0.04747,-0.69086l3.47582,-10.37242l-3.19587,-1.07094c-0.23733,-0.07953 -0.41158,-0.23092 -0.52276,-0.45416c-0.11118,-0.22324 -0.127,-0.45353 -0.04747,-0.69086c0.07953,-0.23733 0.23092,-0.41158 0.45416,-0.52276c0.22324,-0.11118 0.45353,-0.127 0.69086,-0.04747l8.10699,2.71667c0.23733,0.07953 0.41158,0.23092 0.52276,0.45416c0.11118,0.22324 0.127,0.45353 0.04747,0.69086c-0.07953,0.23733 -0.23092,0.41158 -0.45416,0.52276c-0.22324,0.11118 -0.45353,0.127 -0.69086,0.04747z" data-paper-data="{&quot;glyphName&quot;:&quot;T&quot;,&quot;glyphIndex&quot;:12,&quot;lastGlyphOfWord&quot;:true,&quot;word&quot;:1}"></path></g><g fill-rule="nonzero"><path d="M253.8948,302.46867c-0.11146,-0.00941 -0.21545,-0.03852 -0.31198,-0.08731c-0.09652,-0.0488 -0.17934,-0.11095 -0.24844,-0.18646c-0.06911,-0.07551 -0.12186,-0.16126 -0.15827,-0.25723c-0.03641,-0.09598 -0.05023,-0.19585 -0.04147,-0.29963c0.00876,-0.10377 0.03922,-0.20088 0.09137,-0.29131c0.05215,-0.09043 0.11862,-0.16708 0.19942,-0.22993c0.08079,-0.06285 0.17286,-0.11024 0.2762,-0.14216c0.10334,-0.03192 0.21074,-0.04317 0.3222,-0.03376l5.2637,0.44451c0.11146,0.00941 0.21545,0.03852 0.31198,0.08731c0.09652,0.0488 0.17934,0.11095 0.24844,0.18646c0.06911,0.07551 0.12178,0.16222 0.15803,0.26012c0.03625,0.0979 0.04999,0.19874 0.04123,0.30251c-0.00876,0.10377 -0.03914,0.19992 -0.09113,0.28843c-0.05199,0.08851 -0.11838,0.16419 -0.19917,0.22705c-0.08079,0.06285 -0.17286,0.11024 -0.2762,0.14216c-0.10334,0.03192 -0.21074,0.04317 -0.3222,0.03376l-1.54509,-0.13048l-0.48346,5.72492c-0.01331,0.15758 -0.05359,0.30225 -0.12084,0.43398c-0.06725,0.13174 -0.15419,0.2444 -0.2608,0.33797c-0.10661,0.09358 -0.22673,0.16375 -0.36036,0.21053c-0.13363,0.04678 -0.27539,0.06384 -0.42529,0.05118c-0.1499,-0.01266 -0.28679,-0.05325 -0.41068,-0.12178c-0.12389,-0.06853 -0.22958,-0.15777 -0.31706,-0.26774c-0.08749,-0.10997 -0.15333,-0.23553 -0.19754,-0.37668c-0.04421,-0.14115 -0.05966,-0.29052 -0.04635,-0.4481l0.48346,-5.72492z" data-paper-data="{&quot;glyphName&quot;:&quot;T&quot;,&quot;glyphIndex&quot;:0,&quot;firstGlyphOfWord&quot;:true,&quot;word&quot;:1}"></path><path d="M264.0195,308.94979c-0.00673,0.158 -0.04095,0.30422 -0.10265,0.43864c-0.06171,0.13443 -0.14387,0.25061 -0.24649,0.34855c-0.10262,0.09794 -0.21971,0.17306 -0.35127,0.22537c-0.13156,0.05231 -0.27249,0.07526 -0.42278,0.06886c-0.15029,-0.0064 -0.28876,-0.04126 -0.4154,-0.10456c-0.12664,-0.0633 -0.23595,-0.14807 -0.32794,-0.2543c-0.09199,-0.10623 -0.16301,-0.22893 -0.21307,-0.36812c-0.05005,-0.13919 -0.07171,-0.28778 -0.06498,-0.44578l0.26445,-6.20832c0.00755,-0.17727 0.04981,-0.33086 0.12676,-0.46078c0.07696,-0.12992 0.17706,-0.23665 0.3003,-0.32019c0.12324,-0.08355 0.26577,-0.14407 0.42759,-0.18158c0.16182,-0.03751 0.33136,-0.05248 0.50863,-0.04493l2.318,0.09874c0.42776,0.01822 0.83699,0.06364 1.22769,0.13627c0.3907,0.07262 0.73209,0.19237 1.02419,0.35924c0.2921,0.16687 0.52191,0.39093 0.68946,0.67217c0.16754,0.28125 0.24196,0.64153 0.22324,1.08085c-0.01018,0.23893 -0.05258,0.46394 -0.1272,0.67503c-0.07462,0.21109 -0.18881,0.39926 -0.34255,0.56451c-0.15375,0.16525 -0.35171,0.30353 -0.59388,0.41482c-0.24217,0.1113 -0.53598,0.18854 -0.88142,0.23174l-0.00098,0.02312c0.24532,0.04134 0.45439,0.0956 0.62718,0.16281c0.1728,0.0672 0.31876,0.15256 0.4379,0.25609c0.11913,0.10352 0.21428,0.22629 0.28545,0.36831c0.07116,0.14202 0.12777,0.30851 0.16983,0.49947c0.04205,0.19097 0.07337,0.40753 0.09394,0.6497c0.02057,0.24217 0.03786,0.51605 0.05187,0.82164c0.0041,0.08511 0.00639,0.16725 0.00688,0.24641c0.00049,0.07917 -0.00091,0.15728 -0.00419,0.23436c-0.00706,0.16571 -0.02896,0.31727 -0.0657,0.45469c-0.03674,0.13742 -0.09578,0.25459 -0.17712,0.3515c-0.08134,0.09691 -0.19064,0.17044 -0.3279,0.22057c-0.13726,0.05013 -0.31187,0.07069 -0.52382,0.06166c-0.19269,-0.00821 -0.35169,-0.05938 -0.47701,-0.15351c-0.12532,-0.09413 -0.22709,-0.22008 -0.30531,-0.37784c-0.07822,-0.15776 -0.13517,-0.33874 -0.17087,-0.54295c-0.0357,-0.20421 -0.06211,-0.4225 -0.07924,-0.65487c-0.02426,-0.33691 -0.05181,-0.61895 -0.08267,-0.84612c-0.03086,-0.22717 -0.08765,-0.412 -0.17038,-0.55451c-0.08273,-0.14251 -0.20475,-0.24615 -0.36607,-0.31094c-0.16132,-0.06478 -0.38457,-0.10325 -0.66974,-0.11539l-1.17345,-0.04999zM265.06607,305.31706c0.2081,0.00886 0.41673,0.0052 0.6259,-0.01098c0.20917,-0.01618 0.39925,-0.06021 0.57025,-0.13207c0.171,-0.07186 0.31177,-0.18168 0.4223,-0.32947c0.11053,-0.14779 0.17122,-0.34886 0.18205,-0.6032c0.01248,-0.29288 -0.02827,-0.51468 -0.12222,-0.66539c-0.09396,-0.15071 -0.22223,-0.2662 -0.38482,-0.34648c-0.16259,-0.08028 -0.35238,-0.13373 -0.56938,-0.16034c-0.217,-0.02662 -0.44303,-0.04493 -0.67811,-0.05494l-0.87286,-0.03718l-0.098,2.30066z" data-paper-data="{&quot;glyphName&quot;:&quot;R&quot;,&quot;glyphIndex&quot;:1,&quot;word&quot;:1}"></path><path d="M276.56506,303.05213c-0.0002,-0.15814 0.02757,-0.30572 0.08333,-0.44272c0.05575,-0.137 0.13178,-0.25667 0.22808,-0.35901c0.0963,-0.10234 0.20902,-0.18252 0.33816,-0.24054c0.12914,-0.05802 0.26893,-0.08713 0.41936,-0.08732c0.15043,-0.00019 0.29029,0.02856 0.41958,0.08625c0.12929,0.05769 0.24318,0.13758 0.34167,0.23968c0.09849,0.10209 0.17579,0.22156 0.23189,0.35842c0.0561,0.13686 0.08426,0.28436 0.08446,0.44251l0.00565,4.43192c0.00065,0.50915 -0.08846,0.95381 -0.26734,1.33397c-0.17887,0.38016 -0.42919,0.69774 -0.75094,0.95272c-0.32175,0.25499 -0.70433,0.44641 -1.14775,0.57426c-0.44342,0.12785 -0.92934,0.19212 -1.45778,0.19279c-0.52072,0.00066 -1.00199,-0.0614 -1.4438,-0.1862c-0.44181,-0.1248 -0.82391,-0.31235 -1.14631,-0.56265c-0.3224,-0.25031 -0.57448,-0.56628 -0.75626,-0.94791c-0.18178,-0.38163 -0.27299,-0.83088 -0.27365,-1.34774l-0.00565,-4.43192c-0.0002,-0.15814 0.02757,-0.30572 0.08333,-0.44272c0.05575,-0.137 0.13178,-0.25667 0.22808,-0.35901c0.0963,-0.10234 0.20902,-0.18252 0.33816,-0.24054c0.12914,-0.05802 0.26893,-0.08713 0.41936,-0.08732c0.15043,-0.00019 0.29029,0.02856 0.41958,0.08625c0.12929,0.05769 0.24318,0.13758 0.34167,0.23968c0.09849,0.10209 0.17579,0.22156 0.23189,0.35842c0.0561,0.13686 0.08426,0.28436 0.08446,0.44251l0.01139,4.39719c0.00035,0.27772 0.04309,0.51681 0.1282,0.71728c0.08511,0.20047 0.19622,0.36426 0.33331,0.49137c0.13709,0.12711 0.29343,0.22141 0.46901,0.28291c0.17558,0.06149 0.35402,0.09212 0.5353,0.09189c0.18515,-0.00024 0.36543,-0.03132 0.54085,-0.09326c0.17542,-0.06194 0.33248,-0.15664 0.47118,-0.28411c0.1387,-0.12746 0.25131,-0.29154 0.33784,-0.49222c0.08653,-0.20068 0.12962,-0.43989 0.12927,-0.7176z" data-paper-data="{&quot;glyphName&quot;:&quot;U&quot;,&quot;glyphIndex&quot;:2,&quot;word&quot;:1}"></path><path d="M283.35015,303.96368c0.00838,0.18496 0.07711,0.33822 0.20617,0.45979c0.12907,0.12157 0.29492,0.22409 0.49755,0.30758c0.20263,0.08348 0.43075,0.15423 0.68436,0.21224c0.2536,0.05801 0.50922,0.11785 0.76685,0.17954c0.41403,0.10479 0.79084,0.21899 1.13044,0.3426c0.33959,0.12361 0.63224,0.27638 0.87795,0.4583c0.24571,0.18192 0.43908,0.40193 0.58013,0.66003c0.14105,0.2581 0.21995,0.5721 0.23672,0.94201c0.01834,0.40459 -0.04511,0.77235 -0.19035,1.10327c-0.14524,0.33092 -0.36298,0.61686 -0.65323,0.85783c-0.29025,0.24096 -0.64551,0.43178 -1.0658,0.57246c-0.42028,0.14068 -0.8963,0.22306 -1.42804,0.24716c-0.27358,0.0124 -0.54983,0.00851 -0.82875,-0.01167c-0.27892,-0.02018 -0.54886,-0.05524 -0.80982,-0.10519c-0.26096,-0.04995 -0.50712,-0.11409 -0.73848,-0.19241c-0.23136,-0.07832 -0.43434,-0.16951 -0.60895,-0.27357c-0.17461,-0.10406 -0.31309,-0.22037 -0.41545,-0.34895c-0.10236,-0.12857 -0.15694,-0.26799 -0.16375,-0.41827c-0.00437,-0.09633 0.01158,-0.19165 0.04785,-0.28596c0.03627,-0.09431 0.08449,-0.18048 0.14466,-0.2585c0.06017,-0.07802 0.12871,-0.14194 0.2056,-0.19176c0.0769,-0.04982 0.15388,-0.07648 0.23094,-0.07997c0.06936,-0.00314 0.13731,0.00536 0.20387,0.02551c0.06655,0.02015 0.13429,0.04507 0.2032,0.07477c0.06892,0.0297 0.13989,0.0622 0.21292,0.0975c0.07303,0.0353 0.1507,0.06653 0.23302,0.09369c0.27129,0.1074 0.5748,0.20176 0.91055,0.28307c0.33574,0.08131 0.68472,0.11376 1.04692,0.09734c0.19652,-0.00891 0.3816,-0.03564 0.55527,-0.08019c0.17366,-0.04455 0.32526,-0.10741 0.45479,-0.18857c0.12953,-0.08116 0.23012,-0.18322 0.30177,-0.30616c0.07165,-0.12294 0.10363,-0.26919 0.09595,-0.43873c-0.00576,-0.12716 -0.03403,-0.23978 -0.08481,-0.33787c-0.05078,-0.09809 -0.11833,-0.18287 -0.20265,-0.25434c-0.08432,-0.07147 -0.1817,-0.1327 -0.29212,-0.18368c-0.11042,-0.05098 -0.22632,-0.09496 -0.34769,-0.13193l-0.26429,-0.08069c-0.05079,-0.01314 -0.0997,-0.02734 -0.14672,-0.04258c-0.04702,-0.01524 -0.09786,-0.02935 -0.1525,-0.04232l-0.30448,-0.07308c-0.0662,-0.01244 -0.12273,-0.02436 -0.16958,-0.03575c-0.04685,-0.01139 -0.08888,-0.023 -0.1261,-0.03483c-0.03722,-0.01183 -0.07347,-0.0237 -0.10876,-0.03561c-0.03529,-0.01191 -0.0764,-0.02453 -0.12334,-0.03785l-0.55195,-0.16611c-0.35641,-0.11126 -0.66299,-0.23058 -0.91973,-0.35794c-0.25675,-0.12736 -0.46804,-0.27417 -0.63388,-0.4404c-0.16584,-0.16624 -0.29135,-0.35843 -0.37653,-0.57659c-0.08518,-0.21816 -0.13441,-0.47366 -0.14768,-0.7665c-0.01746,-0.38532 0.04669,-0.73767 0.19245,-1.05703c0.14576,-0.31936 0.36298,-0.59563 0.65165,-0.8288c0.28867,-0.23317 0.64319,-0.41913 1.06356,-0.55788c0.42037,-0.13875 0.89643,-0.22017 1.42818,-0.24427c0.19266,-0.00873 0.40323,-0.00573 0.63171,0.00901c0.22848,0.01474 0.45752,0.04201 0.68713,0.0818c0.22961,0.03979 0.45121,0.09442 0.66479,0.16389c0.21358,0.06947 0.40369,0.15352 0.57033,0.25215c0.16664,0.09863 0.30214,0.21315 0.40651,0.34356c0.10437,0.13041 0.16031,0.27846 0.16782,0.44415c0.00437,0.09633 -0.00992,0.18579 -0.04286,0.26836c-0.03294,0.08258 -0.07892,0.15416 -0.13796,0.21476c-0.05903,0.06059 -0.12923,0.10914 -0.21059,0.14565c-0.08136,0.03651 -0.16635,0.05677 -0.25498,0.06079c-0.1156,0.00524 -0.2227,-0.015 -0.3213,-0.06073c-0.18529,-0.08427 -0.35745,-0.15562 -0.51648,-0.21405c-0.15903,-0.05843 -0.31656,-0.10535 -0.47261,-0.14075c-0.15605,-0.0354 -0.31639,-0.05902 -0.48103,-0.07087c-0.16464,-0.01184 -0.34521,-0.01331 -0.54173,-0.00441c-0.18496,0.00838 -0.36628,0.03301 -0.54397,0.07388c-0.17769,0.04087 -0.33524,0.10014 -0.47266,0.1778c-0.13741,0.07766 -0.24694,0.17433 -0.32857,0.29c-0.08163,0.11567 -0.11878,0.25443 -0.11145,0.41626z" data-paper-data="{&quot;glyphName&quot;:&quot;S&quot;,&quot;glyphIndex&quot;:3,&quot;word&quot;:1}"></path><path d="M290.46754,302.91315c-0.11146,0.00941 -0.21886,-0.00184 -0.3222,-0.03376c-0.10334,-0.03192 -0.1954,-0.0793 -0.2762,-0.14216c-0.08079,-0.06285 -0.14718,-0.13854 -0.19917,-0.22705c-0.05199,-0.08851 -0.08237,-0.18466 -0.09113,-0.28843c-0.00876,-0.10377 0.00498,-0.20461 0.04123,-0.30251c0.03625,-0.0979 0.08893,-0.1846 0.15803,-0.26012c0.06911,-0.07551 0.15192,-0.13767 0.24844,-0.18646c0.09652,-0.0488 0.20052,-0.0779 0.31198,-0.08731l5.2637,-0.44451c0.11146,-0.00941 0.21886,0.00184 0.3222,0.03376c0.10334,0.03192 0.1954,0.0793 0.2762,0.14216c0.08079,0.06285 0.14726,0.1395 0.19942,0.22993c0.05215,0.09043 0.08261,0.18754 0.09137,0.29131c0.00876,0.10377 -0.00506,0.20365 -0.04147,0.29963c-0.03641,0.09598 -0.08917,0.18172 -0.15827,0.25723c-0.06911,0.07551 -0.15192,0.13767 -0.24844,0.18646c-0.09652,0.0488 -0.20052,0.0779 -0.31198,0.08731l-1.54509,0.13048l0.48346,5.72492c0.01331,0.15758 -0.00214,0.30695 -0.04635,0.4481c-0.04421,0.14115 -0.11102,0.26679 -0.20042,0.37692c-0.08941,0.11013 -0.19606,0.19946 -0.31995,0.26798c-0.12389,0.06853 -0.26078,0.10912 -0.41068,0.12178c-0.1499,0.01266 -0.29166,-0.0044 -0.42529,-0.05118c-0.13363,-0.04678 -0.25278,-0.11704 -0.35747,-0.21078c-0.10469,-0.09374 -0.19066,-0.20648 -0.25791,-0.33822c-0.06725,-0.13174 -0.10753,-0.2764 -0.12084,-0.43398l-0.48346,-5.72492z" data-paper-data="{&quot;glyphName&quot;:&quot;T&quot;,&quot;glyphIndex&quot;:4,&quot;lastGlyphOfWord&quot;:true,&quot;word&quot;:1}"></path></g><g data-paper-data="{&quot;isContainerElementsWrapper&quot;:true}" fill-rule="evenodd"><path d="M183.93618,135.98471c0.06667,2.19839 0.09209,5.48218 0.07628,9.85138c-0.01441,3.98189 0.00151,6.96702 0.04777,8.95537c0.03444,2.53729 0.75082,4.89081 2.14915,7.06055c0.02313,0.03618 0.0493,0.07563 0.0785,0.11836c16.02134,23.30361 17.7416,46.45404 5.1608,69.45131c-0.02392,0.0439 -0.04609,0.0858 -0.06651,0.1257c-5.942,11.56278 -8.27167,23.7576 -6.989,36.58448c1.51037,13.45844 7.20667,27.00194 17.08891,40.63051c15.76872,21.02563 38.87371,39.14817 69.31496,54.36762c0.13024,0.06649 0.26963,0.12907 0.41816,0.18774c0.00244,0.00098 0.00494,0.00196 0.00748,0.00293c0.02982,0.01271 0.05862,0.02396 0.08639,0.03373c1.18324,0.43903 2.40006,0.65317 3.65047,0.64241c1.39229,0.03422 2.70176,-0.20632 3.92841,-0.72162c0.11763,-0.04889 0.23907,-0.10609 0.36433,-0.1716c30.38855,-15.19599 53.44859,-33.2711 69.18011,-54.22535c0.00098,-0.00196 0.00244,-0.00342 0.0044,-0.0044c9.998,-12.68206 15.72106,-26.2637 17.16919,-40.74492c1.39923,-13.01491 -0.93184,-25.21149 -6.99322,-36.58976c-12.07289,-24.47003 -10.38912,-47.63679 5.05131,-69.50029c0.03911,-0.05515 0.07822,-0.11382 0.11734,-0.176l0.00147,-0.00059c1.39043,-2.13698 2.10911,-4.49959 2.15605,-7.08783c0.04693,-1.98073 0.06307,-4.96038 0.0484,-8.93895c-0.01662,-4.36627 0.00831,-7.64977 0.0748,-9.8505c0.55539,-5.15956 -1.56057,-8.62058 -6.34788,-10.38306c-26.72112,-13.06796 -54.95939,-19.60194 -84.71481,-19.60194c-29.76432,0 -58.01064,6.53779 -84.73897,19.61338c-4.7646,1.80453 -6.8727,5.26164 -6.32429,10.37133zM362.75325,161.21722c0.00196,-0.00303 0.00391,-0.00606 0.00587,-0.00909c1.26723,-1.94455 1.92235,-4.09869 1.96538,-6.46243c0.04693,-1.96567 0.06307,-4.93417 0.0484,-8.90551c-0.01662,-4.39932 0.0088,-7.70457 0.07627,-9.91577c0.00098,-0.01574 0.00244,-0.03149 0.0044,-0.04723c0.49574,-4.55352 -1.36648,-7.60225 -5.58666,-9.14619c-0.01956,-0.00733 -0.03911,-0.01564 -0.05867,-0.02493c-26.56085,-12.99474 -54.63045,-19.49212 -84.2088,-19.49212c-29.58656,0 -57.66356,6.50079 -84.23102,19.50238c-0.01727,0.00851 -0.03489,0.01613 -0.05287,0.02288c-4.20398,1.58325 -6.06064,4.6292 -5.56997,9.13783c0.0017,0.01564 0.0028,0.03139 0.00329,0.04723c0.06761,2.21227 0.09347,5.51768 0.07756,9.91621c-0.01437,3.97104 0.00151,6.94922 0.04765,8.93455c0.03129,2.30497 0.68398,4.44601 1.95807,6.42312c0.01654,0.02581 0.03524,0.05397 0.05609,0.08448c16.30339,23.71409 18.0455,47.28747 5.22633,70.72015c-0.0189,0.03461 -0.03646,0.06781 -0.05267,0.09959c-5.83272,11.3503 -8.12017,23.31515 -6.86234,35.89454c1.48661,13.24528 7.10451,26.59126 16.85371,40.03797c15.65113,20.86918 38.61622,38.87341 68.89525,54.01268c0.0924,0.04791 0.19258,0.09338 0.30053,0.1364l0.00352,0.00147c0.01369,0.00489 0.02713,0.01027 0.04033,0.01613c0.01095,0.00489 0.02381,0.00978 0.03857,0.01467c1.04644,0.38819 2.12207,0.5769 3.22689,0.56615h0.02141c1.22284,0.03129 2.37028,-0.17796 3.44234,-0.62775c0.08468,-0.0352 0.1804,-0.08067 0.28718,-0.1364c30.22154,-15.11189 53.14185,-33.07163 68.76093,-53.87921c0.00293,-0.00391 0.00587,-0.00782 0.0088,-0.01173c9.85427,-12.49726 15.4947,-25.87307 16.92131,-40.12743c1.37185,-12.77163 -0.91571,-24.73765 -6.86269,-35.89806c-0.00293,-0.00557 -0.00587,-0.0112 -0.0088,-0.01687c-12.29094,-24.90436 -10.57442,-48.48963 5.14958,-70.75579c0.02347,-0.03217 0.04693,-0.06703 0.0704,-0.10458c0.00196,-0.00244 0.00342,-0.00489 0.0044,-0.00733z" data-paper-data="{&quot;isOuterDoubleOutline&quot;:true}"></path><path d="M191.58813,128.70298c-3.27549,1.19546 -4.70854,3.54296 -4.29914,7.0425c0.07099,2.2376 0.09835,5.60519 0.08208,10.10277c-0.0143,3.95188 0.00136,6.90889 0.04699,8.87104c0.02602,1.91248 0.56457,3.6842 1.61565,5.31517c0.00813,0.01271 0.01691,0.02596 0.02633,0.03975c16.79863,24.43424 18.57716,48.75378 5.33561,72.95863c-0.00821,0.01506 -0.01582,0.02943 -0.02281,0.04312c-5.64201,10.97893 -7.85484,22.55031 -6.63849,34.71414c1.44221,12.84927 6.92922,25.84716 16.46105,38.99368c15.43232,20.57682 38.13497,38.35811 68.10796,53.34386c0.04987,0.02542 0.10086,0.0484 0.15298,0.06893c0.00714,0.00293 0.01432,0.00587 0.02156,0.0088c0.81392,0.30214 1.64984,0.44637 2.50776,0.43268c0.93487,0.02933 1.80306,-0.12418 2.60457,-0.46054c0.03559,-0.01467 0.07495,-0.03325 0.11807,-0.05573c29.96145,-14.98283 52.65026,-32.74847 68.06645,-53.29693c9.60884,-12.17752 15.10554,-25.1891 16.4901,-39.03474c1.32883,-12.36154 -0.88442,-23.9339 -6.63975,-34.71707c-12.68891,-25.68191 -10.92251,-50.00737 5.29919,-72.97637c0.00782,-0.01095 0.01516,-0.02205 0.022,-0.03329l0.01467,-0.02259c1.04429,-1.60271 1.58404,-3.37947 1.61924,-5.33028c0.04693,-1.95775 0.06307,-4.91188 0.0484,-8.86239c-0.01662,-4.49729 0.01027,-7.86474 0.08067,-10.10233c0.41459,-3.53788 -1.02131,-5.88689 -4.3077,-7.04705c-26.30389,-12.89341 -54.10459,-19.34011 -83.40211,-19.34011c-29.30104,0 -57.10481,6.44812 -83.41131,19.34437zM189.34325,135.54367c-0.29781,-2.45526 0.70127,-4.09468 2.99724,-4.91828c0.03619,-0.013 0.07154,-0.02797 0.10606,-0.04488c26.0348,-12.77211 53.55243,-19.15816 82.55289,-19.15816c28.999,0 56.51516,6.38547 82.54849,19.1564c0.03813,0.01868 0.07725,0.03491 0.11734,0.04869c2.2949,0.79436 3.29176,2.43311 2.9906,4.91623c-0.00391,0.03031 -0.00636,0.06072 -0.00733,0.09123c-0.07333,2.26331 -0.10169,5.67026 -0.08507,10.22084c0.01467,3.93183 -0.00049,6.8708 -0.04547,8.81692c-0.02933,1.55597 -0.45859,2.97065 -1.28776,4.24404l-0.0044,0.00572c-16.68645,23.63792 -18.50124,48.66441 -5.44439,75.07947c0.00489,0.00978 0.00978,0.01941 0.01467,0.02889c5.56172,10.41367 7.70017,21.59833 6.41534,33.55398c-1.34545,13.44866 -6.70037,26.10579 -16.06476,37.97139c-0.00587,0.00684 -0.01124,0.01369 -0.01613,0.02053c-15.22415,20.29619 -37.67565,37.86432 -67.35451,52.70438c-0.52645,0.21805 -1.10824,0.31583 -1.74537,0.29334c-0.01907,-0.00098 -0.03818,-0.00098 -0.05735,0c-0.5988,0.01173 -1.18377,-0.08702 -1.75491,-0.29627c-29.67916,-14.84007 -52.12988,-32.40868 -67.35217,-52.70585c-9.31903,-12.85318 -14.6785,-25.51568 -16.07843,-37.98752c-1.17576,-11.75785 0.9646,-22.94671 6.42108,-33.56659c13.64423,-24.94484 11.83048,-49.97911 -5.44125,-75.10279c-0.83674,-1.29881 -1.26555,-2.71354 -1.28643,-4.24419c-0.0452,-1.94357 -0.06069,-4.88211 -0.04645,-8.8156c0.01647,-4.55205 -0.01171,-7.959 -0.08455,-10.22084c-0.00098,-0.03051 -0.00331,-0.06087 -0.00697,-0.09108z" data-paper-data="{&quot;isBaseLogoContainer&quot;:true}"></path></g></g></g><g class="watermark-group" style="opacity:0.040000010281801224"><path class="watermark-path" d="M129.52,370.3a11.88,11.88,0,0,1,2.58,5.58,12,12,0,0,1,.11,3,11.81,11.81,0,0,1-.64,2.93,12.34,12.34,0,0,1-1.41,2.72,11.65,11.65,0,0,1-2.13,2.32,12,12,0,0,1-2.64,1.69,13,13,0,0,1-2.91.9,12.47,12.47,0,0,1-3,.12,12.17,12.17,0,0,1-2.93-.64,11.8,11.8,0,0,1-2.72-1.38,12.19,12.19,0,0,1-4-4.79,11.85,11.85,0,0,1-.89-2.92,12.14,12.14,0,0,1-.13-3,11.54,11.54,0,0,1,.64-2.92,11.67,11.67,0,0,1,3.5-5,11.44,11.44,0,0,1,2.67-1.69,11.64,11.64,0,0,1,2.92-.91,10.71,10.71,0,0,1,3-.12,11.68,11.68,0,0,1,5.66,2,11.7,11.7,0,0,1,2.34,2.12m-1.4,8.76a13,13,0,0,1-1.22,2.32,9.68,9.68,0,0,1-1.81,2,7.44,7.44,0,0,1-2.38,1.37,6.17,6.17,0,0,1-5.11-.46,8.73,8.73,0,0,1-3.85-4.58,6.69,6.69,0,0,1-.34-2.66,6.09,6.09,0,0,1,.77-2.47,7.15,7.15,0,0,1,1.75-2.11,9.58,9.58,0,0,1,1.09-.81,8.23,8.23,0,0,1,1.12-.63,8.14,8.14,0,0,1,1.19-.46,12.71,12.71,0,0,1,1.32-.37l2,2.38a12.83,12.83,0,0,0-1.56.17,7.86,7.86,0,0,0-1.23.32,4.5,4.5,0,0,0-1,.49,6.41,6.41,0,0,0-.93.67,4.49,4.49,0,0,0-1.15,1.39,3.87,3.87,0,0,0-.45,1.58,4.12,4.12,0,0,0,.26,1.63,6.11,6.11,0,0,0,2.36,2.82,4.43,4.43,0,0,0,1.57.53,3.91,3.91,0,0,0,1.62-.17,4.71,4.71,0,0,0,1.57-.89,10.5,10.5,0,0,0,.83-.79,5.71,5.71,0,0,0,.65-.93,10.13,10.13,0,0,0,.54-1.14,12.24,12.24,0,0,0,.44-1.49l2,2.33m-14.46,4.55a8.86,8.86,0,0,0,2.78,2.22,9,9,0,0,0,3.29.94,9.15,9.15,0,0,0,3.39-.37,8.68,8.68,0,0,0,3.11-1.69,8.8,8.8,0,0,0,2.22-2.78,9.15,9.15,0,0,0,1-3.29,8.95,8.95,0,0,0-4.83-8.76,9,9,0,0,0-6.73-.57,9,9,0,0,0-5.33,4.47,8.94,8.94,0,0,0-.57,6.71,8.76,8.76,0,0,0,1.7,3.12"></path><path class="watermark-path" d="M147,349c-.48.12-1.09.31-1.82.57a24.37,24.37,0,0,0-2.4,1A28.35,28.35,0,0,0,140,352a20.72,20.72,0,0,0-2.71,1.94c-.7.59-1.28,1.11-1.74,1.57a15.07,15.07,0,0,0-1.1,1.22,4.09,4.09,0,0,0-.59.92,2.32,2.32,0,0,0-.22.64,1.16,1.16,0,0,0,0,.47,1.83,1.83,0,0,0,.18.29,1.15,1.15,0,0,0,1,.37,5.54,5.54,0,0,0,1.51-.38q.87-.35,1.95-.9l2.26-1.18q1.2-.65,2.49-1.29c.87-.44,1.73-.83,2.59-1.17a18.94,18.94,0,0,1,2.6-.81,9.27,9.27,0,0,1,2.46-.29,6.25,6.25,0,0,1,2.24.49,5.12,5.12,0,0,1,1.89,1.47,6.35,6.35,0,0,1,1.41,2.61,6,6,0,0,1,.09,2.6,8.3,8.3,0,0,1-.9,2.52,17.79,17.79,0,0,1-1.62,2.37,23.92,23.92,0,0,1-2,2.15c-.72.67-1.41,1.29-2.09,1.87a33.79,33.79,0,0,1-5.33,3.7,32.29,32.29,0,0,1-4.91,2.28l-3.61-4.3a21.38,21.38,0,0,0,5.39-1.87,27.2,27.2,0,0,0,5.4-3.56,21.59,21.59,0,0,0,2.38-2.27,8.67,8.67,0,0,0,1.18-1.7,2.32,2.32,0,0,0,.27-1.19,1.34,1.34,0,0,0-.28-.74,1.21,1.21,0,0,0-1-.42,4.32,4.32,0,0,0-1.55.34,15.77,15.77,0,0,0-2,.88c-.72.37-1.48.77-2.27,1.21l-2.45,1.3c-.85.45-1.7.85-2.56,1.21a22.37,22.37,0,0,1-2.54.86,10,10,0,0,1-2.43.32,5.76,5.76,0,0,1-2.2-.45,5,5,0,0,1-1.89-1.45,6.12,6.12,0,0,1-1.31-2.41,6,6,0,0,1-.1-2.41,8.28,8.28,0,0,1,.81-2.38,14.06,14.06,0,0,1,1.49-2.24,22.37,22.37,0,0,1,1.85-2.05q1-1,2-1.77c.7-.59,1.44-1.15,2.23-1.7s1.62-1.06,2.44-1.53,1.63-.91,2.43-1.3,1.58-.75,2.3-1L147,349"></path><path class="watermark-path" d="M186.76,337.57l-10.6-12.63,3.92,18.24-4.66,3.91-17.27-7,10.6,12.63-4.86,4.07-15.09-18,6.59-5.54,18.69,7.52-4.15-19.71,6.57-5.52,15.09,18-4.83,4.05"></path><path class="watermark-path" d="M208.84,313.24l-10,8.42,1.16,4.82L194.56,331l-5.68-25.89,5.42-4.55,24.51,10.09-5.42,4.55-4.55-2m-11.23,3.45,6.57-5.52-8.83-3.87,2.26,9.39"></path><path class="watermark-path" d="M227.49,281.38c-.48.12-1.09.31-1.82.57a24.37,24.37,0,0,0-2.4,1,26.11,26.11,0,0,0-2.7,1.47,20.72,20.72,0,0,0-2.71,1.94c-.7.59-1.28,1.11-1.74,1.57a13.39,13.39,0,0,0-1.1,1.22,4.29,4.29,0,0,0-.59.91,2.48,2.48,0,0,0-.22.65,1.16,1.16,0,0,0,0,.47,1.83,1.83,0,0,0,.18.29,1.15,1.15,0,0,0,1,.37,5.54,5.54,0,0,0,1.51-.38q.87-.34,2-.9l2.26-1.18q1.2-.64,2.49-1.29c.87-.44,1.73-.83,2.59-1.17a18.94,18.94,0,0,1,2.6-.81,9.27,9.27,0,0,1,2.46-.29,6.08,6.08,0,0,1,2.24.49,5.09,5.09,0,0,1,1.89,1.46,6.47,6.47,0,0,1,1.41,2.61,6.07,6.07,0,0,1,.09,2.61,8.3,8.3,0,0,1-.9,2.52,16.32,16.32,0,0,1-1.63,2.36,21.41,21.41,0,0,1-2,2.16c-.72.67-1.41,1.29-2.1,1.86a33.36,33.36,0,0,1-5.32,3.71,31.92,31.92,0,0,1-4.92,2.28l-3.6-4.3a21.38,21.38,0,0,0,5.39-1.87,27.2,27.2,0,0,0,5.4-3.56,21.59,21.59,0,0,0,2.38-2.27,8.67,8.67,0,0,0,1.18-1.7A2.32,2.32,0,0,0,231,293a1.34,1.34,0,0,0-.28-.74,1.21,1.21,0,0,0-1-.42,4.32,4.32,0,0,0-1.55.34,16.54,16.54,0,0,0-2,.88c-.71.37-1.47.77-2.26,1.21l-2.46,1.3c-.84.44-1.7.85-2.55,1.21a24.53,24.53,0,0,1-2.54.86A10,10,0,0,1,214,298a5.76,5.76,0,0,1-2.2-.45,5,5,0,0,1-1.89-1.45,6.12,6.12,0,0,1-1.31-2.41,5.78,5.78,0,0,1-.1-2.41,8,8,0,0,1,.81-2.38,14.61,14.61,0,0,1,1.49-2.25,22.26,22.26,0,0,1,1.85-2q1-1,2-1.77c.7-.59,1.44-1.15,2.23-1.7s1.62-1.06,2.44-1.53,1.63-.91,2.43-1.31,1.58-.74,2.3-1l3.5,4.16"></path><path class="watermark-path" d="M261.64,274.74l-6.29-7.5L243,277.61l6.3,7.5-4.86,4.07-15.09-18,4.85-4.08,5.49,6.55L252,263.3l-5.49-6.55,4.86-4.07,15.09,18-4.86,4.08"></path><path class="watermark-path" d="M272.18,265.9l-15.09-18,4.86-4.08,15.09,18-4.86,4.08"></path><path class="watermark-path" d="M299.65,242.85l-22.51-2.18L287.51,253l-4.85,4.08-15.1-18,5.28-4.43,22.56,2.22L285,224.5l4.83-4.06,15.09,18-5.26,4.42"></path><path class="watermark-path" d="M306.68,205.52a31.88,31.88,0,0,1,5.29-3.66,34.48,34.48,0,0,1,5.14-2.35l3.69,4.39a20.77,20.77,0,0,0-2.37.61,20.47,20.47,0,0,0-2.61,1,25.12,25.12,0,0,0-2.76,1.49,23.9,23.9,0,0,0-2.8,2,20.42,20.42,0,0,0-2.8,2.77,12.77,12.77,0,0,0-1.64,2.52,7,7,0,0,0-.68,2.24,6,6,0,0,0,.66,3.64,8.16,8.16,0,0,0,.94,1.38,9.12,9.12,0,0,0,1.08,1.07,6.39,6.39,0,0,0,1.47.91,6.73,6.73,0,0,0,1.88.48,6.54,6.54,0,0,0,2.28-.18,11.67,11.67,0,0,0,2.74-1.07,19.38,19.38,0,0,0,3.18-2.22c.57-.48,1.06-.92,1.46-1.31a14.57,14.57,0,0,0,1-1.13,11.46,11.46,0,0,0,.81-1.05l.74-1.09-1.82-2.17-5.45,4.57-3.31-3.94,10.31-8.65,7.71,9.19a29,29,0,0,1-1.67,2.43q-1,1.26-2.1,2.52c-.74.84-1.5,1.65-2.3,2.44s-1.58,1.5-2.33,2.14a31,31,0,0,1-3.59,2.61,22.55,22.55,0,0,1-3.64,1.83,15.64,15.64,0,0,1-3.63.89,10.72,10.72,0,0,1-3.49-.15,10.45,10.45,0,0,1-3.28-1.33,12.54,12.54,0,0,1-3-2.67,12,12,0,0,1-2.08-3.44,10.45,10.45,0,0,1-.71-3.5,11.14,11.14,0,0,1,.51-3.51,15.72,15.72,0,0,1,1.56-3.43,21.62,21.62,0,0,1,2.42-3.28,30.3,30.3,0,0,1,3.15-3"></path><path class="watermark-path" d="M336.91,211.59l-15.1-18,4.86-4.08,11.79,14,13.13-11,3.31,3.94-18,15.1"></path><path class="watermark-path" d="M374.54,164.71a12.28,12.28,0,0,1,2.59,4.81,10.44,10.44,0,0,1,0,5,14.62,14.62,0,0,1-2.33,5,25.55,25.55,0,0,1-4.56,4.85,26.07,26.07,0,0,1-5.6,3.67,14.79,14.79,0,0,1-5.38,1.43,10.43,10.43,0,0,1-4.94-.89,13.24,13.24,0,0,1-6.87-8.18,10.48,10.48,0,0,1,0-5,14.51,14.51,0,0,1,2.36-5,25.23,25.23,0,0,1,4.57-4.89,25,25,0,0,1,5.59-3.64,14.45,14.45,0,0,1,5.35-1.43,10.31,10.31,0,0,1,4.93.92,12.22,12.22,0,0,1,4.28,3.38m-4.91,4.11a8.36,8.36,0,0,0-2-1.72,5.5,5.5,0,0,0-2.65-.85,7.72,7.72,0,0,0-3.32.57,14.49,14.49,0,0,0-4,2.52,16.72,16.72,0,0,0-2.38,2.4,10.15,10.15,0,0,0-1.39,2.24,6.71,6.71,0,0,0-.56,2.1,5.69,5.69,0,0,0,.1,1.9,6.21,6.21,0,0,0,.61,1.69,9.85,9.85,0,0,0,1,1.44,10.48,10.48,0,0,0,1.26,1.23,6.67,6.67,0,0,0,1.57.92,6.1,6.1,0,0,0,1.85.41,6.8,6.8,0,0,0,2.15-.2,11.06,11.06,0,0,0,2.45-1,17.67,17.67,0,0,0,2.77-1.94,14.39,14.39,0,0,0,3.18-3.52,7.74,7.74,0,0,0,1.14-3.17,5.54,5.54,0,0,0-.37-2.74,8.52,8.52,0,0,0-1.36-2.3"></path><path class="watermark-path" d="M382.66,141.76A32.3,32.3,0,0,1,388,138.1a34.12,34.12,0,0,1,5.15-2.35l3.69,4.4a19.62,19.62,0,0,0-2.37.6,22.08,22.08,0,0,0-2.61,1,26,26,0,0,0-2.77,1.49,23.9,23.9,0,0,0-2.8,2,21,21,0,0,0-2.8,2.78,13.19,13.19,0,0,0-1.64,2.51,7.29,7.29,0,0,0-.68,2.24,6.36,6.36,0,0,0,.06,2,5.8,5.8,0,0,0,.61,1.68,8.12,8.12,0,0,0,.93,1.38,9.16,9.16,0,0,0,1.08,1.08,6.56,6.56,0,0,0,1.48.9,6,6,0,0,0,1.87.48,6.76,6.76,0,0,0,2.28-.17,12,12,0,0,0,2.74-1.08,18.57,18.57,0,0,0,3.18-2.22c.58-.48,1.06-.92,1.46-1.31s.75-.77,1.05-1.12.57-.72.81-1.06l.73-1.09-1.82-2.17-5.45,4.57-3.3-3.94,10.3-8.65,7.71,9.19a29,29,0,0,1-1.67,2.43q-1,1.26-2.1,2.52c-.73.84-1.5,1.66-2.3,2.44s-1.57,1.5-2.33,2.14a31,31,0,0,1-3.59,2.61,22.15,22.15,0,0,1-3.64,1.83,15.56,15.56,0,0,1-3.62.89,11,11,0,0,1-3.49-.14,10.84,10.84,0,0,1-3.28-1.33,12.82,12.82,0,0,1-3-2.68,12.12,12.12,0,0,1-2.08-3.43A10.71,10.71,0,0,1,375,155a11.18,11.18,0,0,1,.51-3.51,15.51,15.51,0,0,1,1.57-3.43,21.44,21.44,0,0,1,2.42-3.28,30.19,30.19,0,0,1,3.14-3"></path><path class="watermark-path" d="M428.63,119.31a12.26,12.26,0,0,1,2.59,4.82,10.44,10.44,0,0,1,0,5,14.53,14.53,0,0,1-2.34,5,25.29,25.29,0,0,1-4.56,4.86,26,26,0,0,1-5.59,3.67,14.84,14.84,0,0,1-5.38,1.43,10.61,10.61,0,0,1-4.95-.89,12.15,12.15,0,0,1-4.3-3.37,12,12,0,0,1-2.56-4.81,10.48,10.48,0,0,1,0-5,14.39,14.39,0,0,1,2.35-5,27.89,27.89,0,0,1,10.16-8.53,14.49,14.49,0,0,1,5.36-1.43,10.27,10.27,0,0,1,4.92.92,12.21,12.21,0,0,1,4.28,3.37m-4.91,4.12a8.17,8.17,0,0,0-2-1.72,5.58,5.58,0,0,0-2.65-.86,7.86,7.86,0,0,0-3.31.58,14.49,14.49,0,0,0-4,2.52,16.21,16.21,0,0,0-2.38,2.4,9.85,9.85,0,0,0-1.4,2.24,7,7,0,0,0-.56,2.1,6,6,0,0,0,.1,1.9,6.23,6.23,0,0,0,.62,1.69,8.49,8.49,0,0,0,1,1.44,9.18,9.18,0,0,0,1.26,1.23,6.67,6.67,0,0,0,1.57.92,6,6,0,0,0,1.84.41,6.86,6.86,0,0,0,2.16-.2,11.26,11.26,0,0,0,2.45-1,17.62,17.62,0,0,0,2.76-1.94,14.67,14.67,0,0,0,3.19-3.52,7.71,7.71,0,0,0,1.13-3.17,5.53,5.53,0,0,0-.36-2.74,8.55,8.55,0,0,0-1.37-2.3"></path></g></svg>