<svg xmlns:mydata="http://www.w3.org/2000/svg" mydata:contrastcolor="ffffff" mydata:template="SingleColorHex1" mydata:presentation="2.5" mydata:layouttype="undefined" mydata:specialfontid="undefined" mydata:id1="008" mydata:id2="027" mydata:companyname="Dagracemarket" mydata:companytagline="trust" version="1.1" xmlns="http://www.w3.org/2000/svg" xmlns:xlink="http://www.w3.org/1999/xlink" viewBox="0 0 550 470"><g fill="#00558c" fill-rule="evenodd" stroke="none" stroke-width="1" stroke-linecap="butt" stroke-linejoin="miter" stroke-miterlimit="10" stroke-dasharray="" stroke-dashoffset="0" font-family="none" font-weight="none" font-size="none" text-anchor="none" style="mix-blend-mode: normal"><g data-paper-data="{&quot;isGlobalGroup&quot;:true,&quot;bounds&quot;:{&quot;x&quot;:146,&quot;y&quot;:106.00000000000003,&quot;width&quot;:258,&quot;height&quot;:258}}"><g data-paper-data="{&quot;isContainerElementsWrapper&quot;:true}"><path d="M274.99989,106c-71.24478,0 -128.99989,57.75519 -128.99989,128.99989c0,71.24478 57.75511,129.00011 128.99989,129.00011c71.24478,0 129.00011,-57.75532 129.00011,-129.00011c0,-71.2447 -57.75532,-128.99989 -129.00011,-128.99989zM317.32242,203.16849c0,2.32602 -1.89225,4.2187 -4.21914,4.2187c-0.84807,0 -1.63813,-0.24806 -2.29962,-0.68053v35.44577h5.95294v4.43213h-83.75587v-4.43213h5.79146v-35.22238c-0.57187,0.28962 -1.21431,0.45715 -1.89744,0.45715c-1.95892,0 -3.61869,-1.32384 -4.07931,-3.19877l-0.1381,-0.44633v-4.79101h0.44157l5.67414,-9.01058v-3.78146h72.0106v3.62259l6.30403,9.16946h0.13074v0.19005l0.01212,0.70305h-0.01212v2.49919c0.05671,0.27836 0.08398,0.55542 0.08398,0.82513zM309.90842,187.0517h-70.22312v2.2442h70.22312zM309.55646,198.95108h1.24721l5.22522,-0.0013l-5.22219,-7.59453l-0.44676,-0.64936l-0.35672,-0.51733h-4.71612l4.48321,8.6517zM258.48699,190.18856l0.16754,0.04719l-2.44637,8.71533h7.03738l-0.0671,-0.01169l1.45847,-8.75083zM239.68616,190.19895l-0.89309,1.41735l-4.61871,7.33479h6.26723l-0.21299,-0.10823l4.40572,-8.65343h-4.94253zM251.30459,190.18943h-6.18758l0.21169,0.10779l-4.40572,8.65386h7.15296l-0.20044,-0.07966zM257.97226,190.18943h-6.17935l0.20174,0.07836l-3.42951,8.6833h7.12829l-0.16754,-0.04762zM265.24428,190.18943l0.06927,0.01126l-1.45674,8.7504h6.9798l0.46018,-8.76166zM277.95104,190.18943h-5.98541l-0.46062,8.76166h6.98629zM278.62075,190.18943l0.54114,8.76166l6.9811,0.00087l-1.53986,-8.74737l0.08528,-0.01515zM291.43444,190.18943h-6.15467l1.54072,8.74824l-0.08269,0.01429h7.0508l-2.52646,-8.7123zM298.12635,190.18943h-6.18022l2.52689,8.7123l-0.1723,0.04935h7.13002l-3.50787,-8.6794zM301.91907,198.95108h7.15383l-4.48451,-8.65083l0.21386,-0.11082h-6.18844l3.50787,8.68027zM233.57045,199.84418v3.65852l0.05195,0.16927c0.25109,1.6351 1.62774,2.82084 3.27236,2.82084c0.70694,0 1.35674,-0.22901 1.89744,-0.60954c0.16061,-0.11256 0.30823,-0.23853 0.44633,-0.3775c0.1684,-0.16927 0.31819,-0.35585 0.44676,-0.56018c0.23767,-0.3775 0.41083,-0.80348 0.48356,-1.27275l0.05888,-0.37836h0.95846l0.05758,0.37836c0.25065,1.6351 1.62774,2.82084 3.27236,2.82084c1.64549,0 3.02344,-1.18574 3.27409,-2.82084l0.05844,-0.37836h0.95889l0.05758,0.37836c0.25065,1.6351 1.62774,2.82084 3.27236,2.82084c1.64462,0 3.02041,-1.18574 3.27193,-2.82084l0.05801,-0.37836h0.9537l0.05888,0.37836c0.25065,1.6351 1.62731,2.82084 3.2728,2.82084c1.64592,0 3.02257,-1.18574 3.27323,-2.82084l0.05888,-0.37836h0.95457l0.05888,0.37836c0.25152,1.63423 1.62861,2.82084 3.27236,2.82084c1.64549,0 3.02128,-1.18574 3.2728,-2.82084l0.05888,-0.37836h0.95933l0.05888,0.37836c0.25065,1.63423 1.62644,2.81997 3.27236,2.81997c1.64549,0 3.02214,-1.18574 3.2728,-2.82084l0.05888,-0.37836h0.95933l0.05888,0.37836c0.25282,1.6351 1.62947,2.82084 3.27323,2.82084c1.64462,0 3.02041,-1.18574 3.27193,-2.82084l0.05888,-0.37836h0.95846l0.05888,0.37836c0.25239,1.6351 1.62947,2.82084 3.27323,2.82084c1.64462,0 3.02041,-1.18574 3.27106,-2.81997l0.05888,-0.37836h0.96236l0.05844,0.37836c0.25195,1.6351 1.62774,2.82084 3.27236,2.82084c1.64462,0 3.02128,-1.18574 3.27236,-2.81997l0.05844,-0.37836h0.955l0.05844,0.37836c0.25282,1.6351 1.62947,2.82084 3.27409,2.82084c1.64462,0 3.02171,-1.18574 3.27323,-2.82084l0.05888,-0.37836h0.95846l0.05844,0.37836c0.01905,0.11169 0.05238,0.21689 0.07966,0.32382c0.09567,0.3697 0.24589,0.7104 0.44763,1.01517c0.1316,0.19697 0.28009,0.3775 0.44763,0.54157c0.59785,0.58183 1.40522,0.94028 2.29918,0.94028c1.8351,0 3.32734,-1.49224 3.32734,-3.32604c0,-0.22338 -0.02468,-0.45499 -0.07273,-0.68876l-0.01039,-0.09091v-2.54464zM262.56933,242.15242h47.33259v-36.23409c-0.24416,-0.28875 -0.45412,-0.60954 -0.6169,-0.96063c-0.67274,1.45761 -2.13295,2.42949 -3.8096,2.42949c-1.67882,0 -3.1373,-0.97102 -3.81004,-2.42819c-0.67361,1.45717 -2.13078,2.42819 -3.81047,2.42819c-1.67796,0 -3.136,-0.97188 -3.80874,-2.43035c-0.67274,1.45847 -2.13121,2.43035 -3.8109,2.43035c-1.67666,0 -3.1347,-0.97102 -3.80787,-2.42949c-0.67534,1.45847 -2.13078,2.42949 -3.8096,2.42949c-1.67752,0 -3.136,-0.97188 -3.80874,-2.42949c-0.67447,1.45761 -2.13295,2.42949 -3.81134,2.42949c-1.67882,0 -3.1373,-0.97102 -3.81004,-2.42819c-0.67361,1.45717 -2.13295,2.42819 -3.81047,2.42819c-1.67796,0 -3.136,-0.97102 -3.8096,-2.42819c-0.67404,1.45717 -2.13208,2.42819 -3.8109,2.42819c-1.67882,0 -3.13686,-0.97102 -3.81047,-2.42819c-0.67404,1.45717 -2.13121,2.42819 -3.81004,2.42819c-1.67839,0 -3.13556,-0.97102 -3.8096,-2.42819c-0.67447,1.45717 -2.13295,2.42819 -3.81134,2.42819c-1.67882,0 -3.13686,-0.97102 -3.81004,-2.42819c-0.24503,0.52902 -0.59525,0.99136 -1.01993,1.36929v35.82413h5.99103v-32.53878h16.893zM265.58411,209.16775v28.08457h40.39435v-28.08457zM266.47634,210.06041h18.81555v23.24248h-18.81555zM305.08451,233.30375h-18.8991v-23.24334h18.8991zM301.35239,225.21397l0.63032,-0.63032l-11.3431,-11.3431l-0.31602,0.31602l-0.31602,0.31516zM301.26538,222.08274l0.31602,-0.31602l-8.12571,-8.12485l-0.63118,0.63118l8.12571,8.12398zM270.00498,218.42985l-0.63118,0.63118l11.34093,11.34223l0.63248,-0.63205zM270.0171,221.63338l8.12485,8.12441l0.63032,-0.62988l-8.12398,-8.12485zM305.08451,236.36009h-38.60817v-2.16411h38.60817zM233.89427,245.69146h81.97012v-2.64681h-81.97012zM194.10213,260.50173c-1.60077,-1.60047 -3.52505,-2.40092 -5.77293,-2.40092h-3.14704c-0.14983,0 -0.29117,0.029 -0.42403,0.08658c-0.13282,0.05801 -0.24862,0.13463 -0.34737,0.22987c-0.09879,0.09567 -0.1771,0.20953 -0.23503,0.34243c-0.05788,0.1329 -0.08684,0.27403 -0.08684,0.42382v14.18212c0,0.14979 0.02896,0.29135 0.08684,0.42425c0.05792,0.1329 0.13624,0.24676 0.23503,0.342c0.09875,0.09567 0.21455,0.1723 0.34737,0.22987c0.13286,0.05801 0.2742,0.08701 0.42403,0.08701h3.14704c2.25468,0 4.17901,-0.79699 5.77293,-2.39096c1.60077,-1.60047 2.40113,-3.52821 2.40113,-5.78324c0,-1.14432 -0.19924,-2.19153 -0.59772,-3.14162c-0.39849,-0.95024 -0.99963,-1.82731 -1.80341,-2.63122zM200.07927,273.78469c-0.21083,0.44287 -0.5446,0.66408 -1.00119,0.66408c-0.15667,0 -0.2997,-0.02727 -0.42914,-0.08182c-0.1294,-0.05455 -0.24351,-0.13117 -0.34226,-0.22987c-0.09879,-0.0987 -0.17541,-0.21256 -0.22992,-0.342c-0.0545,-0.12944 -0.08173,-0.27273 -0.08173,-0.42945c0,-0.14286 0.03065,-0.28918 0.09195,-0.4394l5.47678,-14.06956c0.21775,-0.50391 0.56192,-0.75586 1.03162,-0.75586c0.47014,0 0.8143,0.25195 1.03206,0.75586l5.47674,14.06956c0.06147,0.14329 0.09178,0.28962 0.09178,0.4394c0,0.15671 -0.02684,0.30001 -0.08139,0.42945c-0.05455,0.12944 -0.13117,0.2433 -0.22987,0.342c-0.09914,0.0987 -0.21472,0.17533 -0.34763,0.22987c-0.1329,0.05455 -0.27403,0.08182 -0.42382,0.08182c-0.47707,0 -0.8143,-0.22136 -1.01171,-0.66408l-4.50616,-11.60717zM226.0322,272.63012c0.22468,-0.23161 0.33724,-0.49049 0.33724,-0.77664v-4.79188c0,-0.14329 -0.029,-0.28096 -0.08701,-0.41386c-0.05801,-0.1329 -0.13637,-0.24849 -0.23507,-0.34763c-0.0987,-0.0987 -0.21299,-0.17706 -0.342,-0.23464c-0.12944,-0.05801 -0.26581,-0.08701 -0.4091,-0.08701h-3.91307c-0.15671,0 -0.30001,0.02727 -0.42901,0.08182c-0.12944,0.05455 -0.24373,0.13117 -0.34243,0.22987c-0.0987,0.0987 -0.17533,0.21429 -0.22987,0.34719c-0.05455,0.1329 -0.08182,0.27446 -0.08182,0.42425c0,0.3065 0.1039,0.56365 0.31169,0.77144c0.2078,0.2078 0.46494,0.31169 0.77144,0.31169h2.81997v3.16717c-0.97405,0.6472 -2.07753,0.97058 -3.31046,0.97058c-1.66887,0 -3.08924,-0.58573 -4.2607,-1.75718c-1.16482,-1.16482 -1.74722,-2.58173 -1.74722,-4.25074c0,-1.66194 0.58226,-3.07539 1.74722,-4.24035c1.17838,-1.17838 2.59876,-1.76757 4.2607,-1.76757c0.70175,0 1.3641,0.10909 1.98749,0.32728c0.62296,0.21775 1.19353,0.53118 1.71129,0.93985c0.21775,0.20433 0.46668,0.3065 0.7459,0.3065c0.14979,0 0.29092,-0.02727 0.42382,-0.08182c0.1329,-0.05455 0.24892,-0.13117 0.34763,-0.22987c0.0987,-0.0987 0.17533,-0.2127 0.22987,-0.342c0.05455,-0.12944 0.08182,-0.27273 0.08182,-0.42945c0,-0.31992 -0.09567,-0.56884 -0.28615,-0.7459c-1.55977,-1.27362 -3.307,-1.91043 -5.24167,-1.91043c-2.25459,0 -4.18234,0.80045 -5.78324,2.40092c-1.59397,1.59397 -2.39096,3.51826 -2.39096,5.77285c0,2.26152 0.79699,4.18927 2.39096,5.78324c1.59397,1.59397 3.52172,2.39096 5.78324,2.39096c1.90711,0 3.62028,-0.60622 5.1395,-1.81865zM228.01449,259.18352c0,-0.14979 0.02727,-0.29092 0.08139,-0.42382c0.05455,-0.1329 0.13117,-0.24849 0.22987,-0.34719c0.09914,-0.09914 0.21299,-0.17576 0.34243,-0.22987c0.12944,-0.05455 0.27273,-0.08182 0.42901,-0.08182h3.94424c0.68789,0 1.33682,0.1329 1.94636,0.39828c0.60954,0.26581 1.14115,0.62685 1.59397,1.08314c0.45282,0.45629 0.81214,0.9892 1.07794,1.59917c0.26581,0.60954 0.39828,1.25847 0.39828,1.94636c0,0.44936 -0.05585,0.88703 -0.1684,1.31301c-0.11256,0.42555 -0.27923,0.82772 -0.50044,1.20565c-0.22165,0.37793 -0.49741,0.72859 -0.82772,1.0524c-0.33031,0.32338 -0.71343,0.6078 -1.14937,0.85326l3.25938,5.22089c0.11559,0.19091 0.1736,0.38832 0.1736,0.59265c0,0.15671 -0.02727,0.30001 -0.08182,0.42945c-0.05455,0.12944 -0.13117,0.2433 -0.22987,0.342c-0.0987,0.0987 -0.21472,0.17533 -0.34719,0.22987c-0.1329,0.05455 -0.27446,0.08182 -0.42425,0.08182c-0.38139,0 -0.69136,-0.17706 -0.92989,-0.53118l-3.60657,-5.77285h-3.04509v5.22089c0,0.30001 -0.10563,0.55542 -0.31646,0.76625c-0.21126,0.21126 -0.46668,0.31689 -0.76668,0.31689c-0.29957,0 -0.55499,-0.10563 -0.76625,-0.31689c-0.21126,-0.21083 -0.31646,-0.46624 -0.31646,-0.76625zM241.37884,274.44877c0.45629,0 0.79006,-0.22122 1.00132,-0.66408l4.51611,-11.60717l4.50616,11.60717c0.19741,0.44272 0.5345,0.66408 1.01128,0.66408c0.15022,0 0.29135,-0.02727 0.42425,-0.08182c0.1329,-0.05455 0.24849,-0.13117 0.34719,-0.22987c0.09914,-0.0987 0.17576,-0.21256 0.22987,-0.342c0.05455,-0.12944 0.08182,-0.27273 0.08182,-0.42945c0,-0.14979 -0.03074,-0.29611 -0.09178,-0.4394l-5.47674,-14.06956c-0.21775,-0.50391 -0.56192,-0.75586 -1.03206,-0.75586c-0.46971,0 -0.81387,0.25195 -1.03162,0.75586l-5.47674,14.06956c-0.06147,0.15022 -0.09221,0.29654 -0.09221,0.4394c0,0.15671 0.02727,0.30001 0.08182,0.42945c0.05455,0.12944 0.13117,0.2433 0.22987,0.342c0.0987,0.0987 0.21299,0.17533 0.34243,0.22987c0.12944,0.05455 0.2723,0.08182 0.42901,0.08182zM267.58718,270.77034c0.14979,0 0.28918,0.029 0.41862,0.08701c0.12944,0.05801 0.24373,0.13463 0.34243,0.22987c0.0987,0.09524 0.17706,0.20953 0.23507,0.34243c0.05801,0.13247 0.08658,0.27403 0.08658,0.42382c0,0.28615 -0.11212,0.54503 -0.3368,0.77664c-1.51922,1.21244 -3.23239,1.81865 -5.1395,1.81865c-2.26152,0 -4.18927,-0.79699 -5.78324,-2.39096c-1.59397,-1.59397 -2.39096,-3.52172 -2.39096,-5.78324c0,-2.25459 0.79699,-4.17888 2.39096,-5.77285c1.6009,-1.60047 3.52865,-2.40092 5.78324,-2.40092c1.93424,0 3.68146,0.63681 5.24167,1.91043c0.19048,0.18399 0.28572,0.43248 0.28572,0.7459c0,0.15671 -0.02684,0.30001 -0.08139,0.42945c-0.05455,0.12901 -0.13117,0.2433 -0.22987,0.342c-0.09914,0.0987 -0.21472,0.17533 -0.34763,0.22987c-0.1329,0.05455 -0.27403,0.08182 -0.42382,0.08182c-0.26581,0 -0.5143,-0.10217 -0.7459,-0.3065c-0.51776,-0.40867 -1.08833,-0.72209 -1.71172,-0.93985c-0.62296,-0.21819 -1.28574,-0.32728 -1.98705,-0.32728c-1.66208,0 -3.08232,0.58919 -4.2607,1.76757c-1.16496,1.16496 -1.74722,2.57841 -1.74722,4.24035c0,1.66901 0.58241,3.08592 1.74722,4.25074c1.17145,1.17145 2.59183,1.75718 4.2607,1.75718c1.42341,0 2.67668,-0.43897 3.75982,-1.31778c0.17706,-0.12251 0.38832,-0.18745 0.63378,-0.19438zM281.07924,258.18263c-0.1329,-0.05455 -0.27403,-0.08182 -0.42382,-0.08182h-9.45128c-0.15671,0 -0.30001,0.02727 -0.42901,0.08182c-0.12944,0.05411 -0.24373,0.13074 -0.34243,0.22987c-0.0987,0.0987 -0.17533,0.21429 -0.22987,0.34719c-0.05455,0.1329 -0.08182,0.27403 -0.08182,0.42382c0,0.15671 0.02727,0.30001 0.08182,0.42945c0.05455,0.12944 0.13117,0.2433 0.22987,0.342c0.0987,0.09914 0.21299,0.17576 0.34243,0.23031c0.12901,0.05411 0.2723,0.08139 0.42901,0.08139h9.45128c0.14979,0 0.29092,-0.02727 0.42382,-0.08139c0.1329,-0.05455 0.24892,-0.13117 0.34763,-0.23031c0.0987,-0.0987 0.17533,-0.21256 0.22987,-0.342c0.05455,-0.12944 0.08182,-0.27273 0.08182,-0.42945c0,-0.14979 -0.02727,-0.29092 -0.08182,-0.42382c-0.05455,-0.1329 -0.13117,-0.24849 -0.22987,-0.34719c-0.0987,-0.09914 -0.21472,-0.17576 -0.34763,-0.22987zM283.24032,259.18352c0,-0.14979 0.02727,-0.29092 0.08182,-0.42382c0.05455,-0.1329 0.13117,-0.24849 0.22987,-0.34719c0.0987,-0.09914 0.21299,-0.17576 0.34243,-0.22987c0.12944,-0.05455 0.2723,-0.08182 0.42901,-0.08182c0.42252,0 0.74244,0.19394 0.96063,0.58226l6.13043,12.25091l6.13043,-12.25091c0.24546,-0.38832 0.56538,-0.58226 0.96063,-0.58226c0.14979,0 0.29092,0.02727 0.42382,0.08182c0.1329,0.05411 0.24892,0.13074 0.34763,0.22987c0.0987,0.0987 0.17533,0.21429 0.22987,0.34719c0.05455,0.1329 0.08182,0.27403 0.08182,0.42382v14.18212c0,0.29986 -0.10563,0.55528 -0.31689,0.76625c-0.21126,0.21126 -0.46668,0.31689 -0.76625,0.31689c-0.30001,0 -0.55542,-0.10563 -0.76625,-0.31689c-0.21126,-0.21083 -0.31689,-0.46624 -0.31689,-0.76625v-9.58418l-5.06807,10.12575c-0.21126,0.36105 -0.52425,0.54157 -0.93985,0.54157c-0.44979,0 -0.7801,-0.21775 -0.99136,-0.65369l-5.01656,-10.01363v9.58418c0,0.29986 -0.10563,0.55528 -0.31689,0.76625c-0.21126,0.21126 -0.46668,0.31689 -0.76625,0.31689c-0.29957,0 -0.55499,-0.10563 -0.76625,-0.31689c-0.21126,-0.21083 -0.31689,-0.46624 -0.31689,-0.76625zM302.27579,274.44877c0.45629,0 0.79006,-0.22122 1.00132,-0.66408l4.51611,-11.60717l4.50616,11.60717c0.19741,0.44272 0.5345,0.66408 1.01128,0.66408c0.14979,0 0.29135,-0.02727 0.42425,-0.08182c0.1329,-0.05455 0.24849,-0.13117 0.34719,-0.22987c0.0987,-0.0987 0.17533,-0.21256 0.22987,-0.342c0.05455,-0.12944 0.08182,-0.27273 0.08182,-0.42945c0,-0.14979 -0.03074,-0.29611 -0.09178,-0.4394l-5.47674,-14.06956c-0.21819,-0.50391 -0.56192,-0.75586 -1.03206,-0.75586c-0.47014,0 -0.81387,0.25195 -1.03206,0.75586l-5.47674,14.06956c-0.06104,0.15022 -0.09178,0.29654 -0.09178,0.4394c0,0.15671 0.02727,0.30001 0.08182,0.42945c0.05455,0.12944 0.13117,0.2433 0.22987,0.342c0.0987,0.0987 0.21299,0.17533 0.34243,0.22987c0.12944,0.05455 0.2723,0.08182 0.42901,0.08182zM315.8856,259.18352c0,-0.14979 0.02727,-0.29092 0.08182,-0.42382c0.05455,-0.1329 0.13117,-0.24849 0.22987,-0.34719c0.0987,-0.09914 0.21299,-0.17576 0.342,-0.22987c0.12944,-0.05455 0.27273,-0.08182 0.42945,-0.08182h3.94381c0.68789,0 1.33682,0.1329 1.94636,0.39828c0.60997,0.26581 1.14115,0.62685 1.59397,1.08314c0.45326,0.45629 0.81257,0.9892 1.07794,1.59917c0.26581,0.60954 0.39871,1.25847 0.39871,1.94636c0,0.44936 -0.05628,0.88703 -0.16883,1.31301c-0.11227,0.42569 -0.27908,0.82758 -0.50044,1.20565c-0.22122,0.37793 -0.49741,0.72859 -0.82772,1.0524c-0.33031,0.32338 -0.71343,0.6078 -1.14937,0.85326l3.25938,5.22089c0.11559,0.19091 0.1736,0.38832 0.1736,0.59265c0,0.15671 -0.02727,0.30001 -0.08182,0.42945c-0.05411,0.12944 -0.13117,0.2433 -0.22987,0.342c-0.0987,0.0987 -0.21429,0.17533 -0.34719,0.22987c-0.1329,0.05455 -0.27403,0.08182 -0.42425,0.08182c-0.38139,0 -0.69136,-0.17706 -0.92946,-0.53118l-3.607,-5.77285h-3.04465v5.22089c0,0.30001 -0.10563,0.55542 -0.31689,0.76625c-0.21126,0.21126 -0.46668,0.31689 -0.76625,0.31689c-0.30001,0 -0.55542,-0.10563 -0.76625,-0.31689c-0.21126,-0.21083 -0.31689,-0.46624 -0.31689,-0.76625zM328.46335,258.41727c-0.21126,0.21126 -0.31646,0.46668 -0.31646,0.76625v14.18212c0,0.30001 0.1052,0.55542 0.31646,0.76625c0.21126,0.21126 0.46668,0.31689 0.76625,0.31689c0.30001,0 0.55542,-0.10563 0.76625,-0.31689c0.21126,-0.21097 0.31689,-0.46639 0.31689,-0.76625v-5.05768l1.44072,-1.44072l5.25206,7.12179c0.20433,0.3065 0.50737,0.45975 0.90911,0.45975c0.14979,0 0.28947,-0.03059 0.41906,-0.09178c0.12944,-0.06147 0.24156,-0.14329 0.33724,-0.24546c0.09524,-0.10217 0.17013,-0.22122 0.22468,-0.35758c0.05455,-0.13637 0.08182,-0.27576 0.08182,-0.41906c0,-0.2179 -0.06811,-0.42223 -0.20433,-0.613l-5.46635,-7.40751l5.35379,-5.36418c0.21126,-0.21126 0.31689,-0.46668 0.31689,-0.76668c0,-0.14979 -0.02727,-0.29092 -0.08182,-0.42382c-0.05455,-0.1329 -0.13117,-0.24849 -0.22987,-0.34719c-0.0987,-0.09914 -0.21472,-0.17576 -0.34763,-0.22987c-0.13247,-0.05455 -0.27403,-0.08182 -0.42382,-0.08182c-0.29957,0 -0.56192,0.11212 -0.7866,0.33724l-6.79495,6.79451v-6.04904c0,-0.29957 -0.10563,-0.55499 -0.31689,-0.76625c-0.21083,-0.21083 -0.46624,-0.31646 -0.76625,-0.31646c-0.29957,0 -0.55499,0.10549 -0.76625,0.31646zM350.95213,258.10081c0.15022,0 0.29135,0.02727 0.42425,0.08182c0.1329,0.05411 0.24849,0.13074 0.34719,0.22987c0.09914,0.0987 0.17576,0.21429 0.22987,0.34719c0.05455,0.1329 0.08182,0.27403 0.08182,0.42382c0,0.15671 -0.02727,0.30001 -0.08182,0.42945c-0.05411,0.12944 -0.13074,0.2433 -0.22987,0.342c-0.0987,0.09914 -0.21429,0.17576 -0.34719,0.23031c-0.1329,0.05411 -0.27403,0.08139 -0.42425,0.08139h-9.45085c-0.15671,0 -0.30001,-0.02727 -0.42945,-0.08139c-0.12944,-0.05455 -0.2433,-0.13117 -0.342,-0.23031c-0.09914,-0.0987 -0.17576,-0.21256 -0.23031,-0.342c-0.05411,-0.12944 -0.08139,-0.27273 -0.08139,-0.42945c0,-0.14979 0.02727,-0.29092 0.08139,-0.42382c0.05455,-0.1329 0.13117,-0.24849 0.23031,-0.34719c0.0987,-0.09914 0.21256,-0.17576 0.342,-0.22987c0.12944,-0.05455 0.27273,-0.08182 0.42945,-0.08182zM360.79173,260.26666h4.03602c0.29957,0 0.55542,-0.10563 0.76625,-0.31646c0.21126,-0.21126 0.31689,-0.46668 0.31689,-0.76668c0,-0.29957 -0.10563,-0.55499 -0.31689,-0.76625c-0.21097,-0.21097 -0.46639,-0.31646 -0.76625,-0.31646h-10.23788c-0.29986,0 -0.55528,0.10549 -0.76625,0.31646c-0.21126,0.21126 -0.31689,0.46668 -0.31689,0.76625c0,0.30001 0.10563,0.55542 0.31689,0.76668c0.21083,0.21083 0.46624,0.31646 0.76625,0.31646h4.03602v13.09898c0,0.30001 0.10563,0.55542 0.31646,0.76625c0.21126,0.21126 0.46668,0.31689 0.76625,0.31689c0.30001,0 0.55542,-0.10563 0.76668,-0.31689c0.21083,-0.21083 0.31646,-0.46624 0.31646,-0.76625zM192.5695,270.52531c-1.17163,1.17145 -2.58508,1.75718 -4.24031,1.75718h-2.06394v-12.01584h2.06394c1.64843,0 3.06187,0.58919 4.24031,1.76757c1.17842,1.17881 1.76761,2.59226 1.76761,4.24035c0,0.84461 -0.14645,1.61605 -0.43932,2.31433c-0.29291,0.69828 -0.73569,1.34375 -1.3283,1.9364zM230.18034,260.26666v5.71181h2.8611c0.39481,0 0.76625,-0.07489 1.11344,-0.22468c0.34763,-0.14979 0.64893,-0.35585 0.90435,-0.61819c0.25542,-0.26234 0.45816,-0.56552 0.60824,-0.90954c0.14979,-0.34373 0.22468,-0.70997 0.22468,-1.09829c0,-0.3951 -0.07489,-0.76639 -0.22468,-1.11388c-0.15022,-0.34719 -0.35455,-0.65023 -0.61343,-0.90911c-0.25859,-0.25888 -0.56163,-0.46321 -0.90911,-0.613c-0.34763,-0.15022 -0.71517,-0.22511 -1.10349,-0.22511zM318.05188,260.26666v5.71181h2.86067c0.39525,0 0.76625,-0.07489 1.11388,-0.22468c0.34719,-0.14979 0.64893,-0.35585 0.90435,-0.61819c0.25542,-0.26234 0.45802,-0.56552 0.6078,-0.90954c0.14979,-0.34373 0.22468,-0.70997 0.22468,-1.09829c0,-0.39525 -0.07489,-0.76625 -0.22468,-1.11388c-0.14979,-0.34719 -0.35412,-0.65023 -0.613,-0.90911c-0.25888,-0.25888 -0.56192,-0.46321 -0.90954,-0.613c-0.34719,-0.15022 -0.71517,-0.22511 -1.10349,-0.22511zM280.29264,265.27325c-0.1329,-0.05411 -0.27403,-0.08139 -0.42425,-0.08139h-7.88761c-0.15008,0.00664 -0.28803,0.04069 -0.41386,0.10217c-0.12598,0.06104 -0.2368,0.14113 -0.33204,0.23983c-0.09567,0.0987 -0.17057,0.21299 -0.22511,0.34243c-0.05411,0.12944 -0.08139,0.26234 -0.08139,0.39828c0,0.31343 0.10866,0.56884 0.32685,0.76668c0.23161,0.20433 0.47317,0.30953 0.72556,0.31646h7.88761c0.15022,0 0.29135,-0.02727 0.42425,-0.08182c0.1329,-0.05411 0.24849,-0.13074 0.34719,-0.22987c0.09914,-0.0987 0.17576,-0.21256 0.22987,-0.342c0.05455,-0.12944 0.08182,-0.27273 0.08182,-0.42945c0,-0.14979 -0.02727,-0.29092 -0.08182,-0.42382c-0.05411,-0.1329 -0.13074,-0.24849 -0.22987,-0.34763c-0.0987,-0.0987 -0.21429,-0.17533 -0.34719,-0.22987zM350.16554,265.19187c0.14979,0 0.29135,0.02727 0.42425,0.08139c0.13247,0.05455 0.24849,0.13117 0.34719,0.22987c0.0987,0.09914 0.17533,0.21472 0.22987,0.34763c0.05455,0.1329 0.08182,0.27403 0.08182,0.42382c0,0.15671 -0.02727,0.30001 -0.08182,0.42945c-0.05455,0.12944 -0.13117,0.2433 -0.22987,0.342c-0.0987,0.09914 -0.21472,0.17576 -0.34719,0.22987c-0.1329,0.05455 -0.27446,0.08182 -0.42425,0.08182h-7.88804c-0.25195,-0.00693 -0.49395,-0.11212 -0.72512,-0.31646c-0.21819,-0.19784 -0.32728,-0.45326 -0.32728,-0.76668c0,-0.13593 0.02727,-0.26884 0.08182,-0.39828c0.05455,-0.12944 0.12944,-0.24373 0.22468,-0.34243c0.09567,-0.0987 0.20606,-0.17879 0.33204,-0.23983c0.12612,-0.06147 0.26407,-0.09553 0.41386,-0.10217zM281.07924,272.36431c-0.1329,-0.05455 -0.27403,-0.08182 -0.42382,-0.08182h-9.45128c-0.15671,0 -0.30001,0.02727 -0.42901,0.08182c-0.12944,0.05455 -0.24373,0.13117 -0.34243,0.22987c-0.0987,0.0987 -0.17533,0.21472 -0.22987,0.34763c-0.05455,0.1329 -0.08182,0.27403 -0.08182,0.42382c0,0.15671 0.02727,0.30001 0.08182,0.42945c0.05455,0.12944 0.13117,0.2433 0.22987,0.342c0.0987,0.0987 0.21299,0.17533 0.34243,0.22987c0.12901,0.05455 0.2723,0.08182 0.42901,0.08182h9.45128c0.14979,0 0.29092,-0.02727 0.42382,-0.08182c0.1329,-0.05455 0.24892,-0.13117 0.34763,-0.22987c0.0987,-0.0987 0.17533,-0.21256 0.22987,-0.342c0.05455,-0.12944 0.08182,-0.27273 0.08182,-0.42945c0,-0.14979 -0.02727,-0.29092 -0.08182,-0.42382c-0.05455,-0.1329 -0.13117,-0.24892 -0.22987,-0.34763c-0.0987,-0.0987 -0.21472,-0.17533 -0.34763,-0.22987zM350.95213,272.28249c0.15022,0 0.29135,0.02727 0.42425,0.08182c0.1329,0.05455 0.24849,0.13117 0.34719,0.22987c0.09914,0.0987 0.17576,0.21472 0.22987,0.34763c0.05455,0.1329 0.08182,0.27403 0.08182,0.42382c0,0.15671 -0.02727,0.30001 -0.08182,0.42945c-0.05411,0.12944 -0.13074,0.2433 -0.22987,0.342c-0.0987,0.0987 -0.21429,0.17533 -0.34719,0.22987c-0.1329,0.05455 -0.27403,0.08182 -0.42425,0.08182h-9.45085c-0.15671,0 -0.30001,-0.02727 -0.42945,-0.08182c-0.12944,-0.05455 -0.2433,-0.13117 -0.342,-0.22987c-0.09914,-0.0987 -0.17576,-0.21256 -0.23031,-0.342c-0.05411,-0.12944 -0.08139,-0.27273 -0.08139,-0.42945c0,-0.14979 0.02727,-0.29092 0.08139,-0.42382c0.05455,-0.1329 0.13117,-0.24892 0.23031,-0.34763c0.0987,-0.0987 0.21256,-0.17533 0.342,-0.22987c0.12944,-0.05455 0.27273,-0.08182 0.42945,-0.08182zM287.77505,280.73462c-0.0645,-0.06667 -0.09697,-0.14849 -0.09697,-0.24503c0,-0.08456 0.02266,-0.15614 0.06797,-0.21472c0.04546,-0.05844 0.1052,-0.1065 0.17879,-0.14373c0.07359,-0.03723 0.15715,-0.0645 0.25109,-0.08182c0.09351,-0.01688 0.18875,-0.02554 0.28572,-0.02554c0.1026,0 0.19697,0.00519 0.28269,0.01515c0.08572,0.00996 0.16883,0.02641 0.24936,0.04849c0.08095,0.02208 0.16191,0.05022 0.24373,0.08442c0.08139,0.03463 0.1697,0.07576 0.26451,0.12425c0.05051,0.02626 0.10592,0.03939 0.16624,0.03939c0.04632,0 0.09134,-0.00866 0.13463,-0.02597c0.04329,-0.01688 0.08139,-0.04069 0.11342,-0.071c0.03247,-0.0303 0.05801,-0.06667 0.07706,-0.10866c0.01905,-0.04243 0.029,-0.08875 0.029,-0.1394c0,-0.08658 -0.02597,-0.16537 -0.07749,-0.23594c-0.05108,-0.07056 -0.11948,-0.13334 -0.2039,-0.18875c-0.08485,-0.05541 -0.18182,-0.1039 -0.29178,-0.14546c-0.10996,-0.04113 -0.22425,-0.07489 -0.3433,-0.1013c-0.11905,-0.02597 -0.2381,-0.04589 -0.35715,-0.05888c-0.11862,-0.01299 -0.22858,-0.01948 -0.32944,-0.01948c-0.27836,0 -0.52902,0.03117 -0.75153,0.09351c-0.22295,0.06277 -0.41256,0.15109 -0.56884,0.26624c-0.15628,0.11472 -0.2762,0.25412 -0.35975,0.41732c-0.08355,0.16321 -0.12554,0.34589 -0.12554,0.54763c0,0.15325 0.01963,0.28774 0.05888,0.40347c0.03939,0.11602 0.10044,0.21949 0.18312,0.30996c0.08269,0.09091 0.18961,0.17273 0.32079,0.24503c0.13074,0.07273 0.28832,0.14243 0.47144,0.20866l0.28442,0.1c0.02424,0.00779 0.04546,0.01558 0.06364,0.02251c0.01818,0.00736 0.0368,0.01429 0.05585,0.02121c0.01905,0.00693 0.04069,0.01429 0.06494,0.02121c0.02424,0.00693 0.05368,0.01472 0.08788,0.02251l0.15715,0.04546c0.02814,0.00823 0.05455,0.01688 0.07879,0.02597c0.02424,0.00909 0.04935,0.01732 0.07533,0.02554l0.13637,0.04849c0.06234,0.02208 0.12208,0.04762 0.17836,0.07706c0.05628,0.029 0.10606,0.06364 0.14806,0.1026c0.04243,0.03939 0.07576,0.08528 0.1,0.13767c0.02424,0.05238 0.03636,0.11212 0.03636,0.17879c0,0.08831 -0.02035,0.16407 -0.06061,0.22641c-0.04026,0.06277 -0.09524,0.11342 -0.16494,0.15282c-0.06927,0.03939 -0.15022,0.06883 -0.242,0.08788c-0.09178,0.01905 -0.18875,0.02857 -0.29178,0.02857c-0.18961,0 -0.371,-0.02511 -0.54417,-0.07533c-0.1736,-0.05065 -0.32988,-0.10693 -0.46884,-0.1697c-0.04243,-0.01602 -0.08225,-0.0342 -0.11948,-0.05411c-0.03723,-0.02035 -0.07359,-0.03896 -0.10909,-0.05628c-0.03507,-0.01688 -0.07013,-0.0316 -0.10433,-0.04372c-0.0342,-0.01212 -0.06927,-0.01818 -0.10563,-0.01818c-0.04026,0 -0.08139,0.01212 -0.12251,0.03636c-0.04156,0.02424 -0.07879,0.05585 -0.11212,0.09524c-0.0329,0.03939 -0.06017,0.08312 -0.08139,0.1316c-0.02121,0.04849 -0.03204,0.09784 -0.03204,0.14806c0,0.07879 0.02554,0.15282 0.07576,0.22252c0.05022,0.06927 0.11992,0.13334 0.20866,0.19178c0.08875,0.05844 0.19264,0.11126 0.31169,0.15758c0.11891,0.04618 0.24589,0.08543 0.38096,0.11775c0.13507,0.03247 0.27533,0.05714 0.42036,0.07403c0.14502,0.01732 0.28918,0.02597 0.43248,0.02597c0.27836,0 0.52858,-0.03204 0.75153,-0.09524c0.22295,-0.06364 0.413,-0.15498 0.57014,-0.27403c0.15715,-0.11862 0.27793,-0.26278 0.36148,-0.43248c0.08355,-0.16927 0.12554,-0.35975 0.12554,-0.57144c0,-0.19351 -0.03377,-0.35931 -0.1013,-0.49741c-0.06753,-0.1381 -0.16321,-0.25758 -0.28745,-0.35845c-0.12381,-0.10087 -0.27317,-0.18745 -0.44763,-0.26018c-0.17446,-0.07273 -0.36841,-0.14113 -0.58226,-0.20563c-0.1329,-0.03853 -0.26494,-0.07576 -0.39611,-0.11212c-0.13103,-0.03608 -0.24849,-0.07836 -0.35239,-0.12684c-0.1039,-0.04849 -0.18788,-0.10563 -0.25239,-0.1723zM248.3673,280.10993c0.05238,0.02121 0.10779,0.03204 0.16624,0.03204h0.82902v3.00309c0,0.08269 0.01429,0.15974 0.04372,0.23117c0.029,0.07186 0.06883,0.1342 0.11948,0.18745c0.05022,0.05368 0.10953,0.09567 0.17706,0.12554c0.06753,0.0303 0.14026,0.04546 0.21905,0.04546c0.07879,0 0.15195,-0.01515 0.21949,-0.04546c0.06753,-0.02987 0.12684,-0.07186 0.17836,-0.12554c0.05152,-0.05325 0.09178,-0.11559 0.12078,-0.18745c0.02944,-0.07143 0.04372,-0.14849 0.04372,-0.23117v-3.00309h0.81084c0.05844,0 0.11386,-0.01082 0.16624,-0.03204c0.05238,-0.02121 0.09827,-0.04978 0.13767,-0.08615c0.03925,-0.03636 0.07042,-0.07865 0.09351,-0.12684c0.02338,-0.04849 0.03507,-0.1 0.03507,-0.15455c0,-0.05411 -0.01169,-0.10606 -0.03507,-0.15541c-0.02309,-0.04964 -0.05426,-0.0925 -0.09351,-0.12857c-0.03939,-0.03636 -0.08528,-0.06537 -0.13767,-0.08615c-0.05238,-0.02121 -0.10779,-0.03204 -0.16624,-0.03204h-2.76153c-0.05844,0 -0.11386,0.01082 -0.16624,0.03204c-0.05238,0.02078 -0.09827,0.04978 -0.13767,0.08615c-0.03925,0.03608 -0.07042,0.07893 -0.09351,0.12857c-0.02338,0.04935 -0.03507,0.1013 -0.03507,0.15541c0,0.05455 0.01169,0.10606 0.03507,0.15455c0.02309,0.0482 0.05426,0.09048 0.09351,0.12684c0.03939,0.03636 0.08528,0.06494 0.13767,0.08615zM261.6152,283.37623c0.02944,-0.07143 0.04416,-0.14849 0.04416,-0.23117v-1.21907h0.61387c0.14892,0 0.26667,0.01515 0.35239,0.04546c0.08572,0.0303 0.15152,0.08182 0.19784,0.15412c0.04632,0.07273 0.08009,0.16797 0.1013,0.28615c0.02121,0.11775 0.04199,0.26451 0.06234,0.43984c0.01385,0.12121 0.03247,0.23464 0.05585,0.34027c0.02294,0.10606 0.05671,0.19914 0.1013,0.27966c0.04416,0.08095 0.1,0.14416 0.16797,0.19091c0.06753,0.04632 0.15152,0.06927 0.25239,0.06927c0.11082,0 0.20174,-0.01472 0.2723,-0.04372c0.07056,-0.02944 0.12598,-0.07013 0.16624,-0.12251c0.04026,-0.05238 0.0684,-0.11515 0.08442,-0.18745c0.01645,-0.07273 0.02424,-0.15238 0.02424,-0.23897c0,-0.04026 -0.00087,-0.08139 -0.00303,-0.12251c-0.00173,-0.04156 -0.00476,-0.08442 -0.00909,-0.12857c-0.01385,-0.15931 -0.029,-0.30174 -0.04502,-0.42815c-0.01645,-0.12598 -0.03766,-0.2381 -0.06364,-0.3368c-0.02641,-0.09914 -0.05931,-0.18485 -0.1,-0.25715c-0.04026,-0.07273 -0.09264,-0.13463 -0.15715,-0.18615c-0.0645,-0.05152 -0.14243,-0.09264 -0.2342,-0.12381c-0.09178,-0.0316 -0.20217,-0.05498 -0.33118,-0.07143v-0.01212c0.17922,-0.02987 0.33118,-0.07706 0.45499,-0.14026c0.12425,-0.06364 0.22425,-0.14026 0.30087,-0.22987c0.07662,-0.09005 0.13204,-0.19048 0.16624,-0.3026c0.03463,-0.11169 0.05152,-0.23031 0.05152,-0.35542c0,-0.22973 -0.0469,-0.41617 -0.1407,-0.55932c-0.09351,-0.14329 -0.21862,-0.25498 -0.3749,-0.33594c-0.15628,-0.08052 -0.33724,-0.1355 -0.54287,-0.16494c-0.20563,-0.029 -0.42036,-0.04372 -0.64417,-0.04372h-1.21258c-0.09308,0 -0.18139,0.01169 -0.26494,0.03507c-0.08355,0.02294 -0.15671,0.05758 -0.21905,0.10433c-0.06277,0.04632 -0.11256,0.10433 -0.14979,0.1736c-0.03723,0.0697 -0.05585,0.15065 -0.05585,0.24373v3.24812c0,0.08269 0.01429,0.15974 0.04372,0.23117c0.029,0.07186 0.06883,0.1342 0.11948,0.18745c0.05022,0.05368 0.10953,0.09567 0.17706,0.12554c0.06753,0.0303 0.14026,0.04546 0.21905,0.04546c0.07879,0 0.15195,-0.01515 0.21949,-0.04546c0.06753,-0.02987 0.12684,-0.07186 0.17836,-0.12554c0.05152,-0.05325 0.09178,-0.11559 0.12078,-0.18745zM276.10641,279.92984c0,-0.08225 0.01429,-0.15974 0.04372,-0.23117c0.029,-0.07143 0.06883,-0.1342 0.11948,-0.18745c0.05022,-0.05368 0.10953,-0.09524 0.17706,-0.12554c0.06753,-0.0303 0.14026,-0.04546 0.21905,-0.04546c0.07879,0 0.15195,0.01515 0.21949,0.04546c0.06753,0.0303 0.12684,0.07186 0.17836,0.12554c0.05152,0.05325 0.09178,0.11602 0.12078,0.18745c0.02944,0.07143 0.04416,0.14892 0.04416,0.23117v2.31693c0,0.26624 -0.04719,0.49871 -0.1407,0.69698c-0.09394,0.19871 -0.22511,0.36451 -0.39351,0.49741c-0.16797,0.13334 -0.36841,0.23291 -0.60001,0.29957c-0.23204,0.06667 -0.48616,0.1 -0.76235,0.1c-0.2723,0 -0.52382,-0.0329 -0.75456,-0.09827c-0.23089,-0.06551 -0.43046,-0.16393 -0.59871,-0.29524c-0.1684,-0.13074 -0.30001,-0.29611 -0.39481,-0.49568c-0.09481,-0.19957 -0.14199,-0.43464 -0.14199,-0.70478v-2.31693c0,-0.08225 0.01472,-0.15974 0.04372,-0.23117c0.02944,-0.07143 0.06927,-0.1342 0.11948,-0.18745c0.05022,-0.05368 0.10953,-0.09524 0.17706,-0.12554c0.06753,-0.0303 0.1407,-0.04546 0.21905,-0.04546c0.07879,0 0.15195,0.01515 0.21949,0.04546c0.06753,0.0303 0.12684,0.07186 0.17836,0.12554c0.05152,0.05325 0.09178,0.11602 0.12078,0.18745c0.02944,0.07143 0.04416,0.14892 0.04416,0.23117l0.00303,2.29875c0,0.14502 0.02208,0.27014 0.06624,0.3749c0.04459,0.10476 0.1026,0.19048 0.17403,0.25715c0.07157,0.06667 0.15325,0.11602 0.24503,0.14806c0.09178,0.03247 0.18485,0.04849 0.27966,0.04849c0.09697,0 0.1912,-0.01616 0.28269,-0.04849c0.09178,-0.03204 0.17403,-0.08139 0.24676,-0.14806c0.0723,-0.06667 0.1316,-0.15238 0.17663,-0.25715c0.04546,-0.10476 0.0684,-0.22987 0.0684,-0.3749zM298.70472,280.14196c-0.05844,0 -0.11386,-0.01082 -0.16624,-0.03204c-0.05238,-0.02121 -0.09827,-0.04978 -0.13767,-0.08615c-0.03939,-0.03636 -0.07056,-0.07879 -0.09351,-0.12684c-0.02338,-0.04849 -0.03507,-0.1 -0.03507,-0.15455c0,-0.05411 0.01169,-0.10606 0.03507,-0.15541c0.02294,-0.04978 0.05411,-0.09264 0.09351,-0.12857c0.03939,-0.03636 0.08528,-0.06537 0.13767,-0.08615c0.05238,-0.02121 0.10779,-0.03204 0.16624,-0.03204h2.76153c0.05844,0 0.11386,0.01082 0.16624,0.03204c0.05238,0.02078 0.09827,0.04978 0.13767,0.08615c0.03939,0.03593 0.07056,0.07879 0.09351,0.12857c0.02338,0.04935 0.03507,0.1013 0.03507,0.15541c0,0.05455 -0.01169,0.10606 -0.03507,0.15455c-0.02294,0.04805 -0.05411,0.09048 -0.09351,0.12684c-0.03939,0.03636 -0.08528,0.06494 -0.13767,0.08615c-0.05238,0.02121 -0.10779,0.03204 -0.16624,0.03204h-0.81084v3.00309c0,0.08269 -0.01429,0.15974 -0.04372,0.23117c-0.02944,0.07186 -0.0697,0.1342 -0.12078,0.18745c-0.05152,0.05368 -0.11126,0.09567 -0.17879,0.12554c-0.06753,0.0303 -0.14026,0.04546 -0.21905,0.04546c-0.07879,0 -0.15195,-0.01515 -0.21949,-0.04546c-0.06753,-0.02987 -0.12641,-0.07186 -0.17663,-0.12554c-0.05065,-0.05325 -0.09048,-0.11559 -0.11948,-0.18745c-0.02944,-0.07143 -0.04416,-0.14849 -0.04416,-0.23117v-3.00309zM262.45158,281.20476c-0.10909,0.01299 -0.21775,0.01991 -0.32685,0.01991h-0.48356v-1.20392h0.45672c0.12295,0 0.24113,0.00476 0.35499,0.01342c0.11429,0.00909 0.21429,0.0329 0.30131,0.07143c0.08658,0.0381 0.15628,0.09567 0.20866,0.1723c0.05224,0.07648 0.07836,0.19135 0.07836,0.3446c0,0.13334 -0.02727,0.2394 -0.08139,0.31905c-0.05455,0.07966 -0.12554,0.14026 -0.21342,0.18182c-0.08788,0.04113 -0.18615,0.0684 -0.29481,0.08139z" data-paper-data="{&quot;isBaseLogoContainer&quot;:true}"></path></g></g></g><g class="watermark-group" style="opacity:0.040000010281801224"><path class="watermark-path" d="M129.52,370.3a11.88,11.88,0,0,1,2.58,5.58,12,12,0,0,1,.11,3,11.81,11.81,0,0,1-.64,2.93,12.34,12.34,0,0,1-1.41,2.72,11.65,11.65,0,0,1-2.13,2.32,12,12,0,0,1-2.64,1.69,13,13,0,0,1-2.91.9,12.47,12.47,0,0,1-3,.12,12.17,12.17,0,0,1-2.93-.64,11.8,11.8,0,0,1-2.72-1.38,12.19,12.19,0,0,1-4-4.79,11.85,11.85,0,0,1-.89-2.92,12.14,12.14,0,0,1-.13-3,11.54,11.54,0,0,1,.64-2.92,11.67,11.67,0,0,1,3.5-5,11.44,11.44,0,0,1,2.67-1.69,11.64,11.64,0,0,1,2.92-.91,10.71,10.71,0,0,1,3-.12,11.68,11.68,0,0,1,5.66,2,11.7,11.7,0,0,1,2.34,2.12m-1.4,8.76a13,13,0,0,1-1.22,2.32,9.68,9.68,0,0,1-1.81,2,7.44,7.44,0,0,1-2.38,1.37,6.17,6.17,0,0,1-5.11-.46,8.73,8.73,0,0,1-3.85-4.58,6.69,6.69,0,0,1-.34-2.66,6.09,6.09,0,0,1,.77-2.47,7.15,7.15,0,0,1,1.75-2.11,9.58,9.58,0,0,1,1.09-.81,8.23,8.23,0,0,1,1.12-.63,8.14,8.14,0,0,1,1.19-.46,12.71,12.71,0,0,1,1.32-.37l2,2.38a12.83,12.83,0,0,0-1.56.17,7.86,7.86,0,0,0-1.23.32,4.5,4.5,0,0,0-1,.49,6.41,6.41,0,0,0-.93.67,4.49,4.49,0,0,0-1.15,1.39,3.87,3.87,0,0,0-.45,1.58,4.12,4.12,0,0,0,.26,1.63,6.11,6.11,0,0,0,2.36,2.82,4.43,4.43,0,0,0,1.57.53,3.91,3.91,0,0,0,1.62-.17,4.71,4.71,0,0,0,1.57-.89,10.5,10.5,0,0,0,.83-.79,5.71,5.71,0,0,0,.65-.93,10.13,10.13,0,0,0,.54-1.14,12.24,12.24,0,0,0,.44-1.49l2,2.33m-14.46,4.55a8.86,8.86,0,0,0,2.78,2.22,9,9,0,0,0,3.29.94,9.15,9.15,0,0,0,3.39-.37,8.68,8.68,0,0,0,3.11-1.69,8.8,8.8,0,0,0,2.22-2.78,9.15,9.15,0,0,0,1-3.29,8.95,8.95,0,0,0-4.83-8.76,9,9,0,0,0-6.73-.57,9,9,0,0,0-5.33,4.47,8.94,8.94,0,0,0-.57,6.71,8.76,8.76,0,0,0,1.7,3.12"></path><path class="watermark-path" d="M147,349c-.48.12-1.09.31-1.82.57a24.37,24.37,0,0,0-2.4,1A28.35,28.35,0,0,0,140,352a20.72,20.72,0,0,0-2.71,1.94c-.7.59-1.28,1.11-1.74,1.57a15.07,15.07,0,0,0-1.1,1.22,4.09,4.09,0,0,0-.59.92,2.32,2.32,0,0,0-.22.64,1.16,1.16,0,0,0,0,.47,1.83,1.83,0,0,0,.18.29,1.15,1.15,0,0,0,1,.37,5.54,5.54,0,0,0,1.51-.38q.87-.35,1.95-.9l2.26-1.18q1.2-.65,2.49-1.29c.87-.44,1.73-.83,2.59-1.17a18.94,18.94,0,0,1,2.6-.81,9.27,9.27,0,0,1,2.46-.29,6.25,6.25,0,0,1,2.24.49,5.12,5.12,0,0,1,1.89,1.47,6.35,6.35,0,0,1,1.41,2.61,6,6,0,0,1,.09,2.6,8.3,8.3,0,0,1-.9,2.52,17.79,17.79,0,0,1-1.62,2.37,23.92,23.92,0,0,1-2,2.15c-.72.67-1.41,1.29-2.09,1.87a33.79,33.79,0,0,1-5.33,3.7,32.29,32.29,0,0,1-4.91,2.28l-3.61-4.3a21.38,21.38,0,0,0,5.39-1.87,27.2,27.2,0,0,0,5.4-3.56,21.59,21.59,0,0,0,2.38-2.27,8.67,8.67,0,0,0,1.18-1.7,2.32,2.32,0,0,0,.27-1.19,1.34,1.34,0,0,0-.28-.74,1.21,1.21,0,0,0-1-.42,4.32,4.32,0,0,0-1.55.34,15.77,15.77,0,0,0-2,.88c-.72.37-1.48.77-2.27,1.21l-2.45,1.3c-.85.45-1.7.85-2.56,1.21a22.37,22.37,0,0,1-2.54.86,10,10,0,0,1-2.43.32,5.76,5.76,0,0,1-2.2-.45,5,5,0,0,1-1.89-1.45,6.12,6.12,0,0,1-1.31-2.41,6,6,0,0,1-.1-2.41,8.28,8.28,0,0,1,.81-2.38,14.06,14.06,0,0,1,1.49-2.24,22.37,22.37,0,0,1,1.85-2.05q1-1,2-1.77c.7-.59,1.44-1.15,2.23-1.7s1.62-1.06,2.44-1.53,1.63-.91,2.43-1.3,1.58-.75,2.3-1L147,349"></path><path class="watermark-path" d="M186.76,337.57l-10.6-12.63,3.92,18.24-4.66,3.91-17.27-7,10.6,12.63-4.86,4.07-15.09-18,6.59-5.54,18.69,7.52-4.15-19.71,6.57-5.52,15.09,18-4.83,4.05"></path><path class="watermark-path" d="M208.84,313.24l-10,8.42,1.16,4.82L194.56,331l-5.68-25.89,5.42-4.55,24.51,10.09-5.42,4.55-4.55-2m-11.23,3.45,6.57-5.52-8.83-3.87,2.26,9.39"></path><path class="watermark-path" d="M227.49,281.38c-.48.12-1.09.31-1.82.57a24.37,24.37,0,0,0-2.4,1,26.11,26.11,0,0,0-2.7,1.47,20.72,20.72,0,0,0-2.71,1.94c-.7.59-1.28,1.11-1.74,1.57a13.39,13.39,0,0,0-1.1,1.22,4.29,4.29,0,0,0-.59.91,2.48,2.48,0,0,0-.22.65,1.16,1.16,0,0,0,0,.47,1.83,1.83,0,0,0,.18.29,1.15,1.15,0,0,0,1,.37,5.54,5.54,0,0,0,1.51-.38q.87-.34,2-.9l2.26-1.18q1.2-.64,2.49-1.29c.87-.44,1.73-.83,2.59-1.17a18.94,18.94,0,0,1,2.6-.81,9.27,9.27,0,0,1,2.46-.29,6.08,6.08,0,0,1,2.24.49,5.09,5.09,0,0,1,1.89,1.46,6.47,6.47,0,0,1,1.41,2.61,6.07,6.07,0,0,1,.09,2.61,8.3,8.3,0,0,1-.9,2.52,16.32,16.32,0,0,1-1.63,2.36,21.41,21.41,0,0,1-2,2.16c-.72.67-1.41,1.29-2.1,1.86a33.36,33.36,0,0,1-5.32,3.71,31.92,31.92,0,0,1-4.92,2.28l-3.6-4.3a21.38,21.38,0,0,0,5.39-1.87,27.2,27.2,0,0,0,5.4-3.56,21.59,21.59,0,0,0,2.38-2.27,8.67,8.67,0,0,0,1.18-1.7A2.32,2.32,0,0,0,231,293a1.34,1.34,0,0,0-.28-.74,1.21,1.21,0,0,0-1-.42,4.32,4.32,0,0,0-1.55.34,16.54,16.54,0,0,0-2,.88c-.71.37-1.47.77-2.26,1.21l-2.46,1.3c-.84.44-1.7.85-2.55,1.21a24.53,24.53,0,0,1-2.54.86A10,10,0,0,1,214,298a5.76,5.76,0,0,1-2.2-.45,5,5,0,0,1-1.89-1.45,6.12,6.12,0,0,1-1.31-2.41,5.78,5.78,0,0,1-.1-2.41,8,8,0,0,1,.81-2.38,14.61,14.61,0,0,1,1.49-2.25,22.26,22.26,0,0,1,1.85-2q1-1,2-1.77c.7-.59,1.44-1.15,2.23-1.7s1.62-1.06,2.44-1.53,1.63-.91,2.43-1.31,1.58-.74,2.3-1l3.5,4.16"></path><path class="watermark-path" d="M261.64,274.74l-6.29-7.5L243,277.61l6.3,7.5-4.86,4.07-15.09-18,4.85-4.08,5.49,6.55L252,263.3l-5.49-6.55,4.86-4.07,15.09,18-4.86,4.08"></path><path class="watermark-path" d="M272.18,265.9l-15.09-18,4.86-4.08,15.09,18-4.86,4.08"></path><path class="watermark-path" d="M299.65,242.85l-22.51-2.18L287.51,253l-4.85,4.08-15.1-18,5.28-4.43,22.56,2.22L285,224.5l4.83-4.06,15.09,18-5.26,4.42"></path><path class="watermark-path" d="M306.68,205.52a31.88,31.88,0,0,1,5.29-3.66,34.48,34.48,0,0,1,5.14-2.35l3.69,4.39a20.77,20.77,0,0,0-2.37.61,20.47,20.47,0,0,0-2.61,1,25.12,25.12,0,0,0-2.76,1.49,23.9,23.9,0,0,0-2.8,2,20.42,20.42,0,0,0-2.8,2.77,12.77,12.77,0,0,0-1.64,2.52,7,7,0,0,0-.68,2.24,6,6,0,0,0,.66,3.64,8.16,8.16,0,0,0,.94,1.38,9.12,9.12,0,0,0,1.08,1.07,6.39,6.39,0,0,0,1.47.91,6.73,6.73,0,0,0,1.88.48,6.54,6.54,0,0,0,2.28-.18,11.67,11.67,0,0,0,2.74-1.07,19.38,19.38,0,0,0,3.18-2.22c.57-.48,1.06-.92,1.46-1.31a14.57,14.57,0,0,0,1-1.13,11.46,11.46,0,0,0,.81-1.05l.74-1.09-1.82-2.17-5.45,4.57-3.31-3.94,10.31-8.65,7.71,9.19a29,29,0,0,1-1.67,2.43q-1,1.26-2.1,2.52c-.74.84-1.5,1.65-2.3,2.44s-1.58,1.5-2.33,2.14a31,31,0,0,1-3.59,2.61,22.55,22.55,0,0,1-3.64,1.83,15.64,15.64,0,0,1-3.63.89,10.72,10.72,0,0,1-3.49-.15,10.45,10.45,0,0,1-3.28-1.33,12.54,12.54,0,0,1-3-2.67,12,12,0,0,1-2.08-3.44,10.45,10.45,0,0,1-.71-3.5,11.14,11.14,0,0,1,.51-3.51,15.72,15.72,0,0,1,1.56-3.43,21.62,21.62,0,0,1,2.42-3.28,30.3,30.3,0,0,1,3.15-3"></path><path class="watermark-path" d="M336.91,211.59l-15.1-18,4.86-4.08,11.79,14,13.13-11,3.31,3.94-18,15.1"></path><path class="watermark-path" d="M374.54,164.71a12.28,12.28,0,0,1,2.59,4.81,10.44,10.44,0,0,1,0,5,14.62,14.62,0,0,1-2.33,5,25.55,25.55,0,0,1-4.56,4.85,26.07,26.07,0,0,1-5.6,3.67,14.79,14.79,0,0,1-5.38,1.43,10.43,10.43,0,0,1-4.94-.89,13.24,13.24,0,0,1-6.87-8.18,10.48,10.48,0,0,1,0-5,14.51,14.51,0,0,1,2.36-5,25.23,25.23,0,0,1,4.57-4.89,25,25,0,0,1,5.59-3.64,14.45,14.45,0,0,1,5.35-1.43,10.31,10.31,0,0,1,4.93.92,12.22,12.22,0,0,1,4.28,3.38m-4.91,4.11a8.36,8.36,0,0,0-2-1.72,5.5,5.5,0,0,0-2.65-.85,7.72,7.72,0,0,0-3.32.57,14.49,14.49,0,0,0-4,2.52,16.72,16.72,0,0,0-2.38,2.4,10.15,10.15,0,0,0-1.39,2.24,6.71,6.71,0,0,0-.56,2.1,5.69,5.69,0,0,0,.1,1.9,6.21,6.21,0,0,0,.61,1.69,9.85,9.85,0,0,0,1,1.44,10.48,10.48,0,0,0,1.26,1.23,6.67,6.67,0,0,0,1.57.92,6.1,6.1,0,0,0,1.85.41,6.8,6.8,0,0,0,2.15-.2,11.06,11.06,0,0,0,2.45-1,17.67,17.67,0,0,0,2.77-1.94,14.39,14.39,0,0,0,3.18-3.52,7.74,7.74,0,0,0,1.14-3.17,5.54,5.54,0,0,0-.37-2.74,8.52,8.52,0,0,0-1.36-2.3"></path><path class="watermark-path" d="M382.66,141.76A32.3,32.3,0,0,1,388,138.1a34.12,34.12,0,0,1,5.15-2.35l3.69,4.4a19.62,19.62,0,0,0-2.37.6,22.08,22.08,0,0,0-2.61,1,26,26,0,0,0-2.77,1.49,23.9,23.9,0,0,0-2.8,2,21,21,0,0,0-2.8,2.78,13.19,13.19,0,0,0-1.64,2.51,7.29,7.29,0,0,0-.68,2.24,6.36,6.36,0,0,0,.06,2,5.8,5.8,0,0,0,.61,1.68,8.12,8.12,0,0,0,.93,1.38,9.16,9.16,0,0,0,1.08,1.08,6.56,6.56,0,0,0,1.48.9,6,6,0,0,0,1.87.48,6.76,6.76,0,0,0,2.28-.17,12,12,0,0,0,2.74-1.08,18.57,18.57,0,0,0,3.18-2.22c.58-.48,1.06-.92,1.46-1.31s.75-.77,1.05-1.12.57-.72.81-1.06l.73-1.09-1.82-2.17-5.45,4.57-3.3-3.94,10.3-8.65,7.71,9.19a29,29,0,0,1-1.67,2.43q-1,1.26-2.1,2.52c-.73.84-1.5,1.66-2.3,2.44s-1.57,1.5-2.33,2.14a31,31,0,0,1-3.59,2.61,22.15,22.15,0,0,1-3.64,1.83,15.56,15.56,0,0,1-3.62.89,11,11,0,0,1-3.49-.14,10.84,10.84,0,0,1-3.28-1.33,12.82,12.82,0,0,1-3-2.68,12.12,12.12,0,0,1-2.08-3.43A10.71,10.71,0,0,1,375,155a11.18,11.18,0,0,1,.51-3.51,15.51,15.51,0,0,1,1.57-3.43,21.44,21.44,0,0,1,2.42-3.28,30.19,30.19,0,0,1,3.14-3"></path><path class="watermark-path" d="M428.63,119.31a12.26,12.26,0,0,1,2.59,4.82,10.44,10.44,0,0,1,0,5,14.53,14.53,0,0,1-2.34,5,25.29,25.29,0,0,1-4.56,4.86,26,26,0,0,1-5.59,3.67,14.84,14.84,0,0,1-5.38,1.43,10.61,10.61,0,0,1-4.95-.89,12.15,12.15,0,0,1-4.3-3.37,12,12,0,0,1-2.56-4.81,10.48,10.48,0,0,1,0-5,14.39,14.39,0,0,1,2.35-5,27.89,27.89,0,0,1,10.16-8.53,14.49,14.49,0,0,1,5.36-1.43,10.27,10.27,0,0,1,4.92.92,12.21,12.21,0,0,1,4.28,3.37m-4.91,4.12a8.17,8.17,0,0,0-2-1.72,5.58,5.58,0,0,0-2.65-.86,7.86,7.86,0,0,0-3.31.58,14.49,14.49,0,0,0-4,2.52,16.21,16.21,0,0,0-2.38,2.4,9.85,9.85,0,0,0-1.4,2.24,7,7,0,0,0-.56,2.1,6,6,0,0,0,.1,1.9,6.23,6.23,0,0,0,.62,1.69,8.49,8.49,0,0,0,1,1.44,9.18,9.18,0,0,0,1.26,1.23,6.67,6.67,0,0,0,1.57.92,6,6,0,0,0,1.84.41,6.86,6.86,0,0,0,2.16-.2,11.26,11.26,0,0,0,2.45-1,17.62,17.62,0,0,0,2.76-1.94,14.67,14.67,0,0,0,3.19-3.52,7.71,7.71,0,0,0,1.13-3.17,5.53,5.53,0,0,0-.36-2.74,8.55,8.55,0,0,0-1.37-2.3"></path></g></svg>