<svg width="420" height="226" viewBox="0 0 420 226" fill="none" xmlns="http://www.w3.org/2000/svg">
<path d="M148.864 217.096C148.604 217.097 148.354 216.999 148.162 216.824C148.072 216.741 147.999 216.641 147.946 216.53C147.893 216.418 147.866 216.296 147.866 216.172C147.866 216.048 147.893 215.926 147.946 215.814C147.998 215.702 148.071 215.601 148.162 215.517C148.353 215.341 148.604 215.244 148.864 215.244H155.243C155.503 215.243 155.753 215.34 155.945 215.516C156.035 215.6 156.108 215.699 156.161 215.814C156.214 215.926 156.241 216.048 156.241 216.172C156.241 216.296 156.214 216.418 156.161 216.53C156.108 216.64 156.035 216.74 155.945 216.823C155.754 216.999 155.503 217.096 155.243 217.096H153.371V224.033C153.373 224.392 153.236 224.738 152.99 225C152.873 225.122 152.733 225.221 152.578 225.29C152.422 225.36 152.253 225.395 152.071 225.395C151.889 225.395 151.721 225.36 151.565 225.29C151.41 225.221 151.271 225.123 151.155 225C150.91 224.738 150.775 224.392 150.779 224.033V217.096H148.864Z" fill="#00558C"/>
<path d="M179.184 224.033C179.186 224.392 179.049 224.738 178.803 225C178.686 225.122 178.546 225.221 178.391 225.29C178.235 225.36 178.066 225.395 177.884 225.395C177.702 225.395 177.534 225.36 177.378 225.29C177.223 225.222 177.084 225.123 176.968 225C176.723 224.738 176.588 224.392 176.592 224.033V216.53C176.592 216.315 176.635 216.128 176.721 215.967C176.805 215.809 176.923 215.672 177.067 215.566C177.211 215.458 177.38 215.378 177.573 215.325C177.772 215.271 177.978 215.244 178.185 215.245H180.986C181.503 215.245 181.999 215.278 182.474 215.345C182.91 215.401 183.334 215.529 183.728 215.726C184.089 215.913 184.378 216.171 184.594 216.502C184.811 216.832 184.919 217.263 184.919 217.794C184.919 218.083 184.879 218.357 184.8 218.615C184.722 218.872 184.591 219.11 184.416 219.314C184.221 219.534 183.985 219.715 183.721 219.844C183.389 220.005 183.035 220.115 182.67 220.169V220.197C182.968 220.235 183.223 220.289 183.435 220.362C183.647 220.434 183.827 220.529 183.976 220.648C184.126 220.767 184.246 220.91 184.339 221.078C184.433 221.245 184.509 221.443 184.569 221.671C184.63 221.9 184.679 222.159 184.717 222.451C184.754 222.741 184.789 223.071 184.821 223.439C184.838 223.632 184.848 223.825 184.849 224.019C184.849 224.219 184.831 224.403 184.793 224.571C184.761 224.728 184.694 224.876 184.598 225.004C184.497 225.131 184.365 225.228 184.214 225.287C184.013 225.361 183.799 225.395 183.584 225.388C183.352 225.388 183.158 225.335 183.002 225.228C182.84 225.114 182.707 224.963 182.614 224.788C182.505 224.585 182.427 224.367 182.38 224.141C182.324 223.881 182.28 223.619 182.25 223.355C182.213 223.015 182.165 222.676 182.107 222.339C182.072 222.106 181.993 221.882 181.873 221.679C181.766 221.511 181.605 221.385 181.416 221.322C181.218 221.252 180.946 221.217 180.602 221.217H179.184V224.033ZM180.259 219.597C180.511 219.597 180.762 219.581 181.014 219.551C181.265 219.521 181.492 219.458 181.695 219.363C181.898 219.267 182.062 219.127 182.188 218.943C182.313 218.759 182.376 218.513 182.376 218.206C182.376 217.852 182.316 217.586 182.195 217.41C182.075 217.234 181.908 217.096 181.713 217.012C181.492 216.918 181.257 216.863 181.017 216.848C180.744 216.826 180.471 216.816 180.197 216.816H179.142V219.596L180.259 219.597Z" fill="#00558C"/>
<path d="M212.556 216.606C212.553 216.247 212.688 215.901 212.933 215.639C213.049 215.516 213.188 215.417 213.342 215.349C213.498 215.279 213.666 215.244 213.848 215.244C214.03 215.244 214.198 215.279 214.355 215.349C214.511 215.419 214.648 215.515 214.767 215.639C214.886 215.762 214.979 215.907 215.047 216.072C215.115 216.242 215.149 216.423 215.147 216.606V221.958C215.147 222.573 215.039 223.11 214.823 223.568C214.606 224.027 214.303 224.41 213.914 224.718C213.502 225.037 213.031 225.272 212.528 225.409C211.955 225.567 211.363 225.645 210.768 225.639C210.138 225.639 209.558 225.564 209.024 225.413C208.523 225.277 208.054 225.046 207.641 224.731C207.251 224.427 206.938 224.034 206.729 223.586C206.51 223.125 206.401 222.582 206.401 221.958V216.606C206.398 216.247 206.533 215.901 206.778 215.639C206.894 215.516 207.033 215.417 207.187 215.349C207.343 215.279 207.512 215.244 207.693 215.244C207.875 215.244 208.043 215.279 208.2 215.349C208.356 215.419 208.493 215.515 208.612 215.639C208.731 215.762 208.824 215.907 208.892 216.072C208.96 216.242 208.994 216.423 208.992 216.606L209 221.916C209 222.251 209.05 222.54 209.153 222.782C209.256 223.025 209.39 223.222 209.555 223.376C209.72 223.53 209.909 223.644 210.121 223.718C210.541 223.868 211.001 223.868 211.421 223.718C211.632 223.644 211.826 223.527 211.99 223.376C212.157 223.222 212.294 223.025 212.398 222.782C212.503 222.54 212.556 222.252 212.556 221.916V216.606Z" fill="#00558C"/>
<path d="M239.286 217.899C239.286 218.122 239.361 218.311 239.51 218.465C239.659 218.619 239.853 218.751 240.093 218.863C240.333 218.975 240.604 219.073 240.907 219.156C241.21 219.24 241.515 219.326 241.822 219.415C242.316 219.564 242.764 219.722 243.167 219.89C243.539 220.04 243.887 220.242 244.201 220.49C244.488 220.724 244.709 221 244.865 221.319C245.021 221.638 245.099 222.021 245.099 222.468C245.099 222.957 245.002 223.398 244.809 223.788C244.613 224.182 244.327 224.525 243.974 224.788C243.578 225.078 243.131 225.293 242.657 225.42C242.091 225.573 241.507 225.647 240.921 225.64C240.258 225.64 239.596 225.563 238.951 225.41C238.652 225.339 238.358 225.248 238.071 225.137C237.819 225.041 237.578 224.919 237.351 224.773C237.165 224.656 237.002 224.505 236.869 224.33C236.757 224.182 236.695 224.002 236.694 223.816C236.694 223.7 236.719 223.586 236.768 223.474C236.817 223.362 236.879 223.261 236.956 223.17C237.029 223.082 237.117 223.008 237.215 222.95C237.3 222.897 237.398 222.868 237.498 222.866C237.581 222.866 237.664 222.88 237.742 222.908C237.822 222.936 237.902 222.97 237.983 223.009C238.065 223.049 238.149 223.092 238.235 223.139C238.321 223.185 238.413 223.227 238.511 223.264C238.832 223.409 239.193 223.539 239.594 223.656C239.994 223.772 240.414 223.83 240.851 223.83C241.089 223.83 241.313 223.808 241.525 223.764C241.721 223.726 241.91 223.657 242.085 223.561C242.245 223.471 242.372 223.353 242.465 223.209C242.562 223.052 242.611 222.87 242.605 222.685C242.607 222.548 242.58 222.412 242.525 222.286C242.471 222.161 242.391 222.048 242.29 221.955C242.187 221.86 242.072 221.78 241.948 221.717C241.815 221.648 241.677 221.589 241.536 221.539L241.221 221.427C241.162 221.409 241.104 221.389 241.047 221.367C240.987 221.345 240.926 221.325 240.865 221.308L240.502 221.203C240.434 221.187 240.366 221.17 240.299 221.151C240.204 221.124 240.11 221.092 240.019 221.053C239.971 221.034 239.922 221.017 239.873 221.001L239.216 220.771C238.841 220.639 238.476 220.477 238.126 220.288C237.85 220.141 237.6 219.95 237.386 219.722C237.197 219.515 237.053 219.271 236.963 219.006C236.867 218.705 236.821 218.39 236.827 218.074C236.827 217.608 236.924 217.186 237.117 216.809C237.31 216.432 237.587 216.11 237.948 215.845C238.309 215.58 238.748 215.375 239.262 215.23C239.828 215.079 240.412 215.007 240.998 215.014C241.532 215.02 242.063 215.081 242.584 215.196C242.859 215.256 243.123 215.334 243.377 215.429C243.631 215.525 243.855 215.637 244.051 215.765C244.246 215.893 244.404 216.038 244.522 216.201C244.639 216.358 244.702 216.55 244.701 216.746C244.702 216.853 244.681 216.96 244.639 217.058C244.597 217.157 244.535 217.246 244.456 217.319C244.3 217.464 244.096 217.544 243.883 217.543C243.75 217.544 243.618 217.513 243.499 217.452C243.299 217.349 243.095 217.253 242.888 217.165C242.705 217.088 242.517 217.023 242.325 216.97C242.136 216.918 241.944 216.881 241.749 216.858C241.532 216.834 241.314 216.822 241.096 216.823C240.872 216.823 240.652 216.843 240.436 216.883C240.235 216.917 240.039 216.981 239.856 217.071C239.695 217.149 239.554 217.263 239.443 217.403C239.336 217.546 239.28 217.721 239.286 217.899V217.899Z" fill="#00558C"/>
<path d="M264.757 217.096C264.497 217.097 264.247 216.999 264.055 216.824C263.965 216.741 263.892 216.641 263.839 216.53C263.786 216.418 263.759 216.296 263.759 216.172C263.759 216.048 263.786 215.926 263.839 215.814C263.891 215.702 263.964 215.601 264.055 215.517C264.246 215.341 264.497 215.244 264.757 215.244H271.136C271.396 215.243 271.646 215.34 271.838 215.516C271.928 215.6 272.001 215.699 272.054 215.814C272.107 215.926 272.134 216.048 272.134 216.172C272.134 216.296 272.107 216.418 272.054 216.53C272.001 216.64 271.928 216.74 271.838 216.823C271.647 216.999 271.396 217.096 271.136 217.096H269.263V224.033C269.265 224.392 269.129 224.738 268.883 225C268.765 225.122 268.625 225.221 268.47 225.29C268.314 225.36 268.146 225.395 267.964 225.395C267.782 225.395 267.614 225.36 267.457 225.29C267.303 225.221 267.164 225.123 267.049 225C266.803 224.738 266.667 224.392 266.671 224.033V217.096H264.757Z" fill="#00558C"/>
<path d="M9.79504 198.941C13.618 198.941 16.883 197.588 19.59 194.881C20.959 193.513 21.981 192.022 22.658 190.409C23.335 188.796 23.673 187.015 23.673 185.063C23.673 181.256 22.312 177.991 19.59 175.268C16.868 172.546 13.603 171.185 9.79504 171.185H5.02704V198.941H9.79504ZM9.79504 166.181C14.987 166.181 19.432 168.031 23.13 171.728C24.987 173.585 26.375 175.611 27.296 177.806C28.216 180.001 28.676 182.42 28.676 185.063C28.676 190.272 26.828 194.725 23.13 198.423C19.448 202.104 15.003 203.945 9.79504 203.945H2.52504C2.17904 203.945 1.85304 203.878 1.54504 203.745C1.24791 203.617 0.976227 203.437 0.743034 203.213C0.511956 202.988 0.327742 202.72 0.201034 202.423C0.0666206 202.114 -0.00183352 201.78 3.73381e-05 201.443V168.683C3.73381e-05 168.337 0.0670343 168.011 0.200034 167.704C0.327016 167.407 0.511577 167.139 0.743034 166.914C0.972034 166.694 1.23903 166.516 1.54603 166.382C1.85303 166.249 2.17904 166.182 2.52604 166.182L9.79504 166.181Z" fill="#00558C"/>
<path d="M36.937 202.411C36.45 203.434 35.679 203.945 34.624 203.945C34.2844 203.949 33.9473 203.885 33.633 203.756C33.0354 203.507 32.5602 203.032 32.311 202.435C32.182 202.12 32.1177 201.783 32.122 201.443C32.122 201.113 32.193 200.775 32.335 200.428L44.985 167.928C45.489 166.764 46.284 166.182 47.369 166.182C48.455 166.182 49.249 166.764 49.753 167.928L62.404 200.428C62.546 200.758 62.616 201.098 62.616 201.443C62.616 201.805 62.554 202.136 62.428 202.435C62.176 203.035 61.6962 203.51 61.094 203.756C60.783 203.883 60.45 203.948 60.114 203.946C59.014 203.946 58.234 203.434 57.778 202.411L47.369 175.599L36.937 202.411Z" fill="#00558C"/>
<path d="M97.666 197.95C97.666 198.611 97.406 199.209 96.886 199.744C93.378 202.544 89.421 203.945 85.015 203.945C79.791 203.945 75.338 202.105 71.656 198.422C67.974 194.74 66.133 190.287 66.133 185.063C66.133 179.855 67.974 175.41 71.656 171.728C75.354 168.031 79.806 166.182 85.015 166.182C89.484 166.182 93.52 167.652 97.123 170.595C97.563 171.005 97.783 171.579 97.783 172.318C97.783 172.68 97.721 173.011 97.595 173.31C97.343 173.91 96.8632 174.385 96.261 174.631C95.95 174.758 95.617 174.823 95.281 174.821C94.637 174.821 94.062 174.584 93.559 174.112C92.3718 173.173 91.0356 172.439 89.606 171.941C88.166 171.437 86.636 171.185 85.015 171.185C81.175 171.185 77.895 172.546 75.173 175.269C72.483 177.959 71.137 181.224 71.137 185.063C71.137 188.918 72.482 192.191 75.173 194.882C77.879 197.588 81.16 198.942 85.015 198.942C87.863 198.942 90.412 198.194 92.662 196.699V189.383H86.148C85.44 189.383 84.846 189.143 84.366 188.663C83.886 188.183 83.646 187.589 83.646 186.881C83.646 186.535 83.709 186.208 83.835 185.901C83.9561 185.602 84.1351 185.331 84.3619 185.102C84.5887 184.873 84.8586 184.692 85.156 184.568C85.4706 184.439 85.808 184.374 86.148 184.378H95.188C95.518 184.378 95.833 184.446 96.132 184.58C96.7311 184.843 97.2078 185.324 97.466 185.925C97.599 186.232 97.666 186.55 97.666 186.881V197.95Z" fill="#00558C"/>
<path d="M106.47 171.185V184.379H113.078C113.99 184.379 114.848 184.206 115.65 183.859C116.434 183.526 117.144 183.041 117.74 182.432C118.332 181.823 118.808 181.112 119.144 180.332C119.491 179.531 119.668 178.667 119.663 177.794C119.663 176.881 119.49 176.024 119.143 175.221C118.809 174.437 118.329 173.724 117.727 173.121C117.124 172.52 116.411 172.039 115.627 171.705C114.822 171.358 113.954 171.181 113.077 171.185H106.47ZM101.466 201.443V168.683C101.466 168.337 101.529 168.011 101.654 167.704C101.9 167.102 102.376 166.622 102.976 166.37C103.29 166.242 103.627 166.178 103.967 166.182H113.077C114.667 166.182 116.166 166.489 117.574 167.102C118.95 167.694 120.2 168.543 121.256 169.604C122.31 170.669 123.154 171.922 123.746 173.298C124.36 174.706 124.666 176.205 124.666 177.794C124.666 178.832 124.536 179.844 124.277 180.827C124.017 181.81 123.632 182.739 123.121 183.612C122.595 184.504 121.952 185.321 121.209 186.042C120.415 186.813 119.522 187.476 118.554 188.014L126.083 200.074C126.303 200.423 126.436 200.818 126.473 201.229C126.51 201.639 126.449 202.052 126.295 202.434C126.043 203.034 125.564 203.51 124.962 203.756C124.651 203.883 124.318 203.948 123.982 203.946C123.101 203.946 122.385 203.536 121.834 202.718L113.503 189.383H106.469V201.443C106.469 202.136 106.225 202.726 105.738 203.213C105.509 203.45 105.233 203.637 104.929 203.762C104.624 203.888 104.297 203.95 103.968 203.945C103.639 203.95 103.312 203.888 103.007 203.762C102.703 203.637 102.427 203.45 102.198 203.213C101.962 202.984 101.775 202.708 101.649 202.404C101.523 202.099 101.461 201.772 101.466 201.443V201.443Z" fill="#00558C"/>
<path d="M134.65 202.411C134.162 203.434 133.391 203.945 132.337 203.945C131.997 203.949 131.66 203.885 131.346 203.756C130.748 203.507 130.273 203.032 130.024 202.435C129.895 202.12 129.831 201.783 129.835 201.443C129.835 201.113 129.906 200.775 130.048 200.428L142.698 167.928C143.202 166.764 143.997 166.182 145.082 166.182C146.168 166.182 146.962 166.764 147.466 167.928L160.116 200.428C160.258 200.758 160.329 201.098 160.329 201.443C160.329 201.805 160.266 202.136 160.14 202.435C159.888 203.035 159.409 203.51 158.807 203.756C158.496 203.883 158.163 203.948 157.827 203.946C156.726 203.946 155.947 203.434 155.491 202.411L145.082 175.599L134.65 202.411Z" fill="#00558C"/>
<path d="M192.877 195.448C193.223 195.448 193.545 195.515 193.844 195.649C194.144 195.783 194.407 195.959 194.635 196.18C194.863 196.4 195.045 196.664 195.178 196.97C195.312 197.278 195.378 197.604 195.378 197.95C195.378 198.611 195.118 199.209 194.6 199.744C191.09 202.544 187.133 203.945 182.728 203.945C177.504 203.945 173.051 202.105 169.368 198.422C165.687 194.74 163.846 190.287 163.846 185.063C163.846 179.855 165.687 175.41 169.369 171.728C173.067 168.031 177.519 166.182 182.728 166.182C187.196 166.182 191.232 167.652 194.836 170.595C195.276 171.02 195.496 171.595 195.496 172.318C195.496 172.68 195.434 173.011 195.308 173.31C195.056 173.91 194.576 174.385 193.974 174.631C193.663 174.758 193.33 174.823 192.994 174.821C192.381 174.821 191.807 174.584 191.272 174.112C190.084 173.173 188.748 172.439 187.318 171.941C185.878 171.437 184.348 171.185 182.728 171.185C178.888 171.185 175.608 172.546 172.886 175.269C170.195 177.959 168.85 181.224 168.85 185.063C168.85 188.918 170.195 192.191 172.886 194.882C175.592 197.588 178.873 198.942 182.728 198.942C186.016 198.942 188.911 197.927 191.413 195.897C191.823 195.614 192.31 195.464 192.877 195.448V195.448Z" fill="#00558C"/>
<path d="M223.064 166.182C223.41 166.182 223.736 166.245 224.044 166.37C224.344 166.492 224.617 166.673 224.846 166.902C225.075 167.131 225.255 167.404 225.377 167.704C225.503 168.011 225.566 168.337 225.566 168.684C225.575 169.178 225.434 169.663 225.162 170.076C224.891 170.488 224.501 170.81 224.044 170.997C223.733 171.124 223.4 171.187 223.064 171.185H201.232C200.892 171.19 200.555 171.126 200.241 170.997C199.643 170.748 199.168 170.273 198.919 169.675C198.79 169.361 198.726 169.024 198.73 168.684C198.73 168.337 198.793 168.011 198.919 167.704C199.04 167.405 199.219 167.133 199.446 166.904C199.673 166.675 199.943 166.494 200.241 166.37C200.555 166.242 200.892 166.178 201.231 166.182H223.064ZM223.064 198.942C223.41 198.942 223.736 199.004 224.044 199.13C224.344 199.252 224.617 199.433 224.846 199.662C225.075 199.891 225.255 200.164 225.377 200.464C225.503 200.771 225.566 201.097 225.566 201.444C225.575 201.938 225.434 202.423 225.162 202.836C224.891 203.248 224.501 203.57 224.044 203.757C223.733 203.884 223.4 203.947 223.064 203.945H201.232C200.892 203.949 200.555 203.885 200.241 203.756C199.643 203.507 199.168 203.033 198.919 202.435C198.79 202.12 198.726 201.783 198.73 201.443C198.73 201.097 198.793 200.771 198.919 200.463C199.045 200.157 199.222 199.889 199.449 199.661C199.678 199.433 199.942 199.256 200.241 199.131C200.555 199.002 200.892 198.937 201.231 198.941L223.064 198.942ZM221.246 182.562C221.593 182.562 221.919 182.624 222.226 182.75C222.526 182.872 222.799 183.053 223.028 183.282C223.257 183.511 223.437 183.784 223.559 184.084C223.685 184.391 223.749 184.717 223.749 185.064C223.758 185.558 223.617 186.043 223.345 186.456C223.074 186.868 222.684 187.19 222.227 187.377C221.916 187.504 221.583 187.567 221.247 187.565H203.026C202.443 187.549 201.885 187.305 201.35 186.834C200.846 186.377 200.595 185.787 200.595 185.064C200.595 184.749 200.657 184.442 200.783 184.143C200.909 183.844 201.083 183.58 201.303 183.353C201.523 183.124 201.779 182.939 202.07 182.798C202.36 182.656 202.68 182.578 203.026 182.562H221.246Z" fill="#00558C"/>
<path d="M229.035 201.443V168.683C229.035 168.337 229.098 168.011 229.224 167.704C229.47 167.102 229.946 166.622 230.546 166.37C230.86 166.242 231.197 166.178 231.537 166.182C232.513 166.182 233.252 166.63 233.756 167.527L247.916 195.826L262.078 167.527C262.645 166.63 263.384 166.182 264.297 166.182C264.643 166.182 264.969 166.245 265.277 166.37C265.577 166.492 265.85 166.673 266.079 166.902C266.308 167.131 266.488 167.404 266.61 167.704C266.736 168.011 266.799 168.337 266.799 168.684V201.444C266.799 202.136 266.555 202.726 266.067 203.214C265.838 203.45 265.562 203.637 265.258 203.763C264.953 203.889 264.626 203.951 264.297 203.945C263.968 203.95 263.641 203.888 263.336 203.762C263.032 203.637 262.756 203.45 262.527 203.213C262.291 202.984 262.104 202.708 261.978 202.404C261.852 202.099 261.79 201.772 261.795 201.443V179.304L250.088 202.694C249.6 203.528 248.877 203.945 247.917 203.945C246.878 203.945 246.115 203.442 245.627 202.435L234.039 179.305V201.443C234.039 202.136 233.795 202.726 233.307 203.213C233.078 203.45 232.802 203.637 232.498 203.762C232.193 203.888 231.866 203.95 231.537 203.945C231.208 203.95 230.881 203.888 230.576 203.762C230.272 203.637 229.996 203.45 229.767 203.213C229.531 202.984 229.344 202.708 229.218 202.404C229.092 202.099 229.03 201.772 229.035 201.443V201.443Z" fill="#00558C"/>
<path d="M275.319 202.411C274.831 203.434 274.06 203.945 273.006 203.945C272.666 203.949 272.329 203.885 272.015 203.756C271.417 203.507 270.942 203.032 270.693 202.435C270.564 202.12 270.5 201.783 270.504 201.443C270.504 201.113 270.574 200.775 270.716 200.428L283.367 167.928C283.871 166.764 284.665 166.182 285.751 166.182C286.837 166.182 287.631 166.764 288.135 167.928L300.785 200.428C300.927 200.758 300.998 201.098 300.998 201.443C300.998 201.805 300.935 202.136 300.809 202.435C300.557 203.035 300.078 203.51 299.476 203.756C299.165 203.883 298.832 203.948 298.496 203.946C297.395 203.946 296.616 203.434 296.16 202.411L285.751 175.599L275.319 202.411Z" fill="#00558C"/>
<path d="M309.448 171.185V184.379H316.056C316.969 184.379 317.826 184.206 318.629 183.859C319.413 183.526 320.123 183.041 320.718 182.432C321.31 181.823 321.786 181.112 322.122 180.332C322.468 179.537 322.642 178.691 322.642 177.794C322.647 176.91 322.47 176.034 322.122 175.221C321.788 174.437 321.308 173.724 320.706 173.121C320.103 172.519 319.39 172.039 318.606 171.705C317.801 171.358 316.933 171.181 316.056 171.185H309.448ZM304.444 201.443V168.683C304.444 168.337 304.507 168.011 304.633 167.704C304.754 167.405 304.933 167.133 305.16 166.905C305.386 166.676 305.656 166.494 305.954 166.37C306.269 166.241 306.606 166.177 306.946 166.182H316.056C317.646 166.182 319.144 166.489 320.552 167.102C321.928 167.694 323.178 168.543 324.234 169.604C325.288 170.669 326.132 171.922 326.724 173.298C327.338 174.706 327.644 176.205 327.644 177.794C327.644 178.832 327.515 179.844 327.255 180.827C326.995 181.81 326.61 182.739 326.099 183.612C325.573 184.504 324.93 185.321 324.187 186.042C323.393 186.813 322.5 187.476 321.532 188.014L329.061 200.074C329.281 200.423 329.414 200.818 329.451 201.228C329.488 201.639 329.427 202.052 329.273 202.434C329.021 203.034 328.542 203.509 327.94 203.756C327.629 203.883 327.296 203.948 326.96 203.946C326.08 203.946 325.363 203.536 324.813 202.718L316.481 189.383H309.448V201.443C309.448 202.136 309.204 202.726 308.716 203.213C308.487 203.449 308.211 203.636 307.907 203.762C307.602 203.888 307.275 203.95 306.946 203.945C306.617 203.95 306.29 203.888 305.985 203.762C305.681 203.636 305.405 203.449 305.176 203.213C304.94 202.984 304.753 202.708 304.627 202.404C304.501 202.099 304.439 201.772 304.444 201.443V201.443Z" fill="#00558C"/>
<path d="M332.767 168.683C332.767 167.991 333.01 167.401 333.498 166.913C333.727 166.677 334.003 166.49 334.307 166.364C334.612 166.239 334.939 166.177 335.268 166.182C335.961 166.182 336.551 166.426 337.038 166.913C337.526 167.401 337.77 167.991 337.77 168.683V182.656L353.466 166.961C353.985 166.441 354.591 166.181 355.283 166.181C355.629 166.181 355.956 166.245 356.263 166.371C356.563 166.493 356.836 166.674 357.065 166.903C357.293 167.131 357.474 167.404 357.596 167.704C357.722 168.011 357.785 168.337 357.785 168.684C357.785 169.376 357.541 169.966 357.053 170.454L344.686 182.844L357.313 199.956C357.627 200.396 357.785 200.869 357.785 201.372C357.785 201.702 357.722 202.025 357.595 202.34C357.359 202.955 356.894 203.454 356.297 203.733C355.995 203.875 355.664 203.948 355.33 203.945C354.402 203.945 353.702 203.591 353.23 202.883L341.098 186.433L337.77 189.76V201.443C337.77 202.136 337.526 202.726 337.038 203.213C336.809 203.45 336.533 203.636 336.229 203.762C335.924 203.888 335.597 203.95 335.268 203.945C334.939 203.95 334.612 203.888 334.307 203.762C334.003 203.636 333.727 203.45 333.498 203.213C333.262 202.984 333.075 202.708 332.949 202.404C332.823 202.099 332.761 201.772 332.766 201.443L332.767 168.683Z" fill="#00558C"/>
<path d="M385.446 166.182C385.793 166.182 386.119 166.245 386.426 166.37C386.726 166.492 386.999 166.673 387.228 166.902C387.457 167.131 387.637 167.404 387.759 167.704C387.885 168.011 387.949 168.337 387.949 168.684C387.958 169.178 387.817 169.663 387.545 170.076C387.274 170.488 386.884 170.81 386.427 170.997C386.116 171.124 385.783 171.187 385.447 171.185H363.614C363.275 171.189 362.938 171.126 362.624 170.997C362.026 170.748 361.55 170.273 361.301 169.675C361.172 169.361 361.109 169.024 361.113 168.684C361.113 168.337 361.176 168.011 361.301 167.704C361.547 167.102 362.023 166.622 362.623 166.37C362.937 166.242 363.274 166.178 363.614 166.182H385.446ZM385.446 198.942C385.793 198.942 386.119 199.004 386.426 199.13C386.726 199.252 386.999 199.433 387.228 199.662C387.457 199.891 387.637 200.164 387.759 200.464C387.885 200.771 387.949 201.097 387.949 201.444C387.958 201.938 387.817 202.423 387.545 202.836C387.274 203.248 386.884 203.57 386.427 203.757C386.116 203.884 385.783 203.947 385.447 203.945H363.614C363.275 203.949 362.938 203.885 362.624 203.756C362.026 203.508 361.55 203.033 361.301 202.435C361.172 202.12 361.108 201.783 361.113 201.443C361.113 201.097 361.176 200.771 361.301 200.463C361.547 199.861 362.023 199.381 362.623 199.129C362.937 199.001 363.274 198.937 363.614 198.941L385.446 198.942ZM383.629 182.562C383.975 182.562 384.302 182.624 384.609 182.75C384.909 182.872 385.182 183.053 385.411 183.282C385.64 183.511 385.82 183.784 385.942 184.084C386.068 184.391 386.131 184.717 386.131 185.064C386.131 185.425 386.068 185.756 385.942 186.054C385.69 186.654 385.211 187.13 384.609 187.376C384.298 187.503 383.965 187.568 383.629 187.566H365.409C364.826 187.549 364.267 187.306 363.733 186.834C363.229 186.377 362.977 185.787 362.977 185.064C362.977 184.749 363.04 184.442 363.167 184.143C363.292 183.844 363.465 183.58 363.685 183.353C363.905 183.124 364.161 182.939 364.452 182.798C364.743 182.656 365.062 182.578 365.408 182.562H383.629Z" fill="#00558C"/>
<path d="M417.498 171.185H408.175V201.443C408.175 202.136 407.931 202.726 407.444 203.213C407.215 203.449 406.939 203.636 406.635 203.762C406.33 203.888 406.003 203.95 405.674 203.945C405.345 203.95 405.018 203.888 404.713 203.762C404.409 203.636 404.133 203.449 403.904 203.213C403.668 202.984 403.481 202.708 403.355 202.404C403.229 202.099 403.167 201.772 403.172 201.443V171.185H393.849C393.52 171.19 393.193 171.128 392.888 171.003C392.584 170.877 392.308 170.69 392.079 170.454C391.843 170.225 391.656 169.949 391.53 169.645C391.404 169.34 391.342 169.013 391.347 168.684C391.347 167.991 391.591 167.401 392.079 166.914C392.308 166.677 392.584 166.491 392.888 166.365C393.193 166.239 393.52 166.177 393.849 166.182H417.499C418.191 166.182 418.781 166.426 419.269 166.913C419.756 167.401 420 167.991 420 168.683C420 169.376 419.756 169.966 419.268 170.453C419.039 170.689 418.763 170.876 418.459 171.002C418.154 171.128 417.827 171.19 417.498 171.185V171.185Z" fill="#00558C"/>
<path fill-rule="evenodd" clip-rule="evenodd" d="M307.763 39.291C307.763 44.664 303.392 49.036 298.017 49.036C296.131 49.0413 294.284 48.4948 292.705 47.464V129.342H306.456V139.58H112.984V129.342H126.362V47.98C125.005 48.6727 123.503 49.0345 121.979 49.036C119.806 49.0432 117.695 48.3179 115.985 46.9773C114.275 45.6366 113.067 43.7587 112.556 41.647L112.236 40.616V29.549H113.257L126.364 8.73499V0H292.705V8.368L307.267 29.548H307.569V29.988L307.597 31.612H307.569V37.385C307.7 38.028 307.763 38.668 307.763 39.291V39.291ZM290.637 2.061H128.425V7.24599H290.637V2.061ZM171.856 9.30801L172.243 9.417L166.593 29.549H182.848L182.693 29.522L186.062 9.30801H171.856ZM289.824 29.548H292.705L304.775 29.546L292.712 12.003L291.68 10.503L290.856 9.30801H279.962L290.318 29.293L289.824 29.548ZM128.427 9.33199L126.364 12.606L115.694 29.549H130.172L129.68 29.299L139.857 9.309H128.44L128.427 9.33199ZM155.265 9.31001H140.972L141.462 9.559L131.284 29.549H147.807L147.344 29.365L155.265 9.31001ZM170.667 9.31001H156.393L156.859 9.491L148.937 29.549H165.403L165.016 29.439L170.667 9.31001ZM187.465 9.31001L187.625 9.33601L184.26 29.549H200.383L201.446 9.309L187.465 9.31001ZM216.817 9.31001H202.99L201.926 29.549H218.064L216.817 9.31001ZM218.364 9.31001L219.614 29.549L235.74 29.551L232.183 9.34499L232.38 9.31001H218.364ZM247.963 9.31001H233.746L237.305 29.518L237.115 29.551H253.4L247.564 9.426L247.963 9.31001ZM263.421 9.31001H249.145L254.982 29.435L254.584 29.549H271.054L262.951 9.49999L263.421 9.31001ZM272.182 29.549H288.707L278.348 9.566L278.842 9.31001H264.547L272.65 29.36L272.182 29.549ZM114.3 31.612V40.062L114.42 40.454C115 44.231 118.18 46.97 121.979 46.97C123.551 46.9665 125.082 46.4744 126.362 45.562C126.733 45.302 127.074 45.012 127.393 44.69C127.783 44.299 128.128 43.868 128.425 43.396C128.995 42.5029 129.375 41.5022 129.542 40.456L129.678 39.582H131.892L132.025 40.456C132.605 44.233 135.785 46.972 139.584 46.972C143.385 46.972 146.568 44.233 147.147 40.456L147.282 39.582H149.497L149.63 40.456C150.21 44.233 153.39 46.972 157.189 46.972C160.988 46.972 164.166 44.233 164.747 40.456L164.881 39.582H167.084L167.22 40.456C167.799 44.233 170.98 46.972 174.78 46.972C178.582 46.972 181.762 44.233 182.341 40.456L182.477 39.582H184.682L184.818 40.456C185.399 44.231 188.58 46.972 192.377 46.972C196.177 46.972 199.356 44.233 199.937 40.456L200.073 39.582H202.289L202.425 40.456C203.005 44.231 206.182 46.97 209.984 46.97C213.784 46.97 216.965 44.231 217.544 40.454L217.68 39.58H219.896L220.032 40.454C220.616 44.231 223.796 46.97 227.592 46.97C231.392 46.97 234.57 44.231 235.152 40.454L235.287 39.58H237.501L237.637 40.454C238.22 44.231 241.401 46.97 245.197 46.97C248.997 46.97 252.175 44.231 252.754 40.456L252.89 39.582H255.113L255.248 40.456C255.83 44.233 259.008 46.972 262.807 46.972C266.606 46.972 269.787 44.233 270.366 40.458L270.501 39.584H272.707L272.842 40.458C273.426 44.235 276.606 46.974 280.405 46.974C284.205 46.974 287.385 44.235 287.966 40.458L288.102 39.584H290.316L290.451 40.458C290.495 40.716 290.571 40.958 290.635 41.206C290.847 42.0397 291.196 42.8322 291.669 43.551C291.973 44.006 292.316 44.423 292.703 44.801C294.12 46.1931 296.027 46.9733 298.014 46.974C302.253 46.974 305.7 43.527 305.7 39.291C305.7 38.775 305.643 38.24 305.531 37.7L305.507 37.49V31.612H114.3ZM181.286 129.342H290.622V45.643C290.05 44.9705 289.571 44.2241 289.197 43.424C288.422 45.1045 287.181 46.5269 285.621 47.5219C284.061 48.5169 282.247 49.0424 280.397 49.036C278.547 49.0433 276.733 48.5184 275.173 47.5237C273.613 46.529 272.371 45.1066 271.597 43.426C270.822 45.1068 269.58 46.5294 268.02 47.524C266.459 48.5187 264.645 49.0436 262.794 49.036C260.944 49.0427 259.13 48.517 257.57 47.5216C256.01 46.5262 254.77 45.1031 253.996 43.422C253.222 45.1037 251.98 46.5272 250.42 47.5227C248.859 48.5181 247.044 49.0434 245.193 49.036C243.343 49.0429 241.53 48.5175 239.97 47.5224C238.411 46.5273 237.17 45.1046 236.397 43.424C235.623 45.1046 234.381 46.5271 232.821 47.5221C231.261 48.517 229.447 49.0426 227.597 49.036C225.747 49.0427 223.934 48.5172 222.374 47.5221C220.814 46.5271 219.573 45.1046 218.799 43.424C218.023 45.1046 216.781 46.5269 215.221 47.5219C213.66 48.5168 211.846 49.0423 209.995 49.036C208.145 49.0433 206.331 48.5184 204.771 47.5237C203.211 46.529 201.969 45.1066 201.195 43.426C200.42 45.1065 199.178 46.5288 197.617 47.5234C196.056 48.518 194.243 49.0431 192.392 49.036C190.542 49.0429 188.729 48.5177 187.168 47.523C185.608 46.5284 184.367 45.1063 183.592 43.426C182.817 45.1067 181.575 46.5291 180.014 47.5237C178.454 48.5184 176.64 49.0433 174.789 49.036C172.938 49.0431 171.125 48.5181 169.564 47.5234C168.004 46.5288 166.762 45.1065 165.987 43.426C165.213 45.1064 163.971 46.5287 162.411 47.5234C160.851 48.518 159.037 49.0431 157.187 49.036C155.337 49.0431 153.523 48.518 151.963 47.5234C150.403 46.5287 149.162 45.1064 148.387 43.426C147.611 45.1065 146.369 46.5287 144.808 47.5233C143.247 48.5179 141.433 49.0429 139.582 49.036C137.732 49.0433 135.918 48.5184 134.358 47.5237C132.798 46.529 131.556 45.1066 130.782 43.426C130.222 44.6315 129.42 45.7085 128.425 46.59V129.342H142.264V54.179H181.286V129.342ZM188.25 53.149V118.023H281.56V53.15L188.25 53.149ZM190.31 55.211H233.774V108.9H190.311L190.31 55.211ZM279.494 108.901H235.838V55.211H279.494V108.901ZM270.873 90.215L272.329 88.759L246.127 62.557L245.397 63.287L244.667 64.015L270.873 90.215ZM270.672 82.982L271.402 82.252L252.632 63.484L251.174 64.942L269.944 83.708L270.672 82.982ZM198.462 74.544L197.004 76.002L223.201 102.202L224.661 100.742L198.462 74.544ZM198.49 81.944L217.258 100.711L218.714 99.256L199.948 80.488L198.49 81.944ZM279.494 115.962H190.31V110.963H279.493L279.494 115.962ZM115.048 137.517H304.395V131.403H115.048V137.517Z" fill="#00558C"/>
</svg>
