<svg xmlns:mydata="http://www.w3.org/2000/svg" mydata:contrastcolor="ffffff" mydata:template="SingleColorHex1" mydata:presentation="2.5" mydata:layouttype="undefined" mydata:specialfontid="undefined" mydata:id1="008" mydata:id2="027" mydata:companyname="Dagracemarket" mydata:companytagline="trust" version="1.1" xmlns="http://www.w3.org/2000/svg" xmlns:xlink="http://www.w3.org/1999/xlink" viewBox="0 0 550 470"><g fill="#00558c" fill-rule="evenodd" stroke="none" stroke-width="1" stroke-linecap="butt" stroke-linejoin="miter" stroke-miterlimit="10" stroke-dasharray="" stroke-dashoffset="0" font-family="none" font-weight="none" font-size="none" text-anchor="none" style="mix-blend-mode: normal"><g data-paper-data="{&quot;isGlobalGroup&quot;:true,&quot;bounds&quot;:{&quot;x&quot;:76.55166771692144,&quot;y&quot;:106,&quot;width&quot;:396.896664566157,&quot;height&quot;:258}}"><g data-paper-data="{&quot;isContainerElementsWrapper&quot;:true}"><path d="M76.55167,360.42683c0,1.97311 1.59976,3.57317 3.57317,3.57317h389.75032c1.97311,0 3.57317,-1.60007 3.57317,-3.57317v-250.85365c0,-1.97339 -1.60007,-3.57317 -3.57317,-3.57317h-389.75032c-1.97341,0 -3.57317,1.59978 -3.57317,3.57317zM344.86479,182.45343c0,3.83973 -3.12367,6.96412 -6.96483,6.96412c-1.39997,0 -2.70418,-0.40949 -3.79614,-1.12341v58.51288h9.82694v7.31643h-138.26185v-7.31643h9.56039v-58.14413c-0.94403,0.47809 -2.00455,0.75465 -3.13224,0.75465c-3.23372,0 -5.97363,-2.18535 -6.734,-5.28044l-0.22797,-0.73679v-7.90886h0.72893l9.36672,-14.87441v-6.24234h118.87309v5.98007l10.40651,15.13668h0.21582v0.31372l0.02001,1.16057h-0.02001v4.12559c0.09362,0.45951 0.13864,0.91688 0.13864,1.36209zM332.62595,155.84829h-115.92236v3.70467h115.92236zM332.04495,175.49146h2.05886l8.62564,-0.00214l-8.62064,-12.53684l-0.7375,-1.07195l-0.58886,-0.85399h-7.78523l7.40076,14.28198zM247.7409,161.02653l0.27656,0.0779l-4.0384,14.38703h11.61711l-0.11077,-0.0193l2.40761,-14.44563zM216.70502,161.04368l-1.47429,2.33971l-7.62444,12.10806h10.34577l-0.3516,-0.17866l7.27284,-14.28484h-8.15899zM235.88439,161.02796h-10.21428l0.34946,0.17794l-7.27284,14.28555h11.80791l-0.33088,-0.13149zM246.8912,161.02796h-10.2007l0.33302,0.12935l-5.66134,14.33415h11.76718l-0.27656,-0.07861zM258.89563,161.02796l0.11434,0.01858l-2.40475,14.44492h11.52206l0.75966,-14.4635zM279.8716,161.02796h-9.88054l-0.76037,14.4635h11.53278zM280.97714,161.02796l0.89329,14.4635l11.5242,0.00143l-2.54196,-14.43991l0.14078,-0.02501zM302.12962,161.02796h-10.15996l2.54339,14.44134l-0.1365,0.02358h11.63926l-4.17061,-14.38203zM313.17644,161.02796h-10.20213l4.17132,14.38203l-0.28442,0.08147h11.77004l-5.79069,-14.32772zM319.43736,175.49146h11.80934l-7.4029,-14.28055l0.35303,-0.18295h-10.21571l5.79069,14.32914zM206.60937,176.96575v6.03938l0.08576,0.27942c0.41449,2.69918 2.68703,4.65656 5.40193,4.65656c1.167,0 2.23967,-0.37804 3.13224,-1.00621c0.26513,-0.18581 0.50882,-0.39376 0.73679,-0.62316c0.27799,-0.27942 0.52526,-0.58743 0.7375,-0.92474c0.39233,-0.62316 0.67819,-1.32636 0.79825,-2.10103l0.09719,-0.62459h1.5822l0.09505,0.62459c0.41377,2.69918 2.68703,4.65656 5.40193,4.65656c2.71633,0 4.99101,-1.95739 5.40478,-4.65656l0.09648,-0.62459h1.58292l0.09505,0.62459c0.41377,2.69918 2.68703,4.65656 5.40193,4.65656c2.7149,0 4.98601,-1.95739 5.40121,-4.65656l0.09576,-0.62459h1.57434l0.09719,0.62459c0.41377,2.69918 2.68631,4.65656 5.40264,4.65656c2.71704,0 4.98958,-1.95739 5.40335,-4.65656l0.09719,-0.62459h1.57577l0.09719,0.62459c0.4152,2.69775 2.68846,4.65656 5.40193,4.65656c2.71633,0 4.98744,-1.95739 5.40264,-4.65656l0.09719,-0.62459h1.58363l0.09719,0.62459c0.41377,2.69775 2.68488,4.65513 5.40193,4.65513c2.71633,0 4.98887,-1.95739 5.40264,-4.65656l0.09719,-0.62459h1.58363l0.09719,0.62459c0.41735,2.69918 2.68989,4.65656 5.40335,4.65656c2.7149,0 4.98601,-1.95739 5.40121,-4.65656l0.09719,-0.62459h1.5822l0.09719,0.62459c0.41663,2.69918 2.68989,4.65656 5.40335,4.65656c2.7149,0 4.98601,-1.95739 5.39978,-4.65513l0.09719,-0.62459h1.58863l0.09648,0.62459c0.41592,2.69918 2.68703,4.65656 5.40193,4.65656c2.7149,0 4.98744,-1.95739 5.40193,-4.65513l0.09648,-0.62459h1.57648l0.09648,0.62459c0.41735,2.69918 2.68989,4.65656 5.40478,4.65656c2.7149,0 4.98815,-1.95739 5.40335,-4.65656l0.09719,-0.62459h1.5822l0.09648,0.62459c0.03144,0.18438 0.08647,0.35803 0.13149,0.53455c0.15793,0.6103 0.40591,1.17272 0.73893,1.67582c0.21725,0.32516 0.46237,0.62316 0.73893,0.89401c0.98691,0.96047 2.3197,1.55219 3.79543,1.55219c3.02934,0 5.49268,-2.46335 5.49268,-5.49054c0,-0.36875 -0.04073,-0.75108 -0.12006,-1.13698l-0.01715,-0.15007v-4.20062zM254.47991,246.80702h78.13532v-59.81423c-0.40305,-0.47666 -0.74965,-1.00621 -1.01835,-1.58577c-1.11054,2.40618 -3.52101,4.01053 -6.28879,4.01053c-2.77135,0 -5.17896,-1.60293 -6.2895,-4.00839c-1.11197,2.40546 -3.51743,4.00839 -6.29022,4.00839c-2.76992,0 -5.17682,-1.60436 -6.28736,-4.01196c-1.11054,2.40761 -3.51815,4.01196 -6.29093,4.01196c-2.76778,0 -5.17467,-1.60293 -6.28593,-4.01053c-1.11483,2.40761 -3.51743,4.01053 -6.28879,4.01053c-2.76921,0 -5.17682,-1.60436 -6.28736,-4.01053c-1.1134,2.40618 -3.52101,4.01053 -6.29165,4.01053c-2.77135,0 -5.17896,-1.60293 -6.2895,-4.00839c-1.11197,2.40546 -3.52101,4.00839 -6.29022,4.00839c-2.76992,0 -5.17682,-1.60293 -6.28879,-4.00839c-1.11269,2.40546 -3.51958,4.00839 -6.29093,4.00839c-2.77135,0 -5.17824,-1.60293 -6.29022,-4.00839c-1.11269,2.40546 -3.51815,4.00839 -6.2895,4.00839c-2.77064,0 -5.1761,-1.60293 -6.28879,-4.00839c-1.1134,2.40546 -3.52101,4.00839 -6.29165,4.00839c-2.77135,0 -5.17824,-1.60293 -6.2895,-4.00839c-0.40448,0.87328 -0.98262,1.63651 -1.68368,2.26039v59.13747h9.88983v-53.7141h27.88648zM259.45662,192.35684v46.36123h66.68187v-46.36123zM260.92949,193.83042h31.06018v38.36803h-31.06018zM324.66277,232.19988h-31.1981v-38.36946h31.1981zM318.5019,218.8455l1.04051,-1.04051l-18.72486,-18.72486l-0.52168,0.52168l-0.52168,0.52025zM318.35826,213.67654l0.52168,-0.52168l-13.4137,-13.41227l-1.04194,1.04194l13.4137,13.41084zM266.75447,207.64646l-1.04194,1.04194l18.72129,18.72343l1.04408,-1.04337zM266.77448,212.93475l13.41227,13.41155l1.04051,-1.03979l-13.41084,-13.41227zM324.66277,237.2452h-63.73329v-3.57246h63.73329zM207.14392,252.64916h135.31398v-4.36928h-135.31398zM141.45618,277.09754c-2.64251,-2.64201 -5.81906,-3.96337 -9.5298,-3.96337h-5.19504c-0.24734,0 -0.48066,0.04788 -0.69998,0.14293c-0.21925,0.09576 -0.41041,0.22225 -0.57342,0.37947c-0.16308,0.15793 -0.29236,0.34588 -0.38798,0.56528c-0.09555,0.21939 -0.14336,0.45236 -0.14336,0.69963v23.41144c0,0.24726 0.04781,0.48095 0.14336,0.70034c0.09562,0.21939 0.2249,0.40734 0.38798,0.56456c0.16301,0.15793 0.35417,0.28442 0.57342,0.37947c0.21932,0.09576 0.45265,0.14364 0.69998,0.14364h5.19504c3.72196,0 6.89859,-1.31564 9.5298,-3.94693c2.64251,-2.64201 3.96372,-5.82427 3.96372,-9.54681c0,-1.88902 -0.3289,-3.61772 -0.9867,-5.18611c-0.65782,-1.56862 -1.65016,-3.01647 -2.97703,-4.34355zM151.32307,299.02468c-0.34803,0.73107 -0.89901,1.09625 -1.65274,1.09625c-0.25863,0 -0.49474,-0.04502 -0.70842,-0.13507c-0.2136,-0.09004 -0.40198,-0.21653 -0.56499,-0.37947c-0.16308,-0.16294 -0.28957,-0.35089 -0.37954,-0.56456c-0.08997,-0.21368 -0.13492,-0.45022 -0.13492,-0.70892c0,-0.23583 0.0506,-0.47738 0.15179,-0.72535l9.04092,-23.22563c0.35946,-0.83184 0.9276,-1.24775 1.70298,-1.24775c0.77609,0 1.34423,0.41592 1.70369,1.24775l9.04085,23.22563c0.10148,0.23654 0.1515,0.47809 0.1515,0.72535c0,0.2587 -0.04431,0.49524 -0.13435,0.70892c-0.09004,0.21368 -0.21653,0.40162 -0.37947,0.56456c-0.16365,0.16294 -0.35446,0.28943 -0.57385,0.37947c-0.21939,0.09004 -0.45236,0.13507 -0.69963,0.13507c-0.78753,0 -1.34423,-0.36542 -1.6701,-1.09625l-7.43863,-19.16079zM194.16543,297.11875c0.3709,-0.38233 0.5567,-0.80968 0.5567,-1.28206v-7.91029c0,-0.23654 -0.04788,-0.4638 -0.14364,-0.68319c-0.09576,-0.21939 -0.22511,-0.4102 -0.38805,-0.57385c-0.16294,-0.16294 -0.3516,-0.29229 -0.56456,-0.38733c-0.21368,-0.09576 -0.43879,-0.14364 -0.67533,-0.14364h-6.45959c-0.2587,0 -0.49524,0.04502 -0.7082,0.13507c-0.21368,0.09004 -0.40234,0.21653 -0.56528,0.37947c-0.16294,0.16294 -0.28943,0.35374 -0.37947,0.57314c-0.09004,0.21939 -0.13507,0.45308 -0.13507,0.70034c0,0.50596 0.17151,0.93045 0.51454,1.27348c0.34302,0.34302 0.76752,0.51454 1.27348,0.51454h4.65513v5.22827c-1.60793,1.06838 -3.42953,1.60221 -5.46481,1.60221c-2.75492,0 -5.09963,-0.9669 -7.03344,-2.9007c-1.92284,-1.92284 -2.88427,-4.26184 -2.88427,-7.017c0,-2.74348 0.96118,-5.07677 2.88427,-6.99985c1.94524,-1.94524 4.28995,-2.91785 7.03344,-2.91785c1.15842,0 2.25181,0.18009 3.28089,0.54026c1.02836,0.35946 1.97025,0.87686 2.82495,1.55147c0.35946,0.33731 0.77038,0.50596 1.23132,0.50596c0.24726,0 0.48023,-0.04502 0.69963,-0.13507c0.21939,-0.09004 0.41092,-0.21653 0.57385,-0.37947c0.16294,-0.16294 0.28943,-0.35112 0.37947,-0.56456c0.09004,-0.21368 0.13507,-0.45022 0.13507,-0.70892c0,-0.52812 -0.15793,-0.93903 -0.47237,-1.23132c-2.57483,-2.10246 -5.4591,-3.15368 -8.6528,-3.15368c-3.72182,0 -6.90409,1.32136 -9.54681,3.96337c-2.63129,2.63129 -3.94693,5.80784 -3.94693,9.52966c0,3.73325 1.31564,6.91552 3.94693,9.54681c2.63129,2.63129 5.81356,3.94693 9.54681,3.94693c3.14821,0 5.97625,-1.00073 8.48415,-3.00218zM197.43775,274.92147c0,-0.24726 0.04502,-0.48023 0.13435,-0.69963c0.09004,-0.21939 0.21653,-0.4102 0.37947,-0.57314c0.16365,-0.16365 0.3516,-0.29014 0.56528,-0.37947c0.21368,-0.09004 0.45022,-0.13507 0.7082,-0.13507h6.51104c1.13555,0 2.20679,0.21939 3.213,0.65746c1.00621,0.43879 1.88378,1.03479 2.63129,1.78802c0.74751,0.75323 1.34066,1.63294 1.77944,2.63986c0.43879,1.00621 0.65746,2.07744 0.65746,3.213c0,0.74179 -0.09219,1.46429 -0.27799,2.16749c-0.18581,0.70249 -0.46094,1.36638 -0.82612,1.99026c-0.36589,0.62388 -0.82112,1.20273 -1.36638,1.73728c-0.54527,0.53383 -1.17772,1.00335 -1.89736,1.40855l5.38049,8.6185c0.19081,0.31515 0.28657,0.64103 0.28657,0.97834c0,0.2587 -0.04502,0.49524 -0.13507,0.70892c-0.09004,0.21368 -0.21653,0.40162 -0.37947,0.56456c-0.16294,0.16294 -0.35446,0.28943 -0.57314,0.37947c-0.21939,0.09004 -0.45308,0.13507 -0.70034,0.13507c-0.62959,0 -1.14127,-0.29229 -1.53504,-0.87686l-5.95362,-9.52966h-5.02674v8.6185c0,0.49524 -0.17437,0.91688 -0.5224,1.2649c-0.34874,0.34874 -0.77038,0.52311 -1.26562,0.52311c-0.49453,0 -0.91616,-0.17437 -1.2649,-0.52311c-0.34874,-0.34803 -0.5224,-0.76966 -0.5224,-1.2649zM219.49924,300.12093c0.75323,0 1.30421,-0.36518 1.65295,-1.09625l7.45507,-19.16079l7.43863,19.16079c0.32587,0.73083 0.88234,1.09625 1.66939,1.09625c0.24798,0 0.48095,-0.04502 0.70034,-0.13507c0.21939,-0.09004 0.4102,-0.21653 0.57314,-0.37947c0.16365,-0.16294 0.29014,-0.35089 0.37947,-0.56456c0.09004,-0.21368 0.13507,-0.45022 0.13507,-0.70892c0,-0.24726 -0.05074,-0.48881 -0.1515,-0.72535l-9.04085,-23.22563c-0.35946,-0.83184 -0.9276,-1.24775 -1.70369,-1.24775c-0.77538,0 -1.34351,0.41592 -1.70298,1.24775l-9.04085,23.22563c-0.10148,0.24798 -0.15222,0.48952 -0.15222,0.72535c0,0.2587 0.04502,0.49524 0.13507,0.70892c0.09004,0.21368 0.21653,0.40162 0.37947,0.56456c0.16294,0.16294 0.3516,0.28943 0.56528,0.37947c0.21368,0.09004 0.44951,0.13507 0.7082,0.13507zM262.76324,294.04868c0.24726,0 0.47738,0.04788 0.69105,0.14364c0.21368,0.09576 0.40234,0.22225 0.56528,0.37947c0.16294,0.15722 0.29229,0.34588 0.38805,0.56528c0.09576,0.21868 0.14293,0.45236 0.14293,0.69963c0,0.47237 -0.18509,0.89973 -0.55599,1.28206c-2.50789,2.00145 -5.33594,3.00218 -8.48415,3.00218c-3.73325,0 -6.91552,-1.31564 -9.54681,-3.94693c-2.63129,-2.63129 -3.94693,-5.81356 -3.94693,-9.54681c0,-3.72182 1.31564,-6.89837 3.94693,-9.52966c2.64272,-2.64201 5.82499,-3.96337 9.54681,-3.96337c3.19299,0 6.07726,1.05123 8.6528,3.15368c0.31444,0.30372 0.47166,0.71392 0.47166,1.23132c0,0.2587 -0.04431,0.49524 -0.13435,0.70892c-0.09004,0.21296 -0.21653,0.40162 -0.37947,0.56456c-0.16365,0.16294 -0.35446,0.28943 -0.57385,0.37947c-0.21939,0.09004 -0.45236,0.13507 -0.69963,0.13507c-0.43879,0 -0.84899,-0.16865 -1.23132,-0.50596c-0.8547,-0.67462 -1.79659,-1.19201 -2.82567,-1.55147c-1.02836,-0.36018 -2.12247,-0.54026 -3.28017,-0.54026c-2.74372,0 -5.0882,0.97262 -7.03344,2.91785c-1.92308,1.92308 -2.88427,4.25637 -2.88427,6.99985c0,2.75516 0.96142,5.09416 2.88427,7.017c1.9338,1.9338 4.27852,2.9007 7.03344,2.9007c2.34972,0 4.41859,-0.72464 6.2066,-2.17535c0.29229,-0.20224 0.64103,-0.30944 1.04623,-0.32087zM285.03555,273.26924c-0.21939,-0.09004 -0.45236,-0.13507 -0.69963,-0.13507h-15.60191c-0.2587,0 -0.49524,0.04502 -0.7082,0.13507c-0.21368,0.08933 -0.40234,0.21582 -0.56528,0.37947c-0.16294,0.16294 -0.28943,0.35374 -0.37947,0.57314c-0.09004,0.21939 -0.13507,0.45236 -0.13507,0.69963c0,0.2587 0.04502,0.49524 0.13507,0.70892c0.09004,0.21368 0.21653,0.40162 0.37947,0.56456c0.16294,0.16365 0.3516,0.29014 0.56528,0.38019c0.21296,0.08933 0.44951,0.13435 0.7082,0.13435h15.60191c0.24726,0 0.48023,-0.04502 0.69963,-0.13435c0.21939,-0.09004 0.41092,-0.21653 0.57385,-0.38019c0.16294,-0.16294 0.28943,-0.35089 0.37947,-0.56456c0.09004,-0.21368 0.13507,-0.45022 0.13507,-0.70892c0,-0.24726 -0.04502,-0.48023 -0.13507,-0.69963c-0.09004,-0.21939 -0.21653,-0.4102 -0.37947,-0.57314c-0.16294,-0.16365 -0.35446,-0.29014 -0.57385,-0.37947zM288.60301,274.92147c0,-0.24726 0.04502,-0.48023 0.13507,-0.69963c0.09004,-0.21939 0.21653,-0.4102 0.37947,-0.57314c0.16294,-0.16365 0.3516,-0.29014 0.56528,-0.37947c0.21368,-0.09004 0.44951,-0.13507 0.7082,-0.13507c0.69748,0 1.2256,0.32016 1.58577,0.96118l10.11995,20.22345l10.11995,-20.22345c0.4052,-0.64103 0.93331,-0.96118 1.58577,-0.96118c0.24726,0 0.48023,0.04502 0.69963,0.13507c0.21939,0.08933 0.41092,0.21582 0.57385,0.37947c0.16294,0.16294 0.28943,0.35374 0.37947,0.57314c0.09004,0.21939 0.13507,0.45236 0.13507,0.69963v23.41144c0,0.495 -0.17437,0.91664 -0.52311,1.2649c-0.34874,0.34874 -0.77038,0.52311 -1.2649,0.52311c-0.49524,0 -0.91688,-0.17437 -1.2649,-0.52311c-0.34874,-0.34803 -0.52311,-0.76966 -0.52311,-1.2649v-15.8213l-8.36623,16.71531c-0.34874,0.59601 -0.86542,0.89401 -1.55147,0.89401c-0.74251,0 -1.28777,-0.35946 -1.63651,-1.0791l-8.28119,-16.53022v15.8213c0,0.495 -0.17437,0.91664 -0.52311,1.2649c-0.34874,0.34874 -0.77038,0.52311 -1.2649,0.52311c-0.49453,0 -0.91616,-0.17437 -1.2649,-0.52311c-0.34874,-0.34803 -0.52311,-0.76966 -0.52311,-1.2649zM320.02622,300.12093c0.75323,0 1.30421,-0.36518 1.65295,-1.09625l7.45507,-19.16079l7.43863,19.16079c0.32587,0.73083 0.88234,1.09625 1.66939,1.09625c0.24726,0 0.48095,-0.04502 0.70034,-0.13507c0.21939,-0.09004 0.4102,-0.21653 0.57314,-0.37947c0.16294,-0.16294 0.28943,-0.35089 0.37947,-0.56456c0.09004,-0.21368 0.13507,-0.45022 0.13507,-0.70892c0,-0.24726 -0.05074,-0.48881 -0.1515,-0.72535l-9.04085,-23.22563c-0.36018,-0.83184 -0.9276,-1.24775 -1.70369,-1.24775c-0.77609,0 -1.34351,0.41592 -1.70369,1.24775l-9.04085,23.22563c-0.10076,0.24798 -0.1515,0.48952 -0.1515,0.72535c0,0.2587 0.04502,0.49524 0.13507,0.70892c0.09004,0.21368 0.21653,0.40162 0.37947,0.56456c0.16294,0.16294 0.3516,0.28943 0.56528,0.37947c0.21368,0.09004 0.44951,0.13507 0.7082,0.13507zM342.49291,274.92147c0,-0.24726 0.04502,-0.48023 0.13507,-0.69963c0.09004,-0.21939 0.21653,-0.4102 0.37947,-0.57314c0.16294,-0.16365 0.3516,-0.29014 0.56456,-0.37947c0.21368,-0.09004 0.45022,-0.13507 0.70892,-0.13507h6.51032c1.13555,0 2.20679,0.21939 3.213,0.65746c1.00692,0.43879 1.88378,1.03479 2.63129,1.78802c0.74822,0.75323 1.34137,1.63294 1.77944,2.63986c0.43879,1.00621 0.65818,2.07744 0.65818,3.213c0,0.74179 -0.0929,1.46429 -0.27871,2.16749c-0.18533,0.70272 -0.4607,1.36614 -0.82612,1.99026c-0.36518,0.62388 -0.82112,1.20273 -1.36638,1.73728c-0.54527,0.53383 -1.17772,1.00335 -1.89736,1.40855l5.38049,8.6185c0.19081,0.31515 0.28657,0.64103 0.28657,0.97834c0,0.2587 -0.04502,0.49524 -0.13507,0.70892c-0.08933,0.21368 -0.21653,0.40162 -0.37947,0.56456c-0.16294,0.16294 -0.35374,0.28943 -0.57314,0.37947c-0.21939,0.09004 -0.45236,0.13507 -0.70034,0.13507c-0.62959,0 -1.14127,-0.29229 -1.53432,-0.87686l-5.95434,-9.52966h-5.02603v8.6185c0,0.49524 -0.17437,0.91688 -0.52311,1.2649c-0.34874,0.34874 -0.77038,0.52311 -1.2649,0.52311c-0.49524,0 -0.91688,-0.17437 -1.2649,-0.52311c-0.34874,-0.34803 -0.52311,-0.76966 -0.52311,-1.2649zM363.25592,273.65657c-0.34874,0.34874 -0.5224,0.77038 -0.5224,1.2649v23.41144c0,0.49524 0.17366,0.91688 0.5224,1.2649c0.34874,0.34874 0.77038,0.52311 1.2649,0.52311c0.49524,0 0.91688,-0.17437 1.2649,-0.52311c0.34874,-0.34827 0.52311,-0.7699 0.52311,-1.2649v-8.34908l2.37831,-2.37831l8.66995,11.75646c0.33731,0.50596 0.83755,0.75894 1.50073,0.75894c0.24726,0 0.47785,-0.0505 0.69177,-0.1515c0.21368,-0.10148 0.39877,-0.23654 0.5567,-0.4052c0.15722,-0.16865 0.28085,-0.36518 0.3709,-0.59029c0.09004,-0.22511 0.13507,-0.45522 0.13507,-0.69177c0,-0.3597 -0.11244,-0.69701 -0.33731,-1.01192l-9.0237,-12.22812l8.83789,-8.85504c0.34874,-0.34874 0.52311,-0.77038 0.52311,-1.26562c0,-0.24726 -0.04502,-0.48023 -0.13507,-0.69963c-0.09004,-0.21939 -0.21653,-0.4102 -0.37947,-0.57314c-0.16294,-0.16365 -0.35446,-0.29014 -0.57385,-0.37947c-0.21868,-0.09004 -0.45236,-0.13507 -0.69963,-0.13507c-0.49453,0 -0.9276,0.18509 -1.29849,0.5567l-11.21691,11.2162v-9.98559c0,-0.49453 -0.17437,-0.91616 -0.52311,-1.2649c-0.34803,-0.34803 -0.76966,-0.5224 -1.2649,-0.5224c-0.49453,0 -0.91616,0.17413 -1.2649,0.5224zM400.37977,273.13417c0.24798,0 0.48095,0.04502 0.70034,0.13507c0.21939,0.08933 0.4102,0.21582 0.57314,0.37947c0.16365,0.16294 0.29014,0.35374 0.37947,0.57314c0.09004,0.21939 0.13507,0.45236 0.13507,0.69963c0,0.2587 -0.04502,0.49524 -0.13507,0.70892c-0.08933,0.21368 -0.21582,0.40162 -0.37947,0.56456c-0.16294,0.16365 -0.35374,0.29014 -0.57314,0.38019c-0.21939,0.08933 -0.45236,0.13435 -0.70034,0.13435h-15.60119c-0.2587,0 -0.49524,-0.04502 -0.70892,-0.13435c-0.21368,-0.09004 -0.40162,-0.21653 -0.56456,-0.38019c-0.16365,-0.16294 -0.29014,-0.35089 -0.38019,-0.56456c-0.08933,-0.21368 -0.13435,-0.45022 -0.13435,-0.70892c0,-0.24726 0.04502,-0.48023 0.13435,-0.69963c0.09004,-0.21939 0.21653,-0.4102 0.38019,-0.57314c0.16294,-0.16365 0.35089,-0.29014 0.56456,-0.37947c0.21368,-0.09004 0.45022,-0.13507 0.70892,-0.13507zM416.62271,276.70949h6.66254c0.49453,0 0.91688,-0.17437 1.2649,-0.5224c0.34874,-0.34874 0.52311,-0.77038 0.52311,-1.26562c0,-0.49453 -0.17437,-0.91616 -0.52311,-1.2649c-0.34827,-0.34827 -0.7699,-0.5224 -1.2649,-0.5224h-16.9004c-0.495,0 -0.91664,0.17413 -1.2649,0.5224c-0.34874,0.34874 -0.52311,0.77038 -0.52311,1.2649c0,0.49524 0.17437,0.91688 0.52311,1.26562c0.34803,0.34803 0.76966,0.5224 1.2649,0.5224h6.66254v21.62342c0,0.49524 0.17437,0.91688 0.5224,1.2649c0.34874,0.34874 0.77038,0.52311 1.2649,0.52311c0.49524,0 0.91688,-0.17437 1.26562,-0.52311c0.34803,-0.34803 0.5224,-0.76966 0.5224,-1.2649zM138.92615,293.64419c-1.93409,1.9338 -4.26737,2.9007 -6.99978,2.9007h-3.40709v-19.83541h3.40709c2.72119,0 5.05445,0.97262 6.99978,2.91785c1.94531,1.94595 2.91793,4.27923 2.91793,6.99985c0,1.39425 -0.24176,2.66773 -0.72521,3.82044c-0.48352,1.15271 -1.21445,2.21823 -2.19271,3.19656zM201.01306,276.70949v9.42889h4.72302c0.65175,0 1.2649,-0.12363 1.83804,-0.3709c0.57385,-0.24726 1.07124,-0.58743 1.49287,-1.0205c0.42163,-0.43307 0.75632,-0.93355 1.00406,-1.50145c0.24726,-0.56742 0.3709,-1.172 0.3709,-1.81303c0,-0.65222 -0.12363,-1.26514 -0.3709,-1.83876c-0.24798,-0.57314 -0.58529,-1.07338 -1.01264,-1.50073c-0.42688,-0.42735 -0.92712,-0.76466 -1.50073,-1.01192c-0.57385,-0.24798 -1.18058,-0.37161 -1.8216,-0.37161zM346.06895,276.70949v9.42889h4.72231c0.65246,0 1.2649,-0.12363 1.83876,-0.3709c0.57314,-0.24726 1.07124,-0.58743 1.49287,-1.0205c0.42163,-0.43307 0.75608,-0.93355 1.00335,-1.50145c0.24726,-0.56742 0.3709,-1.172 0.3709,-1.81303c0,-0.65246 -0.12363,-1.2649 -0.3709,-1.83876c-0.24726,-0.57314 -0.58457,-1.07338 -1.01192,-1.50073c-0.42735,-0.42735 -0.9276,-0.76466 -1.50145,-1.01192c-0.57314,-0.24798 -1.18058,-0.37161 -1.8216,-0.37161zM283.73706,284.97424c-0.21939,-0.08933 -0.45236,-0.13435 -0.70034,-0.13435h-13.02065c-0.24774,0.01096 -0.47547,0.06718 -0.68319,0.16865c-0.20796,0.10076 -0.39091,0.23297 -0.54812,0.39591c-0.15793,0.16294 -0.28157,0.3516 -0.37161,0.56528c-0.08933,0.21368 -0.13435,0.43307 -0.13435,0.65746c0,0.5174 0.17937,0.93903 0.53955,1.26562c0.38233,0.33731 0.7811,0.51096 1.19773,0.5224h13.02065c0.24798,0 0.48095,-0.04502 0.70034,-0.13507c0.21939,-0.08933 0.4102,-0.21582 0.57314,-0.37947c0.16365,-0.16294 0.29014,-0.35089 0.37947,-0.56456c0.09004,-0.21368 0.13507,-0.45022 0.13507,-0.70892c0,-0.24726 -0.04502,-0.48023 -0.13507,-0.69963c-0.08933,-0.21939 -0.21582,-0.4102 -0.37947,-0.57385c-0.16294,-0.16294 -0.35374,-0.28943 -0.57314,-0.37947zM399.08128,284.83989c0.24726,0 0.48095,0.04502 0.70034,0.13435c0.21868,0.09004 0.4102,0.21653 0.57314,0.37947c0.16294,0.16365 0.28943,0.35446 0.37947,0.57385c0.09004,0.21939 0.13507,0.45236 0.13507,0.69963c0,0.2587 -0.04502,0.49524 -0.13507,0.70892c-0.09004,0.21368 -0.21653,0.40162 -0.37947,0.56456c-0.16294,0.16365 -0.35446,0.29014 -0.57314,0.37947c-0.21939,0.09004 -0.45308,0.13507 -0.70034,0.13507h-13.02136c-0.41592,-0.01143 -0.8154,-0.18509 -1.19701,-0.5224c-0.36018,-0.32659 -0.54026,-0.74822 -0.54026,-1.26562c0,-0.2244 0.04502,-0.44379 0.13507,-0.65746c0.09004,-0.21368 0.21368,-0.40234 0.3709,-0.56528c0.15793,-0.16294 0.34017,-0.29514 0.54812,-0.39591c0.2082,-0.10148 0.43593,-0.1577 0.68319,-0.16865zM285.03555,296.67996c-0.21939,-0.09004 -0.45236,-0.13507 -0.69963,-0.13507h-15.60191c-0.2587,0 -0.49524,0.04502 -0.7082,0.13507c-0.21368,0.09004 -0.40234,0.21653 -0.56528,0.37947c-0.16294,0.16294 -0.28943,0.35446 -0.37947,0.57385c-0.09004,0.21939 -0.13507,0.45236 -0.13507,0.69963c0,0.2587 0.04502,0.49524 0.13507,0.70892c0.09004,0.21368 0.21653,0.40162 0.37947,0.56456c0.16294,0.16294 0.3516,0.28943 0.56528,0.37947c0.21296,0.09004 0.44951,0.13507 0.7082,0.13507h15.60191c0.24726,0 0.48023,-0.04502 0.69963,-0.13507c0.21939,-0.09004 0.41092,-0.21653 0.57385,-0.37947c0.16294,-0.16294 0.28943,-0.35089 0.37947,-0.56456c0.09004,-0.21368 0.13507,-0.45022 0.13507,-0.70892c0,-0.24726 -0.04502,-0.48023 -0.13507,-0.69963c-0.09004,-0.21939 -0.21653,-0.41092 -0.37947,-0.57385c-0.16294,-0.16294 -0.35446,-0.28943 -0.57385,-0.37947zM400.37977,296.5449c0.24798,0 0.48095,0.04502 0.70034,0.13507c0.21939,0.09004 0.4102,0.21653 0.57314,0.37947c0.16365,0.16294 0.29014,0.35446 0.37947,0.57385c0.09004,0.21939 0.13507,0.45236 0.13507,0.69963c0,0.2587 -0.04502,0.49524 -0.13507,0.70892c-0.08933,0.21368 -0.21582,0.40162 -0.37947,0.56456c-0.16294,0.16294 -0.35374,0.28943 -0.57314,0.37947c-0.21939,0.09004 -0.45236,0.13507 -0.70034,0.13507h-15.60119c-0.2587,0 -0.49524,-0.04502 -0.70892,-0.13507c-0.21368,-0.09004 -0.40162,-0.21653 -0.56456,-0.37947c-0.16365,-0.16294 -0.29014,-0.35089 -0.38019,-0.56456c-0.08933,-0.21368 -0.13435,-0.45022 -0.13435,-0.70892c0,-0.24726 0.04502,-0.48023 0.13435,-0.69963c0.09004,-0.21939 0.21653,-0.41092 0.38019,-0.57385c0.16294,-0.16294 0.35089,-0.28943 0.56456,-0.37947c0.21368,-0.09004 0.45022,-0.13507 0.70892,-0.13507zM296.08881,310.49743c-0.10648,-0.11005 -0.16008,-0.24512 -0.16008,-0.40448c0,-0.13959 0.0374,-0.25774 0.1122,-0.35446c0.07504,-0.09648 0.17366,-0.1758 0.29514,-0.23726c0.12149,-0.06146 0.25941,-0.10648 0.41449,-0.13507c0.15436,-0.02787 0.31158,-0.04216 0.47166,-0.04216c0.16937,0 0.32516,0.00858 0.46666,0.02501c0.1415,0.01644 0.27871,0.04359 0.41163,0.08004c0.13364,0.03645 0.26727,0.0829 0.40234,0.13935c0.13435,0.05717 0.28014,0.12506 0.43664,0.2051c0.08337,0.04335 0.17485,0.06503 0.27442,0.06503c0.07647,0 0.15079,-0.01429 0.22225,-0.04288c0.07146,-0.02787 0.13435,-0.06718 0.18723,-0.1172c0.0536,-0.05002 0.09576,-0.11005 0.12721,-0.17937c0.03144,-0.07003 0.04788,-0.1465 0.04788,-0.23011c0,-0.14293 -0.04288,-0.27299 -0.12792,-0.38948c-0.08433,-0.11649 -0.19724,-0.22011 -0.33659,-0.31158c-0.14007,-0.09147 -0.30015,-0.17151 -0.48166,-0.24012c-0.18152,-0.06789 -0.37018,-0.12363 -0.56671,-0.16722c-0.19652,-0.04288 -0.39305,-0.07575 -0.58957,-0.09719c-0.19581,-0.02144 -0.37733,-0.03216 -0.54384,-0.03216c-0.45951,0 -0.87328,0.05145 -1.24061,0.15436c-0.36804,0.10362 -0.68105,0.24941 -0.93903,0.4395c-0.25798,0.18938 -0.45594,0.41949 -0.59386,0.68891c-0.13792,0.26942 -0.20724,0.57099 -0.20724,0.90401c0,0.25298 0.0324,0.47499 0.09719,0.66604c0.06503,0.19152 0.1658,0.36232 0.30229,0.51168c0.1365,0.15007 0.31301,0.28514 0.52954,0.40448c0.21582,0.12006 0.47595,0.23511 0.77824,0.34445l0.46952,0.16508c0.04002,0.01286 0.07504,0.02573 0.10505,0.03716c0.03001,0.01215 0.06074,0.02358 0.09219,0.03502c0.03144,0.01143 0.06718,0.02358 0.1072,0.03502c0.04002,0.01143 0.08861,0.0243 0.14507,0.03716l0.25941,0.07504c0.04645,0.01358 0.09004,0.02787 0.13006,0.04288c0.04002,0.01501 0.08147,0.02859 0.12435,0.04216l0.22511,0.08004c0.10291,0.03645 0.20153,0.07861 0.29443,0.12721c0.0929,0.04788 0.17509,0.10505 0.24441,0.16937c0.07003,0.06503 0.12506,0.14078 0.16508,0.22725c0.04002,0.08647 0.06003,0.18509 0.06003,0.29514c0,0.14579 -0.03359,0.27085 -0.10005,0.37375c-0.06646,0.10362 -0.15722,0.18723 -0.27228,0.25227c-0.11434,0.06503 -0.24798,0.11363 -0.39948,0.14507c-0.1515,0.03144 -0.31158,0.04717 -0.48166,0.04717c-0.31301,0 -0.61244,-0.04145 -0.8983,-0.12435c-0.28657,-0.08361 -0.54455,-0.17651 -0.77395,-0.28014c-0.07003,-0.02644 -0.13578,-0.05646 -0.19724,-0.08933c-0.06146,-0.03359 -0.12149,-0.06432 -0.18009,-0.0929c-0.05789,-0.02787 -0.11577,-0.05217 -0.17223,-0.07218c-0.05646,-0.02001 -0.11434,-0.03001 -0.17437,-0.03001c-0.06646,0 -0.13435,0.02001 -0.20224,0.06003c-0.0686,0.04002 -0.13006,0.09219 -0.18509,0.15722c-0.05431,0.06503 -0.09933,0.13721 -0.13435,0.21725c-0.03502,0.08004 -0.05288,0.16151 -0.05288,0.24441c0,0.13006 0.04216,0.25227 0.12506,0.36732c0.0829,0.11434 0.19795,0.22011 0.34445,0.31658c0.1465,0.09648 0.31801,0.18366 0.51454,0.26013c0.19629,0.07623 0.40591,0.14102 0.62888,0.19438c0.22297,0.0536 0.45451,0.09433 0.69391,0.1222c0.2394,0.02859 0.47738,0.04288 0.71392,0.04288c0.45951,0 0.87257,-0.05288 1.24061,-0.15722c0.36804,-0.10505 0.68176,-0.25584 0.94117,-0.45236c0.25941,-0.19581 0.4588,-0.43378 0.59672,-0.71392c0.13792,-0.27942 0.20724,-0.59386 0.20724,-0.94332c0,-0.31944 -0.05574,-0.59315 -0.16722,-0.82112c-0.11148,-0.22797 -0.26942,-0.42521 -0.47452,-0.59172c-0.20439,-0.16651 -0.45093,-0.30944 -0.73893,-0.4295c-0.288,-0.12006 -0.60815,-0.23297 -0.96118,-0.33945c-0.21939,-0.0636 -0.43736,-0.12506 -0.65389,-0.18509c-0.2163,-0.05955 -0.4102,-0.12935 -0.58171,-0.20939c-0.17151,-0.08004 -0.31015,-0.17437 -0.41663,-0.28442zM231.03559,309.46621c0.08647,0.03502 0.17794,0.05288 0.27442,0.05288h1.36853v4.95742c0,0.1365 0.02358,0.2637 0.07218,0.38162c0.04788,0.11863 0.11363,0.22154 0.19724,0.30944c0.0829,0.08861 0.1808,0.15793 0.29229,0.20724c0.11148,0.05002 0.23154,0.07504 0.36161,0.07504c0.13006,0 0.25084,-0.02501 0.36232,-0.07504c0.11148,-0.04931 0.20939,-0.11863 0.29443,-0.20724c0.08504,-0.0879 0.1515,-0.19081 0.19938,-0.30944c0.0486,-0.11791 0.07218,-0.24512 0.07218,-0.38162v-4.95742h1.33851c0.09648,0 0.18795,-0.01787 0.27442,-0.05288c0.08647,-0.03502 0.16222,-0.08218 0.22725,-0.14221c0.06479,-0.06003 0.11625,-0.12983 0.15436,-0.20939c0.03859,-0.08004 0.05789,-0.16508 0.05789,-0.25512c0,-0.08933 -0.0193,-0.17509 -0.05789,-0.25655c-0.03811,-0.08194 -0.08957,-0.15269 -0.15436,-0.21225c-0.06503,-0.06003 -0.14078,-0.10791 -0.22725,-0.14221c-0.08647,-0.03502 -0.17794,-0.05288 -0.27442,-0.05288h-4.55866c-0.09648,0 -0.18795,0.01787 -0.27442,0.05288c-0.08647,0.0343 -0.16222,0.08218 -0.22725,0.14221c-0.06479,0.05955 -0.11625,0.1303 -0.15436,0.21225c-0.03859,0.08147 -0.05789,0.16722 -0.05789,0.25655c0,0.09004 0.0193,0.17509 0.05789,0.25512c0.03811,0.07956 0.08957,0.14936 0.15436,0.20939c0.06503,0.06003 0.14078,0.1072 0.22725,0.14221zM252.90485,314.85813c0.0486,-0.11791 0.07289,-0.24512 0.07289,-0.38162v-2.01241h1.01335c0.24583,0 0.44022,0.02501 0.58171,0.07504c0.1415,0.05002 0.25012,0.13507 0.32659,0.25441c0.07647,0.12006 0.13221,0.27728 0.16722,0.47237c0.03502,0.19438 0.06932,0.43664 0.10291,0.72607c0.02287,0.2001 0.0536,0.38733 0.09219,0.5617c0.03788,0.17509 0.09362,0.32873 0.16722,0.46165c0.07289,0.13364 0.16508,0.23797 0.27728,0.31515c0.11148,0.07647 0.25012,0.11434 0.41663,0.11434c0.18295,0 0.33302,-0.0243 0.44951,-0.07218c0.11649,-0.0486 0.20796,-0.11577 0.27442,-0.20224c0.06646,-0.08647 0.11291,-0.19009 0.13935,-0.30944c0.02716,-0.12006 0.04002,-0.25155 0.04002,-0.39448c0,-0.06646 -0.00143,-0.13435 -0.005,-0.20224c-0.00286,-0.0686 -0.00786,-0.13935 -0.01501,-0.21225c-0.02287,-0.26299 -0.04788,-0.4981 -0.07432,-0.70677c-0.02716,-0.20796 -0.06217,-0.39305 -0.10505,-0.55599c-0.04359,-0.16365 -0.0979,-0.30515 -0.16508,-0.42449c-0.06646,-0.12006 -0.15293,-0.22225 -0.25941,-0.30729c-0.10648,-0.08504 -0.23511,-0.15293 -0.38662,-0.20439c-0.1515,-0.05217 -0.33373,-0.09076 -0.5467,-0.11791v-0.02001c0.29586,-0.04931 0.5467,-0.12721 0.75108,-0.23154c0.2051,-0.10505 0.37018,-0.23154 0.49667,-0.37947c0.12649,-0.14864 0.21796,-0.31444 0.27442,-0.49953c0.05717,-0.18438 0.08504,-0.38019 0.08504,-0.58672c0,-0.37923 -0.07742,-0.687 -0.23226,-0.92331c-0.15436,-0.23654 -0.36089,-0.42092 -0.61887,-0.55456c-0.25798,-0.13292 -0.5567,-0.22368 -0.89615,-0.27228c-0.33945,-0.04788 -0.69391,-0.07218 -1.06338,-0.07218h-2.00169c-0.15365,0 -0.29943,0.0193 -0.43736,0.05789c-0.13792,0.03788 -0.2587,0.09505 -0.36161,0.17223c-0.10362,0.07647 -0.18581,0.17223 -0.24726,0.28657c-0.06146,0.11506 -0.09219,0.24869 -0.09219,0.40234v5.36191c0,0.1365 0.02358,0.2637 0.07218,0.38162c0.04788,0.11863 0.11363,0.22154 0.19724,0.30944c0.0829,0.08861 0.1808,0.15793 0.29229,0.20724c0.11148,0.05002 0.23154,0.07504 0.36161,0.07504c0.13006,0 0.25084,-0.02501 0.36232,-0.07504c0.11148,-0.04931 0.20939,-0.11863 0.29443,-0.20724c0.08504,-0.0879 0.1515,-0.19081 0.19938,-0.30944zM276.82654,309.16892c0,-0.13578 0.02358,-0.2637 0.07218,-0.38162c0.04788,-0.11791 0.11363,-0.22154 0.19724,-0.30944c0.0829,-0.08861 0.1808,-0.15722 0.29229,-0.20724c0.11148,-0.05002 0.23154,-0.07504 0.36161,-0.07504c0.13006,0 0.25084,0.02501 0.36232,0.07504c0.11148,0.05002 0.20939,0.11863 0.29443,0.20724c0.08504,0.0879 0.1515,0.19152 0.19938,0.30944c0.0486,0.11791 0.07289,0.24583 0.07289,0.38162v3.82473c0,0.4395 -0.0779,0.82326 -0.23226,1.15056c-0.15508,0.32802 -0.37161,0.60172 -0.6496,0.82112c-0.27728,0.22011 -0.60815,0.38447 -0.99048,0.49453c-0.38304,0.11005 -0.80254,0.16508 -1.25847,0.16508c-0.44951,0 -0.86471,-0.05431 -1.24561,-0.16222c-0.38114,-0.10815 -0.71059,-0.27061 -0.98834,-0.48738c-0.27799,-0.21582 -0.49524,-0.48881 -0.65175,-0.81826c-0.15651,-0.32945 -0.2344,-0.71749 -0.2344,-1.16343v-3.82473c0,-0.13578 0.0243,-0.2637 0.07218,-0.38162c0.0486,-0.11791 0.11434,-0.22154 0.19724,-0.30944c0.0829,-0.08861 0.1808,-0.15722 0.29229,-0.20724c0.11148,-0.05002 0.23226,-0.07504 0.36161,-0.07504c0.13006,0 0.25084,0.02501 0.36232,0.07504c0.11148,0.05002 0.20939,0.11863 0.29443,0.20724c0.08504,0.0879 0.1515,0.19152 0.19938,0.30944c0.0486,0.11791 0.07289,0.24583 0.07289,0.38162l0.005,3.79471c0,0.2394 0.03645,0.44593 0.10934,0.61887c0.07361,0.17294 0.16937,0.31444 0.28728,0.42449c0.11815,0.11005 0.25298,0.19152 0.40448,0.24441c0.1515,0.0536 0.30515,0.08004 0.46165,0.08004c0.16008,0 0.31563,-0.02668 0.46666,-0.08004c0.1515,-0.05288 0.28728,-0.13435 0.40734,-0.24441c0.11934,-0.11005 0.21725,-0.25155 0.29157,-0.42449c0.07504,-0.17294 0.11291,-0.37947 0.11291,-0.61887zM314.1312,309.51909c-0.09648,0 -0.18795,-0.01787 -0.27442,-0.05288c-0.08647,-0.03502 -0.16222,-0.08218 -0.22725,-0.14221c-0.06503,-0.06003 -0.11649,-0.13006 -0.15436,-0.20939c-0.03859,-0.08004 -0.05789,-0.16508 -0.05789,-0.25512c0,-0.08933 0.0193,-0.17509 0.05789,-0.25655c0.03788,-0.08218 0.08933,-0.15293 0.15436,-0.21225c0.06503,-0.06003 0.14078,-0.10791 0.22725,-0.14221c0.08647,-0.03502 0.17794,-0.05288 0.27442,-0.05288h4.55866c0.09648,0 0.18795,0.01787 0.27442,0.05288c0.08647,0.0343 0.16222,0.08218 0.22725,0.14221c0.06503,0.05931 0.11649,0.13006 0.15436,0.21225c0.03859,0.08147 0.05789,0.16722 0.05789,0.25655c0,0.09004 -0.0193,0.17509 -0.05789,0.25512c-0.03788,0.07932 -0.08933,0.14936 -0.15436,0.20939c-0.06503,0.06003 -0.14078,0.1072 -0.22725,0.14221c-0.08647,0.03502 -0.17794,0.05288 -0.27442,0.05288h-1.33851v4.95742c0,0.1365 -0.02358,0.2637 -0.07218,0.38162c-0.0486,0.11863 -0.11506,0.22154 -0.19938,0.30944c-0.08504,0.08861 -0.18366,0.15793 -0.29514,0.20724c-0.11148,0.05002 -0.23154,0.07504 -0.36161,0.07504c-0.13006,0 -0.25084,-0.02501 -0.36232,-0.07504c-0.11148,-0.04931 -0.20867,-0.11863 -0.29157,-0.20724c-0.08361,-0.0879 -0.14936,-0.19081 -0.19724,-0.30944c-0.0486,-0.11791 -0.07289,-0.24512 -0.07289,-0.38162v-4.95742zM254.28552,311.27352c-0.18009,0.02144 -0.35946,0.03287 -0.53955,0.03287h-0.79825v-1.9874h0.75394c0.20296,0 0.39805,0.00786 0.586,0.02215c0.18866,0.01501 0.35374,0.05431 0.49739,0.11791c0.14293,0.06289 0.25798,0.15793 0.34445,0.28442c0.08623,0.12625 0.12935,0.31587 0.12935,0.56885c0,0.22011 -0.04502,0.39519 -0.13435,0.52669c-0.09004,0.13149 -0.20724,0.23154 -0.35232,0.30015c-0.14507,0.06789 -0.30729,0.11291 -0.48667,0.13435z" data-paper-data="{&quot;isBaseLogoContainer&quot;:true}"></path></g></g></g><g class="watermark-group" style="opacity:0.040000010281801224"><path class="watermark-path" d="M129.52,370.3a11.88,11.88,0,0,1,2.58,5.58,12,12,0,0,1,.11,3,11.81,11.81,0,0,1-.64,2.93,12.34,12.34,0,0,1-1.41,2.72,11.65,11.65,0,0,1-2.13,2.32,12,12,0,0,1-2.64,1.69,13,13,0,0,1-2.91.9,12.47,12.47,0,0,1-3,.12,12.17,12.17,0,0,1-2.93-.64,11.8,11.8,0,0,1-2.72-1.38,12.19,12.19,0,0,1-4-4.79,11.85,11.85,0,0,1-.89-2.92,12.14,12.14,0,0,1-.13-3,11.54,11.54,0,0,1,.64-2.92,11.67,11.67,0,0,1,3.5-5,11.44,11.44,0,0,1,2.67-1.69,11.64,11.64,0,0,1,2.92-.91,10.71,10.71,0,0,1,3-.12,11.68,11.68,0,0,1,5.66,2,11.7,11.7,0,0,1,2.34,2.12m-1.4,8.76a13,13,0,0,1-1.22,2.32,9.68,9.68,0,0,1-1.81,2,7.44,7.44,0,0,1-2.38,1.37,6.17,6.17,0,0,1-5.11-.46,8.73,8.73,0,0,1-3.85-4.58,6.69,6.69,0,0,1-.34-2.66,6.09,6.09,0,0,1,.77-2.47,7.15,7.15,0,0,1,1.75-2.11,9.58,9.58,0,0,1,1.09-.81,8.23,8.23,0,0,1,1.12-.63,8.14,8.14,0,0,1,1.19-.46,12.71,12.71,0,0,1,1.32-.37l2,2.38a12.83,12.83,0,0,0-1.56.17,7.86,7.86,0,0,0-1.23.32,4.5,4.5,0,0,0-1,.49,6.41,6.41,0,0,0-.93.67,4.49,4.49,0,0,0-1.15,1.39,3.87,3.87,0,0,0-.45,1.58,4.12,4.12,0,0,0,.26,1.63,6.11,6.11,0,0,0,2.36,2.82,4.43,4.43,0,0,0,1.57.53,3.91,3.91,0,0,0,1.62-.17,4.71,4.71,0,0,0,1.57-.89,10.5,10.5,0,0,0,.83-.79,5.71,5.71,0,0,0,.65-.93,10.13,10.13,0,0,0,.54-1.14,12.24,12.24,0,0,0,.44-1.49l2,2.33m-14.46,4.55a8.86,8.86,0,0,0,2.78,2.22,9,9,0,0,0,3.29.94,9.15,9.15,0,0,0,3.39-.37,8.68,8.68,0,0,0,3.11-1.69,8.8,8.8,0,0,0,2.22-2.78,9.15,9.15,0,0,0,1-3.29,8.95,8.95,0,0,0-4.83-8.76,9,9,0,0,0-6.73-.57,9,9,0,0,0-5.33,4.47,8.94,8.94,0,0,0-.57,6.71,8.76,8.76,0,0,0,1.7,3.12"></path><path class="watermark-path" d="M147,349c-.48.12-1.09.31-1.82.57a24.37,24.37,0,0,0-2.4,1A28.35,28.35,0,0,0,140,352a20.72,20.72,0,0,0-2.71,1.94c-.7.59-1.28,1.11-1.74,1.57a15.07,15.07,0,0,0-1.1,1.22,4.09,4.09,0,0,0-.59.92,2.32,2.32,0,0,0-.22.64,1.16,1.16,0,0,0,0,.47,1.83,1.83,0,0,0,.18.29,1.15,1.15,0,0,0,1,.37,5.54,5.54,0,0,0,1.51-.38q.87-.35,1.95-.9l2.26-1.18q1.2-.65,2.49-1.29c.87-.44,1.73-.83,2.59-1.17a18.94,18.94,0,0,1,2.6-.81,9.27,9.27,0,0,1,2.46-.29,6.25,6.25,0,0,1,2.24.49,5.12,5.12,0,0,1,1.89,1.47,6.35,6.35,0,0,1,1.41,2.61,6,6,0,0,1,.09,2.6,8.3,8.3,0,0,1-.9,2.52,17.79,17.79,0,0,1-1.62,2.37,23.92,23.92,0,0,1-2,2.15c-.72.67-1.41,1.29-2.09,1.87a33.79,33.79,0,0,1-5.33,3.7,32.29,32.29,0,0,1-4.91,2.28l-3.61-4.3a21.38,21.38,0,0,0,5.39-1.87,27.2,27.2,0,0,0,5.4-3.56,21.59,21.59,0,0,0,2.38-2.27,8.67,8.67,0,0,0,1.18-1.7,2.32,2.32,0,0,0,.27-1.19,1.34,1.34,0,0,0-.28-.74,1.21,1.21,0,0,0-1-.42,4.32,4.32,0,0,0-1.55.34,15.77,15.77,0,0,0-2,.88c-.72.37-1.48.77-2.27,1.21l-2.45,1.3c-.85.45-1.7.85-2.56,1.21a22.37,22.37,0,0,1-2.54.86,10,10,0,0,1-2.43.32,5.76,5.76,0,0,1-2.2-.45,5,5,0,0,1-1.89-1.45,6.12,6.12,0,0,1-1.31-2.41,6,6,0,0,1-.1-2.41,8.28,8.28,0,0,1,.81-2.38,14.06,14.06,0,0,1,1.49-2.24,22.37,22.37,0,0,1,1.85-2.05q1-1,2-1.77c.7-.59,1.44-1.15,2.23-1.7s1.62-1.06,2.44-1.53,1.63-.91,2.43-1.3,1.58-.75,2.3-1L147,349"></path><path class="watermark-path" d="M186.76,337.57l-10.6-12.63,3.92,18.24-4.66,3.91-17.27-7,10.6,12.63-4.86,4.07-15.09-18,6.59-5.54,18.69,7.52-4.15-19.71,6.57-5.52,15.09,18-4.83,4.05"></path><path class="watermark-path" d="M208.84,313.24l-10,8.42,1.16,4.82L194.56,331l-5.68-25.89,5.42-4.55,24.51,10.09-5.42,4.55-4.55-2m-11.23,3.45,6.57-5.52-8.83-3.87,2.26,9.39"></path><path class="watermark-path" d="M227.49,281.38c-.48.12-1.09.31-1.82.57a24.37,24.37,0,0,0-2.4,1,26.11,26.11,0,0,0-2.7,1.47,20.72,20.72,0,0,0-2.71,1.94c-.7.59-1.28,1.11-1.74,1.57a13.39,13.39,0,0,0-1.1,1.22,4.29,4.29,0,0,0-.59.91,2.48,2.48,0,0,0-.22.65,1.16,1.16,0,0,0,0,.47,1.83,1.83,0,0,0,.18.29,1.15,1.15,0,0,0,1,.37,5.54,5.54,0,0,0,1.51-.38q.87-.34,2-.9l2.26-1.18q1.2-.64,2.49-1.29c.87-.44,1.73-.83,2.59-1.17a18.94,18.94,0,0,1,2.6-.81,9.27,9.27,0,0,1,2.46-.29,6.08,6.08,0,0,1,2.24.49,5.09,5.09,0,0,1,1.89,1.46,6.47,6.47,0,0,1,1.41,2.61,6.07,6.07,0,0,1,.09,2.61,8.3,8.3,0,0,1-.9,2.52,16.32,16.32,0,0,1-1.63,2.36,21.41,21.41,0,0,1-2,2.16c-.72.67-1.41,1.29-2.1,1.86a33.36,33.36,0,0,1-5.32,3.71,31.92,31.92,0,0,1-4.92,2.28l-3.6-4.3a21.38,21.38,0,0,0,5.39-1.87,27.2,27.2,0,0,0,5.4-3.56,21.59,21.59,0,0,0,2.38-2.27,8.67,8.67,0,0,0,1.18-1.7A2.32,2.32,0,0,0,231,293a1.34,1.34,0,0,0-.28-.74,1.21,1.21,0,0,0-1-.42,4.32,4.32,0,0,0-1.55.34,16.54,16.54,0,0,0-2,.88c-.71.37-1.47.77-2.26,1.21l-2.46,1.3c-.84.44-1.7.85-2.55,1.21a24.53,24.53,0,0,1-2.54.86A10,10,0,0,1,214,298a5.76,5.76,0,0,1-2.2-.45,5,5,0,0,1-1.89-1.45,6.12,6.12,0,0,1-1.31-2.41,5.78,5.78,0,0,1-.1-2.41,8,8,0,0,1,.81-2.38,14.61,14.61,0,0,1,1.49-2.25,22.26,22.26,0,0,1,1.85-2q1-1,2-1.77c.7-.59,1.44-1.15,2.23-1.7s1.62-1.06,2.44-1.53,1.63-.91,2.43-1.31,1.58-.74,2.3-1l3.5,4.16"></path><path class="watermark-path" d="M261.64,274.74l-6.29-7.5L243,277.61l6.3,7.5-4.86,4.07-15.09-18,4.85-4.08,5.49,6.55L252,263.3l-5.49-6.55,4.86-4.07,15.09,18-4.86,4.08"></path><path class="watermark-path" d="M272.18,265.9l-15.09-18,4.86-4.08,15.09,18-4.86,4.08"></path><path class="watermark-path" d="M299.65,242.85l-22.51-2.18L287.51,253l-4.85,4.08-15.1-18,5.28-4.43,22.56,2.22L285,224.5l4.83-4.06,15.09,18-5.26,4.42"></path><path class="watermark-path" d="M306.68,205.52a31.88,31.88,0,0,1,5.29-3.66,34.48,34.48,0,0,1,5.14-2.35l3.69,4.39a20.77,20.77,0,0,0-2.37.61,20.47,20.47,0,0,0-2.61,1,25.12,25.12,0,0,0-2.76,1.49,23.9,23.9,0,0,0-2.8,2,20.42,20.42,0,0,0-2.8,2.77,12.77,12.77,0,0,0-1.64,2.52,7,7,0,0,0-.68,2.24,6,6,0,0,0,.66,3.64,8.16,8.16,0,0,0,.94,1.38,9.12,9.12,0,0,0,1.08,1.07,6.39,6.39,0,0,0,1.47.91,6.73,6.73,0,0,0,1.88.48,6.54,6.54,0,0,0,2.28-.18,11.67,11.67,0,0,0,2.74-1.07,19.38,19.38,0,0,0,3.18-2.22c.57-.48,1.06-.92,1.46-1.31a14.57,14.57,0,0,0,1-1.13,11.46,11.46,0,0,0,.81-1.05l.74-1.09-1.82-2.17-5.45,4.57-3.31-3.94,10.31-8.65,7.71,9.19a29,29,0,0,1-1.67,2.43q-1,1.26-2.1,2.52c-.74.84-1.5,1.65-2.3,2.44s-1.58,1.5-2.33,2.14a31,31,0,0,1-3.59,2.61,22.55,22.55,0,0,1-3.64,1.83,15.64,15.64,0,0,1-3.63.89,10.72,10.72,0,0,1-3.49-.15,10.45,10.45,0,0,1-3.28-1.33,12.54,12.54,0,0,1-3-2.67,12,12,0,0,1-2.08-3.44,10.45,10.45,0,0,1-.71-3.5,11.14,11.14,0,0,1,.51-3.51,15.72,15.72,0,0,1,1.56-3.43,21.62,21.62,0,0,1,2.42-3.28,30.3,30.3,0,0,1,3.15-3"></path><path class="watermark-path" d="M336.91,211.59l-15.1-18,4.86-4.08,11.79,14,13.13-11,3.31,3.94-18,15.1"></path><path class="watermark-path" d="M374.54,164.71a12.28,12.28,0,0,1,2.59,4.81,10.44,10.44,0,0,1,0,5,14.62,14.62,0,0,1-2.33,5,25.55,25.55,0,0,1-4.56,4.85,26.07,26.07,0,0,1-5.6,3.67,14.79,14.79,0,0,1-5.38,1.43,10.43,10.43,0,0,1-4.94-.89,13.24,13.24,0,0,1-6.87-8.18,10.48,10.48,0,0,1,0-5,14.51,14.51,0,0,1,2.36-5,25.23,25.23,0,0,1,4.57-4.89,25,25,0,0,1,5.59-3.64,14.45,14.45,0,0,1,5.35-1.43,10.31,10.31,0,0,1,4.93.92,12.22,12.22,0,0,1,4.28,3.38m-4.91,4.11a8.36,8.36,0,0,0-2-1.72,5.5,5.5,0,0,0-2.65-.85,7.72,7.72,0,0,0-3.32.57,14.49,14.49,0,0,0-4,2.52,16.72,16.72,0,0,0-2.38,2.4,10.15,10.15,0,0,0-1.39,2.24,6.71,6.71,0,0,0-.56,2.1,5.69,5.69,0,0,0,.1,1.9,6.21,6.21,0,0,0,.61,1.69,9.85,9.85,0,0,0,1,1.44,10.48,10.48,0,0,0,1.26,1.23,6.67,6.67,0,0,0,1.57.92,6.1,6.1,0,0,0,1.85.41,6.8,6.8,0,0,0,2.15-.2,11.06,11.06,0,0,0,2.45-1,17.67,17.67,0,0,0,2.77-1.94,14.39,14.39,0,0,0,3.18-3.52,7.74,7.74,0,0,0,1.14-3.17,5.54,5.54,0,0,0-.37-2.74,8.52,8.52,0,0,0-1.36-2.3"></path><path class="watermark-path" d="M382.66,141.76A32.3,32.3,0,0,1,388,138.1a34.12,34.12,0,0,1,5.15-2.35l3.69,4.4a19.62,19.62,0,0,0-2.37.6,22.08,22.08,0,0,0-2.61,1,26,26,0,0,0-2.77,1.49,23.9,23.9,0,0,0-2.8,2,21,21,0,0,0-2.8,2.78,13.19,13.19,0,0,0-1.64,2.51,7.29,7.29,0,0,0-.68,2.24,6.36,6.36,0,0,0,.06,2,5.8,5.8,0,0,0,.61,1.68,8.12,8.12,0,0,0,.93,1.38,9.16,9.16,0,0,0,1.08,1.08,6.56,6.56,0,0,0,1.48.9,6,6,0,0,0,1.87.48,6.76,6.76,0,0,0,2.28-.17,12,12,0,0,0,2.74-1.08,18.57,18.57,0,0,0,3.18-2.22c.58-.48,1.06-.92,1.46-1.31s.75-.77,1.05-1.12.57-.72.81-1.06l.73-1.09-1.82-2.17-5.45,4.57-3.3-3.94,10.3-8.65,7.71,9.19a29,29,0,0,1-1.67,2.43q-1,1.26-2.1,2.52c-.73.84-1.5,1.66-2.3,2.44s-1.57,1.5-2.33,2.14a31,31,0,0,1-3.59,2.61,22.15,22.15,0,0,1-3.64,1.83,15.56,15.56,0,0,1-3.62.89,11,11,0,0,1-3.49-.14,10.84,10.84,0,0,1-3.28-1.33,12.82,12.82,0,0,1-3-2.68,12.12,12.12,0,0,1-2.08-3.43A10.71,10.71,0,0,1,375,155a11.18,11.18,0,0,1,.51-3.51,15.51,15.51,0,0,1,1.57-3.43,21.44,21.44,0,0,1,2.42-3.28,30.19,30.19,0,0,1,3.14-3"></path><path class="watermark-path" d="M428.63,119.31a12.26,12.26,0,0,1,2.59,4.82,10.44,10.44,0,0,1,0,5,14.53,14.53,0,0,1-2.34,5,25.29,25.29,0,0,1-4.56,4.86,26,26,0,0,1-5.59,3.67,14.84,14.84,0,0,1-5.38,1.43,10.61,10.61,0,0,1-4.95-.89,12.15,12.15,0,0,1-4.3-3.37,12,12,0,0,1-2.56-4.81,10.48,10.48,0,0,1,0-5,14.39,14.39,0,0,1,2.35-5,27.89,27.89,0,0,1,10.16-8.53,14.49,14.49,0,0,1,5.36-1.43,10.27,10.27,0,0,1,4.92.92,12.21,12.21,0,0,1,4.28,3.37m-4.91,4.12a8.17,8.17,0,0,0-2-1.72,5.58,5.58,0,0,0-2.65-.86,7.86,7.86,0,0,0-3.31.58,14.49,14.49,0,0,0-4,2.52,16.21,16.21,0,0,0-2.38,2.4,9.85,9.85,0,0,0-1.4,2.24,7,7,0,0,0-.56,2.1,6,6,0,0,0,.1,1.9,6.23,6.23,0,0,0,.62,1.69,8.49,8.49,0,0,0,1,1.44,9.18,9.18,0,0,0,1.26,1.23,6.67,6.67,0,0,0,1.57.92,6,6,0,0,0,1.84.41,6.86,6.86,0,0,0,2.16-.2,11.26,11.26,0,0,0,2.45-1,17.62,17.62,0,0,0,2.76-1.94,14.67,14.67,0,0,0,3.19-3.52,7.71,7.71,0,0,0,1.13-3.17,5.53,5.53,0,0,0-.36-2.74,8.55,8.55,0,0,0-1.37-2.3"></path></g></svg>