<svg xmlns:mydata="http://www.w3.org/2000/svg" mydata:contrastcolor="ffffff" mydata:template="SingleColorHex1" mydata:presentation="2.5" mydata:layouttype="undefined" mydata:specialfontid="undefined" mydata:id1="8" mydata:id2="27" mydata:companyname="Dagracemarket" mydata:companytagline="trust" xmlns="http://www.w3.org/2000/svg" viewBox="0 0 550 470"><g data-paper-data="{&quot;isGlobalGroup&quot;:true,&quot;bounds&quot;:{&quot;x&quot;:65,&quot;y&quot;:122.18031203462411,&quot;width&quot;:420,&quot;height&quot;:225.6393759307518}}" fill="#00558c" fill-rule="none" stroke-miterlimit="10" font-family="none" font-weight="none" font-size="none" text-anchor="none" style="mix-blend-mode:normal"><g data-paper-data="{&quot;isSecondaryText&quot;:true}" fill-rule="nonzero"><path d="M213.864 339.276a1.035 1.035 0 0 1-.702-.272.96.96 0 0 1-.216-.294.837.837 0 0 1 0-.716.948.948 0 0 1 .216-.297 1.035 1.035 0 0 1 .702-.273h6.379a1.035 1.035 0 0 1 .702.272c.09.084.163.183.216.298a.837.837 0 0 1 0 .716.96.96 0 0 1-.216.293 1.035 1.035 0 0 1-.702.273h-1.872v6.937a1.4 1.4 0 0 1-.381.967 1.31 1.31 0 0 1-.412.29c-.156.07-.325.105-.507.105s-.35-.035-.506-.105a1.27 1.27 0 0 1-.41-.29 1.39 1.39 0 0 1-.376-.967v-6.937z" data-paper-data="{&quot;glyphName&quot;:&quot;T&quot;,&quot;glyphIndex&quot;:0,&quot;firstGlyphOfWord&quot;:true,&quot;word&quot;:1}"/><path d="M244.184 346.213a1.4 1.4 0 0 1-.381.967 1.31 1.31 0 0 1-.412.29c-.156.07-.325.105-.507.105s-.35-.035-.506-.105a1.27 1.27 0 0 1-.41-.29 1.39 1.39 0 0 1-.376-.967v-7.503c0-.215.043-.402.129-.563a1.2 1.2 0 0 1 .346-.401c.144-.108.313-.188.506-.241a2.28 2.28 0 0 1 .612-.08h2.801c.517 0 1.013.033 1.488.1a3.92 3.92 0 0 1 1.254.381c.361.187.65.445.866.776.217.33.325.761.325 1.292 0 .289-.04.563-.119.821a1.94 1.94 0 0 1-.384.699 2.244 2.244 0 0 1-.695.53 3.633 3.633 0 0 1-1.051.325v.028c.298.038.553.092.765.165.212.072.392.167.541.286.15.119.27.262.363.43.094.167.17.365.23.593.061.229.11.488.148.78.037.29.072.62.104.988a7.12 7.12 0 0 1 .028.58c0 .2-.018.384-.056.552a1.086 1.086 0 0 1-.195.433.912.912 0 0 1-.384.283 1.66 1.66 0 0 1-.63.101c-.232 0-.426-.053-.582-.16a1.256 1.256 0 0 1-.388-.44 2.401 2.401 0 0 1-.234-.647 8.027 8.027 0 0 1-.13-.786 16.708 16.708 0 0 0-.143-1.016 1.823 1.823 0 0 0-.234-.66.868.868 0 0 0-.457-.357c-.198-.07-.47-.105-.814-.105h-1.418zm1.075-4.436c.252 0 .503-.016.755-.046.251-.03.478-.093.681-.188.203-.096.367-.236.493-.42.125-.184.188-.43.188-.737 0-.354-.06-.62-.181-.796a1.12 1.12 0 0 0-.482-.398 2.131 2.131 0 0 0-.696-.164 10.345 10.345 0 0 0-.82-.032h-1.055v2.78z" data-paper-data="{&quot;glyphName&quot;:&quot;R&quot;,&quot;glyphIndex&quot;:1,&quot;word&quot;:1}"/><path d="M277.556 338.786a1.4 1.4 0 0 1 .377-.967 1.27 1.27 0 0 1 .409-.29c.156-.07.324-.105.506-.105s.35.035.507.105c.156.07.293.166.412.29.119.123.212.268.28.433a1.4 1.4 0 0 1 .1.534v5.352c0 .615-.108 1.152-.324 1.61-.217.459-.52.842-.909 1.15a3.978 3.978 0 0 1-1.386.691 6.366 6.366 0 0 1-1.76.23c-.63 0-1.21-.075-1.744-.226a4.005 4.005 0 0 1-1.383-.682 3.129 3.129 0 0 1-.912-1.145c-.219-.461-.328-1.004-.328-1.628v-5.352a1.4 1.4 0 0 1 .377-.967 1.27 1.27 0 0 1 .409-.29c.156-.07.325-.105.506-.105.182 0 .35.035.507.105.156.07.293.166.412.29.119.123.212.268.28.433a1.4 1.4 0 0 1 .1.534l.008 5.31c0 .335.05.624.153.866.103.243.237.44.402.594.165.154.354.268.566.342a1.935 1.935 0 0 0 1.3 0 1.64 1.64 0 0 0 .569-.342c.167-.154.304-.351.408-.594.105-.242.158-.53.158-.866z" data-paper-data="{&quot;glyphName&quot;:&quot;U&quot;,&quot;glyphIndex&quot;:2,&quot;word&quot;:1}"/><path d="M304.286 340.079c0 .223.075.412.224.566.149.154.343.286.583.398.24.112.511.21.814.293.303.084.608.17.915.259.494.149.942.307 1.345.475a4.19 4.19 0 0 1 1.034.6c.287.234.508.51.664.829.156.319.234.702.234 1.149 0 .489-.097.93-.29 1.32a2.793 2.793 0 0 1-.835 1 3.958 3.958 0 0 1-1.317.632 6.332 6.332 0 0 1-1.736.22 8.515 8.515 0 0 1-1.97-.23 6.719 6.719 0 0 1-.88-.273 3.84 3.84 0 0 1-.72-.364 1.825 1.825 0 0 1-.482-.443.86.86 0 0 1-.175-.514c0-.116.025-.23.074-.342.049-.112.111-.213.188-.304a1 1 0 0 1 .259-.22.557.557 0 0 1 .283-.084.73.73 0 0 1 .244.042c.08.028.16.062.241.101.082.04.166.083.252.13.086.046.178.088.276.125.321.145.682.275 1.083.392.4.116.82.174 1.257.174.238 0 .462-.022.674-.066a1.93 1.93 0 0 0 .56-.203c.16-.09.287-.208.38-.352a.946.946 0 0 0 .14-.524.973.973 0 0 0-.315-.73 1.54 1.54 0 0 0-.342-.238 3.281 3.281 0 0 0-.412-.178l-.315-.112a3.061 3.061 0 0 1-.174-.06 2.382 2.382 0 0 0-.182-.059l-.363-.105a4.055 4.055 0 0 1-.203-.052 2.3 2.3 0 0 1-.28-.098 3.216 3.216 0 0 0-.146-.052l-.657-.23a7.643 7.643 0 0 1-1.09-.483 2.873 2.873 0 0 1-.74-.566 2.011 2.011 0 0 1-.423-.716 2.904 2.904 0 0 1-.136-.932c0-.466.097-.888.29-1.265.193-.377.47-.699.831-.964s.8-.47 1.314-.615a6.428 6.428 0 0 1 1.736-.216 7.796 7.796 0 0 1 1.586.182c.275.06.539.138.793.233.254.096.478.208.674.336.195.128.353.273.471.436a.904.904 0 0 1 .179.545.77.77 0 0 1-.245.573.838.838 0 0 1-.573.224.82.82 0 0 1-.384-.091 9.093 9.093 0 0 0-.611-.287 4.614 4.614 0 0 0-.563-.195 3.881 3.881 0 0 0-.576-.112 5.616 5.616 0 0 0-.653-.035c-.224 0-.444.02-.66.06a2.12 2.12 0 0 0-.58.188 1.2 1.2 0 0 0-.413.332.785.785 0 0 0-.157.496z" data-paper-data="{&quot;glyphName&quot;:&quot;S&quot;,&quot;glyphIndex&quot;:3,&quot;word&quot;:1}"/><path d="M329.757 339.276a1.035 1.035 0 0 1-.702-.272.96.96 0 0 1-.216-.294.837.837 0 0 1 0-.716.948.948 0 0 1 .216-.297 1.035 1.035 0 0 1 .702-.273h6.379a1.035 1.035 0 0 1 .702.272c.09.084.163.183.216.298a.837.837 0 0 1 0 .716.96.96 0 0 1-.216.293 1.035 1.035 0 0 1-.702.273h-1.873v6.937a1.4 1.4 0 0 1-.38.967 1.31 1.31 0 0 1-.413.29c-.156.07-.324.105-.506.105s-.35-.035-.507-.105a1.27 1.27 0 0 1-.408-.29 1.39 1.39 0 0 1-.378-.967v-6.937z" data-paper-data="{&quot;glyphName&quot;:&quot;T&quot;,&quot;glyphIndex&quot;:4,&quot;lastGlyphOfWord&quot;:true,&quot;word&quot;:1}"/></g><g data-paper-data="{&quot;isPrimaryText&quot;:true}" fill-rule="nonzero"><path d="M74.795 321.121c3.823 0 7.088-1.353 9.795-4.06 1.369-1.368 2.391-2.859 3.068-4.472.677-1.613 1.015-3.394 1.015-5.346 0-3.807-1.361-7.072-4.083-9.795-2.722-2.722-5.987-4.083-9.795-4.083h-4.768v27.756zm0-32.76c5.192 0 9.637 1.85 13.335 5.547 1.857 1.857 3.245 3.883 4.166 6.078.92 2.195 1.38 4.614 1.38 7.257 0 5.209-1.848 9.662-5.546 13.36-3.682 3.681-8.127 5.522-13.335 5.522h-7.27c-.346 0-.672-.067-.98-.2a2.691 2.691 0 0 1-.802-.532 2.441 2.441 0 0 1-.542-.79 2.424 2.424 0 0 1-.201-.98v-32.76c0-.346.067-.672.2-.979a2.44 2.44 0 0 1 .543-.79c.229-.22.496-.398.803-.532.307-.133.633-.2.98-.2z" data-paper-data="{&quot;glyphName&quot;:&quot;D&quot;,&quot;glyphIndex&quot;:0,&quot;firstGlyphOfWord&quot;:true,&quot;word&quot;:1}"/><path d="M101.937 324.591c-.487 1.023-1.258 1.534-2.313 1.534a2.53 2.53 0 0 1-.991-.189 2.454 2.454 0 0 1-1.322-1.321 2.53 2.53 0 0 1-.189-.992c0-.33.071-.668.213-1.015l12.65-32.5c.504-1.164 1.299-1.746 2.384-1.746 1.086 0 1.88.582 2.384 1.746l12.651 32.5c.142.33.212.67.212 1.015 0 .362-.062.693-.188.992a2.454 2.454 0 0 1-1.334 1.321 2.555 2.555 0 0 1-.98.19c-1.1 0-1.88-.512-2.336-1.535l-10.409-26.812z" data-paper-data="{&quot;glyphName&quot;:&quot;Λ&quot;,&quot;glyphIndex&quot;:1,&quot;word&quot;:1}"/><path d="M162.666 320.13c0 .661-.26 1.259-.78 1.794-3.508 2.8-7.465 4.201-11.871 4.201-5.224 0-9.677-1.84-13.359-5.523-3.682-3.682-5.523-8.135-5.523-13.359 0-5.208 1.841-9.653 5.523-13.335 3.698-3.697 8.15-5.546 13.359-5.546 4.469 0 8.505 1.47 12.108 4.413.44.41.66.984.66 1.723 0 .362-.062.693-.188.992a2.454 2.454 0 0 1-1.334 1.321 2.555 2.555 0 0 1-.98.19c-.644 0-1.219-.237-1.722-.709a13.561 13.561 0 0 0-3.953-2.171c-1.44-.504-2.97-.756-4.591-.756-3.84 0-7.12 1.361-9.842 4.084-2.69 2.69-4.036 5.955-4.036 9.794 0 3.855 1.345 7.128 4.036 9.819 2.706 2.706 5.987 4.06 9.842 4.06 2.848 0 5.397-.748 7.647-2.243v-7.316h-6.514c-.708 0-1.302-.24-1.782-.72s-.72-1.074-.72-1.782c0-.346.063-.673.189-.98a2.434 2.434 0 0 1 1.321-1.333 2.53 2.53 0 0 1 .992-.19h9.04c.33 0 .645.068.944.202a2.582 2.582 0 0 1 1.334 1.345c.133.307.2.625.2.956z" data-paper-data="{&quot;glyphName&quot;:&quot;G&quot;,&quot;glyphIndex&quot;:2,&quot;word&quot;:1}"/><path d="M171.47 293.365v13.194h6.608c.912 0 1.77-.173 2.572-.52a6.447 6.447 0 0 0 2.09-1.427 6.974 6.974 0 0 0 1.404-2.1 6.29 6.29 0 0 0 .519-2.538c0-.913-.173-1.77-.52-2.573a6.681 6.681 0 0 0-1.416-2.1 6.682 6.682 0 0 0-2.1-1.416 6.367 6.367 0 0 0-2.55-.52zm-5.004 30.258v-32.76c0-.346.063-.672.188-.979a2.455 2.455 0 0 1 1.322-1.334 2.53 2.53 0 0 1 .991-.188h9.11c1.59 0 3.089.307 4.497.92a11.739 11.739 0 0 1 3.682 2.502 11.986 11.986 0 0 1 2.49 3.694c.614 1.408.92 2.907.92 4.496 0 1.038-.13 2.05-.389 3.033-.26.983-.645 1.912-1.156 2.785a11.614 11.614 0 0 1-1.912 2.43 12.59 12.59 0 0 1-2.655 1.972l7.529 12.06a2.603 2.603 0 0 1 .212 2.36 2.454 2.454 0 0 1-1.333 1.322 2.555 2.555 0 0 1-.98.19c-.881 0-1.597-.41-2.148-1.228l-8.331-13.335h-7.034v12.06c0 .693-.244 1.283-.731 1.77a2.411 2.411 0 0 1-1.77.732 2.411 2.411 0 0 1-1.77-.732 2.411 2.411 0 0 1-.732-1.77z" data-paper-data="{&quot;glyphName&quot;:&quot;R&quot;,&quot;glyphIndex&quot;:3,&quot;word&quot;:1}"/><path d="M199.65 324.591c-.488 1.023-1.259 1.534-2.313 1.534a2.53 2.53 0 0 1-.991-.189 2.454 2.454 0 0 1-1.322-1.321 2.53 2.53 0 0 1-.189-.992c0-.33.071-.668.213-1.015l12.65-32.5c.504-1.164 1.299-1.746 2.384-1.746 1.086 0 1.88.582 2.384 1.746l12.65 32.5c.142.33.213.67.213 1.015 0 .362-.063.693-.189.992a2.454 2.454 0 0 1-1.333 1.321 2.555 2.555 0 0 1-.98.19c-1.101 0-1.88-.512-2.336-1.535l-10.409-26.812z" data-paper-data="{&quot;glyphName&quot;:&quot;Λ&quot;,&quot;glyphIndex&quot;:4,&quot;word&quot;:1}"/><path d="M257.877 317.628c.346 0 .668.067.967.201.3.134.563.31.791.531.228.22.41.484.543.79.134.308.2.634.2.98 0 .661-.26 1.259-.778 1.794-3.51 2.8-7.467 4.201-11.872 4.201-5.224 0-9.677-1.84-13.36-5.523-3.681-3.682-5.522-8.135-5.522-13.359 0-5.208 1.841-9.653 5.523-13.335 3.698-3.697 8.15-5.546 13.359-5.546 4.468 0 8.504 1.47 12.108 4.413.44.425.66 1 .66 1.723 0 .362-.062.693-.188.992a2.454 2.454 0 0 1-1.334 1.321 2.555 2.555 0 0 1-.98.19c-.613 0-1.187-.237-1.722-.709a13.561 13.561 0 0 0-3.954-2.171c-1.44-.504-2.97-.756-4.59-.756-3.84 0-7.12 1.361-9.842 4.084-2.691 2.69-4.036 5.955-4.036 9.794 0 3.855 1.345 7.128 4.036 9.819 2.706 2.706 5.987 4.06 9.842 4.06 3.288 0 6.183-1.015 8.685-3.045.41-.283.897-.433 1.464-.449z" data-paper-data="{&quot;glyphName&quot;:&quot;C&quot;,&quot;glyphIndex&quot;:5,&quot;word&quot;:1}"/><path d="M288.064 288.362c.346 0 .672.063.98.188a2.422 2.422 0 0 1 1.333 1.334c.126.307.189.633.189.98a2.454 2.454 0 0 1-1.522 2.313 2.555 2.555 0 0 1-.98.188h-21.832a2.53 2.53 0 0 1-.991-.188 2.454 2.454 0 0 1-1.322-1.322 2.53 2.53 0 0 1-.189-.991c0-.347.063-.673.189-.98a2.434 2.434 0 0 1 1.322-1.334 2.53 2.53 0 0 1 .99-.188zm0 32.76c.346 0 .672.062.98.188a2.422 2.422 0 0 1 1.333 1.334c.126.307.189.633.189.98a2.454 2.454 0 0 1-1.522 2.313 2.555 2.555 0 0 1-.98.188h-21.832a2.53 2.53 0 0 1-.991-.189 2.454 2.454 0 0 1-1.322-1.321 2.53 2.53 0 0 1-.189-.992c0-.346.063-.672.189-.98.126-.306.303-.574.53-.802.229-.228.493-.405.792-.53a2.53 2.53 0 0 1 .99-.19zm-1.818-16.38c.347 0 .673.062.98.188a2.422 2.422 0 0 1 1.333 1.334c.126.307.19.633.19.98a2.454 2.454 0 0 1-1.522 2.313 2.555 2.555 0 0 1-.98.188h-18.221c-.583-.016-1.141-.26-1.676-.731-.504-.457-.755-1.047-.755-1.77 0-.315.062-.622.188-.921.126-.299.3-.563.52-.79.22-.229.476-.414.767-.555.29-.142.61-.22.956-.236z" data-paper-data="{&quot;glyphName&quot;:&quot;Ξ&quot;,&quot;glyphIndex&quot;:6,&quot;word&quot;:1}"/><path d="M294.035 323.623v-32.76c0-.346.063-.672.189-.979a2.455 2.455 0 0 1 1.322-1.334 2.53 2.53 0 0 1 .991-.188c.976 0 1.715.448 2.219 1.345l14.16 28.299 14.162-28.299c.567-.897 1.306-1.345 2.219-1.345.346 0 .672.063.98.188a2.422 2.422 0 0 1 1.333 1.334c.126.307.189.633.189.98v32.76c0 .692-.244 1.282-.732 1.77a2.411 2.411 0 0 1-1.77.731 2.411 2.411 0 0 1-1.77-.732 2.411 2.411 0 0 1-.732-1.77v-22.139l-11.707 23.39c-.488.834-1.211 1.251-2.171 1.251-1.039 0-1.802-.503-2.29-1.51l-11.588-23.13v22.138c0 .693-.244 1.283-.732 1.77a2.411 2.411 0 0 1-1.77.732 2.411 2.411 0 0 1-1.77-.732 2.411 2.411 0 0 1-.732-1.77z" data-paper-data="{&quot;glyphName&quot;:&quot;M&quot;,&quot;glyphIndex&quot;:7,&quot;word&quot;:1}"/><path d="M340.319 324.591c-.488 1.023-1.259 1.534-2.313 1.534a2.53 2.53 0 0 1-.991-.189 2.454 2.454 0 0 1-1.322-1.321 2.53 2.53 0 0 1-.189-.992c0-.33.07-.668.212-1.015l12.651-32.5c.504-1.164 1.298-1.746 2.384-1.746 1.086 0 1.88.582 2.384 1.746l12.65 32.5c.142.33.213.67.213 1.015 0 .362-.063.693-.189.992a2.454 2.454 0 0 1-1.333 1.321 2.555 2.555 0 0 1-.98.19c-1.101 0-1.88-.512-2.336-1.535l-10.409-26.812z" data-paper-data="{&quot;glyphName&quot;:&quot;Λ&quot;,&quot;glyphIndex&quot;:8,&quot;word&quot;:1}"/><path d="M374.448 293.365v13.194h6.608c.913 0 1.77-.173 2.573-.52a6.447 6.447 0 0 0 2.089-1.427 6.974 6.974 0 0 0 1.404-2.1c.346-.795.52-1.641.52-2.538a6.43 6.43 0 0 0-.52-2.573 6.681 6.681 0 0 0-1.416-2.1 6.682 6.682 0 0 0-2.1-1.416 6.367 6.367 0 0 0-2.55-.52zm-5.004 30.258v-32.76c0-.346.063-.672.189-.979a2.434 2.434 0 0 1 1.321-1.334 2.53 2.53 0 0 1 .992-.188h9.11c1.59 0 3.088.307 4.496.92a11.739 11.739 0 0 1 3.682 2.502 11.986 11.986 0 0 1 2.49 3.694c.614 1.408.92 2.907.92 4.496 0 1.038-.129 2.05-.389 3.033-.26.983-.645 1.912-1.156 2.785a11.614 11.614 0 0 1-1.912 2.43 12.59 12.59 0 0 1-2.655 1.972l7.529 12.06a2.603 2.603 0 0 1 .212 2.36 2.454 2.454 0 0 1-1.333 1.322 2.555 2.555 0 0 1-.98.19c-.88 0-1.597-.41-2.147-1.228l-8.332-13.335h-7.033v12.06c0 .693-.244 1.283-.732 1.77a2.411 2.411 0 0 1-1.77.732 2.411 2.411 0 0 1-1.77-.732 2.411 2.411 0 0 1-.732-1.77z" data-paper-data="{&quot;glyphName&quot;:&quot;R&quot;,&quot;glyphIndex&quot;:9,&quot;word&quot;:1}"/><path d="M397.767 290.863c0-.692.243-1.282.731-1.77a2.411 2.411 0 0 1 1.77-.731c.693 0 1.283.244 1.77.731.488.488.732 1.078.732 1.77v13.973l15.696-15.695c.519-.52 1.125-.78 1.817-.78.346 0 .673.064.98.19a2.422 2.422 0 0 1 1.333 1.333c.126.307.189.633.189.98 0 .692-.244 1.282-.732 1.77l-12.367 12.39 12.627 17.112c.314.44.472.913.472 1.416 0 .33-.063.653-.19.968a2.544 2.544 0 0 1-1.298 1.393 2.232 2.232 0 0 1-.967.212c-.928 0-1.628-.354-2.1-1.062l-12.132-16.45-3.328 3.327v11.683c0 .693-.244 1.283-.732 1.77a2.411 2.411 0 0 1-1.77.732 2.411 2.411 0 0 1-1.77-.732 2.411 2.411 0 0 1-.732-1.77z" data-paper-data="{&quot;glyphName&quot;:&quot;K&quot;,&quot;glyphIndex&quot;:10,&quot;word&quot;:1}"/><path d="M450.446 288.362c.347 0 .673.063.98.188a2.422 2.422 0 0 1 1.333 1.334c.126.307.19.633.19.98a2.454 2.454 0 0 1-1.522 2.313 2.555 2.555 0 0 1-.98.188h-21.833a2.53 2.53 0 0 1-.99-.188 2.454 2.454 0 0 1-1.323-1.322 2.53 2.53 0 0 1-.188-.991c0-.347.063-.673.188-.98a2.455 2.455 0 0 1 1.322-1.334 2.53 2.53 0 0 1 .991-.188zm0 32.76c.347 0 .673.062.98.188a2.422 2.422 0 0 1 1.333 1.334c.126.307.19.633.19.98a2.454 2.454 0 0 1-1.522 2.313 2.555 2.555 0 0 1-.98.188h-21.833a2.53 2.53 0 0 1-.99-.189 2.454 2.454 0 0 1-1.323-1.321 2.53 2.53 0 0 1-.188-.992c0-.346.063-.672.188-.98a2.455 2.455 0 0 1 1.322-1.334 2.53 2.53 0 0 1 .991-.188zm-1.817-16.38c.346 0 .673.062.98.188a2.422 2.422 0 0 1 1.333 1.334c.126.307.189.633.189.98 0 .361-.063.692-.189.99a2.454 2.454 0 0 1-1.333 1.322 2.555 2.555 0 0 1-.98.19h-18.22c-.583-.017-1.142-.26-1.676-.732-.504-.457-.756-1.047-.756-1.77 0-.315.063-.622.19-.921.125-.299.298-.563.518-.79.22-.229.476-.414.767-.555.291-.142.61-.22.956-.236z" data-paper-data="{&quot;glyphName&quot;:&quot;Ξ&quot;,&quot;glyphIndex&quot;:11,&quot;word&quot;:1}"/><path d="M482.498 293.365h-9.323v30.258c0 .693-.244 1.283-.731 1.77a2.411 2.411 0 0 1-1.77.732 2.411 2.411 0 0 1-1.77-.732 2.411 2.411 0 0 1-.732-1.77v-30.258h-9.323a2.411 2.411 0 0 1-1.77-.731 2.411 2.411 0 0 1-.732-1.77c0-.693.244-1.283.732-1.77a2.411 2.411 0 0 1 1.77-.732h23.65c.692 0 1.282.244 1.77.731.487.488.731 1.078.731 1.77 0 .693-.244 1.283-.732 1.77a2.411 2.411 0 0 1-1.77.732z" data-paper-data="{&quot;glyphName&quot;:&quot;T&quot;,&quot;glyphIndex&quot;:12,&quot;lastGlyphOfWord&quot;:true,&quot;word&quot;:1}"/></g><g data-paper-data="{&quot;fillRule&quot;:&quot;evenodd&quot;,&quot;fillRuleOriginal&quot;:&quot;evenodd&quot;,&quot;isIcon&quot;:true,&quot;iconStyle&quot;:&quot;standalone&quot;,&quot;selectedEffects&quot;:{&quot;container&quot;:&quot;&quot;,&quot;transformation&quot;:&quot;&quot;,&quot;pattern&quot;:&quot;&quot;},&quot;bounds&quot;:{&quot;x&quot;:177.23660286568213,&quot;y&quot;:122.18031203462411,&quot;width&quot;:195.52679426863574,&quot;height&quot;:139.57987185933573},&quot;iconType&quot;:&quot;icon&quot;,&quot;rawIconId&quot;:&quot;101810&quot;,&quot;combineTerms&quot;:&quot;store&quot;,&quot;isDetailed&quot;:false,&quot;suitableAsStandaloneIcon&quot;:true}" fill-rule="evenodd"><path d="M372.763 161.471c0 5.373-4.371 9.745-9.746 9.745a9.67 9.67 0 0 1-5.312-1.572v81.878h13.751v10.238H177.984v-10.238h13.378V170.16a9.663 9.663 0 0 1-4.383 1.056 9.662 9.662 0 0 1-9.423-7.389l-.32-1.031v-11.067h1.021l13.107-20.814v-8.735h166.341v8.368l14.562 21.18h.302v.44l.028 1.624h-.028v5.773c.131.643.194 1.283.194 1.906zm-17.126-37.23H193.425v5.185h162.212zm-118.781 7.247.387.109-5.65 20.132h16.255l-.155-.027 3.369-20.214zm117.968 20.24h2.881l12.07-.002-12.063-17.543-1.032-1.5-.824-1.195h-10.894l10.356 19.985zm-161.397-20.216-2.063 3.274-10.67 16.943h14.478l-.492-.25 10.177-19.99H193.44zm26.838-.022h-14.293l.49.249-10.178 19.99h16.523l-.463-.184zm15.402 0h-14.274l.466.181-7.922 20.058h16.466l-.387-.11zm16.798 0 .16.026-3.365 20.213h16.123l1.063-20.24zm29.352 0H267.99l-1.064 20.239h16.138zm1.547 0 1.25 20.239 16.126.002-3.557-20.206.197-.035zm29.599 0h-14.217l3.559 20.208-.19.033H318.4l-5.836-20.125zm15.458 0h-14.276l5.837 20.125-.398.114h16.47l-8.103-20.049zm8.761 20.239h16.525l-10.359-19.983.494-.256h-14.295l8.103 20.05zM179.3 153.792v8.45l.12.392c.58 3.777 3.76 6.516 7.559 6.516a7.579 7.579 0 0 0 4.383-1.408c.371-.26.712-.55 1.031-.872.39-.391.735-.822 1.032-1.294a7.732 7.732 0 0 0 1.117-2.94l.136-.874h2.214l.133.874c.58 3.777 3.76 6.516 7.559 6.516 3.801 0 6.984-2.739 7.563-6.516l.135-.874h2.215l.133.874c.58 3.777 3.76 6.516 7.559 6.516 3.799 0 6.977-2.739 7.558-6.516l.134-.874h2.203l.136.874c.579 3.777 3.76 6.516 7.56 6.516 3.802 0 6.982-2.739 7.561-6.516l.136-.874h2.205l.136.874c.581 3.775 3.762 6.516 7.559 6.516 3.8 0 6.979-2.739 7.56-6.516l.136-.874h2.216l.136.874c.58 3.775 3.757 6.514 7.559 6.514 3.8 0 6.981-2.739 7.56-6.516l.136-.874h2.216l.136.874c.584 3.777 3.764 6.516 7.56 6.516 3.8 0 6.978-2.739 7.56-6.516l.135-.874h2.214l.136.874c.583 3.777 3.764 6.516 7.56 6.516 3.8 0 6.978-2.739 7.557-6.514l.136-.874h2.223l.135.874c.582 3.777 3.76 6.516 7.559 6.516 3.799 0 6.98-2.739 7.559-6.514l.135-.874h2.206l.135.874c.584 3.777 3.764 6.516 7.563 6.516 3.8 0 6.98-2.739 7.561-6.516l.136-.874h2.214l.135.874c.044.258.12.5.184.748a7.74 7.74 0 0 0 1.034 2.345c.304.455.647.872 1.034 1.25a7.583 7.583 0 0 0 5.311 2.173c4.239 0 7.686-3.447 7.686-7.683 0-.516-.057-1.051-.169-1.591l-.024-.21v-5.878zm66.986 97.73h109.336v-83.699a9.86 9.86 0 0 1-1.425-2.219 9.653 9.653 0 0 1-8.8 5.612 9.647 9.647 0 0 1-8.8-5.61 9.65 9.65 0 0 1-8.803 5.61 9.646 9.646 0 0 1-8.798-5.614 9.648 9.648 0 0 1-8.803 5.614 9.643 9.643 0 0 1-8.796-5.612 9.652 9.652 0 0 1-8.8 5.612 9.648 9.648 0 0 1-8.798-5.612 9.66 9.66 0 0 1-8.804 5.612 9.647 9.647 0 0 1-8.8-5.61 9.654 9.654 0 0 1-8.803 5.61 9.651 9.651 0 0 1-8.8-5.61 9.652 9.652 0 0 1-8.803 5.61 9.652 9.652 0 0 1-8.802-5.61 9.649 9.649 0 0 1-8.8 5.61 9.649 9.649 0 0 1-8.8-5.61 9.658 9.658 0 0 1-8.805 5.61 9.647 9.647 0 0 1-8.8-5.61 9.669 9.669 0 0 1-2.357 3.164v82.752h13.839v-75.163h39.022zm6.964-76.193v64.874h93.31V175.33zm2.06 2.062h43.464v53.689h-43.463zm89.184 53.69h-43.656v-53.69h43.656zm-8.621-18.686 1.456-1.456-26.202-26.202-.73.73-.73.728zm-.201-7.233.73-.73-18.77-18.768-1.458 1.458 18.77 18.766zm-72.21-8.438-1.458 1.458 26.197 26.2 1.46-1.46zm.028 7.4 18.768 18.767 1.456-1.455-18.766-18.768zm81.004 34.018H255.31v-4.999h89.183zm-164.446 21.555h189.347v-6.114H180.048z" data-paper-data="{&quot;isPathIcon&quot;:true}"/></g></g><g class="watermark-group" style="opacity:.040000010281801224"><path class="watermark-path" d="M129.52 370.3a11.88 11.88 0 0 1 2.58 5.58 12 12 0 0 1 .11 3 11.81 11.81 0 0 1-.64 2.93 12.34 12.34 0 0 1-1.41 2.72 11.65 11.65 0 0 1-2.13 2.32 12 12 0 0 1-2.64 1.69 13 13 0 0 1-2.91.9 12.47 12.47 0 0 1-3 .12 12.17 12.17 0 0 1-2.93-.64 11.8 11.8 0 0 1-2.72-1.38 12.19 12.19 0 0 1-4-4.79 11.85 11.85 0 0 1-.89-2.92 12.14 12.14 0 0 1-.13-3 11.54 11.54 0 0 1 .64-2.92 11.67 11.67 0 0 1 3.5-5 11.44 11.44 0 0 1 2.67-1.69 11.64 11.64 0 0 1 2.92-.91 10.71 10.71 0 0 1 3-.12 11.68 11.68 0 0 1 5.66 2 11.7 11.7 0 0 1 2.34 2.12m-1.4 8.76a13 13 0 0 1-1.22 2.32 9.68 9.68 0 0 1-1.81 2 7.44 7.44 0 0 1-2.38 1.37 6.17 6.17 0 0 1-5.11-.46 8.73 8.73 0 0 1-3.85-4.58 6.69 6.69 0 0 1-.34-2.66 6.09 6.09 0 0 1 .77-2.47 7.15 7.15 0 0 1 1.75-2.11 9.58 9.58 0 0 1 1.09-.81 8.23 8.23 0 0 1 1.12-.63 8.14 8.14 0 0 1 1.19-.46 12.71 12.71 0 0 1 1.32-.37l2 2.38a12.83 12.83 0 0 0-1.56.17 7.86 7.86 0 0 0-1.23.32 4.5 4.5 0 0 0-1 .49 6.41 6.41 0 0 0-.93.67 4.49 4.49 0 0 0-1.15 1.39 3.87 3.87 0 0 0-.45 1.58 4.12 4.12 0 0 0 .26 1.63 6.11 6.11 0 0 0 2.36 2.82 4.43 4.43 0 0 0 1.57.53 3.91 3.91 0 0 0 1.62-.17 4.71 4.71 0 0 0 1.57-.89 10.5 10.5 0 0 0 .83-.79 5.71 5.71 0 0 0 .65-.93 10.13 10.13 0 0 0 .54-1.14 12.24 12.24 0 0 0 .44-1.49l2 2.33m-14.46 4.55a8.86 8.86 0 0 0 2.78 2.22 9 9 0 0 0 3.29.94 9.15 9.15 0 0 0 3.39-.37 8.68 8.68 0 0 0 3.11-1.69 8.8 8.8 0 0 0 2.22-2.78 9.15 9.15 0 0 0 1-3.29 8.95 8.95 0 0 0-4.83-8.76 9 9 0 0 0-6.73-.57 9 9 0 0 0-5.33 4.47 8.94 8.94 0 0 0-.57 6.71 8.76 8.76 0 0 0 1.7 3.12M147 349c-.48.12-1.09.31-1.82.57a24.37 24.37 0 0 0-2.4 1A28.35 28.35 0 0 0 140 352a20.72 20.72 0 0 0-2.71 1.94c-.7.59-1.28 1.11-1.74 1.57a15.07 15.07 0 0 0-1.1 1.22 4.09 4.09 0 0 0-.59.92 2.32 2.32 0 0 0-.22.64 1.16 1.16 0 0 0 0 .47 1.83 1.83 0 0 0 .18.29 1.15 1.15 0 0 0 1 .37 5.54 5.54 0 0 0 1.51-.38q.87-.35 1.95-.9l2.26-1.18q1.2-.65 2.49-1.29c.87-.44 1.73-.83 2.59-1.17a18.94 18.94 0 0 1 2.6-.81 9.27 9.27 0 0 1 2.46-.29 6.25 6.25 0 0 1 2.24.49 5.12 5.12 0 0 1 1.89 1.47 6.35 6.35 0 0 1 1.41 2.61 6 6 0 0 1 .09 2.6 8.3 8.3 0 0 1-.9 2.52 17.79 17.79 0 0 1-1.62 2.37 23.92 23.92 0 0 1-2 2.15c-.72.67-1.41 1.29-2.09 1.87a33.79 33.79 0 0 1-5.33 3.7 32.29 32.29 0 0 1-4.91 2.28l-3.61-4.3a21.38 21.38 0 0 0 5.39-1.87 27.2 27.2 0 0 0 5.4-3.56 21.59 21.59 0 0 0 2.38-2.27 8.67 8.67 0 0 0 1.18-1.7 2.32 2.32 0 0 0 .27-1.19 1.34 1.34 0 0 0-.28-.74 1.21 1.21 0 0 0-1-.42 4.32 4.32 0 0 0-1.55.34 15.77 15.77 0 0 0-2 .88c-.72.37-1.48.77-2.27 1.21l-2.45 1.3c-.85.45-1.7.85-2.56 1.21a22.37 22.37 0 0 1-2.54.86 10 10 0 0 1-2.43.32 5.76 5.76 0 0 1-2.2-.45 5 5 0 0 1-1.89-1.45 6.12 6.12 0 0 1-1.31-2.41 6 6 0 0 1-.1-2.41 8.28 8.28 0 0 1 .81-2.38 14.06 14.06 0 0 1 1.49-2.24 22.37 22.37 0 0 1 1.85-2.05q1-1 2-1.77c.7-.59 1.44-1.15 2.23-1.7s1.62-1.06 2.44-1.53 1.63-.91 2.43-1.3 1.58-.75 2.3-1L147 349m39.76-11.43-10.6-12.63 3.92 18.24-4.66 3.91-17.27-7 10.6 12.63-4.86 4.07-15.09-18 6.59-5.54 18.69 7.52-4.15-19.71 6.57-5.52 15.09 18-4.83 4.05m22.08-24.35-10 8.42 1.16 4.82-5.44 4.52-5.68-25.89 5.42-4.55 24.51 10.09-5.42 4.55-4.55-2m-11.23 3.45 6.57-5.52-8.83-3.87 2.26 9.39m29.88-35.27c-.48.12-1.09.31-1.82.57a24.37 24.37 0 0 0-2.4 1 26.11 26.11 0 0 0-2.7 1.47 20.72 20.72 0 0 0-2.71 1.94c-.7.59-1.28 1.11-1.74 1.57a13.39 13.39 0 0 0-1.1 1.22 4.29 4.29 0 0 0-.59.91 2.48 2.48 0 0 0-.22.65 1.16 1.16 0 0 0 0 .47 1.83 1.83 0 0 0 .18.29 1.15 1.15 0 0 0 1 .37 5.54 5.54 0 0 0 1.51-.38q.87-.34 2-.9l2.26-1.18q1.2-.64 2.49-1.29c.87-.44 1.73-.83 2.59-1.17a18.94 18.94 0 0 1 2.6-.81 9.27 9.27 0 0 1 2.46-.29 6.08 6.08 0 0 1 2.24.49 5.09 5.09 0 0 1 1.89 1.46 6.47 6.47 0 0 1 1.41 2.61 6.07 6.07 0 0 1 .09 2.61 8.3 8.3 0 0 1-.9 2.52 16.32 16.32 0 0 1-1.63 2.36 21.41 21.41 0 0 1-2 2.16c-.72.67-1.41 1.29-2.1 1.86a33.36 33.36 0 0 1-5.32 3.71 31.92 31.92 0 0 1-4.92 2.28l-3.6-4.3a21.38 21.38 0 0 0 5.39-1.87 27.2 27.2 0 0 0 5.4-3.56 21.59 21.59 0 0 0 2.38-2.27 8.67 8.67 0 0 0 1.18-1.7A2.32 2.32 0 0 0 231 293a1.34 1.34 0 0 0-.28-.74 1.21 1.21 0 0 0-1-.42 4.32 4.32 0 0 0-1.55.34 16.54 16.54 0 0 0-2 .88c-.71.37-1.47.77-2.26 1.21l-2.46 1.3c-.84.44-1.7.85-2.55 1.21a24.53 24.53 0 0 1-2.54.86 10 10 0 0 1-2.36.36 5.76 5.76 0 0 1-2.2-.45 5 5 0 0 1-1.89-1.45 6.12 6.12 0 0 1-1.31-2.41 5.78 5.78 0 0 1-.1-2.41 8 8 0 0 1 .81-2.38 14.61 14.61 0 0 1 1.49-2.25 22.26 22.26 0 0 1 1.85-2q1-1 2-1.77c.7-.59 1.44-1.15 2.23-1.7s1.62-1.06 2.44-1.53 1.63-.91 2.43-1.31 1.58-.74 2.3-1l3.5 4.16m34.09-6.76-6.29-7.5L243 277.61l6.3 7.5-4.86 4.07-15.09-18 4.85-4.08 5.49 6.55L252 263.3l-5.49-6.55 4.86-4.07 15.09 18-4.86 4.08m10.58-8.86-15.09-18 4.86-4.08 15.09 18-4.86 4.08m27.47-23.05-22.51-2.18L287.51 253l-4.85 4.08-15.1-18 5.28-4.43 22.56 2.22L285 224.5l4.83-4.06 15.09 18-5.26 4.42m7.02-37.34a31.88 31.88 0 0 1 5.29-3.66 34.48 34.48 0 0 1 5.14-2.35l3.69 4.39a20.77 20.77 0 0 0-2.37.61 20.47 20.47 0 0 0-2.61 1 25.12 25.12 0 0 0-2.76 1.49 23.9 23.9 0 0 0-2.8 2 20.42 20.42 0 0 0-2.8 2.77 12.77 12.77 0 0 0-1.64 2.52 7 7 0 0 0-.68 2.24 6 6 0 0 0 .66 3.64 8.16 8.16 0 0 0 .94 1.38 9.12 9.12 0 0 0 1.08 1.07 6.39 6.39 0 0 0 1.47.91 6.73 6.73 0 0 0 1.88.48 6.54 6.54 0 0 0 2.28-.18 11.67 11.67 0 0 0 2.74-1.07 19.38 19.38 0 0 0 3.18-2.22c.57-.48 1.06-.92 1.46-1.31a14.57 14.57 0 0 0 1-1.13 11.46 11.46 0 0 0 .81-1.05l.74-1.09-1.82-2.17-5.45 4.57-3.31-3.94 10.31-8.65 7.71 9.19a29 29 0 0 1-1.67 2.43q-1 1.26-2.1 2.52c-.74.84-1.5 1.65-2.3 2.44s-1.58 1.5-2.33 2.14a31 31 0 0 1-3.59 2.61 22.55 22.55 0 0 1-3.64 1.83 15.64 15.64 0 0 1-3.63.89 10.72 10.72 0 0 1-3.49-.15 10.45 10.45 0 0 1-3.28-1.33 12.54 12.54 0 0 1-3-2.67 12 12 0 0 1-2.08-3.44 10.45 10.45 0 0 1-.71-3.5 11.14 11.14 0 0 1 .51-3.51 15.72 15.72 0 0 1 1.56-3.43 21.62 21.62 0 0 1 2.42-3.28 30.3 30.3 0 0 1 3.15-3m30.27 6.08-15.1-18 4.86-4.08 11.79 14 13.13-11 3.31 3.94-18 15.1m37.64-46.84a12.28 12.28 0 0 1 2.59 4.81 10.44 10.44 0 0 1 0 5 14.62 14.62 0 0 1-2.33 5 25.55 25.55 0 0 1-4.56 4.85 26.07 26.07 0 0 1-5.6 3.67 14.79 14.79 0 0 1-5.38 1.43 10.43 10.43 0 0 1-4.94-.89 13.24 13.24 0 0 1-6.87-8.18 10.48 10.48 0 0 1 0-5 14.51 14.51 0 0 1 2.36-5 25.23 25.23 0 0 1 4.57-4.89 25 25 0 0 1 5.59-3.64 14.45 14.45 0 0 1 5.35-1.43 10.31 10.31 0 0 1 4.93.92 12.22 12.22 0 0 1 4.28 3.38m-4.91 4.11a8.36 8.36 0 0 0-2-1.72 5.5 5.5 0 0 0-2.65-.85 7.72 7.72 0 0 0-3.32.57 14.49 14.49 0 0 0-4 2.52 16.72 16.72 0 0 0-2.38 2.4 10.15 10.15 0 0 0-1.39 2.24 6.71 6.71 0 0 0-.56 2.1 5.69 5.69 0 0 0 .1 1.9 6.21 6.21 0 0 0 .61 1.69 9.85 9.85 0 0 0 1 1.44 10.48 10.48 0 0 0 1.26 1.23 6.67 6.67 0 0 0 1.57.92 6.1 6.1 0 0 0 1.85.41 6.8 6.8 0 0 0 2.15-.2 11.06 11.06 0 0 0 2.45-1 17.67 17.67 0 0 0 2.77-1.94 14.39 14.39 0 0 0 3.18-3.52 7.74 7.74 0 0 0 1.14-3.17 5.54 5.54 0 0 0-.37-2.74 8.52 8.52 0 0 0-1.36-2.3m12.99-27.07a32.3 32.3 0 0 1 5.34-3.66 34.12 34.12 0 0 1 5.15-2.35l3.69 4.4a19.62 19.62 0 0 0-2.37.6 22.08 22.08 0 0 0-2.61 1 26 26 0 0 0-2.77 1.49 23.9 23.9 0 0 0-2.8 2 21 21 0 0 0-2.8 2.78 13.19 13.19 0 0 0-1.64 2.51 7.29 7.29 0 0 0-.68 2.24 6.36 6.36 0 0 0 .06 2 5.8 5.8 0 0 0 .61 1.68 8.12 8.12 0 0 0 .93 1.38 9.16 9.16 0 0 0 1.08 1.08 6.56 6.56 0 0 0 1.48.9 6 6 0 0 0 1.87.48 6.76 6.76 0 0 0 2.28-.17 12 12 0 0 0 2.74-1.08 18.57 18.57 0 0 0 3.18-2.22c.58-.48 1.06-.92 1.46-1.31s.75-.77 1.05-1.12.57-.72.81-1.06l.73-1.09-1.82-2.17-5.45 4.57-3.3-3.94 10.3-8.65 7.71 9.19a29 29 0 0 1-1.67 2.43q-1 1.26-2.1 2.52c-.73.84-1.5 1.66-2.3 2.44s-1.57 1.5-2.33 2.14a31 31 0 0 1-3.59 2.61 22.15 22.15 0 0 1-3.64 1.83 15.56 15.56 0 0 1-3.62.89 11 11 0 0 1-3.49-.14 10.84 10.84 0 0 1-3.28-1.33 12.82 12.82 0 0 1-3-2.68 12.12 12.12 0 0 1-2.08-3.43A10.71 10.71 0 0 1 375 155a11.18 11.18 0 0 1 .51-3.51 15.51 15.51 0 0 1 1.57-3.43 21.44 21.44 0 0 1 2.42-3.28 30.19 30.19 0 0 1 3.14-3m45.99-22.47a12.26 12.26 0 0 1 2.59 4.82 10.44 10.44 0 0 1 0 5 14.53 14.53 0 0 1-2.34 5 25.29 25.29 0 0 1-4.56 4.86 26 26 0 0 1-5.59 3.67 14.84 14.84 0 0 1-5.38 1.43 10.61 10.61 0 0 1-4.95-.89 12.15 12.15 0 0 1-4.3-3.37 12 12 0 0 1-2.56-4.81 10.48 10.48 0 0 1 0-5 14.39 14.39 0 0 1 2.35-5 27.89 27.89 0 0 1 10.16-8.53 14.49 14.49 0 0 1 5.36-1.43 10.27 10.27 0 0 1 4.92.92 12.21 12.21 0 0 1 4.28 3.37m-4.91 4.12a8.17 8.17 0 0 0-2-1.72 5.58 5.58 0 0 0-2.65-.86 7.86 7.86 0 0 0-3.31.58 14.49 14.49 0 0 0-4 2.52 16.21 16.21 0 0 0-2.38 2.4 9.85 9.85 0 0 0-1.4 2.24 7 7 0 0 0-.56 2.1 6 6 0 0 0 .1 1.9 6.23 6.23 0 0 0 .62 1.69 8.49 8.49 0 0 0 1 1.44 9.18 9.18 0 0 0 1.26 1.23 6.67 6.67 0 0 0 1.57.92 6 6 0 0 0 1.84.41 6.86 6.86 0 0 0 2.16-.2 11.26 11.26 0 0 0 2.45-1 17.62 17.62 0 0 0 2.76-1.94 14.67 14.67 0 0 0 3.19-3.52 7.71 7.71 0 0 0 1.13-3.17 5.53 5.53 0 0 0-.36-2.74 8.55 8.55 0 0 0-1.37-2.3"/></g></svg>