<svg xmlns:mydata="http://www.w3.org/2000/svg" mydata:contrastcolor="ffffff" mydata:template="SingleColorHex1" mydata:presentation="2.5" mydata:layouttype="undefined" mydata:specialfontid="undefined" mydata:id1="008" mydata:id2="027" mydata:companyname="Dagracemarket" mydata:companytagline="trust" version="1.1" xmlns="http://www.w3.org/2000/svg" xmlns:xlink="http://www.w3.org/1999/xlink" viewBox="0 0 550 470"><g fill="#00558c" fill-rule="none" stroke="none" stroke-width="1" stroke-linecap="butt" stroke-linejoin="miter" stroke-miterlimit="10" stroke-dasharray="" stroke-dashoffset="0" font-family="none" font-weight="none" font-size="none" text-anchor="none" style="mix-blend-mode: normal"><g data-paper-data="{&quot;isGlobalGroup&quot;:true,&quot;bounds&quot;:{&quot;x&quot;:124.71034780709681,&quot;y&quot;:115,&quot;width&quot;:300.5793043858064,&quot;height&quot;:240}}"><g data-paper-data="{&quot;isSecondaryText&quot;:true}" fill-rule="nonzero"><path d="M231.24737,309.62641c-0.09666,0 -0.18833,-0.0175 -0.27499,-0.0525c-0.08666,-0.035 -0.16249,-0.0825 -0.22749,-0.14249c-0.065,-0.06 -0.11666,-0.12999 -0.15499,-0.20999c-0.03833,-0.08 -0.0575,-0.16499 -0.0575,-0.25499c0,-0.09 0.01917,-0.17583 0.0575,-0.25749c0.03833,-0.08166 0.09,-0.15249 0.15499,-0.21249c0.065,-0.06 0.14083,-0.1075 0.22749,-0.14249c0.08666,-0.035 0.17833,-0.0525 0.27499,-0.0525h4.56482c0.09666,0 0.18833,0.0175 0.27499,0.0525c0.08666,0.035 0.16249,0.0825 0.22749,0.14249c0.065,0.06 0.11666,0.13083 0.15499,0.21249c0.03833,0.08166 0.0575,0.16749 0.0575,0.25749c0,0.09 -0.01917,0.17499 -0.0575,0.25499c-0.03833,0.08 -0.09,0.14999 -0.15499,0.20999c-0.065,0.06 -0.14083,0.1075 -0.22749,0.14249c-0.08666,0.035 -0.17833,0.0525 -0.27499,0.0525h-1.33995v4.96481c0,0.13666 -0.02417,0.26416 -0.0725,0.38249c-0.04833,0.11833 -0.115,0.22166 -0.19999,0.30999c-0.085,0.08833 -0.18333,0.15749 -0.29499,0.20749c-0.11166,0.05 -0.23249,0.075 -0.36249,0.075c-0.12999,0 -0.25082,-0.025 -0.36249,-0.075c-0.11166,-0.05 -0.20916,-0.11916 -0.29249,-0.20749c-0.08333,-0.08833 -0.14916,-0.19166 -0.19749,-0.30999c-0.04833,-0.11833 -0.0725,-0.24582 -0.0725,-0.38249v-4.96481z" data-paper-data="{&quot;glyphName&quot;:&quot;T&quot;,&quot;glyphIndex&quot;:0,&quot;firstGlyphOfWord&quot;:true,&quot;word&quot;:1}"></path><path d="M252.94574,314.59122c0,0.13666 -0.02417,0.26416 -0.0725,0.38249c-0.04833,0.11833 -0.115,0.22166 -0.19999,0.30999c-0.085,0.08833 -0.18333,0.15749 -0.29499,0.20749c-0.11166,0.05 -0.23249,0.075 -0.36249,0.075c-0.12999,0 -0.25082,-0.025 -0.36249,-0.075c-0.11166,-0.05 -0.20916,-0.11916 -0.29249,-0.20749c-0.08333,-0.08833 -0.14916,-0.19166 -0.19749,-0.30999c-0.04833,-0.11833 -0.0725,-0.24582 -0.0725,-0.38249v-5.36979c0,-0.15333 0.03083,-0.28749 0.0925,-0.40248c0.06166,-0.115 0.14416,-0.21083 0.24749,-0.28749c0.10333,-0.07666 0.22416,-0.13416 0.36249,-0.17249c0.13833,-0.03833 0.28416,-0.0575 0.43748,-0.0575h2.00492c0.36999,0 0.72497,0.02417 1.06496,0.0725c0.33999,0.04833 0.63914,0.13916 0.89747,0.27249c0.25832,0.13333 0.46498,0.31832 0.61998,0.55498c0.15499,0.23666 0.23249,0.54498 0.23249,0.92496c0,0.20666 -0.02833,0.40248 -0.085,0.58748c-0.05666,0.18499 -0.14833,0.35165 -0.27499,0.49998c-0.12666,0.14833 -0.29249,0.27499 -0.49748,0.37999c-0.20499,0.105 -0.45582,0.18249 -0.75247,0.23249v0.02c0.21333,0.02667 0.39582,0.06583 0.54748,0.1175c0.15166,0.05166 0.28082,0.12 0.38749,0.20499c0.10666,0.085 0.19333,0.18749 0.25999,0.30749c0.06666,0.12 0.12166,0.26166 0.16499,0.42498c0.04333,0.16333 0.07833,0.34915 0.105,0.55748c0.02667,0.20833 0.05166,0.44415 0.075,0.70747c0.00667,0.07333 0.01167,0.14416 0.015,0.21249c0.00333,0.06833 0.005,0.13583 0.005,0.20249c0,0.14333 -0.01333,0.27499 -0.04,0.39498c-0.02667,0.12 -0.07333,0.22332 -0.13999,0.30999c-0.06666,0.08666 -0.15833,0.15416 -0.27499,0.20249c-0.11666,0.04833 -0.26666,0.0725 -0.44998,0.0725c-0.16666,0 -0.30582,-0.03833 -0.41748,-0.115c-0.11166,-0.07666 -0.20416,-0.18166 -0.27749,-0.31499c-0.07333,-0.13333 -0.12916,-0.28749 -0.16749,-0.46248c-0.03833,-0.17499 -0.06916,-0.36249 -0.0925,-0.56248c-0.03333,-0.28999 -0.0675,-0.53248 -0.1025,-0.72747c-0.035,-0.19499 -0.09083,-0.35249 -0.16749,-0.47248c-0.07666,-0.12 -0.18583,-0.20499 -0.32749,-0.25499c-0.14166,-0.05 -0.33582,-0.075 -0.58248,-0.075h-1.01496zM253.71571,311.41634c0.17999,0 0.35999,-0.01083 0.53998,-0.0325c0.17999,-0.02167 0.34249,-0.06666 0.48748,-0.13499c0.14499,-0.06833 0.26249,-0.16833 0.35249,-0.29999c0.09,-0.13166 0.13499,-0.30749 0.13499,-0.52748c0,-0.25332 -0.04333,-0.44332 -0.12999,-0.56998c-0.08666,-0.12666 -0.20166,-0.22166 -0.34499,-0.28499c-0.14333,-0.06333 -0.30915,-0.1025 -0.49748,-0.1175c-0.18833,-0.015 -0.38415,-0.0225 -0.58748,-0.0225h-0.75497v1.98992z" data-paper-data="{&quot;glyphName&quot;:&quot;R&quot;,&quot;glyphIndex&quot;:1,&quot;word&quot;:1}"></path><path d="M276.82898,309.27642c0,-0.13666 0.02417,-0.26416 0.0725,-0.38249c0.04833,-0.11833 0.11416,-0.22166 0.19749,-0.30999c0.08333,-0.08833 0.18083,-0.15749 0.29249,-0.20749c0.11166,-0.05 0.23249,-0.075 0.36249,-0.075c0.12999,0 0.25082,0.025 0.36249,0.075c0.11166,0.05 0.20999,0.11916 0.29499,0.20749c0.085,0.08833 0.15166,0.19166 0.19999,0.30999c0.04833,0.11833 0.0725,0.24582 0.0725,0.38249v3.82985c0,0.43998 -0.0775,0.82413 -0.23249,1.15246c-0.15499,0.32832 -0.37165,0.60248 -0.64997,0.82247c-0.27832,0.21999 -0.60914,0.38499 -0.99246,0.49498c-0.38332,0.11 -0.8033,0.16499 -1.25995,0.16499c-0.44998,0 -0.8658,-0.05416 -1.24745,-0.16249c-0.38165,-0.10833 -0.71164,-0.27082 -0.98996,-0.48748c-0.27832,-0.21666 -0.49581,-0.48998 -0.65247,-0.81997c-0.15666,-0.32999 -0.23499,-0.71831 -0.23499,-1.16495v-3.82985c0,-0.13666 0.02417,-0.26416 0.0725,-0.38249c0.04833,-0.11833 0.11416,-0.22166 0.19749,-0.30999c0.08333,-0.08833 0.18083,-0.15749 0.29249,-0.20749c0.11166,-0.05 0.23249,-0.075 0.36249,-0.075c0.12999,0 0.25082,0.025 0.36249,0.075c0.11166,0.05 0.20999,0.11916 0.29499,0.20749c0.085,0.08833 0.15166,0.19166 0.19999,0.30999c0.04833,0.11833 0.0725,0.24582 0.0725,0.38249l0.005,3.79985c0,0.23999 0.03667,0.44665 0.11,0.61998c0.07333,0.17333 0.16916,0.31499 0.28749,0.42498c0.11833,0.11 0.25332,0.19166 0.40498,0.24499c0.15166,0.05333 0.30582,0.08 0.46248,0.08c0.15999,0 0.31582,-0.02667 0.46748,-0.08c0.15166,-0.05333 0.28749,-0.13499 0.40748,-0.24499c0.12,-0.11 0.21749,-0.25166 0.29249,-0.42498c0.075,-0.17333 0.1125,-0.37999 0.1125,-0.61998z" data-paper-data="{&quot;glyphName&quot;:&quot;U&quot;,&quot;glyphIndex&quot;:2,&quot;word&quot;:1}"></path><path d="M295.95916,310.20139c0,0.15999 0.05333,0.29499 0.15999,0.40498c0.10666,0.11 0.24582,0.20499 0.41748,0.28499c0.17166,0.08 0.36582,0.14999 0.58248,0.20999c0.21666,0.06 0.43498,0.12166 0.65497,0.18499c0.35332,0.10666 0.67414,0.21999 0.96246,0.33999c0.28832,0.12 0.53498,0.26332 0.73997,0.42998c0.20499,0.16666 0.36332,0.36415 0.47498,0.59248c0.11166,0.22832 0.16749,0.50248 0.16749,0.82247c0,0.34999 -0.06916,0.66497 -0.20749,0.94496c-0.13833,0.27999 -0.33749,0.51831 -0.59748,0.71497c-0.25999,0.19666 -0.57414,0.34749 -0.94246,0.45248c-0.36832,0.105 -0.78247,0.15749 -1.24245,0.15749c-0.23666,0 -0.47498,-0.01417 -0.71497,-0.0425c-0.23999,-0.02833 -0.47165,-0.06916 -0.69497,-0.1225c-0.22332,-0.05333 -0.43332,-0.11833 -0.62998,-0.19499c-0.19666,-0.07666 -0.36832,-0.16333 -0.51498,-0.25999c-0.14666,-0.09666 -0.26166,-0.20249 -0.34499,-0.31749c-0.08333,-0.115 -0.125,-0.23749 -0.125,-0.36749c0,-0.08333 0.0175,-0.16499 0.0525,-0.24499c0.035,-0.08 0.08,-0.15249 0.13499,-0.21749c0.055,-0.065 0.11666,-0.1175 0.18499,-0.15749c0.06833,-0.04 0.13583,-0.06 0.20249,-0.06c0.06,0 0.11833,0.01 0.17499,0.03c0.05666,0.02 0.11416,0.04416 0.17249,0.0725c0.05833,0.02833 0.11833,0.05916 0.17999,0.0925c0.06166,0.03333 0.1275,0.06333 0.19749,0.09c0.22999,0.10333 0.48831,0.19666 0.77497,0.27999c0.28666,0.08333 0.58664,0.125 0.89997,0.125c0.16999,0 0.33082,-0.01583 0.48248,-0.0475c0.15166,-0.03167 0.28499,-0.08 0.39998,-0.14499c0.115,-0.065 0.20583,-0.14916 0.27249,-0.25249c0.06666,-0.10333 0.1,-0.22832 0.1,-0.37499c0,-0.11 -0.02,-0.20833 -0.06,-0.29499c-0.04,-0.08666 -0.095,-0.16249 -0.16499,-0.22749c-0.07,-0.065 -0.15166,-0.12166 -0.24499,-0.16999c-0.09333,-0.04833 -0.19166,-0.09083 -0.29499,-0.1275l-0.22499,-0.08c-0.04333,-0.01333 -0.085,-0.0275 -0.125,-0.0425c-0.04,-0.015 -0.08333,-0.02917 -0.12999,-0.0425l-0.25999,-0.075c-0.05666,-0.01333 -0.105,-0.02583 -0.14499,-0.0375c-0.04,-0.01167 -0.07583,-0.02333 -0.1075,-0.035c-0.03167,-0.01167 -0.0625,-0.02333 -0.0925,-0.035c-0.03,-0.01167 -0.065,-0.02417 -0.105,-0.0375l-0.46998,-0.16499c-0.30332,-0.11 -0.56331,-0.22499 -0.77997,-0.34499c-0.21666,-0.12 -0.39332,-0.25499 -0.52998,-0.40498c-0.13666,-0.14999 -0.23749,-0.32082 -0.30249,-0.51248c-0.065,-0.19166 -0.0975,-0.41415 -0.0975,-0.66747c0,-0.33332 0.06916,-0.63498 0.20749,-0.90497c0.13833,-0.26999 0.33665,-0.49998 0.59498,-0.68997c0.25832,-0.18999 0.57164,-0.33665 0.93996,-0.43998c0.36832,-0.10333 0.78247,-0.15499 1.24245,-0.15499c0.16666,0 0.34832,0.01083 0.54498,0.0325c0.19666,0.02167 0.39332,0.05416 0.58998,0.0975c0.19666,0.04333 0.38582,0.09916 0.56748,0.16749c0.18166,0.06833 0.34249,0.14833 0.48248,0.23999c0.13999,0.09166 0.25249,0.19583 0.33749,0.31249c0.085,0.11666 0.1275,0.24666 0.1275,0.38998c0,0.08333 -0.01583,0.15999 -0.0475,0.22999c-0.03167,0.07 -0.07416,0.12999 -0.1275,0.17999c-0.05333,0.05 -0.11583,0.08916 -0.18749,0.1175c-0.07166,0.02833 -0.14583,0.0425 -0.22249,0.0425c-0.1,0 -0.19166,-0.02167 -0.27499,-0.065c-0.15666,-0.08 -0.30249,-0.14833 -0.43748,-0.20499c-0.13499,-0.05666 -0.26916,-0.10333 -0.40248,-0.13999c-0.13333,-0.03667 -0.27082,-0.06333 -0.41248,-0.08c-0.14166,-0.01667 -0.29749,-0.025 -0.46748,-0.025c-0.15999,0 -0.31749,0.01417 -0.47248,0.0425c-0.15499,0.02833 -0.29332,0.07333 -0.41498,0.13499c-0.12166,0.06166 -0.21999,0.14083 -0.29499,0.23749c-0.075,0.09666 -0.1125,0.21499 -0.1125,0.35499z" data-paper-data="{&quot;glyphName&quot;:&quot;S&quot;,&quot;glyphIndex&quot;:3,&quot;word&quot;:1}"></path><path d="M314.18781,309.62641c-0.09666,0 -0.18833,-0.0175 -0.27499,-0.0525c-0.08666,-0.035 -0.16249,-0.0825 -0.22749,-0.14249c-0.065,-0.06 -0.11666,-0.12999 -0.15499,-0.20999c-0.03833,-0.08 -0.0575,-0.16499 -0.0575,-0.25499c0,-0.09 0.01917,-0.17583 0.0575,-0.25749c0.03833,-0.08166 0.09,-0.15249 0.15499,-0.21249c0.065,-0.06 0.14083,-0.1075 0.22749,-0.14249c0.08666,-0.035 0.17833,-0.0525 0.27499,-0.0525h4.56482c0.09666,0 0.18833,0.0175 0.27499,0.0525c0.08666,0.035 0.16249,0.0825 0.22749,0.14249c0.065,0.06 0.11666,0.13083 0.15499,0.21249c0.03833,0.08166 0.0575,0.16749 0.0575,0.25749c0,0.09 -0.01917,0.17499 -0.0575,0.25499c-0.03833,0.08 -0.09,0.14999 -0.15499,0.20999c-0.065,0.06 -0.14083,0.1075 -0.22749,0.14249c-0.08666,0.035 -0.17833,0.0525 -0.27499,0.0525h-1.33995v4.96481c0,0.13666 -0.02417,0.26416 -0.0725,0.38249c-0.04833,0.11833 -0.115,0.22166 -0.19999,0.30999c-0.085,0.08833 -0.18333,0.15749 -0.29499,0.20749c-0.11166,0.05 -0.23249,0.075 -0.36249,0.075c-0.12999,0 -0.25082,-0.025 -0.36249,-0.075c-0.11166,-0.05 -0.20916,-0.11916 -0.29249,-0.20749c-0.08333,-0.08833 -0.14916,-0.19166 -0.19749,-0.30999c-0.04833,-0.11833 -0.0725,-0.24582 -0.0725,-0.38249v-4.96481z" data-paper-data="{&quot;glyphName&quot;:&quot;T&quot;,&quot;glyphIndex&quot;:4,&quot;lastGlyphOfWord&quot;:true,&quot;word&quot;:1}"></path></g><g data-paper-data="{&quot;isPrimaryText&quot;:true}" fill-rule="nonzero"><path d="M131.72021,296.63417c2.73638,0 5.073,-0.96843 7.00986,-2.90529c0.97969,-0.97969 1.71164,-2.04665 2.19586,-3.20089c0.48422,-1.15423 0.72632,-2.42952 0.72632,-3.82586c0,-2.72512 -0.97406,-5.06174 -2.92218,-7.00986c-1.94812,-1.94812 -4.28474,-2.92218 -7.00986,-2.92218h-3.41203v19.86408zM131.72021,273.18916c3.71607,0 6.89725,1.32315 9.54354,3.96944c1.32878,1.32878 2.32254,2.77861 2.9813,4.34949c0.65876,1.57088 0.98814,3.30223 0.98814,5.19405c0,3.72733 -1.32315,6.91414 -3.96944,9.56043c-2.63503,2.63503 -5.81621,3.95255 -9.54354,3.95255h-5.2025c-0.24774,0 -0.4814,-0.04786 -0.70099,-0.14358c-0.21959,-0.09572 -0.41102,-0.2224 -0.5743,-0.38005c-0.16328,-0.15765 -0.29278,-0.34627 -0.3885,-0.56586c-0.09572,-0.21959 -0.14358,-0.45325 -0.14358,-0.70099v-23.44502c0,-0.24774 0.04786,-0.4814 0.14358,-0.70099c0.09572,-0.21959 0.22522,-0.4082 0.3885,-0.56586c0.16328,-0.15765 0.35472,-0.28434 0.5743,-0.38005c0.21959,-0.09572 0.45325,-0.14358 0.70099,-0.14358z" data-paper-data="{&quot;glyphName&quot;:&quot;D&quot;,&quot;glyphIndex&quot;:0,&quot;firstGlyphOfWord&quot;:true,&quot;word&quot;:1}"></path><path d="M151.14511,299.11718c-0.34909,0.73195 -0.90087,1.09793 -1.65534,1.09793c-0.259,0 -0.49548,-0.04504 -0.70943,-0.13513c-0.21396,-0.09009 -0.40257,-0.21677 -0.56586,-0.38005c-0.16328,-0.16328 -0.28997,-0.3519 -0.38005,-0.56586c-0.09009,-0.21396 -0.13513,-0.45043 -0.13513,-0.70943c0,-0.23648 0.05067,-0.47858 0.15202,-0.72632l9.0537,-23.25921c0.36035,-0.8333 0.92902,-1.24995 1.70601,-1.24995c0.777,0 1.34567,0.41665 1.70601,1.24995l9.0537,23.25921c0.10135,0.23648 0.15202,0.47858 0.15202,0.72632c0,0.259 -0.04504,0.49548 -0.13513,0.70943c-0.09009,0.21396 -0.21677,0.40257 -0.38005,0.56586c-0.16328,0.16328 -0.35472,0.28997 -0.5743,0.38005c-0.21959,0.09009 -0.45325,0.13513 -0.70099,0.13513c-0.78826,0 -1.34567,-0.36598 -1.67223,-1.09793l-7.44903,-19.18843z" data-paper-data="{&quot;glyphName&quot;:&quot;Λ&quot;,&quot;glyphIndex&quot;:1,&quot;word&quot;:1}"></path><path d="M194.60623,295.92474c0,0.47295 -0.1858,0.90087 -0.55741,1.28373c-2.51116,2.00443 -5.34326,3.00664 -8.49628,3.00664c-3.73859,0 -6.9254,-1.31752 -9.56043,-3.95255c-2.63503,-2.63503 -3.95255,-5.82184 -3.95255,-9.56043c0,-3.72733 1.31752,-6.90851 3.95255,-9.54354c2.64629,-2.64629 5.8331,-3.96944 9.56043,-3.96944c3.19807,0 6.08647,1.05289 8.6652,3.15866c0.3153,0.29278 0.47295,0.7038 0.47295,1.23306c0,0.259 -0.04504,0.49548 -0.13513,0.70943c-0.09009,0.21396 -0.21677,0.40257 -0.38005,0.56586c-0.16328,0.16328 -0.35472,0.28997 -0.5743,0.38005c-0.21959,0.09009 -0.45325,0.13513 -0.70099,0.13513c-0.46169,0 -0.87271,-0.16891 -1.23306,-0.50674c-0.85582,-0.67565 -1.79892,-1.19365 -2.82928,-1.55399c-1.03036,-0.36035 -2.12548,-0.54052 -3.28534,-0.54052c-2.74764,0 -5.09552,0.97406 -7.04364,2.92218c-1.9256,1.9256 -2.8884,4.26222 -2.8884,7.00986c0,2.7589 0.9628,5.10115 2.8884,7.02675c1.93686,1.93686 4.28474,2.90529 7.04364,2.90529c2.03821,0 3.86246,-0.53489 5.47276,-1.60467v-5.23628h-4.66198c-0.50674,0 -0.93183,-0.17173 -1.27529,-0.51518c-0.34345,-0.34345 -0.51518,-0.76855 -0.51518,-1.27529c0,-0.24774 0.04504,-0.4814 0.13513,-0.70099c0.09009,-0.21959 0.21677,-0.41102 0.38005,-0.5743c0.16328,-0.16328 0.3519,-0.28997 0.56586,-0.38005c0.21396,-0.09009 0.45043,-0.13513 0.70943,-0.13513h6.46934c0.23648,0 0.46169,0.04786 0.67565,0.14358c0.21396,0.09572 0.40257,0.22522 0.56586,0.3885c0.16328,0.16328 0.29278,0.35472 0.3885,0.5743c0.09572,0.21959 0.14358,0.44762 0.14358,0.68409z" data-paper-data="{&quot;glyphName&quot;:&quot;G&quot;,&quot;glyphIndex&quot;:2,&quot;word&quot;:1}"></path><path d="M200.90665,276.7701v9.44219h4.72954c0.65313,0 1.26684,-0.12387 1.84114,-0.37161c0.5743,-0.24774 1.07259,-0.58838 1.49487,-1.02192c0.42228,-0.43354 0.75729,-0.93465 1.00503,-1.50332c0.24774,-0.56867 0.37161,-1.17394 0.37161,-1.81581c0,-0.65313 -0.12387,-1.26684 -0.37161,-1.84114c-0.24774,-0.5743 -0.58556,-1.07541 -1.01347,-1.50332c-0.42791,-0.42791 -0.92902,-0.76574 -1.50332,-1.01347c-0.5743,-0.24774 -1.18239,-0.37161 -1.82425,-0.37161zM197.32571,298.42464v-23.44502c0,-0.24774 0.04504,-0.4814 0.13513,-0.70099c0.09009,-0.21959 0.21677,-0.41102 0.38005,-0.5743c0.16328,-0.16328 0.3519,-0.28997 0.56586,-0.38005c0.21396,-0.09009 0.45043,-0.13513 0.70943,-0.13513h6.52001c1.13734,0 2.20993,0.21959 3.21778,0.65876c1.00784,0.43917 1.88619,1.03599 2.63503,1.79047c0.74884,0.75447 1.34285,1.63563 1.78202,2.64348c0.43917,1.00784 0.65876,2.08044 0.65876,3.21778c0,0.74321 -0.0929,1.46672 -0.27871,2.17052c-0.1858,0.7038 -0.46169,1.36819 -0.82767,1.99316c-0.36598,0.62498 -0.82204,1.20491 -1.36819,1.7398c-0.54615,0.53489 -1.17957,1.00503 -1.90026,1.41042l5.3883,8.63141c0.19143,0.3153 0.28715,0.64187 0.28715,0.97969c0,0.259 -0.04504,0.49548 -0.13513,0.70943c-0.09009,0.21396 -0.21677,0.40257 -0.38005,0.56586c-0.16328,0.16328 -0.35472,0.28997 -0.5743,0.38005c-0.21959,0.09009 -0.45325,0.13513 -0.70099,0.13513c-0.63061,0 -1.14297,-0.29278 -1.5371,-0.87834l-5.9626,-9.54354h-5.03358v8.63141c0,0.49548 -0.17454,0.91776 -0.52363,1.26684c-0.34909,0.34909 -0.77137,0.52363 -1.26684,0.52363c-0.49548,0 -0.91776,-0.17454 -1.26684,-0.52363c-0.34909,-0.34909 -0.52363,-0.77137 -0.52363,-1.26684z" data-paper-data="{&quot;glyphName&quot;:&quot;R&quot;,&quot;glyphIndex&quot;:3,&quot;word&quot;:1}"></path><path d="M221.07477,299.11718c-0.34909,0.73195 -0.90087,1.09793 -1.65534,1.09793c-0.259,0 -0.49548,-0.04504 -0.70943,-0.13513c-0.21396,-0.09009 -0.40257,-0.21677 -0.56586,-0.38005c-0.16328,-0.16328 -0.28997,-0.3519 -0.38005,-0.56586c-0.09009,-0.21396 -0.13513,-0.45043 -0.13513,-0.70943c0,-0.23648 0.05067,-0.47858 0.15202,-0.72632l9.0537,-23.25921c0.36035,-0.8333 0.92902,-1.24995 1.70601,-1.24995c0.777,0 1.34567,0.41665 1.70601,1.24995l9.0537,23.25921c0.10135,0.23648 0.15202,0.47858 0.15202,0.72632c0,0.259 -0.04504,0.49548 -0.13513,0.70943c-0.09009,0.21396 -0.21677,0.40257 -0.38005,0.56586c-0.16328,0.16328 -0.35472,0.28997 -0.5743,0.38005c-0.21959,0.09009 -0.45325,0.13513 -0.70099,0.13513c-0.78826,0 -1.34567,-0.36598 -1.67223,-1.09793l-7.44903,-19.18843z" data-paper-data="{&quot;glyphName&quot;:&quot;Λ&quot;,&quot;glyphIndex&quot;:4,&quot;word&quot;:1}"></path><path d="M262.74542,294.13427c0.24774,0 0.47858,0.04786 0.69254,0.14358c0.21396,0.09572 0.40257,0.2224 0.56586,0.38005c0.16328,0.15765 0.29278,0.34627 0.3885,0.56586c0.09572,0.21959 0.14358,0.45325 0.14358,0.70099c0,0.47295 -0.1858,0.90087 -0.55741,1.28373c-2.51116,2.00443 -5.34326,3.00664 -8.49628,3.00664c-3.73859,0 -6.9254,-1.31752 -9.56043,-3.95255c-2.63503,-2.63503 -3.95255,-5.82184 -3.95255,-9.56043c0,-3.72733 1.31752,-6.90851 3.95255,-9.54354c2.64629,-2.64629 5.8331,-3.96944 9.56043,-3.96944c3.19807,0 6.08647,1.05289 8.6652,3.15866c0.3153,0.30404 0.47295,0.71506 0.47295,1.23306c0,0.259 -0.04504,0.49548 -0.13513,0.70943c-0.09009,0.21396 -0.21677,0.40257 -0.38005,0.56586c-0.16328,0.16328 -0.35472,0.28997 -0.5743,0.38005c-0.21959,0.09009 -0.45325,0.13513 -0.70099,0.13513c-0.43917,0 -0.85019,-0.16891 -1.23306,-0.50674c-0.85582,-0.67565 -1.79892,-1.19365 -2.82928,-1.55399c-1.03036,-0.36035 -2.12548,-0.54052 -3.28534,-0.54052c-2.74764,0 -5.09552,0.97406 -7.04364,2.92218c-1.9256,1.9256 -2.8884,4.26222 -2.8884,7.00986c0,2.7589 0.9628,5.10115 2.8884,7.02675c1.93686,1.93686 4.28474,2.90529 7.04364,2.90529c2.35351,0 4.4255,-0.72632 6.21597,-2.17897c0.29278,-0.20269 0.64187,-0.30967 1.04726,-0.32093z" data-paper-data="{&quot;glyphName&quot;:&quot;C&quot;,&quot;glyphIndex&quot;:5,&quot;word&quot;:1}"></path><path d="M284.34929,273.18916c0.24774,0 0.4814,0.04504 0.70099,0.13513c0.21959,0.09009 0.41102,0.21677 0.5743,0.38005c0.16328,0.16328 0.28997,0.35472 0.38005,0.5743c0.09009,0.21959 0.13513,0.45325 0.13513,0.70099c0,0.259 -0.04504,0.49548 -0.13513,0.70943c-0.09009,0.21396 -0.21677,0.40257 -0.38005,0.56586c-0.16328,0.16328 -0.35472,0.28997 -0.5743,0.38005c-0.21959,0.09009 -0.45325,0.13513 -0.70099,0.13513h-15.62438c-0.259,0 -0.49548,-0.04504 -0.70943,-0.13513c-0.21396,-0.09009 -0.40257,-0.21677 -0.56586,-0.38005c-0.16328,-0.16328 -0.28997,-0.3519 -0.38005,-0.56586c-0.09009,-0.21396 -0.13513,-0.45043 -0.13513,-0.70943c0,-0.24774 0.04504,-0.4814 0.13513,-0.70099c0.09009,-0.21959 0.21677,-0.41102 0.38005,-0.5743c0.16328,-0.16328 0.3519,-0.28997 0.56586,-0.38005c0.21396,-0.09009 0.45043,-0.13513 0.70943,-0.13513zM284.34929,296.63417c0.24774,0 0.4814,0.04504 0.70099,0.13513c0.21959,0.09009 0.41102,0.21677 0.5743,0.38005c0.16328,0.16328 0.28997,0.35472 0.38005,0.5743c0.09009,0.21959 0.13513,0.45325 0.13513,0.70099c0,0.259 -0.04504,0.49548 -0.13513,0.70943c-0.09009,0.21396 -0.21677,0.40257 -0.38005,0.56586c-0.16328,0.16328 -0.35472,0.28997 -0.5743,0.38005c-0.21959,0.09009 -0.45325,0.13513 -0.70099,0.13513h-15.62438c-0.259,0 -0.49548,-0.04504 -0.70943,-0.13513c-0.21396,-0.09009 -0.40257,-0.21677 -0.56586,-0.38005c-0.16328,-0.16328 -0.28997,-0.3519 -0.38005,-0.56586c-0.09009,-0.21396 -0.13513,-0.45043 -0.13513,-0.70943c0,-0.24774 0.04504,-0.4814 0.13513,-0.70099c0.09009,-0.21959 0.21677,-0.41102 0.38005,-0.5743c0.16328,-0.16328 0.3519,-0.28997 0.56586,-0.38005c0.21396,-0.09009 0.45043,-0.13513 0.70943,-0.13513zM283.04867,284.91167c0.24774,0 0.4814,0.04504 0.70099,0.13513c0.21959,0.09009 0.41102,0.21677 0.5743,0.38005c0.16328,0.16328 0.28997,0.35472 0.38005,0.5743c0.09009,0.21959 0.13513,0.45325 0.13513,0.70099c0,0.259 -0.04504,0.49548 -0.13513,0.70943c-0.09009,0.21396 -0.21677,0.40257 -0.38005,0.56586c-0.16328,0.16328 -0.35472,0.28997 -0.5743,0.38005c-0.21959,0.09009 -0.45325,0.13513 -0.70099,0.13513h-13.04002c-0.41665,-0.01126 -0.81641,-0.1858 -1.19928,-0.52363c-0.36035,-0.32656 -0.54052,-0.74884 -0.54052,-1.26684c0,-0.22522 0.04504,-0.4448 0.13513,-0.65876c0.09009,-0.21396 0.21396,-0.40257 0.37161,-0.56586c0.15765,-0.16328 0.34064,-0.2956 0.54896,-0.39694c0.20833,-0.10135 0.43636,-0.15765 0.68409,-0.16891z" data-paper-data="{&quot;glyphName&quot;:&quot;Ξ&quot;,&quot;glyphIndex&quot;:6,&quot;word&quot;:1}"></path><path d="M288.62277,298.42464v-23.44502c0,-0.24774 0.04504,-0.4814 0.13513,-0.70099c0.09009,-0.21959 0.21677,-0.41102 0.38005,-0.5743c0.16328,-0.16328 0.3519,-0.28997 0.56586,-0.38005c0.21396,-0.09009 0.45043,-0.13513 0.70943,-0.13513c0.69817,0 1.22743,0.32093 1.58777,0.9628l10.13473,20.25258l10.13473,-20.25258c0.40539,-0.64187 0.93465,-0.9628 1.58777,-0.9628c0.24774,0 0.4814,0.04504 0.70099,0.13513c0.21959,0.09009 0.41102,0.21677 0.5743,0.38005c0.16328,0.16328 0.28997,0.35472 0.38005,0.5743c0.09009,0.21959 0.13513,0.45325 0.13513,0.70099v23.44502c0,0.49548 -0.17454,0.91776 -0.52363,1.26684c-0.34909,0.34909 -0.77137,0.52363 -1.26684,0.52363c-0.49548,0 -0.91776,-0.17454 -1.26684,-0.52363c-0.34909,-0.34909 -0.52363,-0.77137 -0.52363,-1.26684v-15.84397l-8.37805,16.7392c-0.34909,0.59682 -0.86708,0.89523 -1.55399,0.89523c-0.74321,0 -1.28936,-0.36035 -1.63845,-1.08104l-8.29359,-16.5534v15.84397c0,0.49548 -0.17454,0.91776 -0.52363,1.26684c-0.34909,0.34909 -0.77137,0.52363 -1.26684,0.52363c-0.49548,0 -0.91776,-0.17454 -1.26684,-0.52363c-0.34909,-0.34909 -0.52363,-0.77137 -0.52363,-1.26684z" data-paper-data="{&quot;glyphName&quot;:&quot;M&quot;,&quot;glyphIndex&quot;:7,&quot;word&quot;:1}"></path><path d="M321.74646,299.11718c-0.34909,0.73195 -0.90087,1.09793 -1.65534,1.09793c-0.259,0 -0.49548,-0.04504 -0.70943,-0.13513c-0.21396,-0.09009 -0.40257,-0.21677 -0.56586,-0.38005c-0.16328,-0.16328 -0.28997,-0.3519 -0.38005,-0.56586c-0.09009,-0.21396 -0.13513,-0.45043 -0.13513,-0.70943c0,-0.23648 0.05067,-0.47858 0.15202,-0.72632l9.0537,-23.25921c0.36035,-0.8333 0.92902,-1.24995 1.70601,-1.24995c0.777,0 1.34567,0.41665 1.70601,1.24995l9.0537,23.25921c0.10135,0.23648 0.15202,0.47858 0.15202,0.72632c0,0.259 -0.04504,0.49548 -0.13513,0.70943c-0.09009,0.21396 -0.21677,0.40257 -0.38005,0.56586c-0.16328,0.16328 -0.35472,0.28997 -0.5743,0.38005c-0.21959,0.09009 -0.45325,0.13513 -0.70099,0.13513c-0.78826,0 -1.34567,-0.36598 -1.67223,-1.09793l-7.44903,-19.18843z" data-paper-data="{&quot;glyphName&quot;:&quot;Λ&quot;,&quot;glyphIndex&quot;:8,&quot;word&quot;:1}"></path><path d="M346.17117,276.7701v9.44219h4.72954c0.65313,0 1.26684,-0.12387 1.84114,-0.37161c0.5743,-0.24774 1.07259,-0.58838 1.49487,-1.02192c0.42228,-0.43354 0.75729,-0.93465 1.00503,-1.50332c0.24774,-0.56867 0.37161,-1.17394 0.37161,-1.81581c0,-0.65313 -0.12387,-1.26684 -0.37161,-1.84114c-0.24774,-0.5743 -0.58556,-1.07541 -1.01347,-1.50332c-0.42791,-0.42791 -0.92902,-0.76574 -1.50332,-1.01347c-0.5743,-0.24774 -1.18239,-0.37161 -1.82425,-0.37161zM342.59023,298.42464v-23.44502c0,-0.24774 0.04504,-0.4814 0.13513,-0.70099c0.09009,-0.21959 0.21677,-0.41102 0.38005,-0.5743c0.16328,-0.16328 0.3519,-0.28997 0.56586,-0.38005c0.21396,-0.09009 0.45043,-0.13513 0.70943,-0.13513h6.52001c1.13734,0 2.20993,0.21959 3.21778,0.65876c1.00784,0.43917 1.88619,1.03599 2.63503,1.79047c0.74884,0.75447 1.34285,1.63563 1.78202,2.64348c0.43917,1.00784 0.65876,2.08044 0.65876,3.21778c0,0.74321 -0.0929,1.46672 -0.27871,2.17052c-0.1858,0.7038 -0.46169,1.36819 -0.82767,1.99316c-0.36598,0.62498 -0.82204,1.20491 -1.36819,1.7398c-0.54615,0.53489 -1.17957,1.00503 -1.90026,1.41042l5.3883,8.63141c0.19143,0.3153 0.28715,0.64187 0.28715,0.97969c0,0.259 -0.04504,0.49548 -0.13513,0.70943c-0.09009,0.21396 -0.21677,0.40257 -0.38005,0.56586c-0.16328,0.16328 -0.35472,0.28997 -0.5743,0.38005c-0.21959,0.09009 -0.45325,0.13513 -0.70099,0.13513c-0.63061,0 -1.14297,-0.29278 -1.5371,-0.87834l-5.9626,-9.54354h-5.03358v8.63141c0,0.49548 -0.17454,0.91776 -0.52363,1.26684c-0.34909,0.34909 -0.77137,0.52363 -1.26684,0.52363c-0.49548,0 -0.91776,-0.17454 -1.26684,-0.52363c-0.34909,-0.34909 -0.52363,-0.77137 -0.52363,-1.26684z" data-paper-data="{&quot;glyphName&quot;:&quot;R&quot;,&quot;glyphIndex&quot;:9,&quot;word&quot;:1}"></path><path d="M362.85969,274.97963c0,-0.49548 0.17454,-0.91776 0.52363,-1.26684c0.34909,-0.34909 0.77137,-0.52363 1.26684,-0.52363c0.49548,0 0.91776,0.17454 1.26684,0.52363c0.34909,0.34909 0.52363,0.77137 0.52363,1.26684v9.9996l11.23266,-11.23266c0.37161,-0.37161 0.80515,-0.55741 1.30062,-0.55741c0.24774,0 0.4814,0.04504 0.70099,0.13513c0.21959,0.09009 0.41102,0.21677 0.5743,0.38005c0.16328,0.16328 0.28997,0.35472 0.38005,0.5743c0.09009,0.21959 0.13513,0.45325 0.13513,0.70099c0,0.49548 -0.17454,0.91776 -0.52363,1.26684l-8.851,8.86789l9.0368,12.24614c0.22522,0.3153 0.33782,0.65313 0.33782,1.01347c0,0.23648 -0.04504,0.46732 -0.13513,0.69254c-0.09009,0.22522 -0.21396,0.42228 -0.37161,0.59119c-0.15765,0.16891 -0.34345,0.30404 -0.55741,0.40539c-0.21396,0.10135 -0.4448,0.15202 -0.69254,0.15202c-0.66439,0 -1.16549,-0.25337 -1.50332,-0.76011l-8.68209,-11.77318l-2.38166,2.38166v8.36116c0,0.49548 -0.17454,0.91776 -0.52363,1.26684c-0.34909,0.34909 -0.77137,0.52363 -1.26684,0.52363c-0.49548,0 -0.91776,-0.17454 -1.26684,-0.52363c-0.34909,-0.34909 -0.52363,-0.77137 -0.52363,-1.26684z" data-paper-data="{&quot;glyphName&quot;:&quot;K&quot;,&quot;glyphIndex&quot;:10,&quot;word&quot;:1}"></path><path d="M400.5609,273.18916c0.24774,0 0.4814,0.04504 0.70099,0.13513c0.21959,0.09009 0.41102,0.21677 0.5743,0.38005c0.16328,0.16328 0.28997,0.35472 0.38005,0.5743c0.09009,0.21959 0.13513,0.45325 0.13513,0.70099c0,0.259 -0.04504,0.49548 -0.13513,0.70943c-0.09009,0.21396 -0.21677,0.40257 -0.38005,0.56586c-0.16328,0.16328 -0.35472,0.28997 -0.5743,0.38005c-0.21959,0.09009 -0.45325,0.13513 -0.70099,0.13513h-15.62438c-0.259,0 -0.49548,-0.04504 -0.70943,-0.13513c-0.21396,-0.09009 -0.40257,-0.21677 -0.56586,-0.38005c-0.16328,-0.16328 -0.28997,-0.3519 -0.38005,-0.56586c-0.09009,-0.21396 -0.13513,-0.45043 -0.13513,-0.70943c0,-0.24774 0.04504,-0.4814 0.13513,-0.70099c0.09009,-0.21959 0.21677,-0.41102 0.38005,-0.5743c0.16328,-0.16328 0.3519,-0.28997 0.56586,-0.38005c0.21396,-0.09009 0.45043,-0.13513 0.70943,-0.13513zM400.5609,296.63417c0.24774,0 0.4814,0.04504 0.70099,0.13513c0.21959,0.09009 0.41102,0.21677 0.5743,0.38005c0.16328,0.16328 0.28997,0.35472 0.38005,0.5743c0.09009,0.21959 0.13513,0.45325 0.13513,0.70099c0,0.259 -0.04504,0.49548 -0.13513,0.70943c-0.09009,0.21396 -0.21677,0.40257 -0.38005,0.56586c-0.16328,0.16328 -0.35472,0.28997 -0.5743,0.38005c-0.21959,0.09009 -0.45325,0.13513 -0.70099,0.13513h-15.62438c-0.259,0 -0.49548,-0.04504 -0.70943,-0.13513c-0.21396,-0.09009 -0.40257,-0.21677 -0.56586,-0.38005c-0.16328,-0.16328 -0.28997,-0.3519 -0.38005,-0.56586c-0.09009,-0.21396 -0.13513,-0.45043 -0.13513,-0.70943c0,-0.24774 0.04504,-0.4814 0.13513,-0.70099c0.09009,-0.21959 0.21677,-0.41102 0.38005,-0.5743c0.16328,-0.16328 0.3519,-0.28997 0.56586,-0.38005c0.21396,-0.09009 0.45043,-0.13513 0.70943,-0.13513zM399.26028,284.91167c0.24774,0 0.4814,0.04504 0.70099,0.13513c0.21959,0.09009 0.41102,0.21677 0.5743,0.38005c0.16328,0.16328 0.28997,0.35472 0.38005,0.5743c0.09009,0.21959 0.13513,0.45325 0.13513,0.70099c0,0.259 -0.04504,0.49548 -0.13513,0.70943c-0.09009,0.21396 -0.21677,0.40257 -0.38005,0.56586c-0.16328,0.16328 -0.35472,0.28997 -0.5743,0.38005c-0.21959,0.09009 -0.45325,0.13513 -0.70099,0.13513h-13.04002c-0.41665,-0.01126 -0.81641,-0.1858 -1.19928,-0.52363c-0.36035,-0.32656 -0.54052,-0.74884 -0.54052,-1.26684c0,-0.22522 0.04504,-0.4448 0.13513,-0.65876c0.09009,-0.21396 0.21396,-0.40257 0.37161,-0.56586c0.15765,-0.16328 0.34064,-0.2956 0.54896,-0.39694c0.20833,-0.10135 0.43636,-0.15765 0.68409,-0.16891z" data-paper-data="{&quot;glyphName&quot;:&quot;Ξ&quot;,&quot;glyphIndex&quot;:11,&quot;word&quot;:1}"></path><path d="M423.49918,276.7701h-6.67203v21.65455c0,0.49548 -0.17454,0.91776 -0.52363,1.26684c-0.34909,0.34909 -0.77137,0.52363 -1.26684,0.52363c-0.49548,0 -0.91776,-0.17454 -1.26684,-0.52363c-0.34909,-0.34909 -0.52363,-0.77137 -0.52363,-1.26684v-21.65455h-6.67203c-0.49548,0 -0.91776,-0.17454 -1.26684,-0.52363c-0.34909,-0.34909 -0.52363,-0.77137 -0.52363,-1.26684c0,-0.49548 0.17454,-0.91776 0.52363,-1.26684c0.34909,-0.34909 0.77137,-0.52363 1.26684,-0.52363h16.925c0.49548,0 0.91776,0.17454 1.26684,0.52363c0.34909,0.34909 0.52363,0.77137 0.52363,1.26684c0,0.49548 -0.17454,0.91776 -0.52363,1.26684c-0.34909,0.34909 -0.77137,0.52363 -1.26684,0.52363z" data-paper-data="{&quot;glyphName&quot;:&quot;T&quot;,&quot;glyphIndex&quot;:12,&quot;lastGlyphOfWord&quot;:true,&quot;word&quot;:1}"></path></g><g data-paper-data="{&quot;fillRule&quot;:&quot;evenodd&quot;,&quot;fillRuleOriginal&quot;:&quot;evenodd&quot;,&quot;isIcon&quot;:true,&quot;iconStyle&quot;:&quot;standalone&quot;,&quot;selectedEffects&quot;:{&quot;container&quot;:&quot;&quot;,&quot;transformation&quot;:&quot;&quot;,&quot;pattern&quot;:&quot;&quot;},&quot;bounds&quot;:{&quot;x&quot;:205.03415736898427,&quot;y&quot;:154.25896840065246,&quot;width&quot;:139.93168526203146,&quot;height&quot;:99.89243045175982},&quot;iconType&quot;:&quot;icon&quot;,&quot;rawIconId&quot;:&quot;101810&quot;,&quot;combineTerms&quot;:&quot;store&quot;,&quot;isDetailed&quot;:false,&quot;suitableAsStandaloneIcon&quot;:true}" fill-rule="evenodd"><path d="M344.96584,182.37796c0,3.84515 -3.12868,6.97382 -6.97538,6.97382c-1.40165,0 -2.70787,-0.40986 -3.80134,-1.12476v58.59701h9.84126v7.32736h-138.46121v-7.32736h9.57376v-58.22783c-0.94486,0.47869 -2.00705,0.75558 -3.1365,0.75558c-3.23818,0 -5.98203,-2.18851 -6.74387,-5.28747l-0.2284,-0.73837v-7.92025h0.73055l9.37977,-14.89564v-6.2511h119.04463v5.98829l10.42163,15.15844h0.21588v0.31443l0.02034,1.1623h-0.02034v4.13142c0.09386,0.45991 0.13923,0.91827 0.13923,1.3641zM332.70925,155.73414h-116.08959v3.71061h116.08959zM247.7015,160.91993l0.27689,0.07821l-4.04382,14.40756h11.63399l-0.11107,-0.01877l2.41065,-14.46701zM332.12731,175.4057h2.0618l8.63828,-0.00157l-8.63359,-12.55538l-0.73837,-1.07314l-0.58976,-0.8557h-7.79666l7.41184,14.30275zM216.62121,160.93713l-1.47673,2.34338l-7.63554,12.12519h10.36062l-0.35198,-0.17834l7.28356,-14.30588h-8.17054zM235.82817,160.92149h-10.22921l0.35041,0.17834l-7.28356,14.30588h11.82484l-0.33164,-0.1314zM246.8505,160.92149h-10.21513l0.33321,0.12984l-5.66916,14.35437h11.78416l-0.27689,-0.07821zM258.87245,160.92149l0.1142,0.01877l-2.40752,14.46544h11.53856l0.76027,-14.48422zM279.87839,160.92149h-9.89444l-0.76183,14.48422h11.54951zM280.98594,160.92149l0.8948,14.48422l11.54013,0.00157l-2.54518,-14.46075l0.14079,-0.02503zM302.16866,160.92149h-10.17446l2.54674,14.46231l-0.1361,0.02347h11.65589l-4.17679,-14.40287zM313.23166,160.92149h-10.2167l4.17679,14.40287l-0.28471,0.08134h11.78729l-5.79901,-14.34812zM319.50154,175.4057h11.8264l-7.41341,-14.30119l0.35354,-0.18303h-10.23078l5.79901,14.34968zM206.51089,176.88244v6.04774l0.08604,0.28002c0.41455,2.70318 2.69066,4.66329 5.40949,4.66329c1.16856,0 2.24326,-0.37857 3.1365,-1.00743c0.26594,-0.18616 0.50997,-0.39422 0.73837,-0.62417c0.27845,-0.28002 0.52562,-0.58819 0.73837,-0.92609c0.39265,-0.62417 0.67892,-1.32813 0.79937,-2.10403l0.09699,-0.62573h1.58468l0.09543,0.62573c0.41455,2.70318 2.69066,4.66329 5.40949,4.66329c2.72038,0 4.99807,-1.96011 5.41261,-4.66329l0.09699,-0.62573h1.58468l0.09543,0.62573c0.41455,2.70318 2.69066,4.66329 5.40949,4.66329c2.71882,0 4.99337,-1.96011 5.40949,-4.66329l0.09543,-0.62573h1.57686l0.09699,0.62573c0.41455,2.70318 2.69066,4.66329 5.41105,4.66329c2.72038,0 4.9965,-1.96011 5.41105,-4.66329l0.09699,-0.62573h1.57842l0.09699,0.62573c0.41611,2.70161 2.69223,4.66329 5.40949,4.66329c2.72038,0 4.99493,-1.96011 5.41105,-4.66329l0.09699,-0.62573h1.58624l0.09699,0.62573c0.41455,2.70161 2.6891,4.66173 5.40949,4.66173c2.72038,0 4.9965,-1.96011 5.41105,-4.66329l0.09699,-0.62573h1.58624l0.09699,0.62573c0.41768,2.70318 2.69379,4.66329 5.41105,4.66329c2.71882,0 4.99337,-1.96011 5.40949,-4.66329l0.09699,-0.62573h1.58468l0.09699,0.62573c0.41768,2.70318 2.69379,4.66329 5.41105,4.66329c2.71882,0 4.99337,-1.96011 5.40792,-4.66173l0.09699,-0.62573h1.59093l0.09699,0.62573c0.41611,2.70318 2.69066,4.66329 5.40949,4.66329c2.71882,0 4.99493,-1.96011 5.40949,-4.66173l0.09699,-0.62573h1.57842l0.09699,0.62573c0.41768,2.70318 2.69379,4.66329 5.41261,4.66329c2.71882,0 4.99493,-1.96011 5.41105,-4.66329l0.09699,-0.62573h1.58468l0.09699,0.62573c0.03129,0.18459 0.08604,0.35823 0.1314,0.535c0.158,0.61166 0.40673,1.17482 0.73993,1.67854c0.21744,0.32538 0.46304,0.62417 0.73993,0.8948c0.98866,0.96207 2.32304,1.55496 3.80134,1.55496c3.03325,0 5.50022,-2.46696 5.50022,-5.49865c0,-0.36918 -0.04067,-0.75245 -0.12045,-1.13884l-0.0172,-0.15017v-4.20651zM254.45006,246.82404h78.24824v-59.9001c-0.4036,-0.47713 -0.75088,-1.00743 -1.01995,-1.5878c-1.11225,2.40908 -3.52602,4.01566 -6.29803,4.01566c-2.77514,0 -5.18578,-1.60501 -6.29803,-4.01409c-1.11381,2.40908 -3.52289,4.01409 -6.29959,4.01409c-2.77357,0 -5.18422,-1.60658 -6.29646,-4.01722c-1.11225,2.41065 -3.52289,4.01722 -6.29959,4.01722c-2.77201,0 -5.18266,-1.60501 -6.2949,-4.01566c-1.11693,2.41065 -3.52289,4.01566 -6.29803,4.01566c-2.77357,0 -5.18422,-1.60658 -6.29646,-4.01566c-1.11537,2.40908 -3.52602,4.01566 -6.30116,4.01566c-2.77514,0 -5.18578,-1.60501 -6.29803,-4.01409c-1.11381,2.40908 -3.52602,4.01409 -6.29959,4.01409c-2.77357,0 -5.18422,-1.60501 -6.29803,-4.01409c-1.11381,2.40908 -3.52445,4.01409 -6.29959,4.01409c-2.77514,0 -5.18578,-1.60501 -6.29959,-4.01409c-1.11381,2.40908 -3.52289,4.01409 -6.29803,4.01409c-2.77514,0 -5.18422,-1.60501 -6.29803,-4.01409c-1.11537,2.40908 -3.52602,4.01409 -6.30116,4.01409c-2.77514,0 -5.18578,-1.60501 -6.29803,-4.01409c-0.40517,0.87447 -0.98397,1.63943 -1.68636,2.2636v59.22274h9.90383v-53.79136h27.92658zM259.43405,192.29587v46.42802h66.7785v-46.42802zM260.90922,193.77104h31.10532v38.4233h-31.10532zM324.73425,232.1959h-31.24298v-38.42486h31.24298zM318.56449,218.82236l1.04185,-1.04185l-18.75173,-18.75173l-0.52249,0.52249l-0.52249,0.52092zM318.42058,213.64597l0.52249,-0.52249l-13.43298,-13.43141l-1.04341,1.04341l13.43298,13.42985zM266.74264,207.60762l-1.04341,1.04341l18.7486,18.75017l1.04498,-1.04498zM266.76297,212.90291l13.43141,13.43141l1.04185,-1.04185l-13.42985,-13.43141zM324.73425,237.24871h-63.82503v-3.57764h63.82503zM207.0459,252.67466h135.5093v-4.37545h-135.5093z" data-paper-data="{&quot;isPathIcon&quot;:true}"></path></g><path d="M190.14744,150.14751c11.07189,-11.07251 23.78613,-19.64488 38.14269,-25.7171c14.86441,-6.28694 30.43436,-9.43041 46.70986,-9.43041c16.27597,0 31.84593,3.14347 46.70986,9.43041c14.35657,6.07237 27.0708,14.64474 38.14269,25.7171c11.07237,11.07189 19.64474,23.78613 25.7171,38.14269c6.28684,14.86441 9.43027,30.43436 9.43027,46.70986c0,12.03439 -1.71863,23.68303 -5.15589,34.94592h-1.23643c3.47356,-11.25834 5.21034,-22.90698 5.21034,-34.94592c0,-16.11583 -3.11224,-31.53225 -9.33673,-46.24926c-6.01237,-14.21484 -14.50042,-26.80412 -25.46413,-37.76783c-10.96371,-10.96367 -23.55299,-19.45166 -37.76783,-25.46399c-14.71702,-6.22472 -30.13344,-9.33708 -46.24926,-9.33708c-16.11583,0 -31.53225,3.11236 -46.24926,9.33708c-14.21532,6.01266 -26.80459,14.50065 -37.76783,25.46399c-10.96371,10.96371 -19.45176,23.55299 -25.46413,37.76783c-6.22449,14.71702 -9.33673,30.13344 -9.33673,46.24926c0,12.03894 1.73678,23.68758 5.21034,34.94592h-1.23643c-3.43726,-11.26289 -5.15589,-22.91153 -5.15589,-34.94592c0,-16.27597 3.14342,-31.84593 9.43027,-46.70986c6.07237,-14.35657 14.64474,-27.0708 25.7171,-38.14269zM359.85256,319.85263c-11.07189,11.07237 -23.78613,19.64474 -38.14269,25.7171c-14.86441,6.28684 -30.43436,9.43027 -46.70986,9.43027c-16.2755,0 -31.84546,-3.14342 -46.70986,-9.43027c-14.35704,-6.07237 -27.07127,-14.64474 -38.14269,-25.7171c-5.11464,-5.11442 -9.69578,-10.57915 -13.74342,-16.39419l1.44391,0c3.89073,5.50656 8.26905,10.69281 13.13498,15.55873c10.96371,10.96371 23.55299,19.45176 37.76783,25.46413c14.71702,6.22449 30.13344,9.33673 46.24926,9.33673c16.11583,0 31.53225,-3.11224 46.24926,-9.33673c14.21484,-6.01237 26.80412,-14.50042 37.76783,-25.46413c4.86603,-4.86603 9.24439,-10.05227 13.13508,-15.55873h1.4437c-4.04768,5.81515 -8.62879,11.27988 -13.74332,16.39419z" data-paper-data="{&quot;isLogoContainer&quot;:true}" fill-rule="nonzero"></path></g></g><g class="watermark-group" style="opacity:0.040000010281801224"><path class="watermark-path" d="M129.52,370.3a11.88,11.88,0,0,1,2.58,5.58,12,12,0,0,1,.11,3,11.81,11.81,0,0,1-.64,2.93,12.34,12.34,0,0,1-1.41,2.72,11.65,11.65,0,0,1-2.13,2.32,12,12,0,0,1-2.64,1.69,13,13,0,0,1-2.91.9,12.47,12.47,0,0,1-3,.12,12.17,12.17,0,0,1-2.93-.64,11.8,11.8,0,0,1-2.72-1.38,12.19,12.19,0,0,1-4-4.79,11.85,11.85,0,0,1-.89-2.92,12.14,12.14,0,0,1-.13-3,11.54,11.54,0,0,1,.64-2.92,11.67,11.67,0,0,1,3.5-5,11.44,11.44,0,0,1,2.67-1.69,11.64,11.64,0,0,1,2.92-.91,10.71,10.71,0,0,1,3-.12,11.68,11.68,0,0,1,5.66,2,11.7,11.7,0,0,1,2.34,2.12m-1.4,8.76a13,13,0,0,1-1.22,2.32,9.68,9.68,0,0,1-1.81,2,7.44,7.44,0,0,1-2.38,1.37,6.17,6.17,0,0,1-5.11-.46,8.73,8.73,0,0,1-3.85-4.58,6.69,6.69,0,0,1-.34-2.66,6.09,6.09,0,0,1,.77-2.47,7.15,7.15,0,0,1,1.75-2.11,9.58,9.58,0,0,1,1.09-.81,8.23,8.23,0,0,1,1.12-.63,8.14,8.14,0,0,1,1.19-.46,12.71,12.71,0,0,1,1.32-.37l2,2.38a12.83,12.83,0,0,0-1.56.17,7.86,7.86,0,0,0-1.23.32,4.5,4.5,0,0,0-1,.49,6.41,6.41,0,0,0-.93.67,4.49,4.49,0,0,0-1.15,1.39,3.87,3.87,0,0,0-.45,1.58,4.12,4.12,0,0,0,.26,1.63,6.11,6.11,0,0,0,2.36,2.82,4.43,4.43,0,0,0,1.57.53,3.91,3.91,0,0,0,1.62-.17,4.71,4.71,0,0,0,1.57-.89,10.5,10.5,0,0,0,.83-.79,5.71,5.71,0,0,0,.65-.93,10.13,10.13,0,0,0,.54-1.14,12.24,12.24,0,0,0,.44-1.49l2,2.33m-14.46,4.55a8.86,8.86,0,0,0,2.78,2.22,9,9,0,0,0,3.29.94,9.15,9.15,0,0,0,3.39-.37,8.68,8.68,0,0,0,3.11-1.69,8.8,8.8,0,0,0,2.22-2.78,9.15,9.15,0,0,0,1-3.29,8.95,8.95,0,0,0-4.83-8.76,9,9,0,0,0-6.73-.57,9,9,0,0,0-5.33,4.47,8.94,8.94,0,0,0-.57,6.71,8.76,8.76,0,0,0,1.7,3.12"></path><path class="watermark-path" d="M147,349c-.48.12-1.09.31-1.82.57a24.37,24.37,0,0,0-2.4,1A28.35,28.35,0,0,0,140,352a20.72,20.72,0,0,0-2.71,1.94c-.7.59-1.28,1.11-1.74,1.57a15.07,15.07,0,0,0-1.1,1.22,4.09,4.09,0,0,0-.59.92,2.32,2.32,0,0,0-.22.64,1.16,1.16,0,0,0,0,.47,1.83,1.83,0,0,0,.18.29,1.15,1.15,0,0,0,1,.37,5.54,5.54,0,0,0,1.51-.38q.87-.35,1.95-.9l2.26-1.18q1.2-.65,2.49-1.29c.87-.44,1.73-.83,2.59-1.17a18.94,18.94,0,0,1,2.6-.81,9.27,9.27,0,0,1,2.46-.29,6.25,6.25,0,0,1,2.24.49,5.12,5.12,0,0,1,1.89,1.47,6.35,6.35,0,0,1,1.41,2.61,6,6,0,0,1,.09,2.6,8.3,8.3,0,0,1-.9,2.52,17.79,17.79,0,0,1-1.62,2.37,23.92,23.92,0,0,1-2,2.15c-.72.67-1.41,1.29-2.09,1.87a33.79,33.79,0,0,1-5.33,3.7,32.29,32.29,0,0,1-4.91,2.28l-3.61-4.3a21.38,21.38,0,0,0,5.39-1.87,27.2,27.2,0,0,0,5.4-3.56,21.59,21.59,0,0,0,2.38-2.27,8.67,8.67,0,0,0,1.18-1.7,2.32,2.32,0,0,0,.27-1.19,1.34,1.34,0,0,0-.28-.74,1.21,1.21,0,0,0-1-.42,4.32,4.32,0,0,0-1.55.34,15.77,15.77,0,0,0-2,.88c-.72.37-1.48.77-2.27,1.21l-2.45,1.3c-.85.45-1.7.85-2.56,1.21a22.37,22.37,0,0,1-2.54.86,10,10,0,0,1-2.43.32,5.76,5.76,0,0,1-2.2-.45,5,5,0,0,1-1.89-1.45,6.12,6.12,0,0,1-1.31-2.41,6,6,0,0,1-.1-2.41,8.28,8.28,0,0,1,.81-2.38,14.06,14.06,0,0,1,1.49-2.24,22.37,22.37,0,0,1,1.85-2.05q1-1,2-1.77c.7-.59,1.44-1.15,2.23-1.7s1.62-1.06,2.44-1.53,1.63-.91,2.43-1.3,1.58-.75,2.3-1L147,349"></path><path class="watermark-path" d="M186.76,337.57l-10.6-12.63,3.92,18.24-4.66,3.91-17.27-7,10.6,12.63-4.86,4.07-15.09-18,6.59-5.54,18.69,7.52-4.15-19.71,6.57-5.52,15.09,18-4.83,4.05"></path><path class="watermark-path" d="M208.84,313.24l-10,8.42,1.16,4.82L194.56,331l-5.68-25.89,5.42-4.55,24.51,10.09-5.42,4.55-4.55-2m-11.23,3.45,6.57-5.52-8.83-3.87,2.26,9.39"></path><path class="watermark-path" d="M227.49,281.38c-.48.12-1.09.31-1.82.57a24.37,24.37,0,0,0-2.4,1,26.11,26.11,0,0,0-2.7,1.47,20.72,20.72,0,0,0-2.71,1.94c-.7.59-1.28,1.11-1.74,1.57a13.39,13.39,0,0,0-1.1,1.22,4.29,4.29,0,0,0-.59.91,2.48,2.48,0,0,0-.22.65,1.16,1.16,0,0,0,0,.47,1.83,1.83,0,0,0,.18.29,1.15,1.15,0,0,0,1,.37,5.54,5.54,0,0,0,1.51-.38q.87-.34,2-.9l2.26-1.18q1.2-.64,2.49-1.29c.87-.44,1.73-.83,2.59-1.17a18.94,18.94,0,0,1,2.6-.81,9.27,9.27,0,0,1,2.46-.29,6.08,6.08,0,0,1,2.24.49,5.09,5.09,0,0,1,1.89,1.46,6.47,6.47,0,0,1,1.41,2.61,6.07,6.07,0,0,1,.09,2.61,8.3,8.3,0,0,1-.9,2.52,16.32,16.32,0,0,1-1.63,2.36,21.41,21.41,0,0,1-2,2.16c-.72.67-1.41,1.29-2.1,1.86a33.36,33.36,0,0,1-5.32,3.71,31.92,31.92,0,0,1-4.92,2.28l-3.6-4.3a21.38,21.38,0,0,0,5.39-1.87,27.2,27.2,0,0,0,5.4-3.56,21.59,21.59,0,0,0,2.38-2.27,8.67,8.67,0,0,0,1.18-1.7A2.32,2.32,0,0,0,231,293a1.34,1.34,0,0,0-.28-.74,1.21,1.21,0,0,0-1-.42,4.32,4.32,0,0,0-1.55.34,16.54,16.54,0,0,0-2,.88c-.71.37-1.47.77-2.26,1.21l-2.46,1.3c-.84.44-1.7.85-2.55,1.21a24.53,24.53,0,0,1-2.54.86A10,10,0,0,1,214,298a5.76,5.76,0,0,1-2.2-.45,5,5,0,0,1-1.89-1.45,6.12,6.12,0,0,1-1.31-2.41,5.78,5.78,0,0,1-.1-2.41,8,8,0,0,1,.81-2.38,14.61,14.61,0,0,1,1.49-2.25,22.26,22.26,0,0,1,1.85-2q1-1,2-1.77c.7-.59,1.44-1.15,2.23-1.7s1.62-1.06,2.44-1.53,1.63-.91,2.43-1.31,1.58-.74,2.3-1l3.5,4.16"></path><path class="watermark-path" d="M261.64,274.74l-6.29-7.5L243,277.61l6.3,7.5-4.86,4.07-15.09-18,4.85-4.08,5.49,6.55L252,263.3l-5.49-6.55,4.86-4.07,15.09,18-4.86,4.08"></path><path class="watermark-path" d="M272.18,265.9l-15.09-18,4.86-4.08,15.09,18-4.86,4.08"></path><path class="watermark-path" d="M299.65,242.85l-22.51-2.18L287.51,253l-4.85,4.08-15.1-18,5.28-4.43,22.56,2.22L285,224.5l4.83-4.06,15.09,18-5.26,4.42"></path><path class="watermark-path" d="M306.68,205.52a31.88,31.88,0,0,1,5.29-3.66,34.48,34.48,0,0,1,5.14-2.35l3.69,4.39a20.77,20.77,0,0,0-2.37.61,20.47,20.47,0,0,0-2.61,1,25.12,25.12,0,0,0-2.76,1.49,23.9,23.9,0,0,0-2.8,2,20.42,20.42,0,0,0-2.8,2.77,12.77,12.77,0,0,0-1.64,2.52,7,7,0,0,0-.68,2.24,6,6,0,0,0,.66,3.64,8.16,8.16,0,0,0,.94,1.38,9.12,9.12,0,0,0,1.08,1.07,6.39,6.39,0,0,0,1.47.91,6.73,6.73,0,0,0,1.88.48,6.54,6.54,0,0,0,2.28-.18,11.67,11.67,0,0,0,2.74-1.07,19.38,19.38,0,0,0,3.18-2.22c.57-.48,1.06-.92,1.46-1.31a14.57,14.57,0,0,0,1-1.13,11.46,11.46,0,0,0,.81-1.05l.74-1.09-1.82-2.17-5.45,4.57-3.31-3.94,10.31-8.65,7.71,9.19a29,29,0,0,1-1.67,2.43q-1,1.26-2.1,2.52c-.74.84-1.5,1.65-2.3,2.44s-1.58,1.5-2.33,2.14a31,31,0,0,1-3.59,2.61,22.55,22.55,0,0,1-3.64,1.83,15.64,15.64,0,0,1-3.63.89,10.72,10.72,0,0,1-3.49-.15,10.45,10.45,0,0,1-3.28-1.33,12.54,12.54,0,0,1-3-2.67,12,12,0,0,1-2.08-3.44,10.45,10.45,0,0,1-.71-3.5,11.14,11.14,0,0,1,.51-3.51,15.72,15.72,0,0,1,1.56-3.43,21.62,21.62,0,0,1,2.42-3.28,30.3,30.3,0,0,1,3.15-3"></path><path class="watermark-path" d="M336.91,211.59l-15.1-18,4.86-4.08,11.79,14,13.13-11,3.31,3.94-18,15.1"></path><path class="watermark-path" d="M374.54,164.71a12.28,12.28,0,0,1,2.59,4.81,10.44,10.44,0,0,1,0,5,14.62,14.62,0,0,1-2.33,5,25.55,25.55,0,0,1-4.56,4.85,26.07,26.07,0,0,1-5.6,3.67,14.79,14.79,0,0,1-5.38,1.43,10.43,10.43,0,0,1-4.94-.89,13.24,13.24,0,0,1-6.87-8.18,10.48,10.48,0,0,1,0-5,14.51,14.51,0,0,1,2.36-5,25.23,25.23,0,0,1,4.57-4.89,25,25,0,0,1,5.59-3.64,14.45,14.45,0,0,1,5.35-1.43,10.31,10.31,0,0,1,4.93.92,12.22,12.22,0,0,1,4.28,3.38m-4.91,4.11a8.36,8.36,0,0,0-2-1.72,5.5,5.5,0,0,0-2.65-.85,7.72,7.72,0,0,0-3.32.57,14.49,14.49,0,0,0-4,2.52,16.72,16.72,0,0,0-2.38,2.4,10.15,10.15,0,0,0-1.39,2.24,6.71,6.71,0,0,0-.56,2.1,5.69,5.69,0,0,0,.1,1.9,6.21,6.21,0,0,0,.61,1.69,9.85,9.85,0,0,0,1,1.44,10.48,10.48,0,0,0,1.26,1.23,6.67,6.67,0,0,0,1.57.92,6.1,6.1,0,0,0,1.85.41,6.8,6.8,0,0,0,2.15-.2,11.06,11.06,0,0,0,2.45-1,17.67,17.67,0,0,0,2.77-1.94,14.39,14.39,0,0,0,3.18-3.52,7.74,7.74,0,0,0,1.14-3.17,5.54,5.54,0,0,0-.37-2.74,8.52,8.52,0,0,0-1.36-2.3"></path><path class="watermark-path" d="M382.66,141.76A32.3,32.3,0,0,1,388,138.1a34.12,34.12,0,0,1,5.15-2.35l3.69,4.4a19.62,19.62,0,0,0-2.37.6,22.08,22.08,0,0,0-2.61,1,26,26,0,0,0-2.77,1.49,23.9,23.9,0,0,0-2.8,2,21,21,0,0,0-2.8,2.78,13.19,13.19,0,0,0-1.64,2.51,7.29,7.29,0,0,0-.68,2.24,6.36,6.36,0,0,0,.06,2,5.8,5.8,0,0,0,.61,1.68,8.12,8.12,0,0,0,.93,1.38,9.16,9.16,0,0,0,1.08,1.08,6.56,6.56,0,0,0,1.48.9,6,6,0,0,0,1.87.48,6.76,6.76,0,0,0,2.28-.17,12,12,0,0,0,2.74-1.08,18.57,18.57,0,0,0,3.18-2.22c.58-.48,1.06-.92,1.46-1.31s.75-.77,1.05-1.12.57-.72.81-1.06l.73-1.09-1.82-2.17-5.45,4.57-3.3-3.94,10.3-8.65,7.71,9.19a29,29,0,0,1-1.67,2.43q-1,1.26-2.1,2.52c-.73.84-1.5,1.66-2.3,2.44s-1.57,1.5-2.33,2.14a31,31,0,0,1-3.59,2.61,22.15,22.15,0,0,1-3.64,1.83,15.56,15.56,0,0,1-3.62.89,11,11,0,0,1-3.49-.14,10.84,10.84,0,0,1-3.28-1.33,12.82,12.82,0,0,1-3-2.68,12.12,12.12,0,0,1-2.08-3.43A10.71,10.71,0,0,1,375,155a11.18,11.18,0,0,1,.51-3.51,15.51,15.51,0,0,1,1.57-3.43,21.44,21.44,0,0,1,2.42-3.28,30.19,30.19,0,0,1,3.14-3"></path><path class="watermark-path" d="M428.63,119.31a12.26,12.26,0,0,1,2.59,4.82,10.44,10.44,0,0,1,0,5,14.53,14.53,0,0,1-2.34,5,25.29,25.29,0,0,1-4.56,4.86,26,26,0,0,1-5.59,3.67,14.84,14.84,0,0,1-5.38,1.43,10.61,10.61,0,0,1-4.95-.89,12.15,12.15,0,0,1-4.3-3.37,12,12,0,0,1-2.56-4.81,10.48,10.48,0,0,1,0-5,14.39,14.39,0,0,1,2.35-5,27.89,27.89,0,0,1,10.16-8.53,14.49,14.49,0,0,1,5.36-1.43,10.27,10.27,0,0,1,4.92.92,12.21,12.21,0,0,1,4.28,3.37m-4.91,4.12a8.17,8.17,0,0,0-2-1.72,5.58,5.58,0,0,0-2.65-.86,7.86,7.86,0,0,0-3.31.58,14.49,14.49,0,0,0-4,2.52,16.21,16.21,0,0,0-2.38,2.4,9.85,9.85,0,0,0-1.4,2.24,7,7,0,0,0-.56,2.1,6,6,0,0,0,.1,1.9,6.23,6.23,0,0,0,.62,1.69,8.49,8.49,0,0,0,1,1.44,9.18,9.18,0,0,0,1.26,1.23,6.67,6.67,0,0,0,1.57.92,6,6,0,0,0,1.84.41,6.86,6.86,0,0,0,2.16-.2,11.26,11.26,0,0,0,2.45-1,17.62,17.62,0,0,0,2.76-1.94,14.67,14.67,0,0,0,3.19-3.52,7.71,7.71,0,0,0,1.13-3.17,5.53,5.53,0,0,0-.36-2.74,8.55,8.55,0,0,0-1.37-2.3"></path></g></svg>