<svg xmlns:mydata="http://www.w3.org/2000/svg" mydata:contrastcolor="ffffff" mydata:template="SingleColorHex1"
     mydata:presentation="2.5" mydata:layouttype="undefined" mydata:specialfontid="undefined" mydata:id1="8"
     mydata:id2="27" mydata:companyname="Dagracemarket" mydata:companytagline="trust" xmlns="http://www.w3.org/2000/svg"
     viewBox="0 0 550 470">
    <g data-paper-data="{&quot;isGlobalGroup&quot;:true,&quot;bounds&quot;:{&quot;x&quot;:183.8512726191157,&quot;y&quot;:106,&quot;width&quot;:182.29745476176865,&quot;height&quot;:258.00000000000006}}"
       fill="#00558c" fill-rule="none" stroke-miterlimit="10" font-family="none" font-weight="none" font-size="none"
       text-anchor="none" style="mix-blend-mode:normal">
        <g data-paper-data="{&quot;fillRule&quot;:&quot;evenodd&quot;,&quot;fillRuleOriginal&quot;:&quot;evenodd&quot;,&quot;isIcon&quot;:true,&quot;iconStyle&quot;:&quot;standalone&quot;,&quot;selectedEffects&quot;:{&quot;container&quot;:&quot;&quot;,&quot;transformation&quot;:&quot;&quot;,&quot;pattern&quot;:&quot;&quot;},&quot;bounds&quot;:{&quot;x&quot;:235.4249007926772,&quot;y&quot;:196.08235345987768,&quot;width&quot;:79.18509981281676,&quot;height&quot;:56.5275267074463},&quot;iconType&quot;:&quot;icon&quot;,&quot;rawIconId&quot;:&quot;101810&quot;,&quot;combineTerms&quot;:&quot;store&quot;,&quot;isDetailed&quot;:false,&quot;suitableAsStandaloneIcon&quot;:true}"
           fill-rule="evenodd">
            <path d="M314.61 211.994a3.951 3.951 0 0 1-6.098 3.31v33.16h5.569v4.146h-78.353v-4.147h5.417v-32.95a3.913 3.913 0 0 1-1.775.428 3.913 3.913 0 0 1-3.816-2.992l-.13-.418v-4.482h.414l5.308-8.43v-3.537h67.366v3.39l5.897 8.577h.122v.178l.012.658h-.012v2.338c.053.26.079.52.079.771zm-6.936-15.077h-65.693v2.1h65.693zm-48.104 2.935.156.044-2.288 8.153h6.584l-.063-.01 1.364-8.187zm47.775 8.197h6.055l-4.886-7.106-.418-.607-.333-.484h-4.412l4.194 8.093zm-65.363-8.188-.836 1.327-4.32 6.861h5.862l-.199-.101 4.122-8.095h-4.624zm10.869-.008h-5.789l.198.1-4.121 8.096h6.691l-.187-.074zm6.237 0h-5.78l.188.073-3.208 8.123h6.668l-.156-.044zm6.803 0 .065.01-1.363 8.186h6.53l.43-8.196zm11.887 0h-5.6l-.43 8.196h6.536zm.627 0 .506 8.196h6.53l-1.44-8.182.08-.014zm11.987 0h-5.758l1.441 8.184-.077.013h6.596l-2.363-8.15zm6.26 0h-5.781l2.363 8.15-.16.046h6.67l-3.282-8.12zm3.548 8.196h6.693l-4.196-8.093.2-.103h-5.789l3.282 8.12zm-63.94.836v3.422l.05.158a3.086 3.086 0 0 0 5.253 1.716 3.131 3.131 0 0 0 .87-1.715l.055-.354h.897l.054.354a3.086 3.086 0 0 0 3.061 2.64c1.54 0 2.828-1.11 3.063-2.64l.055-.354h.897l.054.354a3.086 3.086 0 0 0 3.06 2.64 3.086 3.086 0 0 0 3.062-2.64l.054-.354h.892l.055.354a3.086 3.086 0 0 0 3.062 2.64c1.54 0 2.828-1.11 3.062-2.64l.055-.354h.893l.055.354a3.088 3.088 0 0 0 3.061 2.64c1.54 0 2.827-1.11 3.062-2.64l.055-.354h.898l.055.354a3.085 3.085 0 0 0 3.06 2.638 3.087 3.087 0 0 0 3.063-2.639l.055-.354h.897l.055.354a3.089 3.089 0 0 0 3.062 2.64 3.086 3.086 0 0 0 3.061-2.64l.055-.354h.897l.055.354a3.089 3.089 0 0 0 3.062 2.64 3.085 3.085 0 0 0 3.06-2.639l.055-.354h.9l.055.354a3.086 3.086 0 0 0 3.061 2.64 3.086 3.086 0 0 0 3.061-2.639l.055-.354h.893l.055.354a3.089 3.089 0 0 0 3.063 2.639 3.087 3.087 0 0 0 3.062-2.639l.055-.354h.897l.055.354c.018.105.048.203.074.303.09.346.23.665.419.95.123.184.262.353.419.506a3.07 3.07 0 0 0 2.15.88 3.116 3.116 0 0 0 3.045-3.756l-.01-.085v-2.38zm27.129 39.578h44.279v-33.896a3.993 3.993 0 0 1-.577-.899 3.91 3.91 0 0 1-3.564 2.273 3.907 3.907 0 0 1-3.564-2.272 3.908 3.908 0 0 1-3.565 2.272c-1.57 0-2.934-.91-3.563-2.273a3.907 3.907 0 0 1-3.565 2.273 3.905 3.905 0 0 1-3.562-2.273 3.909 3.909 0 0 1-3.564 2.273c-1.57 0-2.934-.91-3.563-2.273a3.912 3.912 0 0 1-3.566 2.273 3.907 3.907 0 0 1-3.564-2.272 3.91 3.91 0 0 1-3.565 2.272 3.909 3.909 0 0 1-3.564-2.272 3.909 3.909 0 0 1-3.564 2.272 3.909 3.909 0 0 1-3.565-2.272 3.908 3.908 0 0 1-3.564 2.272 3.908 3.908 0 0 1-3.564-2.272 3.911 3.911 0 0 1-3.566 2.272 3.907 3.907 0 0 1-3.564-2.272c-.23.495-.557.928-.954 1.281v33.513h5.604v-30.44h15.804zm2.82-30.856v26.273h37.789v-26.273zm.835.835h17.602v21.743h-17.602zm36.117 21.744h-17.68v-21.744h17.68zm-3.491-7.568.59-.59-10.612-10.611-.296.296-.295.294zm-.082-2.93.296-.295-7.601-7.6-.59.59 7.6 7.6zm-29.243-3.416-.59.59 10.609 10.61.591-.591zm.011 2.996 7.6 7.6.59-.589-7.6-7.6zm32.805 13.777h-36.117v-2.025h36.117zm-66.598 8.73h76.683v-2.477h-76.683z"
                  data-paper-data="{&quot;isPathIcon&quot;:true}"/>
        </g>
        <g fill-rule="nonzero">
            <path d="M205.541 153.655c1.31-.44 2.275-1.278 2.891-2.517a5.046 5.046 0 0 0 .539-1.886 4.948 4.948 0 0 0-.267-1.949c-.437-1.305-1.279-2.268-2.524-2.888-1.246-.62-2.522-.712-3.827-.275l-1.635.548 3.189 9.514zm-3.763-11.23c1.78-.597 3.516-.474 5.209.37.85.422 1.558.957 2.126 1.604.567.647 1.003 1.423 1.307 2.33.598 1.785.476 3.524-.367 5.216-.84 1.685-2.152 2.827-3.937 3.425l-2.492.835a.877.877 0 0 1-.359.044.973.973 0 0 1-.336-.09.882.882 0 0 1-.458-.521l-3.763-11.23a.877.877 0 0 1 .051-.693.973.973 0 0 1 .214-.274.877.877 0 0 1 .313-.181z"
                  data-paper-data="{&quot;glyphName&quot;:&quot;D&quot;,&quot;glyphIndex&quot;:0,&quot;firstGlyphOfWord&quot;:true,&quot;word&quot;:1}"/>
            <path d="M214.954 151.949c-.072.403-.292.655-.66.757a.887.887 0 0 1-1.112-.632.965.965 0 0 1-.023-.374l1.29-12.543c.063-.454.285-.733.663-.838.378-.104.711.023.998.38l7.53 10.114a.923.923 0 0 1 .171.333.887.887 0 0 1-.632 1.112c-.383.106-.704.003-.961-.31l-6.202-8.346z"
                  data-paper-data="{&quot;glyphName&quot;:&quot;Λ&quot;,&quot;glyphIndex&quot;:1,&quot;word&quot;:1}"/>
            <path d="M235.597 145.296a.91.91 0 0 1-.14.693c-1.027 1.256-2.32 2.052-3.877 2.386-1.846.397-3.56.084-5.141-.938s-2.57-2.456-2.966-4.303c-.396-1.84-.083-3.552.94-5.133 1.026-1.587 2.46-2.579 4.3-2.974 1.58-.34 3.118-.126 4.615.64.187.112.308.298.365.56a.888.888 0 0 1-.694 1.074.886.886 0 0 1-.664-.12 4.903 4.903 0 0 0-3.242-.386c-1.357.292-2.413 1.022-3.169 2.19-.747 1.156-.974 2.412-.683 3.77.293 1.362 1.017 2.417 2.172 3.164 1.162.75 2.425.98 3.787.687 1.007-.216 1.851-.674 2.533-1.373l-.555-2.586-2.303.495a.875.875 0 0 1-.684-.12.875.875 0 0 1-.39-.575.924.924 0 0 1-.008-.36.876.876 0 0 1 .366-.572.915.915 0 0 1 .336-.142l3.196-.686a.826.826 0 0 1 .348-.001.948.948 0 0 1 .574.374.86.86 0 0 1 .143.323z"
                  data-paper-data="{&quot;glyphName&quot;:&quot;G&quot;,&quot;glyphIndex&quot;:2,&quot;word&quot;:1}"/>
            <path d="m236.962 135.25.753 4.71 2.36-.377a2.332 2.332 0 0 0 1.552-.962c.176-.25.303-.526.382-.83.078-.303.091-.615.04-.935a2.323 2.323 0 0 0-.332-.89 2.416 2.416 0 0 0-.626-.668 2.416 2.416 0 0 0-.83-.386 2.302 2.302 0 0 0-.94-.04zm-.058 11.088-1.872-11.695a.924.924 0 0 1 .012-.36.876.876 0 0 1 .395-.552.915.915 0 0 1 .344-.124l3.252-.52a4.025 4.025 0 0 1 1.658.071 4.244 4.244 0 0 1 2.557 1.86 4 4 0 0 1 .585 1.552c.06.37.071.739.035 1.105-.037.366-.122.72-.254 1.06a4.199 4.199 0 0 1-.544.977 4.55 4.55 0 0 1-.835.855l3.377 3.876a.941.941 0 0 1 .21.83.887.887 0 0 1-.74.672c-.314.05-.593-.055-.836-.316l-3.736-4.284-2.511.401.689 4.306a.872.872 0 0 1-.16.674.872.872 0 0 1-.59.362.872.872 0 0 1-.674-.16.872.872 0 0 1-.362-.59z"
                  data-paper-data="{&quot;glyphName&quot;:&quot;R&quot;,&quot;glyphIndex&quot;:3,&quot;word&quot;:1}"/>
            <path d="M248.501 144.947c-.135.387-.393.6-.772.641a.888.888 0 0 1-.996-.802.965.965 0 0 1 .037-.373l3.29-12.172c.136-.438.399-.678.79-.72.39-.042.698.136.924.535l5.805 11.193a.923.923 0 0 1 .116.357.888.888 0 0 1-.802.996c-.397.042-.697-.111-.9-.461l-4.78-9.235z"
                  data-paper-data="{&quot;glyphName&quot;:&quot;Λ&quot;,&quot;glyphIndex&quot;:4,&quot;word&quot;:1}"/>
            <path d="M268.997 140.842a.847.847 0 0 1 .353.054.99.99 0 0 1 .296.178.883.883 0 0 1 .3.626.91.91 0 0 1-.249.661c-1.216 1.075-2.62 1.653-4.21 1.732-1.887.095-3.528-.49-4.924-1.752-1.396-1.263-2.141-2.837-2.236-4.724-.094-1.88.49-3.519 1.753-4.915 1.268-1.402 2.842-2.15 4.723-2.244 1.613-.081 3.097.377 4.452 1.374.166.146.256.349.27.61a.887.887 0 0 1-.858.949.926.926 0 0 1-.635-.225 4.903 4.903 0 0 0-3.139-.902c-1.386.07-2.546.62-3.48 1.653-.922 1.02-1.349 2.223-1.28 3.61.07 1.392.615 2.55 1.636 3.472 1.026.928 2.235 1.357 3.627 1.288 1.187-.06 2.214-.479 3.081-1.257a.955.955 0 0 1 .52-.188z"
                  data-paper-data="{&quot;glyphName&quot;:&quot;C&quot;,&quot;glyphIndex&quot;:5,&quot;word&quot;:1}"/>
            <path d="M279.744 130.224c.126 0 .244.024.354.07a.876.876 0 0 1 .48.484c.046.11.068.229.068.354a.887.887 0 0 1-.908.901l-7.893-.028a.887.887 0 0 1-.901-.908.89.89 0 0 1 .07-.353.876.876 0 0 1 .479-.48.914.914 0 0 1 .358-.068zm-.042 11.844c.126 0 .244.024.354.07a.876.876 0 0 1 .48.483.92.92 0 0 1 .068.355.887.887 0 0 1-.908.901l-7.893-.028a.887.887 0 0 1-.901-.908c0-.125.023-.243.07-.354a.876.876 0 0 1 .479-.48.914.914 0 0 1 .358-.067zm-.636-5.924c.126 0 .244.023.354.07a.876.876 0 0 1 .48.483.92.92 0 0 1 .068.355.887.887 0 0 1-.908.901l-6.587-.024c-.21-.006-.413-.095-.605-.266a.824.824 0 0 1-.271-.641.85.85 0 0 1 .07-.333.924.924 0 0 1 .188-.285.975.975 0 0 1 .278-.2.872.872 0 0 1 .346-.083z"
                  data-paper-data="{&quot;glyphName&quot;:&quot;Ξ&quot;,&quot;glyphIndex&quot;:6,&quot;word&quot;:1}"/>
            <path d="m281.507 143 .741-11.82a.924.924 0 0 1 .09-.35.876.876 0 0 1 .508-.45.914.914 0 0 1 .362-.047c.352.022.609.201.77.536l4.47 10.532 5.75-9.891c.224-.31.501-.456.83-.435a.924.924 0 0 1 .35.09.876.876 0 0 1 .45.511.924.924 0 0 1 .047.358l-.742 11.82a.872.872 0 0 1-.304.623.872.872 0 0 1-.655.224.872.872 0 0 1-.622-.304.872.872 0 0 1-.224-.656l.5-7.988-4.753 8.175a.855.855 0 0 1-.812.402c-.374-.023-.638-.222-.791-.597l-3.658-8.608-.502 7.988a.872.872 0 0 1-.304.622.872.872 0 0 1-.655.224.872.872 0 0 1-.622-.304.872.872 0 0 1-.224-.655z"
                  data-paper-data="{&quot;glyphName&quot;:&quot;M&quot;,&quot;glyphIndex&quot;:7,&quot;word&quot;:1}"/>
            <path d="M297.78 144.514c-.222.345-.522.493-.9.446a.887.887 0 0 1-.785-1.01.965.965 0 0 1 .123-.355l6.004-11.087c.234-.395.545-.568.934-.519.39.049.649.294.777.734l3.07 12.229a.9.9 0 0 1 .031.374.887.887 0 0 1-1.01.785c-.395-.05-.652-.27-.77-.657l-2.523-10.087z"
                  data-paper-data="{&quot;glyphName&quot;:&quot;Λ&quot;,&quot;glyphIndex&quot;:8,&quot;word&quot;:1}"/>
            <path d="m311.666 135.019-.838 4.695 2.352.42a2.331 2.331 0 0 0 1.783-.397c.248-.177.46-.397.633-.658.174-.26.289-.55.346-.87.058-.324.05-.64-.021-.948a2.416 2.416 0 0 0-.37-.838 2.416 2.416 0 0 0-.658-.637 2.302 2.302 0 0 0-.875-.347zm-3.704 10.45 2.083-11.659a.924.924 0 0 1 .129-.336.876.876 0 0 1 .555-.39.915.915 0 0 1 .365-.005l3.242.579a4.02 4.02 0 0 1 1.542.613 4.244 4.244 0 0 1 1.803 2.598 4.02 4.02 0 0 1 .042 1.658c-.066.37-.177.722-.332 1.055-.155.334-.35.64-.588.918a4.199 4.199 0 0 1-.835.743c-.32.218-.676.396-1.07.533l1.913 4.771a.94.94 0 0 1-.075.854.887.887 0 0 1-.919.39c-.314-.056-.542-.247-.686-.573l-2.118-5.276-2.503-.447-.767 4.293a.872.872 0 0 1-.373.583.872.872 0 0 1-.676.148.872.872 0 0 1-.584-.373.872.872 0 0 1-.148-.676z"
                  data-paper-data="{&quot;glyphName&quot;:&quot;R&quot;,&quot;glyphIndex&quot;:9,&quot;word&quot;:1}"/>
            <path d="M320.39 135.693a.872.872 0 0 1 .4-.565.872.872 0 0 1 .683-.117.872.872 0 0 1 .565.4.872.872 0 0 1 .116.683l-1.12 4.926 6.792-4.276a.924.924 0 0 1 1.033.016.876.876 0 0 1 .363.578.924.924 0 0 1-.012.36.872.872 0 0 1-.4.565l-5.353 3.378 3.08 7.044c.076.18.094.36.054.537a.95.95 0 0 1-.393.576.92.92 0 0 1-.32.137.807.807 0 0 1-.359-.003c-.327-.074-.546-.255-.655-.542l-2.959-6.772-1.44.906-.936 4.12a.872.872 0 0 1-.4.565.872.872 0 0 1-.683.116.872.872 0 0 1-.565-.4.872.872 0 0 1-.116-.683z"
                  data-paper-data="{&quot;glyphName&quot;:&quot;K&quot;,&quot;glyphIndex&quot;:10,&quot;word&quot;:1}"/>
            <path d="M339.371 139.554c.12.033.228.087.323.16a.876.876 0 0 1 .335.594.924.924 0 0 1-.03.36.887.887 0 0 1-1.114.628l-7.603-2.12a.887.887 0 0 1-.628-1.114.924.924 0 0 1 .16-.323.876.876 0 0 1 .59-.336.915.915 0 0 1 .364.03zm-3.18 11.408a.92.92 0 0 1 .322.161.876.876 0 0 1 .335.594.924.924 0 0 1-.029.36.887.887 0 0 1-1.114.628l-7.603-2.12a.887.887 0 0 1-.628-1.114.924.924 0 0 1 .16-.323.876.876 0 0 1 .59-.336.915.915 0 0 1 .363.03zm.957-5.88c.12.033.228.087.323.16a.876.876 0 0 1 .335.594.924.924 0 0 1-.03.36.887.887 0 0 1-1.114.628l-6.345-1.77c-.202-.061-.372-.2-.513-.417a.824.824 0 0 1-.091-.69.85.85 0 0 1 .155-.302.923.923 0 0 1 .258-.225.975.975 0 0 1 .32-.118.872.872 0 0 1 .357.01z"
                  data-paper-data="{&quot;glyphName&quot;:&quot;Ξ&quot;,&quot;glyphIndex&quot;:11,&quot;word&quot;:1}"/>
            <path d="m350.142 144.978-3.196-1.071-3.475 10.372a.872.872 0 0 1-.455.523.872.872 0 0 1-.69.048.872.872 0 0 1-.523-.454.872.872 0 0 1-.048-.691l3.476-10.373-3.196-1.07a.872.872 0 0 1-.522-.455.872.872 0 0 1-.048-.69.872.872 0 0 1 .454-.523.872.872 0 0 1 .691-.048l8.107 2.717c.237.08.412.23.523.454a.872.872 0 0 1 .047.69.872.872 0 0 1-.454.523.872.872 0 0 1-.69.048z"
                  data-paper-data="{&quot;glyphName&quot;:&quot;T&quot;,&quot;glyphIndex&quot;:12,&quot;lastGlyphOfWord&quot;:true,&quot;word&quot;:1}"/>
        </g>
        <g fill-rule="nonzero">
            <path d="M253.895 302.469a.857.857 0 0 1-.56-.274.796.796 0 0 1-.159-.257.693.693 0 0 1 .05-.59.785.785 0 0 1 .2-.231.857.857 0 0 1 .598-.176l5.264.444a.857.857 0 0 1 .56.274.77.77 0 0 1 .158.26.693.693 0 0 1-.05.591.796.796 0 0 1-.2.227.857.857 0 0 1-.597.176l-1.546-.13-.483 5.725a1.16 1.16 0 0 1-.382.772 1.085 1.085 0 0 1-.36.21 1.015 1.015 0 0 1-.425.051 1.015 1.015 0 0 1-.728-.39 1.152 1.152 0 0 1-.244-.824l.484-5.725z"
                  data-paper-data="{&quot;glyphName&quot;:&quot;T&quot;,&quot;glyphIndex&quot;:0,&quot;firstGlyphOfWord&quot;:true,&quot;word&quot;:1}"/>
            <path d="M264.02 308.95a1.16 1.16 0 0 1-.35.787c-.102.098-.22.173-.35.225a1.015 1.015 0 0 1-.424.07 1.015 1.015 0 0 1-.743-.36 1.152 1.152 0 0 1-.278-.814l.264-6.208a.971.971 0 0 1 .127-.46.993.993 0 0 1 .3-.32 1.25 1.25 0 0 1 .428-.182c.162-.038.331-.053.509-.045l2.318.098c.427.019.837.064 1.227.137.391.072.732.192 1.025.359.292.167.521.39.689.672.168.281.242.642.223 1.08a2.29 2.29 0 0 1-.127.676c-.075.211-.189.4-.343.564a1.858 1.858 0 0 1-.593.415 3.01 3.01 0 0 1-.882.232v.023c.245.041.454.096.626.163.173.067.32.153.438.256.12.104.215.226.286.368.07.142.127.309.17.5.042.19.073.407.093.65a21.361 21.361 0 0 1 .06 1.068c0 .079-.002.157-.005.234a2.108 2.108 0 0 1-.066.455.9.9 0 0 1-.177.351.755.755 0 0 1-.328.22c-.137.05-.312.071-.523.062a.834.834 0 0 1-.477-.153 1.04 1.04 0 0 1-.306-.378 1.988 1.988 0 0 1-.17-.543 6.646 6.646 0 0 1-.08-.655 13.85 13.85 0 0 0-.083-.846 1.51 1.51 0 0 0-.17-.554.719.719 0 0 0-.366-.311c-.161-.065-.385-.104-.67-.116l-1.173-.05zm1.046-3.633c.208.009.417.005.626-.01.21-.017.4-.061.57-.133.171-.072.312-.182.423-.33.11-.147.17-.348.182-.603.012-.293-.029-.514-.123-.665a.928.928 0 0 0-.384-.347 1.765 1.765 0 0 0-.57-.16 8.564 8.564 0 0 0-.678-.055l-.873-.037-.098 2.3z"
                  data-paper-data="{&quot;glyphName&quot;:&quot;R&quot;,&quot;glyphIndex&quot;:1,&quot;word&quot;:1}"/>
            <path d="M276.565 303.052a1.16 1.16 0 0 1 .311-.802c.097-.102.21-.182.339-.24.129-.058.269-.087.419-.087.15 0 .29.028.42.086a1.125 1.125 0 0 1 .574.598c.055.137.083.284.084.442l.005 4.432c0 .51-.088.954-.267 1.334-.179.38-.43.698-.751.953a3.294 3.294 0 0 1-1.148.574 5.28 5.28 0 0 1-1.458.193c-.52 0-1.002-.061-1.443-.186a3.317 3.317 0 0 1-1.147-.563 2.591 2.591 0 0 1-.756-.948c-.182-.381-.273-.83-.274-1.347l-.005-4.432a1.16 1.16 0 0 1 .311-.802 1.048 1.048 0 0 1 .758-.328c.15 0 .29.029.42.086a1.125 1.125 0 0 1 .574.598c.055.137.083.285.083.443l.012 4.397c0 .278.043.517.128.717.085.2.196.365.333.492s.294.221.47.283a1.603 1.603 0 0 0 1.075-.002c.176-.062.333-.156.472-.284a1.42 1.42 0 0 0 .337-.492c.087-.2.13-.44.13-.718z"
                  data-paper-data="{&quot;glyphName&quot;:&quot;U&quot;,&quot;glyphIndex&quot;:2,&quot;word&quot;:1}"/>
            <path d="M283.35 303.964a.648.648 0 0 0 .206.46c.13.121.295.224.498.307.202.084.43.154.684.212.254.058.51.118.767.18.414.105.79.219 1.13.342.34.124.633.277.878.459.246.182.44.402.58.66.142.258.22.572.237.942a2.43 2.43 0 0 1-.19 1.103 2.313 2.313 0 0 1-.653.858c-.29.24-.646.432-1.066.572-.42.141-.896.223-1.428.247a7.051 7.051 0 0 1-1.639-.116 5.564 5.564 0 0 1-.738-.193 3.18 3.18 0 0 1-.61-.273 1.512 1.512 0 0 1-.415-.35.712.712 0 0 1-.163-.418.7.7 0 0 1 .048-.286 1.02 1.02 0 0 1 .144-.258.828.828 0 0 1 .206-.192.462.462 0 0 1 .23-.08.604.604 0 0 1 .205.026c.066.02.134.045.203.075s.14.062.213.097c.073.035.15.067.233.094.271.107.575.201.91.283.336.081.685.114 1.047.097.197-.009.382-.036.555-.08a1.6 1.6 0 0 0 .455-.189.783.783 0 0 0 .398-.745.806.806 0 0 0-.287-.592 1.276 1.276 0 0 0-.293-.183 2.717 2.717 0 0 0-.347-.132l-.265-.081c-.05-.013-.1-.027-.146-.043a1.975 1.975 0 0 0-.153-.042l-.304-.073a3.355 3.355 0 0 1-.296-.07 6.452 6.452 0 0 1-.109-.036 2.669 2.669 0 0 0-.123-.038l-.552-.166a6.33 6.33 0 0 1-.92-.358 2.38 2.38 0 0 1-.634-.44 1.666 1.666 0 0 1-.376-.577 2.405 2.405 0 0 1-.148-.767 2.263 2.263 0 0 1 .193-1.057c.145-.319.363-.595.651-.828a3.31 3.31 0 0 1 1.064-.558c.42-.14.896-.22 1.428-.245a6.456 6.456 0 0 1 1.319.09c.23.041.451.096.665.165.213.07.403.154.57.252.167.099.302.213.407.344.104.13.16.278.167.444a.638.638 0 0 1-.18.483.694.694 0 0 1-.787.146 7.527 7.527 0 0 0-.517-.214 3.823 3.823 0 0 0-.472-.141 3.214 3.214 0 0 0-.481-.07 4.654 4.654 0 0 0-.542-.005 3.034 3.034 0 0 0-.544.074c-.178.04-.335.1-.473.177a.99.99 0 0 0-.328.29.65.65 0 0 0-.112.417z"
                  data-paper-data="{&quot;glyphName&quot;:&quot;S&quot;,&quot;glyphIndex&quot;:3,&quot;word&quot;:1}"/>
            <path d="M290.468 302.913a.857.857 0 0 1-.598-.176.796.796 0 0 1-.2-.227.693.693 0 0 1-.05-.59.785.785 0 0 1 .158-.26.857.857 0 0 1 .56-.275l5.264-.444a.857.857 0 0 1 .598.176.79.79 0 0 1 .2.23.693.693 0 0 1 .05.59.796.796 0 0 1-.158.258.857.857 0 0 1-.56.274l-1.546.13.484 5.725a1.16 1.16 0 0 1-.247.825c-.09.11-.196.2-.32.268a.994.994 0 0 1-.41.122 1.015 1.015 0 0 1-.784-.262 1.152 1.152 0 0 1-.378-.772l-.484-5.725z"
                  data-paper-data="{&quot;glyphName&quot;:&quot;T&quot;,&quot;glyphIndex&quot;:4,&quot;lastGlyphOfWord&quot;:true,&quot;word&quot;:1}"/>
        </g>
        <g data-paper-data="{&quot;isContainerElementsWrapper&quot;:true}" fill-rule="evenodd">
            <path d="M183.936 135.985c.067 2.198.092 5.482.076 9.851-.014 3.982.002 6.967.048 8.955.035 2.538.751 4.891 2.15 7.061.023.036.049.076.078.118 16.021 23.304 17.741 46.454 5.16 69.452a5.509 5.509 0 0 0-.066.125c-5.942 11.563-8.272 23.758-6.989 36.585 1.51 13.458 7.207 27.002 17.09 40.63 15.768 21.026 38.873 39.149 69.314 54.368a4.789 4.789 0 0 0 .512.224c1.183.44 2.4.654 3.65.643a9.428 9.428 0 0 0 3.929-.722c.118-.049.239-.106.364-.171 30.389-15.196 53.449-33.272 69.18-54.226a.01.01 0 0 1 .005-.004c9.998-12.682 15.72-26.264 17.169-40.745 1.4-13.015-.932-25.212-6.993-36.59-12.073-24.47-10.39-47.637 5.051-69.5.04-.055.078-.114.117-.176h.002c1.39-2.138 2.109-4.5 2.156-7.089.047-1.98.063-4.96.048-8.939-.016-4.366.009-7.65.075-9.85.556-5.16-1.56-8.62-6.348-10.383C332.994 112.534 304.754 106 275 106c-29.764 0-58.01 6.538-84.739 19.613-4.764 1.805-6.872 5.262-6.324 10.372zm178.817 25.232.006-.009c1.267-1.944 1.922-4.099 1.965-6.462.047-1.966.064-4.934.049-8.906-.017-4.4.009-7.704.076-9.916a.769.769 0 0 1 .005-.047c.495-4.553-1.367-7.602-5.587-9.146a.751.751 0 0 1-.059-.025c-26.56-12.995-54.63-19.492-84.209-19.492-29.586 0-57.663 6.5-84.23 19.502a.583.583 0 0 1-.053.023c-4.204 1.583-6.061 4.63-5.57 9.138a.612.612 0 0 1 .003.047c.067 2.213.093 5.518.077 9.916-.014 3.972.002 6.95.048 8.935.031 2.305.684 4.446 1.958 6.423l.056.085c16.304 23.714 18.046 47.287 5.227 70.72a4.008 4.008 0 0 0-.053.1c-5.833 11.35-8.12 23.315-6.862 35.894 1.486 13.245 7.104 26.591 16.853 40.038 15.651 20.87 38.616 38.873 68.896 54.013.092.047.192.093.3.136l.004.001c.013.005.027.01.04.017.01.004.024.01.038.014a8.953 8.953 0 0 0 3.227.566h.022a8.25 8.25 0 0 0 3.442-.627c.085-.036.18-.081.287-.137 30.222-15.112 53.142-33.071 68.761-53.879l.009-.012c9.854-12.497 15.495-25.873 16.921-40.127 1.372-12.772-.915-24.738-6.862-35.898a2.61 2.61 0 0 1-.01-.017c-12.29-24.904-10.574-48.49 5.15-70.756a1.763 1.763 0 0 0 .075-.112z"
                  data-paper-data="{&quot;isOuterDoubleOutline&quot;:true}"/>
            <path d="M191.588 128.703c-3.275 1.195-4.708 3.543-4.299 7.042.071 2.238.098 5.606.082 10.103-.014 3.952.001 6.91.047 8.871.026 1.913.565 3.684 1.616 5.315l.026.04c16.799 24.434 18.577 48.754 5.336 72.959a1.81 1.81 0 0 0-.023.043c-5.642 10.979-7.855 22.55-6.639 34.714 1.443 12.85 6.93 25.847 16.461 38.994 15.433 20.577 38.135 38.358 68.108 53.344a1.745 1.745 0 0 0 .175.077 6.81 6.81 0 0 0 2.508.433 6.153 6.153 0 0 0 2.604-.46c.036-.015.075-.034.118-.056 29.962-14.983 52.65-32.749 68.067-53.297 9.609-12.178 15.105-25.19 16.49-39.035 1.329-12.361-.885-23.934-6.64-34.717-12.689-25.682-10.922-50.007 5.3-72.976a.543.543 0 0 0 .021-.034l.015-.022c1.044-1.603 1.584-3.38 1.62-5.33.046-1.958.062-4.912.048-8.863-.017-4.497.01-7.865.08-10.102.415-3.538-1.021-5.887-4.307-7.047-26.304-12.894-54.105-19.34-83.403-19.34-29.3 0-57.104 6.448-83.41 19.344zm-2.245 6.84c-.298-2.455.702-4.094 2.997-4.918a1.04 1.04 0 0 0 .107-.044c26.034-12.773 53.552-19.159 82.552-19.159 29 0 56.516 6.386 82.549 19.157a.991.991 0 0 0 .117.048c2.295.795 3.292 2.434 2.99 4.917a.948.948 0 0 0-.006.09c-.074 2.264-.102 5.671-.086 10.222.015 3.932 0 6.87-.045 8.817-.03 1.556-.459 2.97-1.288 4.244l-.004.005c-16.687 23.638-18.501 48.665-5.445 75.08l.015.029c5.562 10.413 7.7 21.598 6.415 33.554-1.345 13.448-6.7 26.106-16.064 37.971a.295.295 0 0 0-.016.02c-15.225 20.297-37.676 37.865-67.355 52.705a4.13 4.13 0 0 1-1.745.293 4.787 4.787 0 0 1-1.812-.296c-29.68-14.84-52.13-32.409-67.353-52.706-9.319-12.853-14.678-25.515-16.078-37.987-1.176-11.758.964-22.947 6.42-33.567 13.645-24.945 11.831-49.979-5.44-75.103a7.89 7.89 0 0 1-1.287-4.244c-.045-1.943-.06-4.882-.046-8.815.016-4.552-.012-7.96-.085-10.221a1.033 1.033 0 0 0-.007-.091z"
                  data-paper-data="{&quot;isBaseLogoContainer&quot;:true}"/>
        </g>
    </g>
    <g class="watermark-group" style="opacity:.040000010281801224">
        <path class="watermark-path"
              d="M129.52 370.3a11.88 11.88 0 0 1 2.58 5.58 12 12 0 0 1 .11 3 11.81 11.81 0 0 1-.64 2.93 12.34 12.34 0 0 1-1.41 2.72 11.65 11.65 0 0 1-2.13 2.32 12 12 0 0 1-2.64 1.69 13 13 0 0 1-2.91.9 12.47 12.47 0 0 1-3 .12 12.17 12.17 0 0 1-2.93-.64 11.8 11.8 0 0 1-2.72-1.38 12.19 12.19 0 0 1-4-4.79 11.85 11.85 0 0 1-.89-2.92 12.14 12.14 0 0 1-.13-3 11.54 11.54 0 0 1 .64-2.92 11.67 11.67 0 0 1 3.5-5 11.44 11.44 0 0 1 2.67-1.69 11.64 11.64 0 0 1 2.92-.91 10.71 10.71 0 0 1 3-.12 11.68 11.68 0 0 1 5.66 2 11.7 11.7 0 0 1 2.34 2.12m-1.4 8.76a13 13 0 0 1-1.22 2.32 9.68 9.68 0 0 1-1.81 2 7.44 7.44 0 0 1-2.38 1.37 6.17 6.17 0 0 1-5.11-.46 8.73 8.73 0 0 1-3.85-4.58 6.69 6.69 0 0 1-.34-2.66 6.09 6.09 0 0 1 .77-2.47 7.15 7.15 0 0 1 1.75-2.11 9.58 9.58 0 0 1 1.09-.81 8.23 8.23 0 0 1 1.12-.63 8.14 8.14 0 0 1 1.19-.46 12.71 12.71 0 0 1 1.32-.37l2 2.38a12.83 12.83 0 0 0-1.56.17 7.86 7.86 0 0 0-1.23.32 4.5 4.5 0 0 0-1 .49 6.41 6.41 0 0 0-.93.67 4.49 4.49 0 0 0-1.15 1.39 3.87 3.87 0 0 0-.45 1.58 4.12 4.12 0 0 0 .26 1.63 6.11 6.11 0 0 0 2.36 2.82 4.43 4.43 0 0 0 1.57.53 3.91 3.91 0 0 0 1.62-.17 4.71 4.71 0 0 0 1.57-.89 10.5 10.5 0 0 0 .83-.79 5.71 5.71 0 0 0 .65-.93 10.13 10.13 0 0 0 .54-1.14 12.24 12.24 0 0 0 .44-1.49l2 2.33m-14.46 4.55a8.86 8.86 0 0 0 2.78 2.22 9 9 0 0 0 3.29.94 9.15 9.15 0 0 0 3.39-.37 8.68 8.68 0 0 0 3.11-1.69 8.8 8.8 0 0 0 2.22-2.78 9.15 9.15 0 0 0 1-3.29 8.95 8.95 0 0 0-4.83-8.76 9 9 0 0 0-6.73-.57 9 9 0 0 0-5.33 4.47 8.94 8.94 0 0 0-.57 6.71 8.76 8.76 0 0 0 1.7 3.12M147 349c-.48.12-1.09.31-1.82.57a24.37 24.37 0 0 0-2.4 1A28.35 28.35 0 0 0 140 352a20.72 20.72 0 0 0-2.71 1.94c-.7.59-1.28 1.11-1.74 1.57a15.07 15.07 0 0 0-1.1 1.22 4.09 4.09 0 0 0-.59.92 2.32 2.32 0 0 0-.22.64 1.16 1.16 0 0 0 0 .47 1.83 1.83 0 0 0 .18.29 1.15 1.15 0 0 0 1 .37 5.54 5.54 0 0 0 1.51-.38q.87-.35 1.95-.9l2.26-1.18q1.2-.65 2.49-1.29c.87-.44 1.73-.83 2.59-1.17a18.94 18.94 0 0 1 2.6-.81 9.27 9.27 0 0 1 2.46-.29 6.25 6.25 0 0 1 2.24.49 5.12 5.12 0 0 1 1.89 1.47 6.35 6.35 0 0 1 1.41 2.61 6 6 0 0 1 .09 2.6 8.3 8.3 0 0 1-.9 2.52 17.79 17.79 0 0 1-1.62 2.37 23.92 23.92 0 0 1-2 2.15c-.72.67-1.41 1.29-2.09 1.87a33.79 33.79 0 0 1-5.33 3.7 32.29 32.29 0 0 1-4.91 2.28l-3.61-4.3a21.38 21.38 0 0 0 5.39-1.87 27.2 27.2 0 0 0 5.4-3.56 21.59 21.59 0 0 0 2.38-2.27 8.67 8.67 0 0 0 1.18-1.7 2.32 2.32 0 0 0 .27-1.19 1.34 1.34 0 0 0-.28-.74 1.21 1.21 0 0 0-1-.42 4.32 4.32 0 0 0-1.55.34 15.77 15.77 0 0 0-2 .88c-.72.37-1.48.77-2.27 1.21l-2.45 1.3c-.85.45-1.7.85-2.56 1.21a22.37 22.37 0 0 1-2.54.86 10 10 0 0 1-2.43.32 5.76 5.76 0 0 1-2.2-.45 5 5 0 0 1-1.89-1.45 6.12 6.12 0 0 1-1.31-2.41 6 6 0 0 1-.1-2.41 8.28 8.28 0 0 1 .81-2.38 14.06 14.06 0 0 1 1.49-2.24 22.37 22.37 0 0 1 1.85-2.05q1-1 2-1.77c.7-.59 1.44-1.15 2.23-1.7s1.62-1.06 2.44-1.53 1.63-.91 2.43-1.3 1.58-.75 2.3-1L147 349m39.76-11.43-10.6-12.63 3.92 18.24-4.66 3.91-17.27-7 10.6 12.63-4.86 4.07-15.09-18 6.59-5.54 18.69 7.52-4.15-19.71 6.57-5.52 15.09 18-4.83 4.05m22.08-24.35-10 8.42 1.16 4.82-5.44 4.52-5.68-25.89 5.42-4.55 24.51 10.09-5.42 4.55-4.55-2m-11.23 3.45 6.57-5.52-8.83-3.87 2.26 9.39m29.88-35.27c-.48.12-1.09.31-1.82.57a24.37 24.37 0 0 0-2.4 1 26.11 26.11 0 0 0-2.7 1.47 20.72 20.72 0 0 0-2.71 1.94c-.7.59-1.28 1.11-1.74 1.57a13.39 13.39 0 0 0-1.1 1.22 4.29 4.29 0 0 0-.59.91 2.48 2.48 0 0 0-.22.65 1.16 1.16 0 0 0 0 .47 1.83 1.83 0 0 0 .18.29 1.15 1.15 0 0 0 1 .37 5.54 5.54 0 0 0 1.51-.38q.87-.34 2-.9l2.26-1.18q1.2-.64 2.49-1.29c.87-.44 1.73-.83 2.59-1.17a18.94 18.94 0 0 1 2.6-.81 9.27 9.27 0 0 1 2.46-.29 6.08 6.08 0 0 1 2.24.49 5.09 5.09 0 0 1 1.89 1.46 6.47 6.47 0 0 1 1.41 2.61 6.07 6.07 0 0 1 .09 2.61 8.3 8.3 0 0 1-.9 2.52 16.32 16.32 0 0 1-1.63 2.36 21.41 21.41 0 0 1-2 2.16c-.72.67-1.41 1.29-2.1 1.86a33.36 33.36 0 0 1-5.32 3.71 31.92 31.92 0 0 1-4.92 2.28l-3.6-4.3a21.38 21.38 0 0 0 5.39-1.87 27.2 27.2 0 0 0 5.4-3.56 21.59 21.59 0 0 0 2.38-2.27 8.67 8.67 0 0 0 1.18-1.7A2.32 2.32 0 0 0 231 293a1.34 1.34 0 0 0-.28-.74 1.21 1.21 0 0 0-1-.42 4.32 4.32 0 0 0-1.55.34 16.54 16.54 0 0 0-2 .88c-.71.37-1.47.77-2.26 1.21l-2.46 1.3c-.84.44-1.7.85-2.55 1.21a24.53 24.53 0 0 1-2.54.86 10 10 0 0 1-2.36.36 5.76 5.76 0 0 1-2.2-.45 5 5 0 0 1-1.89-1.45 6.12 6.12 0 0 1-1.31-2.41 5.78 5.78 0 0 1-.1-2.41 8 8 0 0 1 .81-2.38 14.61 14.61 0 0 1 1.49-2.25 22.26 22.26 0 0 1 1.85-2q1-1 2-1.77c.7-.59 1.44-1.15 2.23-1.7s1.62-1.06 2.44-1.53 1.63-.91 2.43-1.31 1.58-.74 2.3-1l3.5 4.16m34.09-6.76-6.29-7.5L243 277.61l6.3 7.5-4.86 4.07-15.09-18 4.85-4.08 5.49 6.55L252 263.3l-5.49-6.55 4.86-4.07 15.09 18-4.86 4.08m10.58-8.86-15.09-18 4.86-4.08 15.09 18-4.86 4.08m27.47-23.05-22.51-2.18L287.51 253l-4.85 4.08-15.1-18 5.28-4.43 22.56 2.22L285 224.5l4.83-4.06 15.09 18-5.26 4.42m7.02-37.34a31.88 31.88 0 0 1 5.29-3.66 34.48 34.48 0 0 1 5.14-2.35l3.69 4.39a20.77 20.77 0 0 0-2.37.61 20.47 20.47 0 0 0-2.61 1 25.12 25.12 0 0 0-2.76 1.49 23.9 23.9 0 0 0-2.8 2 20.42 20.42 0 0 0-2.8 2.77 12.77 12.77 0 0 0-1.64 2.52 7 7 0 0 0-.68 2.24 6 6 0 0 0 .66 3.64 8.16 8.16 0 0 0 .94 1.38 9.12 9.12 0 0 0 1.08 1.07 6.39 6.39 0 0 0 1.47.91 6.73 6.73 0 0 0 1.88.48 6.54 6.54 0 0 0 2.28-.18 11.67 11.67 0 0 0 2.74-1.07 19.38 19.38 0 0 0 3.18-2.22c.57-.48 1.06-.92 1.46-1.31a14.57 14.57 0 0 0 1-1.13 11.46 11.46 0 0 0 .81-1.05l.74-1.09-1.82-2.17-5.45 4.57-3.31-3.94 10.31-8.65 7.71 9.19a29 29 0 0 1-1.67 2.43q-1 1.26-2.1 2.52c-.74.84-1.5 1.65-2.3 2.44s-1.58 1.5-2.33 2.14a31 31 0 0 1-3.59 2.61 22.55 22.55 0 0 1-3.64 1.83 15.64 15.64 0 0 1-3.63.89 10.72 10.72 0 0 1-3.49-.15 10.45 10.45 0 0 1-3.28-1.33 12.54 12.54 0 0 1-3-2.67 12 12 0 0 1-2.08-3.44 10.45 10.45 0 0 1-.71-3.5 11.14 11.14 0 0 1 .51-3.51 15.72 15.72 0 0 1 1.56-3.43 21.62 21.62 0 0 1 2.42-3.28 30.3 30.3 0 0 1 3.15-3m30.27 6.08-15.1-18 4.86-4.08 11.79 14 13.13-11 3.31 3.94-18 15.1m37.64-46.84a12.28 12.28 0 0 1 2.59 4.81 10.44 10.44 0 0 1 0 5 14.62 14.62 0 0 1-2.33 5 25.55 25.55 0 0 1-4.56 4.85 26.07 26.07 0 0 1-5.6 3.67 14.79 14.79 0 0 1-5.38 1.43 10.43 10.43 0 0 1-4.94-.89 13.24 13.24 0 0 1-6.87-8.18 10.48 10.48 0 0 1 0-5 14.51 14.51 0 0 1 2.36-5 25.23 25.23 0 0 1 4.57-4.89 25 25 0 0 1 5.59-3.64 14.45 14.45 0 0 1 5.35-1.43 10.31 10.31 0 0 1 4.93.92 12.22 12.22 0 0 1 4.28 3.38m-4.91 4.11a8.36 8.36 0 0 0-2-1.72 5.5 5.5 0 0 0-2.65-.85 7.72 7.72 0 0 0-3.32.57 14.49 14.49 0 0 0-4 2.52 16.72 16.72 0 0 0-2.38 2.4 10.15 10.15 0 0 0-1.39 2.24 6.71 6.71 0 0 0-.56 2.1 5.69 5.69 0 0 0 .1 1.9 6.21 6.21 0 0 0 .61 1.69 9.85 9.85 0 0 0 1 1.44 10.48 10.48 0 0 0 1.26 1.23 6.67 6.67 0 0 0 1.57.92 6.1 6.1 0 0 0 1.85.41 6.8 6.8 0 0 0 2.15-.2 11.06 11.06 0 0 0 2.45-1 17.67 17.67 0 0 0 2.77-1.94 14.39 14.39 0 0 0 3.18-3.52 7.74 7.74 0 0 0 1.14-3.17 5.54 5.54 0 0 0-.37-2.74 8.52 8.52 0 0 0-1.36-2.3m12.99-27.07a32.3 32.3 0 0 1 5.34-3.66 34.12 34.12 0 0 1 5.15-2.35l3.69 4.4a19.62 19.62 0 0 0-2.37.6 22.08 22.08 0 0 0-2.61 1 26 26 0 0 0-2.77 1.49 23.9 23.9 0 0 0-2.8 2 21 21 0 0 0-2.8 2.78 13.19 13.19 0 0 0-1.64 2.51 7.29 7.29 0 0 0-.68 2.24 6.36 6.36 0 0 0 .06 2 5.8 5.8 0 0 0 .61 1.68 8.12 8.12 0 0 0 .93 1.38 9.16 9.16 0 0 0 1.08 1.08 6.56 6.56 0 0 0 1.48.9 6 6 0 0 0 1.87.48 6.76 6.76 0 0 0 2.28-.17 12 12 0 0 0 2.74-1.08 18.57 18.57 0 0 0 3.18-2.22c.58-.48 1.06-.92 1.46-1.31s.75-.77 1.05-1.12.57-.72.81-1.06l.73-1.09-1.82-2.17-5.45 4.57-3.3-3.94 10.3-8.65 7.71 9.19a29 29 0 0 1-1.67 2.43q-1 1.26-2.1 2.52c-.73.84-1.5 1.66-2.3 2.44s-1.57 1.5-2.33 2.14a31 31 0 0 1-3.59 2.61 22.15 22.15 0 0 1-3.64 1.83 15.56 15.56 0 0 1-3.62.89 11 11 0 0 1-3.49-.14 10.84 10.84 0 0 1-3.28-1.33 12.82 12.82 0 0 1-3-2.68 12.12 12.12 0 0 1-2.08-3.43A10.71 10.71 0 0 1 375 155a11.18 11.18 0 0 1 .51-3.51 15.51 15.51 0 0 1 1.57-3.43 21.44 21.44 0 0 1 2.42-3.28 30.19 30.19 0 0 1 3.14-3m45.99-22.47a12.26 12.26 0 0 1 2.59 4.82 10.44 10.44 0 0 1 0 5 14.53 14.53 0 0 1-2.34 5 25.29 25.29 0 0 1-4.56 4.86 26 26 0 0 1-5.59 3.67 14.84 14.84 0 0 1-5.38 1.43 10.61 10.61 0 0 1-4.95-.89 12.15 12.15 0 0 1-4.3-3.37 12 12 0 0 1-2.56-4.81 10.48 10.48 0 0 1 0-5 14.39 14.39 0 0 1 2.35-5 27.89 27.89 0 0 1 10.16-8.53 14.49 14.49 0 0 1 5.36-1.43 10.27 10.27 0 0 1 4.92.92 12.21 12.21 0 0 1 4.28 3.37m-4.91 4.12a8.17 8.17 0 0 0-2-1.72 5.58 5.58 0 0 0-2.65-.86 7.86 7.86 0 0 0-3.31.58 14.49 14.49 0 0 0-4 2.52 16.21 16.21 0 0 0-2.38 2.4 9.85 9.85 0 0 0-1.4 2.24 7 7 0 0 0-.56 2.1 6 6 0 0 0 .1 1.9 6.23 6.23 0 0 0 .62 1.69 8.49 8.49 0 0 0 1 1.44 9.18 9.18 0 0 0 1.26 1.23 6.67 6.67 0 0 0 1.57.92 6 6 0 0 0 1.84.41 6.86 6.86 0 0 0 2.16-.2 11.26 11.26 0 0 0 2.45-1 17.62 17.62 0 0 0 2.76-1.94 14.67 14.67 0 0 0 3.19-3.52 7.71 7.71 0 0 0 1.13-3.17 5.53 5.53 0 0 0-.36-2.74 8.55 8.55 0 0 0-1.37-2.3"/>
    </g>
</svg>