<svg xmlns:mydata="http://www.w3.org/2000/svg" mydata:contrastcolor="ffffff" mydata:template="SingleColorHex1" mydata:presentation="2.5" mydata:layouttype="undefined" mydata:specialfontid="undefined" mydata:id1="008" mydata:id2="027" mydata:companyname="Dagracemarket" mydata:companytagline="trust" version="1.1" xmlns="http://www.w3.org/2000/svg" xmlns:xlink="http://www.w3.org/1999/xlink" viewBox="0 0 550 470"><g fill="#00558c" fill-rule="none" stroke="none" stroke-width="1" stroke-linecap="butt" stroke-linejoin="miter" stroke-miterlimit="10" stroke-dasharray="" stroke-dashoffset="0" font-family="none" font-weight="none" font-size="none" text-anchor="none" style="mix-blend-mode: normal"><g data-paper-data="{&quot;isGlobalGroup&quot;:true,&quot;bounds&quot;:{&quot;x&quot;:78.73502219088863,&quot;y&quot;:115,&quot;width&quot;:392.5299556182228,&quot;height&quot;:240}}"><g data-paper-data="{&quot;isSecondaryText&quot;:true}" fill-rule="nonzero"><path d="M217.86294,317.89612c-0.12623,0 -0.24594,-0.02285 -0.35911,-0.06856c-0.11317,-0.04571 -0.2122,-0.10773 -0.29708,-0.18609c-0.08488,-0.07835 -0.15235,-0.16976 -0.20241,-0.27423c-0.05006,-0.10447 -0.07509,-0.21547 -0.07509,-0.33299c0,-0.11753 0.02503,-0.22961 0.07509,-0.33626c0.05006,-0.10665 0.11753,-0.19914 0.20241,-0.2775c0.08488,-0.07835 0.18391,-0.14038 0.29708,-0.18609c0.11317,-0.04571 0.23288,-0.06856 0.35911,-0.06856h5.96126c0.12623,0 0.24594,0.02285 0.35911,0.06856c0.11317,0.04571 0.2122,0.10773 0.29708,0.18609c0.08488,0.07835 0.15235,0.17085 0.20241,0.2775c0.05006,0.10665 0.07509,0.21873 0.07509,0.33626c0,0.11753 -0.02503,0.22853 -0.07509,0.33299c-0.05006,0.10447 -0.11753,0.19588 -0.20241,0.27423c-0.08488,0.07835 -0.18391,0.14038 -0.29708,0.18609c-0.11317,0.04571 -0.23288,0.06856 -0.35911,0.06856h-1.74985v6.4836c0,0.17847 -0.03156,0.34496 -0.09467,0.49949c-0.06312,0.15453 -0.15017,0.28947 -0.26117,0.40482c-0.111,0.11535 -0.23941,0.20567 -0.38523,0.27097c-0.14582,0.06529 -0.30361,0.09794 -0.47337,0.09794c-0.16976,0 -0.32755,-0.03265 -0.47337,-0.09794c-0.14582,-0.06529 -0.27314,-0.15562 -0.38196,-0.27097c-0.10882,-0.11535 -0.19479,-0.25029 -0.25791,-0.40482c-0.06312,-0.15453 -0.09467,-0.32102 -0.09467,-0.49949v-6.4836z" data-paper-data="{&quot;glyphName&quot;:&quot;T&quot;,&quot;glyphIndex&quot;:0,&quot;firstGlyphOfWord&quot;:true,&quot;word&quot;:1}"></path><path d="M246.19909,324.37972c0,0.17847 -0.03156,0.34496 -0.09467,0.49949c-0.06312,0.15453 -0.15017,0.28947 -0.26117,0.40482c-0.111,0.11535 -0.23941,0.20567 -0.38523,0.27097c-0.14582,0.06529 -0.30361,0.09794 -0.47337,0.09794c-0.16976,0 -0.32755,-0.03265 -0.47337,-0.09794c-0.14582,-0.06529 -0.27314,-0.15562 -0.38196,-0.27097c-0.10882,-0.11535 -0.19479,-0.25029 -0.25791,-0.40482c-0.06312,-0.15453 -0.09467,-0.32102 -0.09467,-0.49949v-7.01247c0,-0.20023 0.04026,-0.37544 0.12079,-0.52561c0.08053,-0.15017 0.18826,-0.27532 0.3232,-0.37544c0.13494,-0.10012 0.29273,-0.1752 0.47337,-0.22526c0.18064,-0.05006 0.37108,-0.07509 0.57131,-0.07509h2.61825c0.48317,0 0.94675,0.03156 1.39074,0.09467c0.44399,0.06312 0.83466,0.18173 1.17201,0.35585c0.33735,0.17411 0.60723,0.4157 0.80963,0.72475c0.20241,0.30905 0.30361,0.71169 0.30361,1.20792c0,0.26988 -0.037,0.52561 -0.111,0.76719c-0.074,0.24158 -0.1937,0.45923 -0.35911,0.65293c-0.16541,0.1937 -0.38196,0.35911 -0.64967,0.49623c-0.2677,0.13712 -0.59525,0.23832 -0.98266,0.30361v0.02612c0.27858,0.03482 0.5169,0.08597 0.71496,0.15344c0.19806,0.06747 0.36673,0.1567 0.50602,0.2677c0.13929,0.111 0.25247,0.24485 0.33952,0.40155c0.08706,0.1567 0.15888,0.3417 0.21547,0.55499c0.05659,0.21329 0.10229,0.45596 0.13712,0.72802c0.03482,0.27205 0.06747,0.58002 0.09794,0.9239c0.00871,0.09576 0.01524,0.18826 0.01959,0.2775c0.00435,0.08923 0.00653,0.17738 0.00653,0.26444c0,0.18717 -0.01741,0.35911 -0.05223,0.51582c-0.03482,0.1567 -0.09576,0.29164 -0.18282,0.40482c-0.08706,0.11317 -0.20676,0.20132 -0.35911,0.26444c-0.15235,0.06312 -0.34823,0.09467 -0.58764,0.09467c-0.21764,0 -0.39938,-0.05006 -0.5452,-0.15017c-0.14582,-0.10012 -0.26661,-0.23723 -0.36238,-0.41135c-0.09576,-0.17411 -0.16867,-0.37544 -0.21873,-0.60396c-0.05006,-0.22853 -0.09032,-0.47337 -0.12079,-0.73455c-0.04353,-0.3787 -0.08815,-0.69537 -0.13385,-0.95001c-0.04571,-0.25464 -0.11862,-0.46032 -0.21873,-0.61702c-0.10012,-0.1567 -0.24267,-0.2677 -0.42767,-0.33299c-0.185,-0.06529 -0.43855,-0.09794 -0.76066,-0.09794h-1.32545zM247.2046,320.23361c0.23505,0 0.47011,-0.01415 0.70516,-0.04244c0.23505,-0.02829 0.44726,-0.08706 0.63661,-0.17629c0.18935,-0.08923 0.34279,-0.21982 0.46032,-0.39176c0.11753,-0.17194 0.17629,-0.40155 0.17629,-0.68884c0,-0.33082 -0.05659,-0.57893 -0.16976,-0.74434c-0.11317,-0.16541 -0.26335,-0.28947 -0.45052,-0.37217c-0.18717,-0.0827 -0.40373,-0.13385 -0.64967,-0.15344c-0.24594,-0.01959 -0.50167,-0.02938 -0.76719,-0.02938h-0.98593v2.59866z" data-paper-data="{&quot;glyphName&quot;:&quot;R&quot;,&quot;glyphIndex&quot;:1,&quot;word&quot;:1}"></path><path d="M277.38848,317.43907c0,-0.17847 0.03156,-0.34496 0.09467,-0.49949c0.06312,-0.15453 0.14909,-0.28947 0.25791,-0.40482c0.10882,-0.11535 0.23614,-0.20567 0.38196,-0.27097c0.14582,-0.06529 0.30361,-0.09794 0.47337,-0.09794c0.16976,0 0.32755,0.03265 0.47337,0.09794c0.14582,0.06529 0.27423,0.15562 0.38523,0.27097c0.111,0.11535 0.19806,0.25029 0.26117,0.40482c0.06312,0.15453 0.09467,0.32102 0.09467,0.49949v5.00145c0,0.57458 -0.1012,1.07625 -0.30361,1.505c-0.20241,0.42876 -0.48535,0.78678 -0.84881,1.07407c-0.36346,0.28729 -0.79549,0.50276 -1.29607,0.6464c-0.50058,0.14364 -1.04904,0.21547 -1.64538,0.21547c-0.58764,0 -1.13066,-0.07073 -1.62906,-0.2122c-0.4984,-0.14147 -0.92934,-0.35367 -1.2928,-0.63661c-0.36346,-0.28294 -0.64749,-0.63987 -0.85207,-1.07081c-0.20458,-0.43093 -0.30688,-0.93804 -0.30688,-1.52133v-5.00145c0,-0.17847 0.03156,-0.34496 0.09467,-0.49949c0.06312,-0.15453 0.14909,-0.28947 0.25791,-0.40482c0.10882,-0.11535 0.23614,-0.20567 0.38196,-0.27097c0.14582,-0.06529 0.30361,-0.09794 0.47337,-0.09794c0.16976,0 0.32755,0.03265 0.47337,0.09794c0.14582,0.06529 0.27423,0.15562 0.38523,0.27097c0.111,0.11535 0.19806,0.25029 0.26117,0.40482c0.06312,0.15453 0.09467,0.32102 0.09467,0.49949l0.00653,4.96227c0,0.31341 0.04788,0.58328 0.14364,0.80963c0.09576,0.22635 0.22091,0.41135 0.37544,0.55499c0.15453,0.14364 0.33082,0.25029 0.52887,0.31994c0.19806,0.06965 0.39938,0.10447 0.60396,0.10447c0.20894,0 0.41243,-0.03482 0.61049,-0.10447c0.19806,-0.06965 0.37544,-0.17629 0.53214,-0.31994c0.1567,-0.14364 0.28402,-0.32864 0.38196,-0.55499c0.09794,-0.22635 0.14691,-0.49623 0.14691,-0.80963z" data-paper-data="{&quot;glyphName&quot;:&quot;U&quot;,&quot;glyphIndex&quot;:2,&quot;word&quot;:1}"></path><path d="M302.3708,318.64699c0,0.20894 0.06965,0.38523 0.20894,0.52887c0.13929,0.14364 0.32102,0.2677 0.5452,0.37217c0.22417,0.10447 0.47773,0.19588 0.76066,0.27423c0.28294,0.07835 0.56805,0.15888 0.85534,0.24158c0.4614,0.13929 0.88037,0.28729 1.25689,0.44399c0.37652,0.1567 0.69864,0.34388 0.96634,0.56152c0.2677,0.21764 0.47446,0.47555 0.62028,0.77372c0.14582,0.29817 0.21873,0.6562 0.21873,1.07407c0,0.45705 -0.09032,0.8684 -0.27097,1.23404c-0.18064,0.36564 -0.44073,0.67687 -0.78025,0.93369c-0.33952,0.25682 -0.74978,0.45379 -1.23077,0.5909c-0.48099,0.13712 -1.02184,0.20567 -1.62253,0.20567c-0.30905,0 -0.62028,-0.0185 -0.93369,-0.0555c-0.31341,-0.037 -0.61593,-0.09032 -0.90757,-0.15997c-0.29164,-0.06965 -0.56587,-0.15453 -0.82269,-0.25464c-0.25682,-0.10012 -0.48099,-0.21329 -0.67252,-0.33952c-0.19153,-0.12623 -0.3417,-0.26444 -0.45052,-0.41461c-0.10882,-0.15017 -0.16323,-0.31014 -0.16323,-0.4799c0,-0.10882 0.02285,-0.21547 0.06856,-0.31994c0.04571,-0.10447 0.10447,-0.19914 0.17629,-0.28402c0.07182,-0.08488 0.15235,-0.15344 0.24158,-0.20567c0.08923,-0.05223 0.17738,-0.07835 0.26444,-0.07835c0.07835,0 0.15453,0.01306 0.22853,0.03918c0.074,0.02612 0.14909,0.05768 0.22526,0.09467c0.07618,0.037 0.15453,0.07726 0.23505,0.12079c0.08053,0.04353 0.1665,0.0827 0.25791,0.11753c0.30035,0.13494 0.6377,0.25682 1.01204,0.36564c0.37435,0.10882 0.76611,0.16323 1.17527,0.16323c0.222,0 0.43202,-0.02068 0.63008,-0.06203c0.19806,-0.04135 0.37217,-0.10447 0.52234,-0.18935c0.15017,-0.08488 0.26879,-0.19479 0.35585,-0.32973c0.08706,-0.13494 0.13059,-0.29817 0.13059,-0.4897c0,-0.14364 -0.02612,-0.27205 -0.07835,-0.38523c-0.05223,-0.11317 -0.12406,-0.2122 -0.21547,-0.29708c-0.09141,-0.08488 -0.19806,-0.15888 -0.31994,-0.222c-0.12188,-0.06312 -0.25029,-0.11862 -0.38523,-0.1665l-0.29382,-0.10447c-0.05659,-0.01741 -0.111,-0.03591 -0.16323,-0.0555c-0.05223,-0.01959 -0.10882,-0.03809 -0.16976,-0.0555l-0.33952,-0.09794c-0.074,-0.01741 -0.13712,-0.03373 -0.18935,-0.04897c-0.05223,-0.01524 -0.09903,-0.03047 -0.14038,-0.04571c-0.04135,-0.01524 -0.08162,-0.03047 -0.12079,-0.04571c-0.03918,-0.01524 -0.08488,-0.03156 -0.13712,-0.04897l-0.61375,-0.21547c-0.39611,-0.14364 -0.73564,-0.29382 -1.01857,-0.45052c-0.28294,-0.1567 -0.51364,-0.33299 -0.69211,-0.52887c-0.17847,-0.19588 -0.31014,-0.41896 -0.39502,-0.66925c-0.08488,-0.25029 -0.12732,-0.54084 -0.12732,-0.87166c0,-0.43529 0.09032,-0.82922 0.27097,-1.1818c0.18064,-0.35258 0.43964,-0.65293 0.77699,-0.90104c0.33735,-0.24811 0.74652,-0.43964 1.22751,-0.57458c0.48099,-0.13494 1.02184,-0.20241 1.62253,-0.20241c0.21764,0 0.45487,0.01415 0.71169,0.04244c0.25682,0.02829 0.51364,0.07073 0.77046,0.12732c0.25682,0.05659 0.50384,0.1295 0.74108,0.21873c0.23723,0.08923 0.44726,0.1937 0.63008,0.31341c0.18282,0.1197 0.32973,0.25573 0.44073,0.40808c0.111,0.15235 0.1665,0.32211 0.1665,0.50929c0,0.10882 -0.02068,0.20894 -0.06203,0.30035c-0.04135,0.09141 -0.09685,0.16976 -0.1665,0.23505c-0.06965,0.06529 -0.15126,0.11644 -0.24485,0.15344c-0.09359,0.037 -0.19044,0.0555 -0.29055,0.0555c-0.13059,0 -0.25029,-0.02829 -0.35911,-0.08488c-0.20458,-0.10447 -0.39502,-0.1937 -0.57131,-0.2677c-0.17629,-0.074 -0.35149,-0.13494 -0.52561,-0.18282c-0.17411,-0.04788 -0.35367,-0.0827 -0.53867,-0.10447c-0.185,-0.02176 -0.38849,-0.03265 -0.61049,-0.03265c-0.20894,0 -0.41461,0.0185 -0.61702,0.0555c-0.20241,0.037 -0.38305,0.09576 -0.54193,0.17629c-0.15888,0.08053 -0.28729,0.18391 -0.38523,0.31014c-0.09794,0.12623 -0.14691,0.28076 -0.14691,0.46358z" data-paper-data="{&quot;glyphName&quot;:&quot;S&quot;,&quot;glyphIndex&quot;:3,&quot;word&quot;:1}"></path><path d="M326.17581,317.89612c-0.12623,0 -0.24594,-0.02285 -0.35911,-0.06856c-0.11317,-0.04571 -0.2122,-0.10773 -0.29708,-0.18609c-0.08488,-0.07835 -0.15235,-0.16976 -0.20241,-0.27423c-0.05006,-0.10447 -0.07509,-0.21547 -0.07509,-0.33299c0,-0.11753 0.02503,-0.22961 0.07509,-0.33626c0.05006,-0.10665 0.11753,-0.19914 0.20241,-0.2775c0.08488,-0.07835 0.18391,-0.14038 0.29708,-0.18609c0.11317,-0.04571 0.23288,-0.06856 0.35911,-0.06856h5.96126c0.12623,0 0.24594,0.02285 0.35911,0.06856c0.11317,0.04571 0.2122,0.10773 0.29708,0.18609c0.08488,0.07835 0.15235,0.17085 0.20241,0.2775c0.05006,0.10665 0.07509,0.21873 0.07509,0.33626c0,0.11753 -0.02503,0.22853 -0.07509,0.33299c-0.05006,0.10447 -0.11753,0.19588 -0.20241,0.27423c-0.08488,0.07835 -0.18391,0.14038 -0.29708,0.18609c-0.11317,0.04571 -0.23288,0.06856 -0.35911,0.06856h-1.74985v6.4836c0,0.17847 -0.03156,0.34496 -0.09467,0.49949c-0.06312,0.15453 -0.15017,0.28947 -0.26117,0.40482c-0.111,0.11535 -0.23941,0.20567 -0.38523,0.27097c-0.14582,0.06529 -0.30361,0.09794 -0.47337,0.09794c-0.16976,0 -0.32755,-0.03265 -0.47337,-0.09794c-0.14582,-0.06529 -0.27314,-0.15562 -0.38196,-0.27097c-0.10882,-0.11535 -0.19479,-0.25029 -0.25791,-0.40482c-0.06312,-0.15453 -0.09467,-0.32102 -0.09467,-0.49949v-6.4836z" data-paper-data="{&quot;glyphName&quot;:&quot;T&quot;,&quot;glyphIndex&quot;:4,&quot;lastGlyphOfWord&quot;:true,&quot;word&quot;:1}"></path></g><g data-paper-data="{&quot;isPrimaryText&quot;:true}" fill-rule="nonzero"><path d="M87.88928,300.92941c3.57347,0 6.62489,-1.26468 9.15425,-3.79405c1.27939,-1.27939 2.23526,-2.67275 2.8676,-4.18007c0.63234,-1.50733 0.94851,-3.17274 0.94851,-4.99624c0,-3.55876 -1.27204,-6.61018 -3.81611,-9.15425c-2.54407,-2.54407 -5.59549,-3.81611 -9.15425,-3.81611h-4.45581v25.94073zM87.88928,270.31229c4.85286,0 9.0072,1.72791 12.46302,5.18373c1.73526,1.73526 3.03304,3.62861 3.89331,5.68005c0.86028,2.05144 1.29042,4.31243 1.29042,6.78297c0,4.86756 -1.72791,9.02926 -5.18373,12.48508c-3.44112,3.44112 -7.59546,5.16168 -12.46302,5.16168h-6.794c-0.32352,0 -0.62867,-0.0625 -0.91543,-0.1875c-0.28676,-0.125 -0.53676,-0.29044 -0.74999,-0.49631c-0.21323,-0.20588 -0.38235,-0.4522 -0.50734,-0.73896c-0.125,-0.28676 -0.1875,-0.5919 -0.1875,-0.91543v-30.61712c0,-0.32352 0.0625,-0.62867 0.1875,-0.91543c0.125,-0.28676 0.29411,-0.53308 0.50734,-0.73896c0.21323,-0.20588 0.46323,-0.37132 0.74999,-0.49631c0.28676,-0.125 0.5919,-0.1875 0.91543,-0.1875z" data-paper-data="{&quot;glyphName&quot;:&quot;D&quot;,&quot;glyphIndex&quot;:0,&quot;firstGlyphOfWord&quot;:true,&quot;word&quot;:1}"></path><path d="M113.25648,304.172c-0.45587,0.95587 -1.17645,1.4338 -2.16173,1.4338c-0.33823,0 -0.64705,-0.05882 -0.92645,-0.17647c-0.27941,-0.11765 -0.52573,-0.28308 -0.73896,-0.49631c-0.21323,-0.21323 -0.37867,-0.45955 -0.49631,-0.73896c-0.11765,-0.27941 -0.17647,-0.58823 -0.17647,-0.92645c0,-0.30882 0.06618,-0.62499 0.19853,-0.94851l11.82332,-30.37447c0.47058,-1.08822 1.21321,-1.63232 2.2279,-1.63232c1.01469,0 1.75732,0.54411 2.2279,1.63232l11.82332,30.37447c0.13235,0.30882 0.19853,0.62499 0.19853,0.94851c0,0.33823 -0.05882,0.64705 -0.17647,0.92645c-0.11765,0.27941 -0.28308,0.52573 -0.49631,0.73896c-0.21323,0.21323 -0.46323,0.37867 -0.74999,0.49631c-0.28676,0.11765 -0.5919,0.17647 -0.91543,0.17647c-1.02939,0 -1.75732,-0.47793 -2.18379,-1.4338l-9.72777,-25.05839z" data-paper-data="{&quot;glyphName&quot;:&quot;Λ&quot;,&quot;glyphIndex&quot;:1,&quot;word&quot;:1}"></path><path d="M170.01285,300.00296c0,0.61764 -0.24264,1.17645 -0.72793,1.67644c-3.27935,2.6176 -6.97782,3.9264 -11.0954,3.9264c-4.88227,0 -9.04396,-1.72056 -12.48508,-5.16168c-3.44112,-3.44112 -5.16168,-7.60281 -5.16168,-12.48508c0,-4.86756 1.72056,-9.0219 5.16168,-12.46302c3.45582,-3.45582 7.61751,-5.18373 12.48508,-5.18373c4.1764,0 7.94839,1.37498 11.31598,4.12493c0.41176,0.38235 0.61764,0.9191 0.61764,1.61027c0,0.33823 -0.05882,0.64705 -0.17647,0.92645c-0.11765,0.27941 -0.28308,0.52573 -0.49631,0.73896c-0.21323,0.21323 -0.46323,0.37867 -0.74999,0.49631c-0.28676,0.11765 -0.5919,0.17647 -0.91543,0.17647c-0.60293,0 -1.13969,-0.22058 -1.61027,-0.66175c-1.11763,-0.88234 -2.34922,-1.5588 -3.69479,-2.02938c-1.34556,-0.47058 -2.77569,-0.70587 -4.29037,-0.70587c-3.58817,0 -6.6543,1.27204 -9.19837,3.81611c-2.51466,2.51466 -3.77199,5.56608 -3.77199,9.15425c0,3.60288 1.25733,6.66165 3.77199,9.17631c2.52937,2.52937 5.59549,3.79405 9.19837,3.79405c2.66172,0 5.04403,-0.69852 7.14693,-2.09555v-6.83812h-6.08813c-0.66175,0 -1.21689,-0.22426 -1.66541,-0.67278c-0.44852,-0.44852 -0.67278,-1.00366 -0.67278,-1.66541c0,-0.32352 0.05882,-0.62867 0.17647,-0.91543c0.11765,-0.28676 0.28308,-0.53676 0.49631,-0.74999c0.21323,-0.21323 0.45955,-0.37867 0.73896,-0.49631c0.27941,-0.11765 0.58823,-0.17647 0.92645,-0.17647h8.44838c0.30882,0 0.60293,0.0625 0.88234,0.1875c0.27941,0.125 0.52573,0.29411 0.73896,0.50734c0.21323,0.21323 0.38235,0.46323 0.50734,0.74999c0.125,0.28676 0.1875,0.58455 0.1875,0.89337z" data-paper-data="{&quot;glyphName&quot;:&quot;G&quot;,&quot;glyphIndex&quot;:2,&quot;word&quot;:1}"></path><path d="M178.24065,274.98868v12.33067h6.17636c0.85293,0 1.65438,-0.16176 2.40437,-0.48529c0.74999,-0.32352 1.40071,-0.76837 1.95217,-1.33454c0.55146,-0.56617 0.98895,-1.22057 1.31248,-1.9632c0.32352,-0.74263 0.48529,-1.53306 0.48529,-2.37128c0,-0.85293 -0.16176,-1.65438 -0.48529,-2.40437c-0.32352,-0.74999 -0.76469,-1.40439 -1.32351,-1.9632c-0.55881,-0.55881 -1.21321,-0.99998 -1.9632,-1.32351c-0.74999,-0.32352 -1.54409,-0.48529 -2.38231,-0.48529zM173.56426,303.26761v-30.61712c0,-0.32352 0.05882,-0.62867 0.17647,-0.91543c0.11765,-0.28676 0.28308,-0.53676 0.49631,-0.74999c0.21323,-0.21323 0.45955,-0.37867 0.73896,-0.49631c0.27941,-0.11765 0.58823,-0.17647 0.92645,-0.17647h8.51456c1.48527,0 2.88598,0.28676 4.20213,0.86028c1.31615,0.57352 2.46319,1.35292 3.44112,2.33819c0.97792,0.98528 1.75365,2.13599 2.32717,3.45215c0.57352,1.31615 0.86028,2.71686 0.86028,4.20213c0,0.97057 -0.12132,1.91541 -0.36396,2.83451c-0.24264,0.9191 -0.60293,1.78673 -1.08086,2.6029c-0.47793,0.81616 -1.07351,1.5735 -1.78673,2.27202c-0.71322,0.69852 -1.54041,1.31248 -2.48157,1.84188l7.03664,11.27186c0.25,0.41176 0.37499,0.83822 0.37499,1.27939c0,0.33823 -0.05882,0.64705 -0.17647,0.92645c-0.11765,0.27941 -0.28308,0.52573 -0.49631,0.73896c-0.21323,0.21323 -0.46323,0.37867 -0.74999,0.49631c-0.28676,0.11765 -0.5919,0.17647 -0.91543,0.17647c-0.82352,0 -1.49262,-0.38235 -2.00732,-1.14704l-7.78663,-12.46302h-6.57342v11.27186c0,0.64705 -0.22794,1.19851 -0.68381,1.65438c-0.45587,0.45587 -1.00734,0.68381 -1.65438,0.68381c-0.64705,0 -1.19851,-0.22794 -1.65438,-0.68381c-0.45587,-0.45587 -0.68381,-1.00734 -0.68381,-1.65438z" data-paper-data="{&quot;glyphName&quot;:&quot;R&quot;,&quot;glyphIndex&quot;:3,&quot;word&quot;:1}"></path><path d="M204.57843,304.172c-0.45587,0.95587 -1.17645,1.4338 -2.16173,1.4338c-0.33823,0 -0.64705,-0.05882 -0.92645,-0.17647c-0.27941,-0.11765 -0.52573,-0.28308 -0.73896,-0.49631c-0.21323,-0.21323 -0.37867,-0.45955 -0.49631,-0.73896c-0.11765,-0.27941 -0.17647,-0.58823 -0.17647,-0.92645c0,-0.30882 0.06618,-0.62499 0.19853,-0.94851l11.82332,-30.37447c0.47058,-1.08822 1.21321,-1.63232 2.2279,-1.63232c1.01469,0 1.75732,0.54411 2.2279,1.63232l11.82332,30.37447c0.13235,0.30882 0.19853,0.62499 0.19853,0.94851c0,0.33823 -0.05882,0.64705 -0.17647,0.92645c-0.11765,0.27941 -0.28308,0.52573 -0.49631,0.73896c-0.21323,0.21323 -0.46323,0.37867 -0.74999,0.49631c-0.28676,0.11765 -0.5919,0.17647 -0.91543,0.17647c-1.02939,0 -1.75732,-0.47793 -2.18379,-1.4338l-9.72777,-25.05839z" data-paper-data="{&quot;glyphName&quot;:&quot;Λ&quot;,&quot;glyphIndex&quot;:4,&quot;word&quot;:1}"></path><path d="M258.9966,297.66476c0.32352,0 0.62499,0.0625 0.9044,0.1875c0.27941,0.125 0.52573,0.29044 0.73896,0.49631c0.21323,0.20588 0.38235,0.4522 0.50734,0.73896c0.125,0.28676 0.1875,0.5919 0.1875,0.91543c0,0.61764 -0.24264,1.17645 -0.72793,1.67644c-3.27935,2.6176 -6.97782,3.9264 -11.0954,3.9264c-4.88227,0 -9.04396,-1.72056 -12.48508,-5.16168c-3.44112,-3.44112 -5.16168,-7.60281 -5.16168,-12.48508c0,-4.86756 1.72056,-9.0219 5.16168,-12.46302c3.45582,-3.45582 7.61751,-5.18373 12.48508,-5.18373c4.1764,0 7.94839,1.37498 11.31598,4.12493c0.41176,0.39705 0.61764,0.93381 0.61764,1.61027c0,0.33823 -0.05882,0.64705 -0.17647,0.92645c-0.11765,0.27941 -0.28308,0.52573 -0.49631,0.73896c-0.21323,0.21323 -0.46323,0.37867 -0.74999,0.49631c-0.28676,0.11765 -0.5919,0.17647 -0.91543,0.17647c-0.57352,0 -1.11027,-0.22058 -1.61027,-0.66175c-1.11763,-0.88234 -2.34922,-1.5588 -3.69479,-2.02938c-1.34556,-0.47058 -2.77569,-0.70587 -4.29037,-0.70587c-3.58817,0 -6.6543,1.27204 -9.19837,3.81611c-2.51466,2.51466 -3.77199,5.56608 -3.77199,9.15425c0,3.60288 1.25733,6.66165 3.77199,9.17631c2.52937,2.52937 5.59549,3.79405 9.19837,3.79405c3.07348,0 5.77931,-0.94851 8.11751,-2.84554c0.38235,-0.2647 0.83822,-0.4044 1.36762,-0.41911z" data-paper-data="{&quot;glyphName&quot;:&quot;C&quot;,&quot;glyphIndex&quot;:5,&quot;word&quot;:1}"></path><path d="M287.20935,270.31229c0.32352,0 0.62867,0.05882 0.91543,0.17647c0.28676,0.11765 0.53676,0.28308 0.74999,0.49631c0.21323,0.21323 0.37867,0.46323 0.49631,0.74999c0.11765,0.28676 0.17647,0.5919 0.17647,0.91543c0,0.33823 -0.05882,0.64705 -0.17647,0.92645c-0.11765,0.27941 -0.28308,0.52573 -0.49631,0.73896c-0.21323,0.21323 -0.46323,0.37867 -0.74999,0.49631c-0.28676,0.11765 -0.5919,0.17647 -0.91543,0.17647h-20.40406c-0.33823,0 -0.64705,-0.05882 -0.92645,-0.17647c-0.27941,-0.11765 -0.52573,-0.28308 -0.73896,-0.49631c-0.21323,-0.21323 -0.37867,-0.45955 -0.49631,-0.73896c-0.11765,-0.27941 -0.17647,-0.58823 -0.17647,-0.92645c0,-0.32352 0.05882,-0.62867 0.17647,-0.91543c0.11765,-0.28676 0.28308,-0.53676 0.49631,-0.74999c0.21323,-0.21323 0.45955,-0.37867 0.73896,-0.49631c0.27941,-0.11765 0.58823,-0.17647 0.92645,-0.17647zM287.20935,300.92941c0.32352,0 0.62867,0.05882 0.91543,0.17647c0.28676,0.11765 0.53676,0.28308 0.74999,0.49631c0.21323,0.21323 0.37867,0.46323 0.49631,0.74999c0.11765,0.28676 0.17647,0.5919 0.17647,0.91543c0,0.33823 -0.05882,0.64705 -0.17647,0.92645c-0.11765,0.27941 -0.28308,0.52573 -0.49631,0.73896c-0.21323,0.21323 -0.46323,0.37867 -0.74999,0.49631c-0.28676,0.11765 -0.5919,0.17647 -0.91543,0.17647h-20.40406c-0.33823,0 -0.64705,-0.05882 -0.92645,-0.17647c-0.27941,-0.11765 -0.52573,-0.28308 -0.73896,-0.49631c-0.21323,-0.21323 -0.37867,-0.45955 -0.49631,-0.73896c-0.11765,-0.27941 -0.17647,-0.58823 -0.17647,-0.92645c0,-0.32352 0.05882,-0.62867 0.17647,-0.91543c0.11765,-0.28676 0.28308,-0.53676 0.49631,-0.74999c0.21323,-0.21323 0.45955,-0.37867 0.73896,-0.49631c0.27941,-0.11765 0.58823,-0.17647 0.92645,-0.17647zM285.51085,285.62085c0.32352,0 0.62867,0.05882 0.91543,0.17647c0.28676,0.11765 0.53676,0.28308 0.74999,0.49631c0.21323,0.21323 0.37867,0.46323 0.49631,0.74999c0.11765,0.28676 0.17647,0.5919 0.17647,0.91543c0,0.33823 -0.05882,0.64705 -0.17647,0.92645c-0.11765,0.27941 -0.28308,0.52573 -0.49631,0.73896c-0.21323,0.21323 -0.46323,0.37867 -0.74999,0.49631c-0.28676,0.11765 -0.5919,0.17647 -0.91543,0.17647h-17.02912c-0.54411,-0.01471 -1.06616,-0.24264 -1.56615,-0.68381c-0.47058,-0.42646 -0.70587,-0.97792 -0.70587,-1.65438c0,-0.29411 0.05882,-0.58087 0.17647,-0.86028c0.11765,-0.27941 0.27941,-0.52573 0.48529,-0.73896c0.20588,-0.21323 0.44485,-0.38602 0.7169,-0.51837c0.27205,-0.13235 0.56984,-0.20588 0.89337,-0.22058z" data-paper-data="{&quot;glyphName&quot;:&quot;Ξ&quot;,&quot;glyphIndex&quot;:6,&quot;word&quot;:1}"></path><path d="M292.79013,303.26761v-30.61712c0,-0.32352 0.05882,-0.62867 0.17647,-0.91543c0.11765,-0.28676 0.28308,-0.53676 0.49631,-0.74999c0.21323,-0.21323 0.45955,-0.37867 0.73896,-0.49631c0.27941,-0.11765 0.58823,-0.17647 0.92645,-0.17647c0.91175,0 1.60291,0.41911 2.07349,1.25733l13.23506,26.44807l13.23506,-26.44807c0.5294,-0.83822 1.22057,-1.25733 2.07349,-1.25733c0.32352,0 0.62867,0.05882 0.91543,0.17647c0.28676,0.11765 0.53676,0.28308 0.74999,0.49631c0.21323,0.21323 0.37867,0.46323 0.49631,0.74999c0.11765,0.28676 0.17647,0.5919 0.17647,0.91543v30.61712c0,0.64705 -0.22794,1.19851 -0.68381,1.65438c-0.45587,0.45587 -1.00734,0.68381 -1.65438,0.68381c-0.64705,0 -1.19851,-0.22794 -1.65438,-0.68381c-0.45587,-0.45587 -0.68381,-1.00734 -0.68381,-1.65438v-20.69082l-10.94099,21.85991c-0.45587,0.7794 -1.13233,1.1691 -2.02938,1.1691c-0.97057,0 -1.68379,-0.47058 -2.13967,-1.41174l-10.83069,-21.61727v20.69082c0,0.64705 -0.22794,1.19851 -0.68381,1.65438c-0.45587,0.45587 -1.00734,0.68381 -1.65438,0.68381c-0.64705,0 -1.19851,-0.22794 -1.65438,-0.68381c-0.45587,-0.45587 -0.68381,-1.00734 -0.68381,-1.65438z" data-paper-data="{&quot;glyphName&quot;:&quot;M&quot;,&quot;glyphIndex&quot;:7,&quot;word&quot;:1}"></path><path d="M336.04674,304.172c-0.45587,0.95587 -1.17645,1.4338 -2.16173,1.4338c-0.33823,0 -0.64705,-0.05882 -0.92645,-0.17647c-0.27941,-0.11765 -0.52573,-0.28308 -0.73896,-0.49631c-0.21323,-0.21323 -0.37867,-0.45955 -0.49631,-0.73896c-0.11765,-0.27941 -0.17647,-0.58823 -0.17647,-0.92645c0,-0.30882 0.06618,-0.62499 0.19853,-0.94851l11.82332,-30.37447c0.47058,-1.08822 1.21321,-1.63232 2.2279,-1.63232c1.01469,0 1.75732,0.54411 2.2279,1.63232l11.82332,30.37447c0.13235,0.30882 0.19853,0.62499 0.19853,0.94851c0,0.33823 -0.05882,0.64705 -0.17647,0.92645c-0.11765,0.27941 -0.28308,0.52573 -0.49631,0.73896c-0.21323,0.21323 -0.46323,0.37867 -0.74999,0.49631c-0.28676,0.11765 -0.5919,0.17647 -0.91543,0.17647c-1.02939,0 -1.75732,-0.47793 -2.18379,-1.4338l-9.72777,-25.05839z" data-paper-data="{&quot;glyphName&quot;:&quot;Λ&quot;,&quot;glyphIndex&quot;:8,&quot;word&quot;:1}"></path><path d="M367.94324,274.98868v12.33067h6.17636c0.85293,0 1.65438,-0.16176 2.40437,-0.48529c0.74999,-0.32352 1.40071,-0.76837 1.95217,-1.33454c0.55146,-0.56617 0.98895,-1.22057 1.31248,-1.9632c0.32352,-0.74263 0.48529,-1.53306 0.48529,-2.37128c0,-0.85293 -0.16176,-1.65438 -0.48529,-2.40437c-0.32352,-0.74999 -0.76469,-1.40439 -1.32351,-1.9632c-0.55881,-0.55881 -1.21321,-0.99998 -1.9632,-1.32351c-0.74999,-0.32352 -1.54409,-0.48529 -2.38231,-0.48529zM363.26685,303.26761v-30.61712c0,-0.32352 0.05882,-0.62867 0.17647,-0.91543c0.11765,-0.28676 0.28308,-0.53676 0.49631,-0.74999c0.21323,-0.21323 0.45955,-0.37867 0.73896,-0.49631c0.27941,-0.11765 0.58823,-0.17647 0.92645,-0.17647h8.51456c1.48527,0 2.88598,0.28676 4.20213,0.86028c1.31615,0.57352 2.46319,1.35292 3.44112,2.33819c0.97792,0.98528 1.75365,2.13599 2.32717,3.45215c0.57352,1.31615 0.86028,2.71686 0.86028,4.20213c0,0.97057 -0.12132,1.91541 -0.36396,2.83451c-0.24264,0.9191 -0.60293,1.78673 -1.08086,2.6029c-0.47793,0.81616 -1.07351,1.5735 -1.78673,2.27202c-0.71322,0.69852 -1.54041,1.31248 -2.48157,1.84188l7.03664,11.27186c0.25,0.41176 0.37499,0.83822 0.37499,1.27939c0,0.33823 -0.05882,0.64705 -0.17647,0.92645c-0.11765,0.27941 -0.28308,0.52573 -0.49631,0.73896c-0.21323,0.21323 -0.46323,0.37867 -0.74999,0.49631c-0.28676,0.11765 -0.5919,0.17647 -0.91543,0.17647c-0.82352,0 -1.49262,-0.38235 -2.00732,-1.14704l-7.78663,-12.46302h-6.57342v11.27186c0,0.64705 -0.22794,1.19851 -0.68381,1.65438c-0.45587,0.45587 -1.00734,0.68381 -1.65438,0.68381c-0.64705,0 -1.19851,-0.22794 -1.65438,-0.68381c-0.45587,-0.45587 -0.68381,-1.00734 -0.68381,-1.65438z" data-paper-data="{&quot;glyphName&quot;:&quot;R&quot;,&quot;glyphIndex&quot;:9,&quot;word&quot;:1}"></path><path d="M389.73698,272.65049c0,-0.64705 0.22794,-1.19851 0.68381,-1.65438c0.45587,-0.45587 1.00734,-0.68381 1.65438,-0.68381c0.64705,0 1.19851,0.22794 1.65438,0.68381c0.45587,0.45587 0.68381,1.00734 0.68381,1.65438v13.0586l14.66886,-14.66886c0.48529,-0.48529 1.05145,-0.72793 1.6985,-0.72793c0.32352,0 0.62867,0.05882 0.91543,0.17647c0.28676,0.11765 0.53676,0.28308 0.74999,0.49631c0.21323,0.21323 0.37867,0.46323 0.49631,0.74999c0.11765,0.28676 0.17647,0.5919 0.17647,0.91543c0,0.64705 -0.22794,1.19851 -0.68381,1.65438l-11.55862,11.58068l11.80127,15.99237c0.29411,0.41176 0.44117,0.85293 0.44117,1.32351c0,0.30882 -0.05882,0.61028 -0.17647,0.9044c-0.11765,0.29411 -0.27941,0.55146 -0.48529,0.77205c-0.20588,0.22058 -0.44852,0.39705 -0.72793,0.5294c-0.27941,0.13235 -0.58087,0.19853 -0.9044,0.19853c-0.86763,0 -1.52203,-0.33088 -1.9632,-0.99263l-11.33804,-15.37473l-3.11024,3.11024v10.91893c0,0.64705 -0.22794,1.19851 -0.68381,1.65438c-0.45587,0.45587 -1.00734,0.68381 -1.65438,0.68381c-0.64705,0 -1.19851,-0.22794 -1.65438,-0.68381c-0.45587,-0.45587 -0.68381,-1.00734 -0.68381,-1.65438z" data-paper-data="{&quot;glyphName&quot;:&quot;K&quot;,&quot;glyphIndex&quot;:10,&quot;word&quot;:1}"></path><path d="M438.97142,270.31229c0.32352,0 0.62867,0.05882 0.91543,0.17647c0.28676,0.11765 0.53676,0.28308 0.74999,0.49631c0.21323,0.21323 0.37867,0.46323 0.49631,0.74999c0.11765,0.28676 0.17647,0.5919 0.17647,0.91543c0,0.33823 -0.05882,0.64705 -0.17647,0.92645c-0.11765,0.27941 -0.28308,0.52573 -0.49631,0.73896c-0.21323,0.21323 -0.46323,0.37867 -0.74999,0.49631c-0.28676,0.11765 -0.5919,0.17647 -0.91543,0.17647h-20.40406c-0.33823,0 -0.64705,-0.05882 -0.92645,-0.17647c-0.27941,-0.11765 -0.52573,-0.28308 -0.73896,-0.49631c-0.21323,-0.21323 -0.37867,-0.45955 -0.49631,-0.73896c-0.11765,-0.27941 -0.17647,-0.58823 -0.17647,-0.92645c0,-0.32352 0.05882,-0.62867 0.17647,-0.91543c0.11765,-0.28676 0.28308,-0.53676 0.49631,-0.74999c0.21323,-0.21323 0.45955,-0.37867 0.73896,-0.49631c0.27941,-0.11765 0.58823,-0.17647 0.92645,-0.17647zM438.97142,300.92941c0.32352,0 0.62867,0.05882 0.91543,0.17647c0.28676,0.11765 0.53676,0.28308 0.74999,0.49631c0.21323,0.21323 0.37867,0.46323 0.49631,0.74999c0.11765,0.28676 0.17647,0.5919 0.17647,0.91543c0,0.33823 -0.05882,0.64705 -0.17647,0.92645c-0.11765,0.27941 -0.28308,0.52573 -0.49631,0.73896c-0.21323,0.21323 -0.46323,0.37867 -0.74999,0.49631c-0.28676,0.11765 -0.5919,0.17647 -0.91543,0.17647h-20.40406c-0.33823,0 -0.64705,-0.05882 -0.92645,-0.17647c-0.27941,-0.11765 -0.52573,-0.28308 -0.73896,-0.49631c-0.21323,-0.21323 -0.37867,-0.45955 -0.49631,-0.73896c-0.11765,-0.27941 -0.17647,-0.58823 -0.17647,-0.92645c0,-0.32352 0.05882,-0.62867 0.17647,-0.91543c0.11765,-0.28676 0.28308,-0.53676 0.49631,-0.74999c0.21323,-0.21323 0.45955,-0.37867 0.73896,-0.49631c0.27941,-0.11765 0.58823,-0.17647 0.92645,-0.17647zM437.27292,285.62085c0.32352,0 0.62867,0.05882 0.91543,0.17647c0.28676,0.11765 0.53676,0.28308 0.74999,0.49631c0.21323,0.21323 0.37867,0.46323 0.49631,0.74999c0.11765,0.28676 0.17647,0.5919 0.17647,0.91543c0,0.33823 -0.05882,0.64705 -0.17647,0.92645c-0.11765,0.27941 -0.28308,0.52573 -0.49631,0.73896c-0.21323,0.21323 -0.46323,0.37867 -0.74999,0.49631c-0.28676,0.11765 -0.5919,0.17647 -0.91543,0.17647h-17.02912c-0.54411,-0.01471 -1.06616,-0.24264 -1.56615,-0.68381c-0.47058,-0.42646 -0.70587,-0.97792 -0.70587,-1.65438c0,-0.29411 0.05882,-0.58087 0.17647,-0.86028c0.11765,-0.27941 0.27941,-0.52573 0.48529,-0.73896c0.20588,-0.21323 0.44485,-0.38602 0.7169,-0.51837c0.27205,-0.13235 0.56984,-0.20588 0.89337,-0.22058z" data-paper-data="{&quot;glyphName&quot;:&quot;Ξ&quot;,&quot;glyphIndex&quot;:11,&quot;word&quot;:1}"></path><path d="M468.92678,274.98868h-8.71308v28.27892c0,0.64705 -0.22794,1.19851 -0.68381,1.65438c-0.45587,0.45587 -1.00734,0.68381 -1.65438,0.68381c-0.64705,0 -1.19851,-0.22794 -1.65438,-0.68381c-0.45587,-0.45587 -0.68381,-1.00734 -0.68381,-1.65438v-28.27892h-8.71308c-0.64705,0 -1.19851,-0.22794 -1.65438,-0.68381c-0.45587,-0.45587 -0.68381,-1.00734 -0.68381,-1.65438c0,-0.64705 0.22794,-1.19851 0.68381,-1.65438c0.45587,-0.45587 1.00734,-0.68381 1.65438,-0.68381h22.10256c0.64705,0 1.19851,0.22794 1.65438,0.68381c0.45587,0.45587 0.68381,1.00734 0.68381,1.65438c0,0.64705 -0.22794,1.19851 -0.68381,1.65438c-0.45587,0.45587 -1.00734,0.68381 -1.65438,0.68381z" data-paper-data="{&quot;glyphName&quot;:&quot;T&quot;,&quot;glyphIndex&quot;:12,&quot;lastGlyphOfWord&quot;:true,&quot;word&quot;:1}"></path></g><g data-paper-data="{&quot;fillRule&quot;:&quot;evenodd&quot;,&quot;fillRuleOriginal&quot;:&quot;evenodd&quot;,&quot;isIcon&quot;:true,&quot;iconStyle&quot;:&quot;standalone&quot;,&quot;selectedEffects&quot;:{&quot;container&quot;:&quot;&quot;,&quot;transformation&quot;:&quot;&quot;,&quot;pattern&quot;:&quot;&quot;},&quot;bounds&quot;:{&quot;x&quot;:183.63080490899887,&quot;y&quot;:115,&quot;width&quot;:182.73839018200232,&quot;height&quot;:130.45066882414827},&quot;iconType&quot;:&quot;icon&quot;,&quot;rawIconId&quot;:&quot;101810&quot;,&quot;combineTerms&quot;:&quot;store&quot;,&quot;isDetailed&quot;:false,&quot;suitableAsStandaloneIcon&quot;:true}" fill-rule="evenodd"><path d="M366.3692,151.72091c0,5.02142 -4.08577,9.1072 -9.10923,9.1072c-1.83043,0 -3.53624,-0.53524 -4.96422,-1.46883v76.5225h12.85181v9.56889h-180.81807v-9.56889h12.50248v-76.04039c-1.2339,0.62512 -2.62103,0.98671 -4.09599,0.98671c-4.22878,0 -7.812,-2.858 -8.80689,-6.90496l-0.29827,-0.96425v-10.34314h0.95403l12.24916,-19.45238v-8.16338h155.46174v7.82018l13.60972,19.79558h0.28192v0.41062l0.02656,1.51786h-0.02656v5.39527c0.12257,0.60061 0.18182,1.19918 0.18182,1.7814zM350.36317,116.92645h-151.60273v4.84573h151.60273zM239.35058,123.69862l0.36159,0.10214l-5.28087,18.815h15.19296l-0.14505,-0.02451l3.14809,-18.89263zM349.60321,142.61576h2.69252l11.28082,-0.00205l-11.2747,-16.39622l-0.96425,-1.40142l-0.77017,-1.11746h-10.18175l9.6792,18.67813zM198.76248,123.72109l-1.92848,3.06025l-9.97134,15.83443h13.53005l-0.45965,-0.23289l9.51169,-18.68221h-10.67zM223.84506,123.70066h-13.35844l0.4576,0.23289l-9.51169,18.68221h15.44219l-0.43309,-0.1716zM238.23925,123.70066h-13.34006l0.43514,0.16956l-7.40343,18.74554h15.38908l-0.36159,-0.10214zM253.93884,123.70066l0.14913,0.02451l-3.144,18.89059h15.06834l0.99285,-18.9151zM281.37074,123.70066h-12.92127l-0.99488,18.9151h15.08264zM282.81711,123.70066l1.16853,18.9151l15.07039,0.00205l-3.32378,-18.88446l0.18386,-0.03268zM310.47986,123.70066h-13.28694l3.32582,18.8865l-0.17773,0.03065h15.22156l-5.45451,-18.80887zM324.92716,123.70066h-13.3421l5.45451,18.80887l-0.37181,0.10623h15.39316l-7.57299,-18.73737zM333.11507,142.61576h15.44424l-9.68125,-18.67608l0.46169,-0.23902h-13.36049l7.57299,18.73941zM185.55929,144.54425v7.89781l0.11236,0.36568c0.54136,3.53011 3.51377,6.08985 7.06431,6.08985c1.52604,0 2.9295,-0.49438 4.09599,-1.31562c0.34729,-0.24311 0.66598,-0.51481 0.96425,-0.81511c0.36363,-0.36568 0.68641,-0.76812 0.96425,-1.20939c0.51276,-0.81511 0.88661,-1.73442 1.04391,-2.74768l0.12666,-0.81715h2.06945l0.12462,0.81715c0.54136,3.53011 3.51377,6.08985 7.06431,6.08985c3.55258,0 6.52703,-2.55974 7.06839,-6.08985l0.12666,-0.81715h2.06945l0.12462,0.81715c0.54136,3.53011 3.51377,6.08985 7.06431,6.08985c3.55054,0 6.5209,-2.55974 7.06431,-6.08985l0.12462,-0.81715h2.05923l0.12666,0.81715c0.54136,3.53011 3.51377,6.08985 7.06635,6.08985c3.55258,0 6.52498,-2.55974 7.06635,-6.08985l0.12666,-0.81715h2.06127l0.12666,0.81715c0.54341,3.52807 3.51581,6.08985 7.06431,6.08985c3.55258,0 6.52294,-2.55974 7.06635,-6.08985l0.12666,-0.81715h2.07149l0.12666,0.81715c0.54136,3.52807 3.51173,6.08781 7.06431,6.08781c3.55258,0 6.52498,-2.55974 7.06635,-6.08985l0.12666,-0.81715h2.07149l0.12666,0.81715c0.54545,3.53011 3.51785,6.08985 7.06635,6.08985c3.55054,0 6.5209,-2.55974 7.06431,-6.08985l0.12666,-0.81715h2.06945l0.12666,0.81715c0.54545,3.53011 3.51785,6.08985 7.06635,6.08985c3.55054,0 6.5209,-2.55974 7.06226,-6.08781l0.12666,-0.81715h2.07762l0.12666,0.81715c0.54341,3.53011 3.51377,6.08985 7.06431,6.08985c3.55054,0 6.52294,-2.55974 7.06431,-6.08781l0.12666,-0.81715h2.06127l0.12666,0.81715c0.54545,3.53011 3.51785,6.08985 7.06839,6.08985c3.55054,0 6.52294,-2.55974 7.06635,-6.08985l0.12666,-0.81715h2.06945l0.12666,0.81715c0.04086,0.24106 0.11236,0.46782 0.1716,0.69866c0.20633,0.79877 0.53115,1.53421 0.96628,2.19202c0.28396,0.42492 0.60469,0.81511 0.96628,1.16853c1.2911,1.25637 3.03369,2.03063 4.96422,2.03063c3.96116,0 7.1828,-3.22163 7.1828,-7.18075c0,-0.48212 -0.05311,-0.98263 -0.1573,-1.48723l-0.02247,-0.19611v-5.49333zM248.1636,235.88178h102.18527v-78.22423c-0.52706,-0.62308 -0.98058,-1.31562 -1.33196,-2.07353c-1.4525,3.14605 -4.60467,5.2441 -8.22467,5.2441c-3.62409,0 -6.77218,-2.096 -8.22467,-5.24205c-1.45453,3.14605 -4.60059,5.24205 -8.22671,5.24205c-3.62204,0 -6.77013,-2.09805 -8.22262,-5.24614c-1.4525,3.14809 -4.60059,5.24614 -8.22671,5.24614c-3.62,0 -6.76809,-2.096 -8.22058,-5.2441c-1.45862,3.14809 -4.60059,5.2441 -8.22467,5.2441c-3.62204,0 -6.77013,-2.09805 -8.22262,-5.2441c-1.45658,3.14605 -4.60467,5.2441 -8.22876,5.2441c-3.62409,0 -6.77218,-2.096 -8.22467,-5.24205c-1.45453,3.14605 -4.60467,5.24205 -8.22671,5.24205c-3.62204,0 -6.77013,-2.096 -8.22467,-5.24205c-1.45453,3.14605 -4.60262,5.24205 -8.22671,5.24205c-3.62409,0 -6.77218,-2.096 -8.22671,-5.24205c-1.45453,3.14605 -4.60059,5.24205 -8.22467,5.24205c-3.62409,0 -6.77013,-2.096 -8.22467,-5.24205c-1.45658,3.14605 -4.60467,5.24205 -8.22876,5.24205c-3.62409,0 -6.77218,-2.096 -8.22467,-5.24205c-0.52911,1.14198 -1.28498,2.14094 -2.20224,2.95606v77.33966h12.93353v-70.24676h36.46964zM254.67225,164.67283v60.63088h87.20681v-60.63088zM256.59868,166.59927h40.62079v50.17742h-40.62079zM339.94852,216.77873h-40.80057v-50.17946h40.80057zM331.89137,199.31408l1.36056,-1.36056l-24.4881,-24.4881l-0.68233,0.68233l-0.68233,0.68028zM331.70343,192.55416l0.68233,-0.68233l-17.54228,-17.54024l-1.36261,1.36261l17.54228,17.5382zM264.21662,184.66862l-1.36261,1.36261l24.48401,24.48606l1.36465,-1.36465zM264.24317,191.5838l17.54024,17.54024l1.36056,-1.36056l-17.5382,-17.54024zM339.94852,223.37726h-83.34984v-4.67208h83.34984zM186.25796,243.52218h176.96314v-5.71396h-176.96314z" data-paper-data="{&quot;isPathIcon&quot;:true}"></path></g><path d="M139.50427,349.54757l0,-39.70627h1.55797v39.70627c0,1.07541 0.38038,1.99318 1.14114,2.75332c0.76014,0.76014 1.67791,1.14021 2.75332,1.14021h260.08661c1.07541,0 1.99318,-0.38007 2.75332,-1.14021c0.76076,-0.76014 1.14114,-1.67791 1.14114,-2.75332l0,-39.70627h1.55797v39.70627c0,1.50532 -0.5321,2.79039 -1.59629,3.8552c-1.06482,1.06482 -2.3502,1.59722 -3.85614,1.59722h-260.08661c-1.50594,0 -2.79132,-0.53241 -3.85614,-1.59722c-1.06419,-1.06482 -1.59629,-2.34988 -1.59629,-3.8552zM139.50427,184.89808c0,-1.50532 0.5321,-2.79039 1.59629,-3.8552c1.06482,-1.06482 2.3502,-1.59722 3.85614,-1.59722h43.04594l0.52277,1.5589h-43.56871c-1.07541,0 -1.99318,0.38007 -2.75332,1.14021c-0.76076,0.76076 -1.14114,1.67853 -1.14114,2.75332v81.17893h-1.55797zM405.04331,179.44565c1.50594,0 2.79132,0.53241 3.85614,1.59722c1.06419,1.06482 1.59629,2.34988 1.59629,3.8552v81.17893h-1.55797v-81.17893c0,-1.07478 -0.38038,-1.99256 -1.14114,-2.75332c-0.76014,-0.76014 -1.67791,-1.14021 -2.75332,-1.14021l-44.65798,0l0.07924,-1.5589z" data-paper-data="{&quot;isLogoContainer&quot;:true}" fill-rule="nonzero"></path></g></g><g class="watermark-group" style="opacity:0.040000010281801224"><path class="watermark-path" d="M129.52,370.3a11.88,11.88,0,0,1,2.58,5.58,12,12,0,0,1,.11,3,11.81,11.81,0,0,1-.64,2.93,12.34,12.34,0,0,1-1.41,2.72,11.65,11.65,0,0,1-2.13,2.32,12,12,0,0,1-2.64,1.69,13,13,0,0,1-2.91.9,12.47,12.47,0,0,1-3,.12,12.17,12.17,0,0,1-2.93-.64,11.8,11.8,0,0,1-2.72-1.38,12.19,12.19,0,0,1-4-4.79,11.85,11.85,0,0,1-.89-2.92,12.14,12.14,0,0,1-.13-3,11.54,11.54,0,0,1,.64-2.92,11.67,11.67,0,0,1,3.5-5,11.44,11.44,0,0,1,2.67-1.69,11.64,11.64,0,0,1,2.92-.91,10.71,10.71,0,0,1,3-.12,11.68,11.68,0,0,1,5.66,2,11.7,11.7,0,0,1,2.34,2.12m-1.4,8.76a13,13,0,0,1-1.22,2.32,9.68,9.68,0,0,1-1.81,2,7.44,7.44,0,0,1-2.38,1.37,6.17,6.17,0,0,1-5.11-.46,8.73,8.73,0,0,1-3.85-4.58,6.69,6.69,0,0,1-.34-2.66,6.09,6.09,0,0,1,.77-2.47,7.15,7.15,0,0,1,1.75-2.11,9.58,9.58,0,0,1,1.09-.81,8.23,8.23,0,0,1,1.12-.63,8.14,8.14,0,0,1,1.19-.46,12.71,12.71,0,0,1,1.32-.37l2,2.38a12.83,12.83,0,0,0-1.56.17,7.86,7.86,0,0,0-1.23.32,4.5,4.5,0,0,0-1,.49,6.41,6.41,0,0,0-.93.67,4.49,4.49,0,0,0-1.15,1.39,3.87,3.87,0,0,0-.45,1.58,4.12,4.12,0,0,0,.26,1.63,6.11,6.11,0,0,0,2.36,2.82,4.43,4.43,0,0,0,1.57.53,3.91,3.91,0,0,0,1.62-.17,4.71,4.71,0,0,0,1.57-.89,10.5,10.5,0,0,0,.83-.79,5.71,5.71,0,0,0,.65-.93,10.13,10.13,0,0,0,.54-1.14,12.24,12.24,0,0,0,.44-1.49l2,2.33m-14.46,4.55a8.86,8.86,0,0,0,2.78,2.22,9,9,0,0,0,3.29.94,9.15,9.15,0,0,0,3.39-.37,8.68,8.68,0,0,0,3.11-1.69,8.8,8.8,0,0,0,2.22-2.78,9.15,9.15,0,0,0,1-3.29,8.95,8.95,0,0,0-4.83-8.76,9,9,0,0,0-6.73-.57,9,9,0,0,0-5.33,4.47,8.94,8.94,0,0,0-.57,6.71,8.76,8.76,0,0,0,1.7,3.12"></path><path class="watermark-path" d="M147,349c-.48.12-1.09.31-1.82.57a24.37,24.37,0,0,0-2.4,1A28.35,28.35,0,0,0,140,352a20.72,20.72,0,0,0-2.71,1.94c-.7.59-1.28,1.11-1.74,1.57a15.07,15.07,0,0,0-1.1,1.22,4.09,4.09,0,0,0-.59.92,2.32,2.32,0,0,0-.22.64,1.16,1.16,0,0,0,0,.47,1.83,1.83,0,0,0,.18.29,1.15,1.15,0,0,0,1,.37,5.54,5.54,0,0,0,1.51-.38q.87-.35,1.95-.9l2.26-1.18q1.2-.65,2.49-1.29c.87-.44,1.73-.83,2.59-1.17a18.94,18.94,0,0,1,2.6-.81,9.27,9.27,0,0,1,2.46-.29,6.25,6.25,0,0,1,2.24.49,5.12,5.12,0,0,1,1.89,1.47,6.35,6.35,0,0,1,1.41,2.61,6,6,0,0,1,.09,2.6,8.3,8.3,0,0,1-.9,2.52,17.79,17.79,0,0,1-1.62,2.37,23.92,23.92,0,0,1-2,2.15c-.72.67-1.41,1.29-2.09,1.87a33.79,33.79,0,0,1-5.33,3.7,32.29,32.29,0,0,1-4.91,2.28l-3.61-4.3a21.38,21.38,0,0,0,5.39-1.87,27.2,27.2,0,0,0,5.4-3.56,21.59,21.59,0,0,0,2.38-2.27,8.67,8.67,0,0,0,1.18-1.7,2.32,2.32,0,0,0,.27-1.19,1.34,1.34,0,0,0-.28-.74,1.21,1.21,0,0,0-1-.42,4.32,4.32,0,0,0-1.55.34,15.77,15.77,0,0,0-2,.88c-.72.37-1.48.77-2.27,1.21l-2.45,1.3c-.85.45-1.7.85-2.56,1.21a22.37,22.37,0,0,1-2.54.86,10,10,0,0,1-2.43.32,5.76,5.76,0,0,1-2.2-.45,5,5,0,0,1-1.89-1.45,6.12,6.12,0,0,1-1.31-2.41,6,6,0,0,1-.1-2.41,8.28,8.28,0,0,1,.81-2.38,14.06,14.06,0,0,1,1.49-2.24,22.37,22.37,0,0,1,1.85-2.05q1-1,2-1.77c.7-.59,1.44-1.15,2.23-1.7s1.62-1.06,2.44-1.53,1.63-.91,2.43-1.3,1.58-.75,2.3-1L147,349"></path><path class="watermark-path" d="M186.76,337.57l-10.6-12.63,3.92,18.24-4.66,3.91-17.27-7,10.6,12.63-4.86,4.07-15.09-18,6.59-5.54,18.69,7.52-4.15-19.71,6.57-5.52,15.09,18-4.83,4.05"></path><path class="watermark-path" d="M208.84,313.24l-10,8.42,1.16,4.82L194.56,331l-5.68-25.89,5.42-4.55,24.51,10.09-5.42,4.55-4.55-2m-11.23,3.45,6.57-5.52-8.83-3.87,2.26,9.39"></path><path class="watermark-path" d="M227.49,281.38c-.48.12-1.09.31-1.82.57a24.37,24.37,0,0,0-2.4,1,26.11,26.11,0,0,0-2.7,1.47,20.72,20.72,0,0,0-2.71,1.94c-.7.59-1.28,1.11-1.74,1.57a13.39,13.39,0,0,0-1.1,1.22,4.29,4.29,0,0,0-.59.91,2.48,2.48,0,0,0-.22.65,1.16,1.16,0,0,0,0,.47,1.83,1.83,0,0,0,.18.29,1.15,1.15,0,0,0,1,.37,5.54,5.54,0,0,0,1.51-.38q.87-.34,2-.9l2.26-1.18q1.2-.64,2.49-1.29c.87-.44,1.73-.83,2.59-1.17a18.94,18.94,0,0,1,2.6-.81,9.27,9.27,0,0,1,2.46-.29,6.08,6.08,0,0,1,2.24.49,5.09,5.09,0,0,1,1.89,1.46,6.47,6.47,0,0,1,1.41,2.61,6.07,6.07,0,0,1,.09,2.61,8.3,8.3,0,0,1-.9,2.52,16.32,16.32,0,0,1-1.63,2.36,21.41,21.41,0,0,1-2,2.16c-.72.67-1.41,1.29-2.1,1.86a33.36,33.36,0,0,1-5.32,3.71,31.92,31.92,0,0,1-4.92,2.28l-3.6-4.3a21.38,21.38,0,0,0,5.39-1.87,27.2,27.2,0,0,0,5.4-3.56,21.59,21.59,0,0,0,2.38-2.27,8.67,8.67,0,0,0,1.18-1.7A2.32,2.32,0,0,0,231,293a1.34,1.34,0,0,0-.28-.74,1.21,1.21,0,0,0-1-.42,4.32,4.32,0,0,0-1.55.34,16.54,16.54,0,0,0-2,.88c-.71.37-1.47.77-2.26,1.21l-2.46,1.3c-.84.44-1.7.85-2.55,1.21a24.53,24.53,0,0,1-2.54.86A10,10,0,0,1,214,298a5.76,5.76,0,0,1-2.2-.45,5,5,0,0,1-1.89-1.45,6.12,6.12,0,0,1-1.31-2.41,5.78,5.78,0,0,1-.1-2.41,8,8,0,0,1,.81-2.38,14.61,14.61,0,0,1,1.49-2.25,22.26,22.26,0,0,1,1.85-2q1-1,2-1.77c.7-.59,1.44-1.15,2.23-1.7s1.62-1.06,2.44-1.53,1.63-.91,2.43-1.31,1.58-.74,2.3-1l3.5,4.16"></path><path class="watermark-path" d="M261.64,274.74l-6.29-7.5L243,277.61l6.3,7.5-4.86,4.07-15.09-18,4.85-4.08,5.49,6.55L252,263.3l-5.49-6.55,4.86-4.07,15.09,18-4.86,4.08"></path><path class="watermark-path" d="M272.18,265.9l-15.09-18,4.86-4.08,15.09,18-4.86,4.08"></path><path class="watermark-path" d="M299.65,242.85l-22.51-2.18L287.51,253l-4.85,4.08-15.1-18,5.28-4.43,22.56,2.22L285,224.5l4.83-4.06,15.09,18-5.26,4.42"></path><path class="watermark-path" d="M306.68,205.52a31.88,31.88,0,0,1,5.29-3.66,34.48,34.48,0,0,1,5.14-2.35l3.69,4.39a20.77,20.77,0,0,0-2.37.61,20.47,20.47,0,0,0-2.61,1,25.12,25.12,0,0,0-2.76,1.49,23.9,23.9,0,0,0-2.8,2,20.42,20.42,0,0,0-2.8,2.77,12.77,12.77,0,0,0-1.64,2.52,7,7,0,0,0-.68,2.24,6,6,0,0,0,.66,3.64,8.16,8.16,0,0,0,.94,1.38,9.12,9.12,0,0,0,1.08,1.07,6.39,6.39,0,0,0,1.47.91,6.73,6.73,0,0,0,1.88.48,6.54,6.54,0,0,0,2.28-.18,11.67,11.67,0,0,0,2.74-1.07,19.38,19.38,0,0,0,3.18-2.22c.57-.48,1.06-.92,1.46-1.31a14.57,14.57,0,0,0,1-1.13,11.46,11.46,0,0,0,.81-1.05l.74-1.09-1.82-2.17-5.45,4.57-3.31-3.94,10.31-8.65,7.71,9.19a29,29,0,0,1-1.67,2.43q-1,1.26-2.1,2.52c-.74.84-1.5,1.65-2.3,2.44s-1.58,1.5-2.33,2.14a31,31,0,0,1-3.59,2.61,22.55,22.55,0,0,1-3.64,1.83,15.64,15.64,0,0,1-3.63.89,10.72,10.72,0,0,1-3.49-.15,10.45,10.45,0,0,1-3.28-1.33,12.54,12.54,0,0,1-3-2.67,12,12,0,0,1-2.08-3.44,10.45,10.45,0,0,1-.71-3.5,11.14,11.14,0,0,1,.51-3.51,15.72,15.72,0,0,1,1.56-3.43,21.62,21.62,0,0,1,2.42-3.28,30.3,30.3,0,0,1,3.15-3"></path><path class="watermark-path" d="M336.91,211.59l-15.1-18,4.86-4.08,11.79,14,13.13-11,3.31,3.94-18,15.1"></path><path class="watermark-path" d="M374.54,164.71a12.28,12.28,0,0,1,2.59,4.81,10.44,10.44,0,0,1,0,5,14.62,14.62,0,0,1-2.33,5,25.55,25.55,0,0,1-4.56,4.85,26.07,26.07,0,0,1-5.6,3.67,14.79,14.79,0,0,1-5.38,1.43,10.43,10.43,0,0,1-4.94-.89,13.24,13.24,0,0,1-6.87-8.18,10.48,10.48,0,0,1,0-5,14.51,14.51,0,0,1,2.36-5,25.23,25.23,0,0,1,4.57-4.89,25,25,0,0,1,5.59-3.64,14.45,14.45,0,0,1,5.35-1.43,10.31,10.31,0,0,1,4.93.92,12.22,12.22,0,0,1,4.28,3.38m-4.91,4.11a8.36,8.36,0,0,0-2-1.72,5.5,5.5,0,0,0-2.65-.85,7.72,7.72,0,0,0-3.32.57,14.49,14.49,0,0,0-4,2.52,16.72,16.72,0,0,0-2.38,2.4,10.15,10.15,0,0,0-1.39,2.24,6.71,6.71,0,0,0-.56,2.1,5.69,5.69,0,0,0,.1,1.9,6.21,6.21,0,0,0,.61,1.69,9.85,9.85,0,0,0,1,1.44,10.48,10.48,0,0,0,1.26,1.23,6.67,6.67,0,0,0,1.57.92,6.1,6.1,0,0,0,1.85.41,6.8,6.8,0,0,0,2.15-.2,11.06,11.06,0,0,0,2.45-1,17.67,17.67,0,0,0,2.77-1.94,14.39,14.39,0,0,0,3.18-3.52,7.74,7.74,0,0,0,1.14-3.17,5.54,5.54,0,0,0-.37-2.74,8.52,8.52,0,0,0-1.36-2.3"></path><path class="watermark-path" d="M382.66,141.76A32.3,32.3,0,0,1,388,138.1a34.12,34.12,0,0,1,5.15-2.35l3.69,4.4a19.62,19.62,0,0,0-2.37.6,22.08,22.08,0,0,0-2.61,1,26,26,0,0,0-2.77,1.49,23.9,23.9,0,0,0-2.8,2,21,21,0,0,0-2.8,2.78,13.19,13.19,0,0,0-1.64,2.51,7.29,7.29,0,0,0-.68,2.24,6.36,6.36,0,0,0,.06,2,5.8,5.8,0,0,0,.61,1.68,8.12,8.12,0,0,0,.93,1.38,9.16,9.16,0,0,0,1.08,1.08,6.56,6.56,0,0,0,1.48.9,6,6,0,0,0,1.87.48,6.76,6.76,0,0,0,2.28-.17,12,12,0,0,0,2.74-1.08,18.57,18.57,0,0,0,3.18-2.22c.58-.48,1.06-.92,1.46-1.31s.75-.77,1.05-1.12.57-.72.81-1.06l.73-1.09-1.82-2.17-5.45,4.57-3.3-3.94,10.3-8.65,7.71,9.19a29,29,0,0,1-1.67,2.43q-1,1.26-2.1,2.52c-.73.84-1.5,1.66-2.3,2.44s-1.57,1.5-2.33,2.14a31,31,0,0,1-3.59,2.61,22.15,22.15,0,0,1-3.64,1.83,15.56,15.56,0,0,1-3.62.89,11,11,0,0,1-3.49-.14,10.84,10.84,0,0,1-3.28-1.33,12.82,12.82,0,0,1-3-2.68,12.12,12.12,0,0,1-2.08-3.43A10.71,10.71,0,0,1,375,155a11.18,11.18,0,0,1,.51-3.51,15.51,15.51,0,0,1,1.57-3.43,21.44,21.44,0,0,1,2.42-3.28,30.19,30.19,0,0,1,3.14-3"></path><path class="watermark-path" d="M428.63,119.31a12.26,12.26,0,0,1,2.59,4.82,10.44,10.44,0,0,1,0,5,14.53,14.53,0,0,1-2.34,5,25.29,25.29,0,0,1-4.56,4.86,26,26,0,0,1-5.59,3.67,14.84,14.84,0,0,1-5.38,1.43,10.61,10.61,0,0,1-4.95-.89,12.15,12.15,0,0,1-4.3-3.37,12,12,0,0,1-2.56-4.81,10.48,10.48,0,0,1,0-5,14.39,14.39,0,0,1,2.35-5,27.89,27.89,0,0,1,10.16-8.53,14.49,14.49,0,0,1,5.36-1.43,10.27,10.27,0,0,1,4.92.92,12.21,12.21,0,0,1,4.28,3.37m-4.91,4.12a8.17,8.17,0,0,0-2-1.72,5.58,5.58,0,0,0-2.65-.86,7.86,7.86,0,0,0-3.31.58,14.49,14.49,0,0,0-4,2.52,16.21,16.21,0,0,0-2.38,2.4,9.85,9.85,0,0,0-1.4,2.24,7,7,0,0,0-.56,2.1,6,6,0,0,0,.1,1.9,6.23,6.23,0,0,0,.62,1.69,8.49,8.49,0,0,0,1,1.44,9.18,9.18,0,0,0,1.26,1.23,6.67,6.67,0,0,0,1.57.92,6,6,0,0,0,1.84.41,6.86,6.86,0,0,0,2.16-.2,11.26,11.26,0,0,0,2.45-1,17.62,17.62,0,0,0,2.76-1.94,14.67,14.67,0,0,0,3.19-3.52,7.71,7.71,0,0,0,1.13-3.17,5.53,5.53,0,0,0-.36-2.74,8.55,8.55,0,0,0-1.37-2.3"></path></g></svg>