<svg xmlns:mydata="http://www.w3.org/2000/svg" mydata:contrastcolor="ffffff" mydata:template="SingleColorHex1" mydata:presentation="2.5" mydata:layouttype="undefined" mydata:specialfontid="undefined" mydata:id1="008" mydata:id2="027" mydata:companyname="Dagracemarket" mydata:companytagline="trust" version="1.1" xmlns="http://www.w3.org/2000/svg" xmlns:xlink="http://www.w3.org/1999/xlink" viewBox="0 0 550 470"><g fill="#00558c" fill-rule="none" stroke="none" stroke-width="1" stroke-linecap="butt" stroke-linejoin="miter" stroke-miterlimit="10" stroke-dasharray="" stroke-dashoffset="0" font-family="none" font-weight="none" font-size="none" text-anchor="none" style="mix-blend-mode: normal"><g data-paper-data="{&quot;isGlobalGroup&quot;:true,&quot;bounds&quot;:{&quot;x&quot;:180.42599280367415,&quot;y&quot;:105.99999999999999,&quot;width&quot;:189.1480143926517,&quot;height&quot;:258}}"><g data-paper-data="{&quot;fillRule&quot;:&quot;evenodd&quot;,&quot;fillRuleOriginal&quot;:&quot;evenodd&quot;,&quot;isIcon&quot;:true,&quot;iconStyle&quot;:&quot;standalone&quot;,&quot;selectedEffects&quot;:{&quot;container&quot;:&quot;&quot;,&quot;transformation&quot;:&quot;&quot;,&quot;pattern&quot;:&quot;&quot;},&quot;bounds&quot;:{&quot;x&quot;:231.4218147080711,&quot;y&quot;:198.95260748637216,&quot;width&quot;:87.46920815259932,&quot;height&quot;:62.441267506301045},&quot;iconType&quot;:&quot;icon&quot;,&quot;rawIconId&quot;:&quot;101810&quot;,&quot;combineTerms&quot;:&quot;store&quot;,&quot;isDetailed&quot;:false,&quot;suitableAsStandaloneIcon&quot;:true}" fill-rule="evenodd"><path d="M318.89102,216.52937c0,2.40354 -1.95569,4.35923 -4.36021,4.35923c-0.87615,0 -1.69265,-0.2562 -2.37616,-0.70307v36.62812h6.15162v4.58022h-86.55003v-4.58022h5.98441v-36.39735c-0.59062,0.29922 -1.25458,0.4723 -1.96058,0.4723c-2.02414,0 -3.73928,-1.36801 -4.21549,-3.30512l-0.14277,-0.46154v-4.95083h0.45665l5.86316,-9.31104v-3.90747h74.41302v3.74319l6.5144,9.47532h0.13494v0.19655l0.01271,0.72654h-0.01271v2.58249c0.05867,0.28749 0.08703,0.57399 0.08703,0.85268zM311.22961,199.87472h-72.56587v2.31945h72.56587zM258.09254,203.11627l0.17308,0.04889l-2.52773,9.00595h7.27223l-0.06943,-0.01173l1.50686,-9.04311zM310.86585,212.17112h1.2888l5.39966,-0.00098l-5.39673,-7.84818l-0.46154,-0.6708l-0.36865,-0.53488h-4.87358l4.63303,8.94044zM238.66471,203.12703l-0.92308,1.46481l-4.77286,7.57928h6.47627l-0.22002,-0.11148l4.55285,-8.94239h-5.10728zM250.67069,203.11725h-6.39413l0.21904,0.11148l-4.55285,8.94239h7.39153l-0.2073,-0.08214zM257.56059,203.11725h-6.38533l0.20828,0.08116l-3.54371,8.97271h7.36611l-0.17308,-0.04889zM265.07533,203.11725l0.07138,0.01173l-1.5049,9.04213h7.21258l0.47523,-9.05387zM278.20583,203.11725h-6.18487l-0.47621,9.05387h7.21943zM278.89814,203.11725l0.55933,9.05387l7.21356,0.00098l-1.59096,-9.0392l0.08801,-0.01564zM292.13914,203.11725h-6.3599l1.59193,9.04017l-0.08507,0.01467h7.28592l-2.61085,-9.00302zM299.05446,203.11725h-6.38631l2.61085,9.00302l-0.17797,0.05085h7.36806l-3.62487,-8.9688zM302.97367,212.17112h7.39251l-4.63401,-8.93946l0.22099,-0.11441h-6.39511l3.62487,8.96977zM232.3449,213.0942v3.78035l0.05378,0.17503c0.25913,1.68972 1.68189,2.91496 3.38139,2.91496c0.73045,0 1.40223,-0.23664 1.96058,-0.62973c0.16624,-0.11636 0.31878,-0.24642 0.46154,-0.39016c0.17405,-0.17503 0.32856,-0.36767 0.46154,-0.57888c0.24544,-0.39016 0.42438,-0.83019 0.49968,-1.3152l0.06062,-0.39114h0.99056l0.05965,0.39114c0.25913,1.68972 1.68189,2.91496 3.38139,2.91496c1.70047,0 3.12422,-1.22524 3.38334,-2.91496l0.06062,-0.39114h0.99056l0.05965,0.39114c0.25913,1.68972 1.68189,2.91496 3.38139,2.91496c1.6995,0 3.12128,-1.22524 3.38139,-2.91496l0.05965,-0.39114h0.98567l0.06062,0.39114c0.25913,1.68972 1.68189,2.91496 3.38236,2.91496c1.70047,0 3.12324,-1.22524 3.38236,-2.91496l0.06062,-0.39114h0.98664l0.06062,0.39114c0.26011,1.68874 1.68287,2.91496 3.38139,2.91496c1.70047,0 3.12226,-1.22524 3.38236,-2.91496l0.06062,-0.39114h0.99153l0.06062,0.39114c0.25913,1.68874 1.68092,2.91398 3.38139,2.91398c1.70047,0 3.12324,-1.22524 3.38236,-2.91496l0.06062,-0.39114h0.99153l0.06062,0.39114c0.26108,1.68972 1.68385,2.91496 3.38236,2.91496c1.6995,0 3.12128,-1.22524 3.38139,-2.91496l0.06062,-0.39114h0.99056l0.06062,0.39114c0.26108,1.68972 1.68385,2.91496 3.38236,2.91496c1.6995,0 3.12128,-1.22524 3.38041,-2.91398l0.06062,-0.39114h0.99447l0.06062,0.39114c0.26011,1.68972 1.68189,2.91496 3.38139,2.91496c1.6995,0 3.12226,-1.22524 3.38139,-2.91398l0.06062,-0.39114h0.98664l0.06062,0.39114c0.26108,1.68972 1.68385,2.91496 3.38334,2.91496c1.6995,0 3.12226,-1.22524 3.38236,-2.91496l0.06062,-0.39114h0.99056l0.06062,0.39114c0.01956,0.11539 0.05378,0.22393 0.08214,0.33442c0.09876,0.38234 0.25424,0.73436 0.46252,1.04923c0.13592,0.20339 0.28944,0.39016 0.46252,0.55933c0.618,0.60137 1.4521,0.97198 2.37616,0.97198c1.89604,0 3.4381,-1.54206 3.4381,-3.43712c0,-0.23077 -0.02542,-0.47034 -0.07529,-0.71187l-0.01075,-0.09387v-2.62942zM262.31096,256.81365h48.91181v-37.44266c-0.25228,-0.29824 -0.46936,-0.62973 -0.63755,-0.99251c-0.69525,1.50588 -2.20406,2.51013 -3.93681,2.51013c-1.7347,0 -3.24156,-1.00327 -3.93681,-2.50915c-0.69622,1.50588 -2.20211,2.50915 -3.93778,2.50915c-1.73372,0 -3.24058,-1.00425 -3.93583,-2.51111c-0.69525,1.50686 -2.20211,2.51111 -3.93778,2.51111c-1.73274,0 -3.2396,-1.00327 -3.93485,-2.51013c-0.69818,1.50686 -2.20211,2.51013 -3.93681,2.51013c-1.73372,0 -3.24058,-1.00425 -3.93583,-2.51013c-0.6972,1.50588 -2.20406,2.51013 -3.93876,2.51013c-1.7347,0 -3.24156,-1.00327 -3.93681,-2.50915c-0.69622,1.50588 -2.20406,2.50915 -3.93778,2.50915c-1.73372,0 -3.24058,-1.00327 -3.93681,-2.50915c-0.69622,1.50588 -2.20308,2.50915 -3.93778,2.50915c-1.7347,0 -3.24156,-1.00327 -3.93778,-2.50915c-0.69622,1.50588 -2.20211,2.50915 -3.93681,2.50915c-1.7347,0 -3.24058,-1.00327 -3.93681,-2.50915c-0.6972,1.50588 -2.20406,2.50915 -3.93876,2.50915c-1.7347,0 -3.24156,-1.00327 -3.93681,-2.50915c-0.25326,0.54662 -0.61507,1.02478 -1.05412,1.41494v37.01925h6.19074v-33.62418h17.45649zM265.42637,222.72891v29.02146h41.74224v-29.02146zM266.34848,223.65102h19.44347v24.01783h-19.44347zM306.24455,247.66982h-19.52952v-24.0188h19.52952zM302.38793,239.31022l0.65124,-0.65124l-11.72143,-11.72143l-0.3266,0.3266l-0.3266,0.32562zM302.29797,236.07454l0.3266,-0.3266l-8.39676,-8.39578l-0.65222,0.65222l8.39676,8.3948zM269.99487,232.30006l-0.65222,0.65222l11.71947,11.72045l0.6532,-0.6532zM270.00757,235.61006l8.39578,8.39578l0.65124,-0.65124l-8.3948,-8.39578zM306.24455,250.82826h-39.89607v-2.23633h39.89607zM232.67932,260.47079h84.70484v-2.73503h-84.70484z" data-paper-data="{&quot;isPathIcon&quot;:true}"></path></g><g data-paper-data="{&quot;isPrimaryText&quot;:true}" fill-rule="nonzero"><path d="M211.28379,178.02912c0.5979,-1.29411 0.65045,-2.61076 0.15766,-3.94996c-0.24926,-0.67738 -0.59392,-1.25668 -1.03399,-1.73787c-0.44007,-0.4812 -0.99028,-0.87435 -1.65065,-1.17945c-1.28878,-0.59544 -2.60666,-0.64533 -3.95365,-0.14967c-1.34698,0.49566 -2.31819,1.38787 -2.91363,2.67666l-0.74553,1.61364l9.39426,4.3403zM200.196,172.90638c0.81196,-1.75743 2.1328,-2.97279 3.96252,-3.64608c0.91875,-0.33808 1.82155,-0.49127 2.7084,-0.45958c0.88685,0.03169 1.77762,0.25422 2.67231,0.66758c1.76276,0.81442 2.98078,2.13649 3.65407,3.96621c0.67042,1.82193 0.59843,3.61427 -0.216,5.37703l-1.13674,2.4604c-0.05413,0.11716 -0.12782,0.21721 -0.22107,0.30014c-0.09325,0.08293 -0.19499,0.14579 -0.30522,0.18856c-0.11023,0.04277 -0.22773,0.0628 -0.3525,0.06009c-0.12476,-0.00271 -0.24572,-0.03113 -0.36289,-0.08526l-11.08778,-5.12273c-0.11716,-0.05413 -0.21721,-0.12782 -0.30014,-0.22107c-0.08293,-0.09325 -0.14384,-0.1957 -0.18272,-0.30737c-0.03888,-0.11167 -0.05696,-0.22988 -0.05425,-0.35464c0.00271,-0.12476 0.03113,-0.24572 0.08526,-0.36289z" data-paper-data="{&quot;glyphName&quot;:&quot;D&quot;,&quot;glyphIndex&quot;:0,&quot;firstGlyphOfWord&quot;:true,&quot;word&quot;:1}"></path><path d="M215.63801,161.67845l-4.07189,-1.17262l2.21838,3.61028zM215.51798,170.53034l-6.78036,-11.05869c-0.2226,-0.40509 -0.2114,-0.76875 0.0336,-1.09096c0.25211,-0.33156 0.59953,-0.43956 1.04229,-0.324l12.51438,3.59024c0.1218,0.03366 0.23641,0.09132 0.34381,0.17299c0.20547,0.15623 0.32555,0.36177 0.36025,0.61661c0.03469,0.25484 -0.02608,0.485 -0.18232,0.69047c-0.15623,0.20547 -0.36,0.32322 -0.61128,0.35324c-0.13153,0.0179 -0.25353,0.01358 -0.36599,-0.01298l-4.3126,-1.23405l-2.727,3.58644l2.33659,3.83281c0.05565,0.10127 0.09243,0.21767 0.11033,0.3492c0.03469,0.25484 -0.02608,0.485 -0.18232,0.69047c-0.15623,0.20547 -0.36088,0.32439 -0.61395,0.35674c-0.25306,0.03236 -0.48233,-0.02958 -0.6878,-0.18582c-0.11208,-0.08522 -0.20462,-0.19612 -0.27764,-0.33271z" data-paper-data="{&quot;glyphName&quot;:&quot;A&quot;,&quot;glyphIndex&quot;:1,&quot;word&quot;:1}"></path><path d="M231.62513,152.2103c0.16102,0.18649 0.23345,0.41849 0.21727,0.69598c-0.30775,1.64534 -1.08327,3.00476 -2.32656,4.07826c-1.47419,1.27286 -3.17937,1.83834 -5.11554,1.69645c-1.93617,-0.1419 -3.54069,-0.94994 -4.81355,-2.42413c-1.26903,-1.46975 -1.83259,-3.17271 -1.6907,-5.10888c0.1425,-1.94445 0.94863,-3.55118 2.41837,-4.82021c1.26105,-1.08883 2.75847,-1.65707 4.49224,-1.70469c0.22401,0.0081 0.42611,0.1165 0.60631,0.32519c0.08818,0.10213 0.15093,0.21071 0.18825,0.32575c0.03732,0.11504 0.05159,0.23254 0.04279,0.35252c-0.00879,0.11998 -0.04115,0.23511 -0.09706,0.34539c-0.05591,0.11028 -0.13272,0.2076 -0.2304,0.29195c-0.18205,0.15719 -0.40163,0.23052 -0.65874,0.22c-0.5675,0.02496 -1.11574,0.1418 -1.64471,0.35051c-0.52897,0.20871 -1.02214,0.51052 -1.47949,0.90541c-1.08344,0.93548 -1.67761,2.11894 -1.78252,3.55038c-0.10369,1.4149 0.3122,2.66406 1.24767,3.7475c0.93931,1.08788 2.11641,1.68366 3.53131,1.78736c1.42317,0.1043 2.67869,-0.3132 3.76657,-1.25252c0.8037,-0.69394 1.34092,-1.52595 1.61166,-2.49603l-1.78277,-2.06475l-1.83829,1.58724c-0.19981,0.17253 -0.4259,0.24954 -0.67827,0.23105c-0.25236,-0.0185 -0.46481,-0.12765 -0.63734,-0.32746c-0.08435,-0.09769 -0.14614,-0.20516 -0.18538,-0.32242c-0.03924,-0.11726 -0.05446,-0.23587 -0.04567,-0.35585c0.00879,-0.11998 0.04004,-0.23415 0.09373,-0.34252c0.05369,-0.10837 0.13161,-0.20664 0.23373,-0.29482l2.55096,-2.20259c0.09325,-0.08051 0.19835,-0.13832 0.3153,-0.17342c0.11695,-0.0351 0.23542,-0.04826 0.3554,-0.03946c0.11998,0.00879 0.23622,0.04019 0.34872,0.09419c0.1125,0.054 0.20901,0.12762 0.28952,0.22087z" data-paper-data="{&quot;glyphName&quot;:&quot;G&quot;,&quot;glyphIndex&quot;:2,&quot;word&quot;:1}"></path><path d="M230.22007,141.29408l2.45412,4.26312l2.13537,-1.22926c0.29488,-0.16975 0.53978,-0.38519 0.73468,-0.64631c0.19491,-0.26112 0.33135,-0.54443 0.40932,-0.84993c0.07798,-0.3055 0.09899,-0.61882 0.06304,-0.93996c-0.03595,-0.32114 -0.13734,-0.62661 -0.30417,-0.91641c-0.16975,-0.29488 -0.38519,-0.53978 -0.64631,-0.73468c-0.26112,-0.19491 -0.54389,-0.33335 -0.84831,-0.41533c-0.30442,-0.08198 -0.61847,-0.10427 -0.94215,-0.06685c-0.32368,0.03741 -0.63043,0.13953 -0.92023,0.30636zM234.23152,152.00175l-6.0936,-10.58534c-0.06439,-0.11185 -0.10478,-0.22906 -0.12118,-0.35161c-0.0164,-0.12256 -0.00896,-0.24191 0.02233,-0.35807c0.03128,-0.11616 0.08352,-0.22238 0.1567,-0.31866c0.07319,-0.09628 0.16825,-0.17808 0.28518,-0.2454l2.94376,-1.69462c0.51351,-0.29561 1.05485,-0.47524 1.62403,-0.53891c0.56918,-0.06366 1.12087,-0.02249 1.65507,0.12352c0.5342,0.14601 1.03141,0.38946 1.49164,0.73035c0.46023,0.34089 0.83815,0.76809 1.13376,1.2816c0.19317,0.33556 0.33927,0.68637 0.43831,1.05242c0.09904,0.36606 0.14715,0.73773 0.14435,1.11503c-0.0028,0.37729 -0.05798,0.75767 -0.16554,1.14112c-0.10756,0.38345 -0.27135,0.76035 -0.49138,1.1307l4.67619,2.49658c0.16838,0.0926 0.29648,0.21517 0.38428,0.36769c0.06732,0.11694 0.10844,0.23541 0.12338,0.35543c0.01494,0.12001 0.00676,0.2381 -0.02452,0.35426c-0.03128,0.11616 -0.08479,0.22311 -0.16052,0.32086c-0.07573,0.09775 -0.16952,0.17881 -0.28137,0.2432c-0.28472,0.1639 -0.59214,0.16488 -0.92229,0.00294l-5.17256,-2.75913l-2.27264,1.30828l2.24339,3.89705c0.12878,0.22371 0.15973,0.45973 0.09285,0.70807c-0.06688,0.24834 -0.21217,0.4369 -0.43588,0.56568c-0.22371,0.12878 -0.45973,0.15973 -0.70807,0.09285c-0.24834,-0.06688 -0.4369,-0.21217 -0.56568,-0.43588z" data-paper-data="{&quot;glyphName&quot;:&quot;R&quot;,&quot;glyphIndex&quot;:3,&quot;word&quot;:1}"></path><path d="M249.02262,138.67063l-2.78472,-3.19384l-0.09467,4.23631zM244.12023,146.042l0.30242,-12.96829c0.03273,-0.46106 0.23939,-0.76049 0.62,-0.89829c0.39164,-0.14179 0.7421,-0.04407 1.05137,0.29318l8.56587,9.80436c0.08407,0.09435 0.14907,0.20495 0.195,0.33182c0.08787,0.24271 0.07726,0.48051 -0.03183,0.71342c-0.10909,0.23291 -0.28499,0.3933 -0.5277,0.48117c-0.24271,0.08787 -0.47776,0.07626 -0.70515,-0.03482c-0.12021,-0.0563 -0.22035,-0.12611 -0.30043,-0.20943l-2.95362,-3.37602l-4.23635,1.53375l-0.11607,4.48739c-0.00818,0.11527 -0.04042,0.233 -0.09673,0.35321c-0.10909,0.23291 -0.28499,0.3933 -0.5277,0.48117c-0.24271,0.08787 -0.47914,0.07676 -0.70929,-0.03333c-0.23015,-0.11009 -0.38916,-0.28649 -0.47703,-0.52919c-0.04793,-0.13239 -0.06552,-0.27576 -0.05277,-0.43011z" data-paper-data="{&quot;glyphName&quot;:&quot;A&quot;,&quot;glyphIndex&quot;:4,&quot;word&quot;:1}"></path><path d="M266.5947,138.19001c0.1272,-0.02186 0.24995,-0.01765 0.36824,0.01262c0.1183,0.03027 0.22632,0.07867 0.32406,0.14521c0.09774,0.06654 0.18087,0.15196 0.24939,0.25626c0.06852,0.1043 0.1137,0.22005 0.13556,0.34725c0.04172,0.24283 -0.01592,0.47893 -0.17295,0.70829c-1.1125,1.25068 -2.47819,2.0151 -4.09708,2.29326c-1.91954,0.32982 -3.672,-0.06551 -5.25739,-1.18598c-1.58539,-1.12047 -2.54299,-2.64047 -2.87281,-4.56001c-0.32882,-1.91376 0.067,-3.66333 1.18747,-5.24872c1.12525,-1.59216 2.64476,-2.55266 4.55852,-2.88148c1.64201,-0.28213 3.21792,0.00365 4.7277,0.85734c0.18871,0.12829 0.30592,0.32542 0.35161,0.59138c0.02285,0.13298 0.02058,0.25837 -0.0068,0.37617c-0.02738,0.1178 -0.07578,0.22582 -0.14521,0.32406c-0.06943,0.09824 -0.15654,0.18017 -0.26134,0.2458c-0.1048,0.06563 -0.22079,0.10937 -0.34799,0.13122c-0.22549,0.03874 -0.45142,-0.01172 -0.6778,-0.1514c-0.49902,-0.2714 -1.02894,-0.45417 -1.58975,-0.54828c-0.56082,-0.09412 -1.13899,-0.09002 -1.73451,0.01231c-1.41074,0.24239 -2.53031,0.94964 -3.35869,2.12175c-0.8188,1.15855 -1.10701,2.4432 -0.86461,3.85395c0.24339,1.41653 0.94436,2.53419 2.10291,3.35299c1.16533,0.82359 2.45625,1.11369 3.87278,0.8703c1.20838,-0.20763 2.20815,-0.76334 2.99929,-1.66714c0.13244,-0.1299 0.30224,-0.21562 0.50939,-0.25717z" data-paper-data="{&quot;glyphName&quot;:&quot;C&quot;,&quot;glyphIndex&quot;:5,&quot;word&quot;:1}"></path><path d="M279.03987,139.14136c0.25812,-0.00011 0.47816,0.09073 0.66009,0.27251c0.18194,0.18178 0.27296,0.40174 0.27307,0.65986c0.00011,0.25812 -0.09073,0.47816 -0.27251,0.66009c-0.18178,0.18194 -0.40174,0.27296 -0.65986,0.27307l-8.13972,0.00345c-0.13493,0.00006 -0.25813,-0.02336 -0.36962,-0.07024c-0.11148,-0.04688 -0.20977,-0.11284 -0.29487,-0.19787c-0.0851,-0.08503 -0.15114,-0.18326 -0.19812,-0.29471c-0.04698,-0.11144 -0.0705,-0.23463 -0.07055,-0.36956l-0.00518,-12.21398c-0.00005,-0.12906 0.02336,-0.2508 0.07024,-0.36522c0.04688,-0.11442 0.11284,-0.21417 0.19787,-0.29927c0.08503,-0.0851 0.18326,-0.15114 0.29471,-0.19812c0.11144,-0.04698 0.23463,-0.0705 0.36956,-0.07055l8.13972,-0.00345c0.25812,-0.00011 0.47816,0.09073 0.66009,0.27251c0.18194,0.18178 0.27296,0.40174 0.27307,0.65986c0.00011,0.25812 -0.09073,0.47816 -0.27251,0.66009c-0.18178,0.18194 -0.40174,0.27296 -0.65986,0.27307l-7.20695,0.00306l0.0018,4.24145l5.17422,-0.00219c0.25812,-0.00011 0.47816,0.09073 0.66009,0.27251c0.18194,0.18178 0.27296,0.40174 0.27307,0.65986c0.00011,0.25812 -0.09073,0.47816 -0.27251,0.66009c-0.18178,0.18194 -0.40174,0.27296 -0.65986,0.27307l-5.17422,0.00219l0.0018,4.24145z" data-paper-data="{&quot;glyphName&quot;:&quot;E&quot;,&quot;glyphIndex&quot;:6,&quot;word&quot;:1}"></path><path d="M282.00427,140.21905l2.24207,-12.00643c0.02369,-0.12687 0.0691,-0.24222 0.13624,-0.34606c0.06713,-0.10384 0.15032,-0.18976 0.24955,-0.25776c0.09923,-0.068 0.20794,-0.11484 0.32613,-0.14052c0.11818,-0.02567 0.24359,-0.02613 0.37623,-0.00136c0.35754,0.06677 0.59789,0.28173 0.72104,0.6449l3.25332,11.34075l7.12688,-9.40235c0.26899,-0.28994 0.57072,-0.40368 0.90519,-0.34122c0.12687,0.02369 0.24222,0.0691 0.34606,0.13624c0.10384,0.06713 0.18976,0.15032 0.25776,0.24955c0.068,0.09923 0.11457,0.20938 0.13971,0.33045c0.02513,0.12107 0.02586,0.24504 0.00217,0.3719l-2.24207,12.00643c-0.04738,0.25374 -0.17715,0.4533 -0.3893,0.59869c-0.21215,0.14539 -0.4451,0.19439 -0.69884,0.14701c-0.25374,-0.04738 -0.4533,-0.17715 -0.59869,-0.3893c-0.14539,-0.21215 -0.19439,-0.4451 -0.14701,-0.69884l1.51518,-8.11386l-5.89127,7.77111c-0.23584,0.27226 -0.52965,0.37554 -0.88143,0.30985c-0.38061,-0.07107 -0.62584,-0.30784 -0.73569,-0.7103l-2.66421,-9.27029l-1.51518,8.11386c-0.04738,0.25374 -0.17715,0.4533 -0.3893,0.59869c-0.21215,0.14539 -0.4451,0.19439 -0.69884,0.14701c-0.25374,-0.04738 -0.4533,-0.17715 -0.59869,-0.3893c-0.14539,-0.21215 -0.19439,-0.4451 -0.14701,-0.69884z" data-paper-data="{&quot;glyphName&quot;:&quot;M&quot;,&quot;glyphIndex&quot;:7,&quot;word&quot;:1}"></path><path d="M306.59817,140.83175l0.06605,-4.23686l-2.90384,3.08595zM298.02341,143.03264l8.89866,-9.43832c0.33271,-0.32087 0.68662,-0.40523 1.06173,-0.2531c0.38598,0.15654 0.58115,0.46359 0.58549,0.92116l-0.1898,13.01782c-0.00061,0.12637 -0.02626,0.25207 -0.07697,0.3771c-0.09701,0.2392 -0.26396,0.40889 -0.50083,0.50907c-0.23688,0.10018 -0.47492,0.10176 -0.71412,0.00475c-0.2392,-0.09701 -0.40617,-0.26285 -0.50091,-0.49753c-0.05171,-0.12226 -0.07946,-0.24114 -0.08326,-0.35663l0.06233,-4.48526l-4.17514,-1.6933l-3.08768,3.25828c-0.08318,0.08022 -0.1859,0.14618 -0.30816,0.19788c-0.23688,0.10018 -0.47492,0.10176 -0.71412,0.00475c-0.2392,-0.09701 -0.40753,-0.2634 -0.50499,-0.49918c-0.09746,-0.23577 -0.09768,-0.47326 -0.00067,-0.71246c0.05292,-0.13047 0.13573,-0.24882 0.24845,-0.35504z" data-paper-data="{&quot;glyphName&quot;:&quot;A&quot;,&quot;glyphIndex&quot;:8,&quot;word&quot;:1}"></path><path d="M317.74189,140.06967l-2.62387,4.16079l2.08412,1.31428c0.28781,0.1815 0.59267,0.29746 0.91458,0.34788c0.32191,0.05042 0.63615,0.03879 0.94271,-0.03491c0.30656,-0.0737 0.59343,-0.20142 0.86063,-0.38317c0.26719,-0.18175 0.48998,-0.41404 0.66834,-0.69689c0.1815,-0.28781 0.29746,-0.59267 0.34788,-0.91458c0.05042,-0.32191 0.04081,-0.63661 -0.02884,-0.94408c-0.06965,-0.30747 -0.19659,-0.59559 -0.38082,-0.86435c-0.18423,-0.26876 -0.41776,-0.49232 -0.70061,-0.67069zM310.14638,148.61685l6.51508,-10.33127c0.06884,-0.10917 0.15362,-0.19962 0.25434,-0.27135c0.10072,-0.07173 0.20974,-0.12088 0.32706,-0.14746c0.11733,-0.02658 0.23565,-0.02999 0.35496,-0.01023c0.11932,0.01976 0.23604,0.06562 0.35017,0.1376l2.8731,1.81183c0.50118,0.31605 0.91281,0.71088 1.23488,1.18447c0.32207,0.47359 0.54328,0.98067 0.6636,1.52123c0.12033,0.54056 0.13722,1.09392 0.05068,1.66007c-0.08654,0.56616 -0.28784,1.09982 -0.60389,1.601c-0.20653,0.3275 -0.44852,0.62051 -0.72598,0.87901c-0.27745,0.2585 -0.58365,0.47461 -0.9186,0.64831c-0.33494,0.1737 -0.69707,0.30252 -1.08637,0.38645c-0.3893,0.08394 -0.79907,0.11509 -1.22931,0.09345l-0.02416,5.30085c-0.00326,0.19214 -0.05183,0.36264 -0.14571,0.51151c-0.07197,0.11413 -0.15754,0.20582 -0.25669,0.27507c-0.09915,0.06925 -0.20739,0.11716 -0.32472,0.14374c-0.11733,0.02658 -0.23689,0.02921 -0.35868,0.00788c-0.1218,-0.02132 -0.23728,-0.06641 -0.34645,-0.13525c-0.27788,-0.17524 -0.4223,-0.44663 -0.43326,-0.81419l0.02456,-5.86238l-2.2181,-1.39877l-2.39856,3.80351c-0.13769,0.21834 -0.33195,0.35591 -0.58278,0.41274c-0.25083,0.05682 -0.48542,0.01639 -0.70376,-0.1213c-0.21834,-0.13769 -0.35591,-0.33195 -0.41274,-0.58278c-0.05682,-0.25083 -0.01639,-0.48542 0.1213,-0.70376z" data-paper-data="{&quot;glyphName&quot;:&quot;R&quot;,&quot;glyphIndex&quot;:9,&quot;word&quot;:1}"></path><path d="M327.86676,145.76357c0.17309,-0.19149 0.38807,-0.29371 0.64493,-0.30667c0.25686,-0.01296 0.48104,0.06711 0.67252,0.2402c0.19149,0.17309 0.29371,0.38807 0.30667,0.64493c0.01296,0.25686 -0.06711,0.48104 -0.2402,0.67252l-3.49332,3.86455l8.26518,-0.417c0.27343,-0.0138 0.5059,0.06585 0.69738,0.23895c0.09574,0.08655 0.17031,0.18558 0.2237,0.29711c0.05339,0.11153 0.08312,0.22736 0.08918,0.34751c0.00606,0.12015 -0.01186,0.23839 -0.05375,0.35472c-0.0419,0.11633 -0.10612,0.22237 -0.19266,0.31812c-0.17309,0.19149 -0.38807,0.29371 -0.64493,0.30667l-6.51861,0.33511l-0.78568,7.88974c-0.02311,0.20053 -0.09761,0.37043 -0.22349,0.5097c-0.08261,0.09139 -0.18067,0.16487 -0.29416,0.22044c-0.11349,0.05557 -0.23021,0.08845 -0.35015,0.09866c-0.11994,0.0102 -0.23895,-0.00248 -0.35704,-0.03806c-0.11809,-0.03558 -0.22501,-0.09664 -0.32075,-0.18318c-0.25677,-0.2321 -0.36192,-0.50508 -0.31545,-0.81894l0.75755,-7.58304l-1.75247,0.08842l-2.92094,3.23134c-0.17309,0.19149 -0.38807,0.29371 -0.64493,0.30667c-0.25686,0.01296 -0.48104,-0.06711 -0.67252,-0.2402c-0.19149,-0.17309 -0.29371,-0.38807 -0.30667,-0.64493c-0.01296,-0.25686 0.06711,-0.48104 0.2402,-0.67252z" data-paper-data="{&quot;glyphName&quot;:&quot;K&quot;,&quot;glyphIndex&quot;:10,&quot;word&quot;:1}"></path><path d="M334.14277,169.18802c0.15552,0.20601 0.2155,0.43638 0.17992,0.6911c-0.03557,0.25472 -0.15637,0.45984 -0.36238,0.61536c-0.20601,0.15552 -0.43638,0.2155 -0.6911,0.17992c-0.25472,-0.03557 -0.45984,-0.15637 -0.61536,-0.36238l-4.90423,-6.49643c-0.0813,-0.10769 -0.13679,-0.22015 -0.16649,-0.33739c-0.0297,-0.11724 -0.03623,-0.23543 -0.01959,-0.35457c0.01664,-0.11914 0.0553,-0.23102 0.11598,-0.33563c0.06068,-0.10461 0.14487,-0.19757 0.25256,-0.27886l9.74815,-7.359c0.10301,-0.07776 0.2143,-0.13237 0.33388,-0.16384c0.11958,-0.03147 0.23894,-0.03888 0.35808,-0.02224c0.11914,0.01664 0.23102,0.0553 0.33563,0.11598c0.10461,0.06068 0.19757,0.14487 0.27886,0.25256l4.90423,6.49643c0.15552,0.20601 0.2155,0.43638 0.17992,0.6911c-0.03557,0.25472 -0.15637,0.45984 -0.36238,0.61536c-0.20601,0.15552 -0.43638,0.2155 -0.6911,0.17992c-0.25472,-0.03557 -0.45984,-0.15637 -0.61536,-0.36238l-4.34223,-5.75197l-3.38516,2.5555l3.1175,4.12962c0.15552,0.20601 0.2155,0.43638 0.17992,0.6911c-0.03557,0.25472 -0.15637,0.45984 -0.36238,0.61536c-0.20601,0.15552 -0.43638,0.2155 -0.6911,0.17992c-0.25472,-0.03557 -0.45984,-0.15637 -0.61536,-0.36238l-3.1175,-4.12962l-3.38516,2.5555z" data-paper-data="{&quot;glyphName&quot;:&quot;E&quot;,&quot;glyphIndex&quot;:11,&quot;word&quot;:1}"></path><path d="M349.25058,176.17273l-1.45762,-3.15549l-10.24135,4.73079c-0.23433,0.10824 -0.47218,0.11795 -0.71354,0.02912c-0.24136,-0.08883 -0.41616,-0.25042 -0.52441,-0.48475c-0.10824,-0.23433 -0.11795,-0.47218 -0.02912,-0.71354c0.08883,-0.24136 0.25042,-0.41616 0.48475,-0.52441l10.24135,-4.73079l-1.45762,-3.15549c-0.10824,-0.23433 -0.11795,-0.47218 -0.02912,-0.71354c0.08883,-0.24136 0.25042,-0.41616 0.48475,-0.52441c0.23433,-0.10824 0.47218,-0.11795 0.71354,-0.02912c0.24136,0.08883 0.41616,0.25042 0.52441,0.48475l3.69755,8.00455c0.10824,0.23433 0.11795,0.47218 0.02912,0.71354c-0.08883,0.24136 -0.25042,0.41616 -0.48475,0.52441c-0.23433,0.10824 -0.47218,0.11795 -0.71354,0.02912c-0.24136,-0.08883 -0.41616,-0.25042 -0.52441,-0.48475z" data-paper-data="{&quot;glyphName&quot;:&quot;T&quot;,&quot;glyphIndex&quot;:12,&quot;lastGlyphOfWord&quot;:true,&quot;word&quot;:1}"></path></g><g data-paper-data="{&quot;isSecondaryText&quot;:true}" fill-rule="nonzero"><path d="M255.92291,328.57453l-3.30935,-1.06299l-3.45002,10.74072c-0.07894,0.24576 -0.23279,0.4274 -0.46156,0.54493c-0.22876,0.11753 -0.46602,0.13683 -0.71178,0.05789c-0.24576,-0.07894 -0.4274,-0.23279 -0.54493,-0.46156c-0.11753,-0.22876 -0.13683,-0.46602 -0.05789,-0.71178l3.45002,-10.74072l-3.30935,-1.06299c-0.24576,-0.07894 -0.4274,-0.23279 -0.54493,-0.46156c-0.11753,-0.22876 -0.13683,-0.46602 -0.05789,-0.71178c0.07894,-0.24576 0.23279,-0.4274 0.46156,-0.54493c0.22876,-0.11753 0.46602,-0.13683 0.71178,-0.05789l8.39485,2.6965c0.24576,0.07894 0.4274,0.23279 0.54493,0.46156c0.11753,0.22876 0.13683,0.46602 0.05789,0.71178c-0.07894,0.24576 -0.23279,0.4274 -0.46156,0.54493c-0.22876,0.11753 -0.46602,0.13683 -0.71178,0.05789z" data-paper-data="{&quot;glyphName&quot;:&quot;T&quot;,&quot;glyphIndex&quot;:0,&quot;firstGlyphOfWord&quot;:true,&quot;word&quot;:1}"></path><path d="M260.89196,329.63364l-0.72145,4.86584l2.43727,0.36137c0.33658,0.0499 0.6623,0.03296 0.97719,-0.05082c0.31488,-0.08379 0.59769,-0.22125 0.84843,-0.41241c0.25074,-0.19115 0.46167,-0.42379 0.63278,-0.69791c0.17112,-0.27412 0.2812,-0.57657 0.33024,-0.90734c0.0499,-0.33658 0.03296,-0.6623 -0.05082,-0.97719c-0.08379,-0.31488 -0.21959,-0.59893 -0.40741,-0.85214c-0.18782,-0.25321 -0.42024,-0.46559 -0.69727,-0.63714c-0.27703,-0.17155 -0.58092,-0.28184 -0.9117,-0.33089zM257.39204,340.51925l1.79137,-12.0819c0.01893,-0.12767 0.05999,-0.24464 0.1232,-0.35091c0.0632,-0.10628 0.14311,-0.19525 0.23973,-0.26692c0.09662,-0.07167 0.2035,-0.12254 0.32064,-0.15262c0.11714,-0.03008 0.24245,-0.03522 0.37592,-0.01543l3.35995,0.49818c0.58611,0.0869 1.12207,0.28201 1.60788,0.58534c0.48581,0.30332 0.89285,0.678 1.2211,1.12402c0.32825,0.44602 0.56704,0.94549 0.71635,1.49842c0.14931,0.55293 0.18052,1.12244 0.09362,1.70855c-0.05679,0.383 -0.15994,0.74875 -0.30947,1.09724c-0.14953,0.34849 -0.34246,0.66979 -0.57881,0.9639c-0.23635,0.2941 -0.51568,0.55811 -0.838,0.79203c-0.32232,0.23391 -0.68466,0.42779 -1.08703,0.58164l2.11725,4.85972c0.07456,0.17711 0.09893,0.35271 0.07312,0.5268c-0.01979,0.13347 -0.06107,0.25189 -0.12384,0.35527c-0.06277,0.10337 -0.14247,0.1909 -0.23909,0.26256c-0.09662,0.07167 -0.20495,0.12233 -0.32499,0.15197c-0.12004,0.02965 -0.2439,0.035 -0.37156,0.01608c-0.32497,-0.04818 -0.56664,-0.23821 -0.725,-0.57008l-2.34351,-5.37365l-2.59395,-0.3846l-0.6595,4.44802c-0.03786,0.25533 -0.16007,0.45961 -0.36664,0.61283c-0.20657,0.15322 -0.43752,0.2109 -0.69285,0.17304c-0.25533,-0.03786 -0.45961,-0.16007 -0.61283,-0.36664c-0.15322,-0.20657 -0.2109,-0.43752 -0.17304,-0.69285z" data-paper-data="{&quot;glyphName&quot;:&quot;R&quot;,&quot;glyphIndex&quot;:1,&quot;word&quot;:1}"></path><path d="M272.43956,329.94496l0.06084,8.13949c0.0032,0.42824 0.08835,0.8324 0.25546,1.21248c0.16711,0.38008 0.39251,0.71133 0.67622,0.99374c0.28371,0.28241 0.61684,0.50579 0.9994,0.67013c0.38256,0.16434 0.79089,0.24489 1.225,0.24164c0.43411,-0.00324 0.8412,-0.08842 1.22128,-0.25553c0.38008,-0.16711 0.71131,-0.39545 0.99367,-0.68502c0.28237,-0.28958 0.50426,-0.62417 0.66569,-1.00377c0.16143,-0.3796 0.24052,-0.78646 0.23728,-1.22057l-0.06084,-8.13949c-0.00193,-0.25812 0.08735,-0.47878 0.26785,-0.662c0.1805,-0.18321 0.3998,-0.27579 0.65792,-0.27772c0.25812,-0.00193 0.47878,0.08735 0.662,0.26785c0.18321,0.1805 0.27579,0.3998 0.27772,0.65792l0.06084,8.13949c0.00342,0.45757 -0.05342,0.89799 -0.17052,1.32127c-0.1171,0.42327 -0.28279,0.82198 -0.49706,1.19611c-0.21427,0.37413 -0.47279,0.71486 -0.77555,1.02219c-0.30277,0.30733 -0.63958,0.57238 -1.01045,0.79515c-0.37087,0.22277 -0.7685,0.39587 -1.19291,0.51931c-0.42441,0.12344 -0.8654,0.18687 -1.32297,0.19029c-1.38445,0.01035 -2.5643,-0.4707 -3.53956,-1.44313c-0.98699,-0.97235 -1.48564,-2.14781 -1.49595,-3.5264l-0.06084,-8.13949c-0.00193,-0.25812 0.08735,-0.47878 0.26785,-0.662c0.1805,-0.18321 0.3998,-0.27579 0.65792,-0.27772c0.25812,-0.00193 0.47878,0.08735 0.662,0.26785c0.18321,0.1805 0.27579,0.3998 0.27772,0.65792z" data-paper-data="{&quot;glyphName&quot;:&quot;U&quot;,&quot;glyphIndex&quot;:2,&quot;word&quot;:1}"></path><path d="M287.47461,335.32381c-0.87939,-0.11787 -1.56434,-0.34035 -2.05486,-0.66744c-0.49052,-0.32709 -0.85365,-0.68449 -1.08941,-1.07218c-0.23576,-0.38769 -0.38988,-0.81339 -0.46236,-1.27707c-0.08878,-0.56802 -0.06196,-1.09918 0.08047,-1.59349c0.14243,-0.49431 0.39422,-0.95376 0.75537,-1.37834l-0.00869,0.00136c0.57595,-0.68379 1.31313,-1.0959 2.21152,-1.23633c0.2898,-0.0453 0.58527,-0.05437 0.8864,-0.02722c0.30113,0.02715 0.598,0.09357 0.89062,0.19924c0.29262,0.10567 0.57351,0.25029 0.84268,0.43385c0.26917,0.18356 0.51959,0.40864 0.75127,0.67525c0.1105,0.13711 0.17979,0.2955 0.20787,0.47518c0.02084,0.13331 0.01668,0.25865 -0.01248,0.37603c-0.02916,0.11737 -0.07919,0.22465 -0.15009,0.32183c-0.07091,0.09718 -0.15925,0.17779 -0.26502,0.24182c-0.10578,0.06403 -0.22242,0.10602 -0.34993,0.12595c-0.11592,0.01812 -0.22152,0.01681 -0.3168,-0.00392c-0.09528,-0.02073 -0.18412,-0.05732 -0.26654,-0.10975c-0.08242,-0.05243 -0.16352,-0.11546 -0.24331,-0.18909c-0.07979,-0.07362 -0.16597,-0.15961 -0.25853,-0.25796c-0.17081,-0.18112 -0.38442,-0.3036 -0.64081,-0.36743c-0.25639,-0.06383 -0.52369,-0.07401 -0.80191,-0.03052c-0.22025,0.03443 -0.42769,0.11287 -0.6223,0.23532c-0.19462,0.12245 -0.36084,0.27461 -0.49867,0.45647c-0.13783,0.18186 -0.2407,0.38795 -0.30861,0.61826c-0.06791,0.23031 -0.08239,0.47008 -0.04343,0.71931c0.06976,0.4463 0.24796,0.77916 0.53461,0.99858c0.28665,0.21942 0.74496,0.36897 1.37493,0.44863c1.06541,0.13036 1.92778,0.40526 2.58711,0.82472c0.65933,0.41946 1.13183,0.85922 1.4175,1.31927c0.28567,0.46005 0.47108,0.9625 0.55624,1.50733c0.21199,1.35628 -0.11723,2.53591 -0.98769,3.53887l0.00869,-0.00136c-0.69875,0.80987 -1.56108,1.29498 -2.58699,1.45533c-0.34197,0.05345 -0.69051,0.06488 -1.04561,0.03429c-0.35511,-0.03059 -0.70329,-0.10235 -1.04454,-0.21526c-0.34125,-0.11292 -0.66856,-0.26957 -0.98193,-0.46998c-0.31336,-0.2004 -0.59549,-0.43835 -0.84637,-0.71383c-0.14618,-0.13747 -0.23603,-0.31343 -0.26955,-0.52789c-0.01993,-0.12751 -0.01555,-0.25141 0.01316,-0.37168c0.0287,-0.12027 0.07851,-0.229 0.14941,-0.32618c0.07091,-0.09718 0.1578,-0.17756 0.26068,-0.24114c0.10288,-0.06358 0.22097,-0.10579 0.35428,-0.12663c0.34197,-0.05345 0.62209,0.04824 0.84037,0.30507c0.30232,0.3387 0.65101,0.57514 1.04606,0.70934c0.39505,0.1342 0.80413,0.16823 1.22725,0.10209c0.33038,-0.05164 0.63172,-0.16554 0.90404,-0.3417c0.27232,-0.17616 0.49994,-0.39136 0.68287,-0.64558c0.18293,-0.25422 0.31482,-0.54055 0.39568,-0.85898c0.08086,-0.31843 0.09501,-0.64573 0.04247,-0.9819c-0.04983,-0.31878 -0.15612,-0.60945 -0.31888,-0.87198c-0.16276,-0.26254 -0.43519,-0.50496 -0.81729,-0.72728c-0.3821,-0.22232 -0.95842,-0.38607 -1.72895,-0.49126z" data-paper-data="{&quot;glyphName&quot;:&quot;S&quot;,&quot;glyphIndex&quot;:3,&quot;word&quot;:1}"></path><path d="M302.47858,325.8724l-3.30935,1.06299l3.45002,10.74072c0.07894,0.24576 0.05964,0.48302 -0.05789,0.71178c-0.11753,0.22876 -0.29918,0.38262 -0.54493,0.46156c-0.24576,0.07894 -0.48302,0.05964 -0.71178,-0.05789c-0.22876,-0.11753 -0.38262,-0.29918 -0.46156,-0.54493l-3.45002,-10.74072l-3.30935,1.06299c-0.24576,0.07894 -0.48302,0.05964 -0.71178,-0.05789c-0.22876,-0.11753 -0.38262,-0.29918 -0.46156,-0.54493c-0.07894,-0.24576 -0.05964,-0.48302 0.05789,-0.71178c0.11753,-0.22876 0.29918,-0.38262 0.54493,-0.46156l8.39485,-2.6965c0.24576,-0.07894 0.48302,-0.05964 0.71178,0.05789c0.22876,0.11753 0.38262,0.29918 0.46156,0.54493c0.07894,0.24576 0.05964,0.48302 -0.05789,0.71178c-0.11753,0.22876 -0.29918,0.38262 -0.54493,0.46156z" data-paper-data="{&quot;glyphName&quot;:&quot;T&quot;,&quot;glyphIndex&quot;:4,&quot;lastGlyphOfWord&quot;:true,&quot;word&quot;:1}"></path></g><g data-paper-data="{&quot;isContainerElementsWrapper&quot;:true}"><path d="M200.93864,253.00946v-36.02345h1.98393v36.02345z" data-paper-data="{&quot;isLeftLineConnector&quot;:true}" fill-rule="nonzero"></path><path d="M349.06129,253.00946v-36.02345h1.98393v36.02345z" data-paper-data="{&quot;isRightLineConnector&quot;:true}" fill-rule="nonzero"></path><path d="M211.48047,127.77834c-8.64379,6.94984 -15.62303,15.02989 -20.93773,24.24014c-5.50693,9.54311 -8.86843,19.69219 -10.08451,30.44724c-0.0215,0.19006 -0.03225,0.3807 -0.03225,0.57192v103.92447c0,0.19155 0.01075,0.38229 0.03225,0.57222c1.21601,10.75518 4.57751,20.90417 10.08451,30.44695c5.31499,9.21041 12.29421,17.29054 20.93768,24.24038c8.60479,6.9183 18.28024,12.25068 29.02636,15.99716c11.05432,3.85412 22.55201,5.78118 34.49309,5.78118c11.94027,0 23.43808,-1.92706 34.49343,-5.78118c10.74543,-3.74615 20.42073,-9.07854 29.02592,-15.99716c8.64421,-6.95017 15.62349,-15.0303 20.93783,-24.24038c5.50751,-9.54408 8.8691,-19.69307 10.08475,-30.44695c0.02146,-0.19025 0.0322,-0.38099 0.0322,-0.57222v-103.92447c0,-0.19113 -0.01073,-0.38183 -0.0322,-0.57212c-1.2163,-10.75544 -4.57789,-20.90446 -10.08475,-30.44704c-5.31499,-9.21057 -12.29426,-17.29062 -20.93783,-24.24014c-8.60486,-6.91862 -18.28017,-12.25101 -29.02592,-15.99716c-11.05536,-3.85412 -22.55317,-5.78118 -34.49343,-5.78118c-11.94108,0 -23.43876,1.92706 -34.49304,5.78118c-10.74614,3.74648 -20.42159,9.07886 -29.02636,15.99716zM181.58472,182.59314c1.19832,-10.59856 4.51163,-20.60123 9.93992,-30.008c5.24422,-9.08784 12.13296,-17.06213 20.66621,-23.92286c8.503,-6.83699 18.06606,-12.10726 28.68918,-15.81081c10.93392,-3.81184 22.30721,-5.71777 34.11986,-5.71777c11.81278,0 23.18604,1.90592 34.11976,5.71777c10.62347,3.70355 20.18658,8.97382 28.68932,15.81081c8.53364,6.86106 15.42251,14.83535 20.6666,23.92286c5.42849,9.40749 8.74161,19.41026 9.93938,30.0083c0.01691,0.14758 0.02537,0.29565 0.02537,0.44421v103.92447c0,0.14862 -0.00846,0.29676 -0.02537,0.44441c-1.19842,10.59941 -4.51154,20.60204 -9.93938,30.00791c-5.24442,9.08781 -12.13328,17.06224 -20.6666,23.9233c-8.50274,6.83667 -18.06585,12.10694 -28.68932,15.81081c-10.9334,3.81184 -22.30665,5.71777 -34.11976,5.71777c-11.81226,0 -23.18556,-1.90592 -34.11991,-5.71777c-10.62294,-3.70355 -20.186,-8.97382 -28.68918,-15.81081c-8.53341,-6.86106 -15.42213,-14.83549 -20.66616,-23.9233c-5.42823,-9.40684 -8.74153,-19.40948 -9.93992,-30.00791c-0.01668,-0.14765 -0.02503,-0.29578 -0.02503,-0.44441v-103.92447c0,-0.14862 0.00834,-0.29679 0.02503,-0.4445z" data-paper-data="{&quot;isAdditionalOutlinePath&quot;:true}" fill-rule="evenodd"></path><path d="M213.89559,130.78235c-8.26862,6.64804 -14.94013,14.36891 -20.01452,23.16259c-5.23944,9.07951 -8.43708,18.73079 -9.59293,28.95382c-0.0052,0.04693 -0.00781,0.09322 -0.00781,0.13888v103.92447c0,0.04553 0.00252,0.09106 0.00756,0.13659c1.15601,10.22411 4.35373,19.87616 9.59317,28.95616c5.07371,8.79251 11.74522,16.51344 20.01452,23.16278c8.25799,6.63991 17.55133,11.76042 27.88003,15.36153c10.64354,3.7107 21.71829,5.56605 33.22427,5.56605c11.50448,0 22.57919,-1.85535 33.22412,-5.56605c10.3259,-3.59915 19.61924,-8.71966 27.88003,-15.36153c8.26826,-6.64707 14.93989,-14.368 20.01487,-23.16278c5.23986,-9.08033 8.43754,-18.73173 9.59303,-28.95421c0.00488,-0.04813 0.00732,-0.09431 0.00732,-0.13854v-103.92447c0,-0.04416 -0.00228,-0.08825 -0.00683,-0.13225c-1.15646,-10.22759 -4.3543,-19.88109 -9.59352,-28.9605c-5.07433,-8.793 -11.74595,-16.51385 -20.01487,-23.16254c-8.25818,-6.64024 -17.55152,-11.76075 -27.88003,-15.36153c-10.64331,-3.7107 -21.71802,-5.56605 -33.22412,-5.56605c-11.50646,0 -22.58122,1.85535 -33.22427,5.56605c-10.32792,3.60078 -19.62126,8.72129 -27.88003,15.36153zM186.2643,183.07965c1.12892,-9.93372 4.24062,-19.31478 9.33512,-28.14316c4.95062,-8.57924 11.46373,-16.11515 19.53934,-22.60774c8.08104,-6.49779 17.17772,-11.50936 27.29005,-15.03469c10.43182,-3.6372 21.28885,-5.45581 32.57107,-5.45581c11.28236,0 22.13949,1.8186 32.57141,5.45581c10.11288,3.52598 19.20947,8.53754 27.28976,15.03469c8.07574,6.49324 14.58898,14.02915 19.53973,22.60774c5.09514,8.82939 8.2068,18.2102 9.33497,28.14243v103.84173c-1.1285,9.93271 -4.24015,19.3137 -9.33497,28.14296c-4.9514,8.57982 -11.46464,16.1157 -19.53973,22.60764c-8.08322,6.49877 -17.1798,11.51033 -27.28976,15.03469c-10.43387,3.6372 -21.29101,5.45581 -32.57141,5.45581c-11.28249,0 -22.13951,-1.8186 -32.57107,-5.45581c-10.11357,-3.52631 -19.21025,-8.53787 -27.29005,-15.03469c-8.07619,-6.49389 -14.58929,-14.02977 -19.53929,-22.60764c-5.09495,-8.82959 -8.20667,-18.21074 -9.33516,-28.14345z" data-paper-data="{&quot;isBaseLogoContainer&quot;:true}" fill-rule="evenodd"></path></g></g></g><g class="watermark-group" style="opacity:0.040000010281801224"><path class="watermark-path" d="M129.52,370.3a11.88,11.88,0,0,1,2.58,5.58,12,12,0,0,1,.11,3,11.81,11.81,0,0,1-.64,2.93,12.34,12.34,0,0,1-1.41,2.72,11.65,11.65,0,0,1-2.13,2.32,12,12,0,0,1-2.64,1.69,13,13,0,0,1-2.91.9,12.47,12.47,0,0,1-3,.12,12.17,12.17,0,0,1-2.93-.64,11.8,11.8,0,0,1-2.72-1.38,12.19,12.19,0,0,1-4-4.79,11.85,11.85,0,0,1-.89-2.92,12.14,12.14,0,0,1-.13-3,11.54,11.54,0,0,1,.64-2.92,11.67,11.67,0,0,1,3.5-5,11.44,11.44,0,0,1,2.67-1.69,11.64,11.64,0,0,1,2.92-.91,10.71,10.71,0,0,1,3-.12,11.68,11.68,0,0,1,5.66,2,11.7,11.7,0,0,1,2.34,2.12m-1.4,8.76a13,13,0,0,1-1.22,2.32,9.68,9.68,0,0,1-1.81,2,7.44,7.44,0,0,1-2.38,1.37,6.17,6.17,0,0,1-5.11-.46,8.73,8.73,0,0,1-3.85-4.58,6.69,6.69,0,0,1-.34-2.66,6.09,6.09,0,0,1,.77-2.47,7.15,7.15,0,0,1,1.75-2.11,9.58,9.58,0,0,1,1.09-.81,8.23,8.23,0,0,1,1.12-.63,8.14,8.14,0,0,1,1.19-.46,12.71,12.71,0,0,1,1.32-.37l2,2.38a12.83,12.83,0,0,0-1.56.17,7.86,7.86,0,0,0-1.23.32,4.5,4.5,0,0,0-1,.49,6.41,6.41,0,0,0-.93.67,4.49,4.49,0,0,0-1.15,1.39,3.87,3.87,0,0,0-.45,1.58,4.12,4.12,0,0,0,.26,1.63,6.11,6.11,0,0,0,2.36,2.82,4.43,4.43,0,0,0,1.57.53,3.91,3.91,0,0,0,1.62-.17,4.71,4.71,0,0,0,1.57-.89,10.5,10.5,0,0,0,.83-.79,5.71,5.71,0,0,0,.65-.93,10.13,10.13,0,0,0,.54-1.14,12.24,12.24,0,0,0,.44-1.49l2,2.33m-14.46,4.55a8.86,8.86,0,0,0,2.78,2.22,9,9,0,0,0,3.29.94,9.15,9.15,0,0,0,3.39-.37,8.68,8.68,0,0,0,3.11-1.69,8.8,8.8,0,0,0,2.22-2.78,9.15,9.15,0,0,0,1-3.29,8.95,8.95,0,0,0-4.83-8.76,9,9,0,0,0-6.73-.57,9,9,0,0,0-5.33,4.47,8.94,8.94,0,0,0-.57,6.71,8.76,8.76,0,0,0,1.7,3.12"></path><path class="watermark-path" d="M147,349c-.48.12-1.09.31-1.82.57a24.37,24.37,0,0,0-2.4,1A28.35,28.35,0,0,0,140,352a20.72,20.72,0,0,0-2.71,1.94c-.7.59-1.28,1.11-1.74,1.57a15.07,15.07,0,0,0-1.1,1.22,4.09,4.09,0,0,0-.59.92,2.32,2.32,0,0,0-.22.64,1.16,1.16,0,0,0,0,.47,1.83,1.83,0,0,0,.18.29,1.15,1.15,0,0,0,1,.37,5.54,5.54,0,0,0,1.51-.38q.87-.35,1.95-.9l2.26-1.18q1.2-.65,2.49-1.29c.87-.44,1.73-.83,2.59-1.17a18.94,18.94,0,0,1,2.6-.81,9.27,9.27,0,0,1,2.46-.29,6.25,6.25,0,0,1,2.24.49,5.12,5.12,0,0,1,1.89,1.47,6.35,6.35,0,0,1,1.41,2.61,6,6,0,0,1,.09,2.6,8.3,8.3,0,0,1-.9,2.52,17.79,17.79,0,0,1-1.62,2.37,23.92,23.92,0,0,1-2,2.15c-.72.67-1.41,1.29-2.09,1.87a33.79,33.79,0,0,1-5.33,3.7,32.29,32.29,0,0,1-4.91,2.28l-3.61-4.3a21.38,21.38,0,0,0,5.39-1.87,27.2,27.2,0,0,0,5.4-3.56,21.59,21.59,0,0,0,2.38-2.27,8.67,8.67,0,0,0,1.18-1.7,2.32,2.32,0,0,0,.27-1.19,1.34,1.34,0,0,0-.28-.74,1.21,1.21,0,0,0-1-.42,4.32,4.32,0,0,0-1.55.34,15.77,15.77,0,0,0-2,.88c-.72.37-1.48.77-2.27,1.21l-2.45,1.3c-.85.45-1.7.85-2.56,1.21a22.37,22.37,0,0,1-2.54.86,10,10,0,0,1-2.43.32,5.76,5.76,0,0,1-2.2-.45,5,5,0,0,1-1.89-1.45,6.12,6.12,0,0,1-1.31-2.41,6,6,0,0,1-.1-2.41,8.28,8.28,0,0,1,.81-2.38,14.06,14.06,0,0,1,1.49-2.24,22.37,22.37,0,0,1,1.85-2.05q1-1,2-1.77c.7-.59,1.44-1.15,2.23-1.7s1.62-1.06,2.44-1.53,1.63-.91,2.43-1.3,1.58-.75,2.3-1L147,349"></path><path class="watermark-path" d="M186.76,337.57l-10.6-12.63,3.92,18.24-4.66,3.91-17.27-7,10.6,12.63-4.86,4.07-15.09-18,6.59-5.54,18.69,7.52-4.15-19.71,6.57-5.52,15.09,18-4.83,4.05"></path><path class="watermark-path" d="M208.84,313.24l-10,8.42,1.16,4.82L194.56,331l-5.68-25.89,5.42-4.55,24.51,10.09-5.42,4.55-4.55-2m-11.23,3.45,6.57-5.52-8.83-3.87,2.26,9.39"></path><path class="watermark-path" d="M227.49,281.38c-.48.12-1.09.31-1.82.57a24.37,24.37,0,0,0-2.4,1,26.11,26.11,0,0,0-2.7,1.47,20.72,20.72,0,0,0-2.71,1.94c-.7.59-1.28,1.11-1.74,1.57a13.39,13.39,0,0,0-1.1,1.22,4.29,4.29,0,0,0-.59.91,2.48,2.48,0,0,0-.22.65,1.16,1.16,0,0,0,0,.47,1.83,1.83,0,0,0,.18.29,1.15,1.15,0,0,0,1,.37,5.54,5.54,0,0,0,1.51-.38q.87-.34,2-.9l2.26-1.18q1.2-.64,2.49-1.29c.87-.44,1.73-.83,2.59-1.17a18.94,18.94,0,0,1,2.6-.81,9.27,9.27,0,0,1,2.46-.29,6.08,6.08,0,0,1,2.24.49,5.09,5.09,0,0,1,1.89,1.46,6.47,6.47,0,0,1,1.41,2.61,6.07,6.07,0,0,1,.09,2.61,8.3,8.3,0,0,1-.9,2.52,16.32,16.32,0,0,1-1.63,2.36,21.41,21.41,0,0,1-2,2.16c-.72.67-1.41,1.29-2.1,1.86a33.36,33.36,0,0,1-5.32,3.71,31.92,31.92,0,0,1-4.92,2.28l-3.6-4.3a21.38,21.38,0,0,0,5.39-1.87,27.2,27.2,0,0,0,5.4-3.56,21.59,21.59,0,0,0,2.38-2.27,8.67,8.67,0,0,0,1.18-1.7A2.32,2.32,0,0,0,231,293a1.34,1.34,0,0,0-.28-.74,1.21,1.21,0,0,0-1-.42,4.32,4.32,0,0,0-1.55.34,16.54,16.54,0,0,0-2,.88c-.71.37-1.47.77-2.26,1.21l-2.46,1.3c-.84.44-1.7.85-2.55,1.21a24.53,24.53,0,0,1-2.54.86A10,10,0,0,1,214,298a5.76,5.76,0,0,1-2.2-.45,5,5,0,0,1-1.89-1.45,6.12,6.12,0,0,1-1.31-2.41,5.78,5.78,0,0,1-.1-2.41,8,8,0,0,1,.81-2.38,14.61,14.61,0,0,1,1.49-2.25,22.26,22.26,0,0,1,1.85-2q1-1,2-1.77c.7-.59,1.44-1.15,2.23-1.7s1.62-1.06,2.44-1.53,1.63-.91,2.43-1.31,1.58-.74,2.3-1l3.5,4.16"></path><path class="watermark-path" d="M261.64,274.74l-6.29-7.5L243,277.61l6.3,7.5-4.86,4.07-15.09-18,4.85-4.08,5.49,6.55L252,263.3l-5.49-6.55,4.86-4.07,15.09,18-4.86,4.08"></path><path class="watermark-path" d="M272.18,265.9l-15.09-18,4.86-4.08,15.09,18-4.86,4.08"></path><path class="watermark-path" d="M299.65,242.85l-22.51-2.18L287.51,253l-4.85,4.08-15.1-18,5.28-4.43,22.56,2.22L285,224.5l4.83-4.06,15.09,18-5.26,4.42"></path><path class="watermark-path" d="M306.68,205.52a31.88,31.88,0,0,1,5.29-3.66,34.48,34.48,0,0,1,5.14-2.35l3.69,4.39a20.77,20.77,0,0,0-2.37.61,20.47,20.47,0,0,0-2.61,1,25.12,25.12,0,0,0-2.76,1.49,23.9,23.9,0,0,0-2.8,2,20.42,20.42,0,0,0-2.8,2.77,12.77,12.77,0,0,0-1.64,2.52,7,7,0,0,0-.68,2.24,6,6,0,0,0,.66,3.64,8.16,8.16,0,0,0,.94,1.38,9.12,9.12,0,0,0,1.08,1.07,6.39,6.39,0,0,0,1.47.91,6.73,6.73,0,0,0,1.88.48,6.54,6.54,0,0,0,2.28-.18,11.67,11.67,0,0,0,2.74-1.07,19.38,19.38,0,0,0,3.18-2.22c.57-.48,1.06-.92,1.46-1.31a14.57,14.57,0,0,0,1-1.13,11.46,11.46,0,0,0,.81-1.05l.74-1.09-1.82-2.17-5.45,4.57-3.31-3.94,10.31-8.65,7.71,9.19a29,29,0,0,1-1.67,2.43q-1,1.26-2.1,2.52c-.74.84-1.5,1.65-2.3,2.44s-1.58,1.5-2.33,2.14a31,31,0,0,1-3.59,2.61,22.55,22.55,0,0,1-3.64,1.83,15.64,15.64,0,0,1-3.63.89,10.72,10.72,0,0,1-3.49-.15,10.45,10.45,0,0,1-3.28-1.33,12.54,12.54,0,0,1-3-2.67,12,12,0,0,1-2.08-3.44,10.45,10.45,0,0,1-.71-3.5,11.14,11.14,0,0,1,.51-3.51,15.72,15.72,0,0,1,1.56-3.43,21.62,21.62,0,0,1,2.42-3.28,30.3,30.3,0,0,1,3.15-3"></path><path class="watermark-path" d="M336.91,211.59l-15.1-18,4.86-4.08,11.79,14,13.13-11,3.31,3.94-18,15.1"></path><path class="watermark-path" d="M374.54,164.71a12.28,12.28,0,0,1,2.59,4.81,10.44,10.44,0,0,1,0,5,14.62,14.62,0,0,1-2.33,5,25.55,25.55,0,0,1-4.56,4.85,26.07,26.07,0,0,1-5.6,3.67,14.79,14.79,0,0,1-5.38,1.43,10.43,10.43,0,0,1-4.94-.89,13.24,13.24,0,0,1-6.87-8.18,10.48,10.48,0,0,1,0-5,14.51,14.51,0,0,1,2.36-5,25.23,25.23,0,0,1,4.57-4.89,25,25,0,0,1,5.59-3.64,14.45,14.45,0,0,1,5.35-1.43,10.31,10.31,0,0,1,4.93.92,12.22,12.22,0,0,1,4.28,3.38m-4.91,4.11a8.36,8.36,0,0,0-2-1.72,5.5,5.5,0,0,0-2.65-.85,7.72,7.72,0,0,0-3.32.57,14.49,14.49,0,0,0-4,2.52,16.72,16.72,0,0,0-2.38,2.4,10.15,10.15,0,0,0-1.39,2.24,6.71,6.71,0,0,0-.56,2.1,5.69,5.69,0,0,0,.1,1.9,6.21,6.21,0,0,0,.61,1.69,9.85,9.85,0,0,0,1,1.44,10.48,10.48,0,0,0,1.26,1.23,6.67,6.67,0,0,0,1.57.92,6.1,6.1,0,0,0,1.85.41,6.8,6.8,0,0,0,2.15-.2,11.06,11.06,0,0,0,2.45-1,17.67,17.67,0,0,0,2.77-1.94,14.39,14.39,0,0,0,3.18-3.52,7.74,7.74,0,0,0,1.14-3.17,5.54,5.54,0,0,0-.37-2.74,8.52,8.52,0,0,0-1.36-2.3"></path><path class="watermark-path" d="M382.66,141.76A32.3,32.3,0,0,1,388,138.1a34.12,34.12,0,0,1,5.15-2.35l3.69,4.4a19.62,19.62,0,0,0-2.37.6,22.08,22.08,0,0,0-2.61,1,26,26,0,0,0-2.77,1.49,23.9,23.9,0,0,0-2.8,2,21,21,0,0,0-2.8,2.78,13.19,13.19,0,0,0-1.64,2.51,7.29,7.29,0,0,0-.68,2.24,6.36,6.36,0,0,0,.06,2,5.8,5.8,0,0,0,.61,1.68,8.12,8.12,0,0,0,.93,1.38,9.16,9.16,0,0,0,1.08,1.08,6.56,6.56,0,0,0,1.48.9,6,6,0,0,0,1.87.48,6.76,6.76,0,0,0,2.28-.17,12,12,0,0,0,2.74-1.08,18.57,18.57,0,0,0,3.18-2.22c.58-.48,1.06-.92,1.46-1.31s.75-.77,1.05-1.12.57-.72.81-1.06l.73-1.09-1.82-2.17-5.45,4.57-3.3-3.94,10.3-8.65,7.71,9.19a29,29,0,0,1-1.67,2.43q-1,1.26-2.1,2.52c-.73.84-1.5,1.66-2.3,2.44s-1.57,1.5-2.33,2.14a31,31,0,0,1-3.59,2.61,22.15,22.15,0,0,1-3.64,1.83,15.56,15.56,0,0,1-3.62.89,11,11,0,0,1-3.49-.14,10.84,10.84,0,0,1-3.28-1.33,12.82,12.82,0,0,1-3-2.68,12.12,12.12,0,0,1-2.08-3.43A10.71,10.71,0,0,1,375,155a11.18,11.18,0,0,1,.51-3.51,15.51,15.51,0,0,1,1.57-3.43,21.44,21.44,0,0,1,2.42-3.28,30.19,30.19,0,0,1,3.14-3"></path><path class="watermark-path" d="M428.63,119.31a12.26,12.26,0,0,1,2.59,4.82,10.44,10.44,0,0,1,0,5,14.53,14.53,0,0,1-2.34,5,25.29,25.29,0,0,1-4.56,4.86,26,26,0,0,1-5.59,3.67,14.84,14.84,0,0,1-5.38,1.43,10.61,10.61,0,0,1-4.95-.89,12.15,12.15,0,0,1-4.3-3.37,12,12,0,0,1-2.56-4.81,10.48,10.48,0,0,1,0-5,14.39,14.39,0,0,1,2.35-5,27.89,27.89,0,0,1,10.16-8.53,14.49,14.49,0,0,1,5.36-1.43,10.27,10.27,0,0,1,4.92.92,12.21,12.21,0,0,1,4.28,3.37m-4.91,4.12a8.17,8.17,0,0,0-2-1.72,5.58,5.58,0,0,0-2.65-.86,7.86,7.86,0,0,0-3.31.58,14.49,14.49,0,0,0-4,2.52,16.21,16.21,0,0,0-2.38,2.4,9.85,9.85,0,0,0-1.4,2.24,7,7,0,0,0-.56,2.1,6,6,0,0,0,.1,1.9,6.23,6.23,0,0,0,.62,1.69,8.49,8.49,0,0,0,1,1.44,9.18,9.18,0,0,0,1.26,1.23,6.67,6.67,0,0,0,1.57.92,6,6,0,0,0,1.84.41,6.86,6.86,0,0,0,2.16-.2,11.26,11.26,0,0,0,2.45-1,17.62,17.62,0,0,0,2.76-1.94,14.67,14.67,0,0,0,3.19-3.52,7.71,7.71,0,0,0,1.13-3.17,5.53,5.53,0,0,0-.36-2.74,8.55,8.55,0,0,0-1.37-2.3"></path></g></svg>