<svg xmlns:mydata="http://www.w3.org/2000/svg" mydata:contrastcolor="ffffff" mydata:template="SingleColorHex1" mydata:presentation="2.5" mydata:layouttype="undefined" mydata:specialfontid="undefined" mydata:id1="008" mydata:id2="027" mydata:companyname="Dagracemarket" mydata:companytagline="trust" version="1.1" xmlns="http://www.w3.org/2000/svg" xmlns:xlink="http://www.w3.org/1999/xlink" viewBox="0 0 550 470"><g fill="#00558c" fill-rule="none" stroke="none" stroke-width="1" stroke-linecap="butt" stroke-linejoin="miter" stroke-miterlimit="10" stroke-dasharray="" stroke-dashoffset="0" font-family="none" font-weight="none" font-size="none" text-anchor="none" style="mix-blend-mode: normal"><g data-paper-data="{&quot;isGlobalGroup&quot;:true,&quot;bounds&quot;:{&quot;x&quot;:77.25378661043443,&quot;y&quot;:106.00000000000001,&quot;width&quot;:395.49242677913116,&quot;height&quot;:258}}"><g data-paper-data="{&quot;fillRule&quot;:&quot;evenodd&quot;,&quot;fillRuleOriginal&quot;:&quot;evenodd&quot;,&quot;isIcon&quot;:true,&quot;iconStyle&quot;:&quot;standalone&quot;,&quot;selectedEffects&quot;:{&quot;container&quot;:&quot;&quot;,&quot;transformation&quot;:&quot;&quot;,&quot;pattern&quot;:&quot;&quot;},&quot;bounds&quot;:{&quot;x&quot;:200.4504726219041,&quot;y&quot;:174.67155268586774,&quot;width&quot;:149.55017256783884,&quot;height&quot;:106.75848506181572},&quot;iconType&quot;:&quot;icon&quot;,&quot;rawIconId&quot;:&quot;101810&quot;,&quot;combineTerms&quot;:&quot;store&quot;,&quot;isDetailed&quot;:false,&quot;suitableAsStandaloneIcon&quot;:false}" fill-rule="evenodd"><path d="M342.54511,212.17644c4.11161,0 7.45553,-3.34372 7.45553,-7.45315c0,-0.47648 -0.04917,-0.96637 -0.1489,-1.45789v-4.41538h0.02177l-0.02177,-1.24219v-0.33601h-0.23108l-11.138,-16.20039v-6.39989h-127.22697v6.68076l-10.02447,15.91952h-0.78076v8.46461l0.2441,0.7891c0.8142,3.31197 3.74664,5.6509 7.20737,5.6509c1.20714,0 2.3423,-0.2959 3.35215,-0.8075v62.2298h-10.23183v7.8313h147.97823v-7.8313h-10.51782v-62.62439c1.16872,0.7641 2.56501,1.20209 4.06244,1.20209zM212.83229,176.24812h124.06867v3.96567h-124.06867zM338.48267,197.27183h-2.2033l0.37787,-0.19568l-7.9212,-15.28585h8.33208l0.63072,0.91454l0.78875,1.14688l9.22759,13.41842zM246.34644,181.87396l-0.2959,-0.08358h10.86542l-2.57632,15.46137l0.1187,0.02009h-12.43364zM211.2557,184.31318l1.57827,-2.50447l0.01004,-0.01672h8.73214l-7.78424,15.28922l0.37618,0.19062h-11.07274zM222.42882,181.79199h10.93228l-6.05882,15.33937l0.35441,0.14047h-12.63761l7.78417,-15.28922zM234.22381,181.79199h10.91725l-4.32175,15.39619l0.2959,0.08365h-12.59413l6.05882,-15.34105zM258.11137,181.81208l-0.12207,-0.02009h10.69299l-0.81193,15.47984h-12.33201zM269.86435,181.79199h10.57471l0.95451,15.47984h-12.34325zM282.57915,197.27183l-0.95661,-15.47984h10.7201l-0.1503,0.02676l2.72023,15.4547zM293.38774,181.79199h10.87391l-0.30482,0.08864l4.46419,15.39282h-12.45703l0.14539,-0.02507zM305.16559,181.79199h10.91957l-0.35961,0.14546l6.19761,15.33431h-12.5975l0.30412,-0.08688zM335.4253,197.27183h-12.63964l0.3575,-0.14384l-6.19761,-15.336h10.93432l-0.37787,0.19561zM202.02871,205.31349v-6.46345h146.24624v4.49566l0.01826,0.16049c0.08499,0.41292 0.12853,0.82253 0.12853,1.21712c0,3.24005 -2.63595,5.87656 -5.87804,5.87656c-1.5796,0 -3.00609,-0.6336 -4.06244,-1.66178c-0.2964,-0.28923 -0.55837,-0.60859 -0.79086,-0.95633c-0.3561,-0.53836 -0.62229,-1.14021 -0.79086,-1.79389c-0.04846,-0.18893 -0.10676,-0.3745 -0.14047,-0.57179l-0.10395,-0.66872h-1.69339l-0.10325,0.66872c-0.4453,2.88901 -2.87756,4.9838 -5.78322,4.9838c-2.90566,0 -5.33863,-2.09478 -5.78462,-4.9838l-0.10395,-0.66872h-1.68636l-0.10395,0.66872c-0.44319,2.88733 -2.87546,4.98218 -5.78111,4.98218c-2.90566,0 -5.33652,-2.09485 -5.78181,-4.98387l-0.10325,-0.66872h-1.70041l-0.10395,0.66872c-0.44249,2.88733 -2.87335,4.98218 -5.77901,4.98218c-2.90425,0 -5.33722,-2.09485 -5.78322,-4.9838l-0.10395,-0.66879h-1.69339l-0.10395,0.66879c-0.44459,2.88894 -2.87546,4.9838 -5.78111,4.9838c-2.90425,0 -5.33652,-2.09485 -5.78252,-4.9838l-0.10395,-0.66879h-1.69549l-0.10325,0.66879c-0.44319,2.88894 -2.87616,4.9838 -5.78322,4.9838c-2.90706,0 -5.33792,-2.09485 -5.78111,-4.98218l-0.10395,-0.66872h-1.69479l-0.10395,0.66872c-0.44459,2.88901 -2.87567,4.98387 -5.78301,4.98387c-2.90404,0 -5.33659,-2.09654 -5.78132,-4.98387l-0.10367,-0.66872h-1.68685l-0.10367,0.66872c-0.44305,2.88901 -2.8756,4.98387 -5.78301,4.98387c-2.90734,0 -5.33989,-2.09485 -5.78294,-4.98387l-0.10367,-0.66872h-1.68524l-0.10198,0.66872c-0.44473,2.88901 -2.8756,4.98387 -5.78132,4.98387c-2.90566,0 -5.33828,-2.09485 -5.78132,-4.98387l-0.10198,-0.66872h-1.6936l-0.1036,0.66872c-0.44305,2.88901 -2.87728,4.98387 -5.78469,4.98387c-2.90566,0 -5.33828,-2.09485 -5.78125,-4.98387l-0.10198,-0.66872h-1.69367l-0.1036,0.66872c-0.12874,0.82927 -0.43469,1.58157 -0.85435,2.24867c-0.22735,0.36115 -0.49151,0.69049 -0.7891,0.98976c-0.24414,0.24576 -0.50493,0.46812 -0.78917,0.66703c-0.95458,0.67209 -2.10314,1.07672 -3.35208,1.07672c-2.90566,0 -5.33823,-2.09485 -5.78128,-4.98387zM336.88972,273.59874h-83.6268v-57.48839h-29.84609v57.48839h-10.58454v-63.2931c0.75068,-0.6671 1.36925,-1.48458 1.80225,-2.4192c1.18874,2.57471 3.76506,4.29001 6.73091,4.29001c2.96592,0 5.54224,-1.7153 6.73428,-4.29001c1.19036,2.57471 3.76506,4.29001 6.73091,4.29001c2.96592,0 5.54055,-1.7153 6.73091,-4.29001c1.19043,2.57471 3.76675,4.29001 6.7326,4.29001c2.96592,0 5.54224,-1.7153 6.7326,-4.29001c1.19036,2.57471 3.76675,4.29001 6.73091,4.29001c2.96423,0 5.54238,-1.7153 6.73288,-4.29001c1.18839,2.57471 3.76464,4.29001 6.7307,4.29001c2.96606,0 5.54231,-1.71699 6.73421,-4.29162c1.18839,2.57464 3.76534,4.29162 6.7293,4.29162c2.96606,0 5.53739,-1.7153 6.7307,-4.29162c1.18909,2.57632 3.76534,4.29162 6.72789,4.29162c2.96746,0 5.54372,-1.71699 6.73281,-4.29331c1.18839,2.57632 3.76464,4.29331 6.72859,4.29331c2.96817,0 5.54231,-1.7153 6.73281,-4.29001c1.18909,2.57471 3.76534,4.29001 6.7307,4.29001c2.96255,0 5.54231,-1.71699 6.7314,-4.29162c0.28726,0.62025 0.65881,1.18699 1.09006,1.6969zM258.58954,264.94217v-49.61931h71.36861v49.61931zM293.40952,216.89945h-33.24347v41.06409h33.24347zM294.98772,257.96565h33.39012v-41.0662h-33.39012zM322.89804,242.55941l-1.11394,1.11324l-20.04391,-20.03892l0.55837,-0.55676l0.55837,-0.55837zM322.18866,237.58208l-0.55837,0.55837l-0.55627,0.55507l-14.35691,-14.35291l1.11535,-1.11513zM265.28533,232.80225l1.11513,-1.11513l20.03885,20.03737l-1.11675,1.11675zM280.7769,251.70131l-14.35473,-14.35494l1.11527,-1.11345l14.3527,14.35445zM260.16605,263.36538h68.21179v-3.82364h-68.21179zM347.42369,279.85184h-144.82319v-4.6763h144.82319z" data-paper-data="{&quot;isPathIcon&quot;:true}"></path></g><g><path d="M167.02787,321.86925c2.06207,0 3.82289,-0.72979 5.28247,-2.18936c0.73827,-0.73827 1.28986,-1.54231 1.65475,-2.41211c0.36489,-0.8698 0.54734,-1.83083 0.54734,-2.88308c0,-2.05359 -0.73403,-3.81441 -2.20209,-5.28247c-1.46806,-1.46806 -3.22888,-2.20209 -5.28247,-2.20209h-2.57122v14.96911zM167.02787,304.20163c2.80034,0 5.19761,0.99709 7.19179,2.99128c1.00134,1.00134 1.75021,2.09389 2.24664,3.27767c0.49642,1.18378 0.74464,2.48849 0.74464,3.91412c0,2.80883 -0.99709,5.21034 -2.99128,7.20452c-1.9857,1.9857 -4.38296,2.97855 -7.19179,2.97855h-3.92048c-0.18669,0 -0.36277,-0.03607 -0.52825,-0.1082c-0.16547,-0.07213 -0.30973,-0.1676 -0.43278,-0.2864c-0.12305,-0.1188 -0.22063,-0.26094 -0.29276,-0.42642c-0.07213,-0.16547 -0.1082,-0.34156 -0.1082,-0.52825v-17.66762c0,-0.18669 0.03607,-0.36277 0.1082,-0.52825c0.07213,-0.16547 0.16972,-0.30761 0.29276,-0.42642c0.12305,-0.1188 0.26731,-0.21427 0.43278,-0.2864c0.16547,-0.07213 0.34156,-0.1082 0.52825,-0.1082z" data-paper-data="{&quot;glyphName&quot;:&quot;D&quot;,&quot;glyphIndex&quot;:0,&quot;firstGlyphOfWord&quot;:true,&quot;word&quot;:1}" fill-rule="nonzero"></path><path d="M181.66603,323.74039c-0.26306,0.55158 -0.67887,0.82737 -1.24743,0.82737c-0.19518,0 -0.37338,-0.03394 -0.53461,-0.10183c-0.16123,-0.06789 -0.30337,-0.16335 -0.42642,-0.2864c-0.12305,-0.12305 -0.21851,-0.26518 -0.2864,-0.42642c-0.06789,-0.16123 -0.10183,-0.33944 -0.10183,-0.53461c0,-0.1782 0.03819,-0.36065 0.11456,-0.54734l6.82266,-17.52761c0.27155,-0.62796 0.70009,-0.94193 1.28561,-0.94193c0.58553,0 1.01406,0.31398 1.28561,0.94193l6.82266,17.52761c0.07637,0.1782 0.11456,0.36065 0.11456,0.54734c0,0.19518 -0.03394,0.37338 -0.10183,0.53461c-0.06789,0.16123 -0.16335,0.30337 -0.2864,0.42642c-0.12305,0.12305 -0.26731,0.21851 -0.43278,0.2864c-0.16547,0.06789 -0.34156,0.10183 -0.52825,0.10183c-0.59401,0 -1.01406,-0.27579 -1.26015,-0.82737l-5.61342,-14.45996z" data-paper-data="{&quot;glyphName&quot;:&quot;Λ&quot;,&quot;glyphIndex&quot;:1,&quot;word&quot;:1}" fill-rule="nonzero"></path><path d="M214.41732,321.33464c0,0.35641 -0.14002,0.67887 -0.42005,0.96739c-1.89235,1.51049 -4.02655,2.26573 -6.4026,2.26573c-2.81732,0 -5.21882,-0.99285 -7.20452,-2.97855c-1.9857,-1.9857 -2.97855,-4.38721 -2.97855,-7.20452c0,-2.80883 0.99285,-5.20609 2.97855,-7.19179c1.99418,-1.99418 4.39569,-2.99128 7.20452,-2.99128c2.40999,0 4.58662,0.79343 6.52989,2.38029c0.2376,0.22063 0.35641,0.53037 0.35641,0.9292c0,0.19518 -0.03394,0.37338 -0.10183,0.53461c-0.06789,0.16123 -0.16335,0.30337 -0.2864,0.42642c-0.12305,0.12305 -0.26731,0.21851 -0.43278,0.2864c-0.16547,0.06789 -0.34156,0.10183 -0.52825,0.10183c-0.34792,0 -0.65766,-0.12729 -0.9292,-0.38187c-0.64493,-0.50915 -1.35562,-0.8995 -2.13208,-1.17105c-0.77646,-0.27155 -1.60171,-0.40732 -2.47576,-0.40732c-2.07056,0 -3.83987,0.73403 -5.30792,2.20209c-1.45109,1.45109 -2.17663,3.21191 -2.17663,5.28247c0,2.07904 0.72554,3.84411 2.17663,5.2952c1.45957,1.45957 3.22888,2.18936 5.30792,2.18936c1.53595,0 2.91066,-0.40308 4.12414,-1.20924v-3.94594h-3.51316c-0.38187,0 -0.70221,-0.12941 -0.96103,-0.38823c-0.25882,-0.25882 -0.38823,-0.57916 -0.38823,-0.96103c0,-0.18669 0.03394,-0.36277 0.10183,-0.52825c0.06789,-0.16547 0.16335,-0.30973 0.2864,-0.43278c0.12305,-0.12305 0.26518,-0.21851 0.42642,-0.2864c0.16123,-0.06789 0.33944,-0.10183 0.53461,-0.10183h4.87514c0.1782,0 0.34792,0.03607 0.50915,0.1082c0.16123,0.07213 0.30337,0.16972 0.42642,0.29276c0.12305,0.12305 0.22063,0.26731 0.29276,0.43278c0.07213,0.16547 0.1082,0.33731 0.1082,0.51552z" data-paper-data="{&quot;glyphName&quot;:&quot;G&quot;,&quot;glyphIndex&quot;:2,&quot;word&quot;:1}" fill-rule="nonzero"></path><path d="M219.16518,306.90014v7.11542h3.56407c0.49218,0 0.95466,-0.09334 1.38744,-0.28003c0.43278,-0.18669 0.80828,-0.44339 1.1265,-0.77009c0.31822,-0.32671 0.57068,-0.70433 0.75737,-1.13287c0.18669,-0.42854 0.28003,-0.88465 0.28003,-1.36835c0,-0.49218 -0.09334,-0.95466 -0.28003,-1.38744c-0.18669,-0.43278 -0.44127,-0.8104 -0.76373,-1.13287c-0.32246,-0.32246 -0.70009,-0.57704 -1.13287,-0.76373c-0.43278,-0.18669 -0.89102,-0.28003 -1.37471,-0.28003zM216.46666,323.21851v-17.66762c0,-0.18669 0.03394,-0.36277 0.10183,-0.52825c0.06789,-0.16547 0.16335,-0.30973 0.2864,-0.43278c0.12305,-0.12305 0.26518,-0.21851 0.42642,-0.2864c0.16123,-0.06789 0.33944,-0.10183 0.53461,-0.10183h4.91333c0.85707,0 1.66536,0.16547 2.42484,0.49642c0.75949,0.33095 1.42139,0.7807 1.9857,1.34926c0.56431,0.56855 1.01194,1.23258 1.34289,1.99206c0.33095,0.75949 0.49642,1.56777 0.49642,2.42484c0,0.56007 -0.07001,1.10529 -0.21003,1.63566c-0.14002,0.53037 -0.34792,1.03104 -0.62371,1.502c-0.27579,0.47097 -0.61947,0.90799 -1.03104,1.31107c-0.41157,0.40308 -0.8889,0.75737 -1.43199,1.06286l4.0605,6.50443c0.14426,0.2376 0.21639,0.4837 0.21639,0.73827c0,0.19518 -0.03394,0.37338 -0.10183,0.53461c-0.06789,0.16123 -0.16335,0.30337 -0.2864,0.42642c-0.12305,0.12305 -0.26731,0.21851 -0.43278,0.2864c-0.16547,0.06789 -0.34156,0.10183 -0.52825,0.10183c-0.47521,0 -0.86132,-0.22063 -1.15832,-0.6619l-4.49328,-7.19179h-3.79319v6.50443c0,0.37338 -0.13153,0.6916 -0.39459,0.95466c-0.26306,0.26306 -0.58128,0.39459 -0.95466,0.39459c-0.37338,0 -0.6916,-0.13153 -0.95466,-0.39459c-0.26306,-0.26306 -0.39459,-0.58128 -0.39459,-0.95466z" data-paper-data="{&quot;glyphName&quot;:&quot;R&quot;,&quot;glyphIndex&quot;:3,&quot;word&quot;:1}" fill-rule="nonzero"></path><path d="M234.36341,323.74039c-0.26306,0.55158 -0.67887,0.82737 -1.24743,0.82737c-0.19518,0 -0.37338,-0.03394 -0.53461,-0.10183c-0.16123,-0.06789 -0.30337,-0.16335 -0.42642,-0.2864c-0.12305,-0.12305 -0.21851,-0.26518 -0.2864,-0.42642c-0.06789,-0.16123 -0.10183,-0.33944 -0.10183,-0.53461c0,-0.1782 0.03819,-0.36065 0.11456,-0.54734l6.82266,-17.52761c0.27155,-0.62796 0.70009,-0.94193 1.28561,-0.94193c0.58553,0 1.01406,0.31398 1.28561,0.94193l6.82266,17.52761c0.07637,0.1782 0.11456,0.36065 0.11456,0.54734c0,0.19518 -0.03394,0.37338 -0.10183,0.53461c-0.06789,0.16123 -0.16335,0.30337 -0.2864,0.42642c-0.12305,0.12305 -0.26731,0.21851 -0.43278,0.2864c-0.16547,0.06789 -0.34156,0.10183 -0.52825,0.10183c-0.59401,0 -1.01406,-0.27579 -1.26015,-0.82737l-5.61342,-14.45996z" data-paper-data="{&quot;glyphName&quot;:&quot;Λ&quot;,&quot;glyphIndex&quot;:4,&quot;word&quot;:1}" fill-rule="nonzero"></path><path d="M265.76544,319.98538c0.18669,0 0.36065,0.03607 0.52188,0.1082c0.16123,0.07213 0.30337,0.1676 0.42642,0.2864c0.12305,0.1188 0.22063,0.26094 0.29276,0.42642c0.07213,0.16547 0.1082,0.34156 0.1082,0.52825c0,0.35641 -0.14002,0.67887 -0.42005,0.96739c-1.89235,1.51049 -4.02655,2.26573 -6.4026,2.26573c-2.81732,0 -5.21882,-0.99285 -7.20452,-2.97855c-1.9857,-1.9857 -2.97855,-4.38721 -2.97855,-7.20452c0,-2.80883 0.99285,-5.20609 2.97855,-7.19179c1.99418,-1.99418 4.39569,-2.99128 7.20452,-2.99128c2.40999,0 4.58662,0.79343 6.52989,2.38029c0.2376,0.22912 0.35641,0.53885 0.35641,0.9292c0,0.19518 -0.03394,0.37338 -0.10183,0.53461c-0.06789,0.16123 -0.16335,0.30337 -0.2864,0.42642c-0.12305,0.12305 -0.26731,0.21851 -0.43278,0.2864c-0.16547,0.06789 -0.34156,0.10183 -0.52825,0.10183c-0.33095,0 -0.64068,-0.12729 -0.9292,-0.38187c-0.64493,-0.50915 -1.35562,-0.8995 -2.13208,-1.17105c-0.77646,-0.27155 -1.60171,-0.40732 -2.47576,-0.40732c-2.07056,0 -3.83987,0.73403 -5.30792,2.20209c-1.45109,1.45109 -2.17663,3.21191 -2.17663,5.28247c0,2.07904 0.72554,3.84411 2.17663,5.2952c1.45957,1.45957 3.22888,2.18936 5.30792,2.18936c1.77355,0 3.33495,-0.54734 4.68421,-1.64202c0.22063,-0.15275 0.4837,-0.23336 0.78919,-0.24185z" data-paper-data="{&quot;glyphName&quot;:&quot;C&quot;,&quot;glyphIndex&quot;:5,&quot;word&quot;:1}" fill-rule="nonzero"></path><path d="M282.04562,304.20163c0.18669,0 0.36277,0.03394 0.52825,0.10183c0.16547,0.06789 0.30973,0.16335 0.43278,0.2864c0.12305,0.12305 0.21851,0.26731 0.2864,0.43278c0.06789,0.16547 0.10183,0.34156 0.10183,0.52825c0,0.19518 -0.03394,0.37338 -0.10183,0.53461c-0.06789,0.16123 -0.16335,0.30337 -0.2864,0.42642c-0.12305,0.12305 -0.26731,0.21851 -0.43278,0.2864c-0.16547,0.06789 -0.34156,0.10183 -0.52825,0.10183h-11.77417c-0.19518,0 -0.37338,-0.03394 -0.53461,-0.10183c-0.16123,-0.06789 -0.30337,-0.16335 -0.42642,-0.2864c-0.12305,-0.12305 -0.21851,-0.26518 -0.2864,-0.42642c-0.06789,-0.16123 -0.10183,-0.33944 -0.10183,-0.53461c0,-0.18669 0.03394,-0.36277 0.10183,-0.52825c0.06789,-0.16547 0.16335,-0.30973 0.2864,-0.43278c0.12305,-0.12305 0.26518,-0.21851 0.42642,-0.2864c0.16123,-0.06789 0.33944,-0.10183 0.53461,-0.10183zM282.04562,321.86925c0.18669,0 0.36277,0.03394 0.52825,0.10183c0.16547,0.06789 0.30973,0.16335 0.43278,0.2864c0.12305,0.12305 0.21851,0.26731 0.2864,0.43278c0.06789,0.16547 0.10183,0.34156 0.10183,0.52825c0,0.19518 -0.03394,0.37338 -0.10183,0.53461c-0.06789,0.16123 -0.16335,0.30337 -0.2864,0.42642c-0.12305,0.12305 -0.26731,0.21851 -0.43278,0.2864c-0.16547,0.06789 -0.34156,0.10183 -0.52825,0.10183h-11.77417c-0.19518,0 -0.37338,-0.03394 -0.53461,-0.10183c-0.16123,-0.06789 -0.30337,-0.16335 -0.42642,-0.2864c-0.12305,-0.12305 -0.21851,-0.26518 -0.2864,-0.42642c-0.06789,-0.16123 -0.10183,-0.33944 -0.10183,-0.53461c0,-0.18669 0.03394,-0.36277 0.10183,-0.52825c0.06789,-0.16547 0.16335,-0.30973 0.2864,-0.43278c0.12305,-0.12305 0.26518,-0.21851 0.42642,-0.2864c0.16123,-0.06789 0.33944,-0.10183 0.53461,-0.10183zM281.0655,313.03544c0.18669,0 0.36277,0.03394 0.52825,0.10183c0.16547,0.06789 0.30973,0.16335 0.43278,0.2864c0.12305,0.12305 0.21851,0.26731 0.2864,0.43278c0.06789,0.16547 0.10183,0.34156 0.10183,0.52825c0,0.19518 -0.03394,0.37338 -0.10183,0.53461c-0.06789,0.16123 -0.16335,0.30337 -0.2864,0.42642c-0.12305,0.12305 -0.26731,0.21851 -0.43278,0.2864c-0.16547,0.06789 -0.34156,0.10183 -0.52825,0.10183h-9.82666c-0.31398,-0.00849 -0.61523,-0.14002 -0.90375,-0.39459c-0.27155,-0.24609 -0.40732,-0.56431 -0.40732,-0.95466c0,-0.16972 0.03394,-0.33519 0.10183,-0.49642c0.06789,-0.16123 0.16123,-0.30337 0.28003,-0.42642c0.1188,-0.12305 0.2567,-0.22275 0.41369,-0.29913c0.15699,-0.07637 0.32883,-0.1188 0.51552,-0.12729z" data-paper-data="{&quot;glyphName&quot;:&quot;Ξ&quot;,&quot;glyphIndex&quot;:6,&quot;word&quot;:1}" fill-rule="nonzero"></path><path d="M285.26602,323.21851v-17.66762c0,-0.18669 0.03394,-0.36277 0.10183,-0.52825c0.06789,-0.16547 0.16335,-0.30973 0.2864,-0.43278c0.12305,-0.12305 0.26518,-0.21851 0.42642,-0.2864c0.16123,-0.06789 0.33944,-0.10183 0.53461,-0.10183c0.52613,0 0.92496,0.24185 1.19651,0.72554l7.6373,15.26187l7.6373,-15.26187c0.30549,-0.4837 0.70433,-0.72554 1.19651,-0.72554c0.18669,0 0.36277,0.03394 0.52825,0.10183c0.16547,0.06789 0.30973,0.16335 0.43278,0.2864c0.12305,0.12305 0.21851,0.26731 0.2864,0.43278c0.06789,0.16547 0.10183,0.34156 0.10183,0.52825v17.66762c0,0.37338 -0.13153,0.6916 -0.39459,0.95466c-0.26306,0.26306 -0.58128,0.39459 -0.95466,0.39459c-0.37338,0 -0.6916,-0.13153 -0.95466,-0.39459c-0.26306,-0.26306 -0.39459,-0.58128 -0.39459,-0.95466v-11.93965l-6.3135,12.61428c-0.26306,0.44975 -0.65341,0.67463 -1.17105,0.67463c-0.56007,0 -0.97163,-0.27155 -1.2347,-0.81465l-6.24986,-12.47426v11.93965c0,0.37338 -0.13153,0.6916 -0.39459,0.95466c-0.26306,0.26306 -0.58128,0.39459 -0.95466,0.39459c-0.37338,0 -0.6916,-0.13153 -0.95466,-0.39459c-0.26306,-0.26306 -0.39459,-0.58128 -0.39459,-0.95466z" data-paper-data="{&quot;glyphName&quot;:&quot;M&quot;,&quot;glyphIndex&quot;:7,&quot;word&quot;:1}" fill-rule="nonzero"></path><path d="M310.22726,323.74039c-0.26306,0.55158 -0.67887,0.82737 -1.24743,0.82737c-0.19518,0 -0.37338,-0.03394 -0.53461,-0.10183c-0.16123,-0.06789 -0.30337,-0.16335 -0.42642,-0.2864c-0.12305,-0.12305 -0.21851,-0.26518 -0.2864,-0.42642c-0.06789,-0.16123 -0.10183,-0.33944 -0.10183,-0.53461c0,-0.1782 0.03819,-0.36065 0.11456,-0.54734l6.82266,-17.52761c0.27155,-0.62796 0.70009,-0.94193 1.28561,-0.94193c0.58553,0 1.01406,0.31398 1.28561,0.94193l6.82266,17.52761c0.07637,0.1782 0.11456,0.36065 0.11456,0.54734c0,0.19518 -0.03394,0.37338 -0.10183,0.53461c-0.06789,0.16123 -0.16335,0.30337 -0.2864,0.42642c-0.12305,0.12305 -0.26731,0.21851 -0.43278,0.2864c-0.16547,0.06789 -0.34156,0.10183 -0.52825,0.10183c-0.59401,0 -1.01406,-0.27579 -1.26015,-0.82737l-5.61342,-14.45996z" data-paper-data="{&quot;glyphName&quot;:&quot;Λ&quot;,&quot;glyphIndex&quot;:8,&quot;word&quot;:1}" fill-rule="nonzero"></path><path d="M328.63316,306.90014v7.11542h3.56407c0.49218,0 0.95466,-0.09334 1.38744,-0.28003c0.43278,-0.18669 0.80828,-0.44339 1.1265,-0.77009c0.31822,-0.32671 0.57068,-0.70433 0.75737,-1.13287c0.18669,-0.42854 0.28003,-0.88465 0.28003,-1.36835c0,-0.49218 -0.09334,-0.95466 -0.28003,-1.38744c-0.18669,-0.43278 -0.44127,-0.8104 -0.76373,-1.13287c-0.32246,-0.32246 -0.70009,-0.57704 -1.13287,-0.76373c-0.43278,-0.18669 -0.89102,-0.28003 -1.37471,-0.28003zM325.93464,323.21851v-17.66762c0,-0.18669 0.03394,-0.36277 0.10183,-0.52825c0.06789,-0.16547 0.16335,-0.30973 0.2864,-0.43278c0.12305,-0.12305 0.26518,-0.21851 0.42642,-0.2864c0.16123,-0.06789 0.33944,-0.10183 0.53461,-0.10183h4.91333c0.85707,0 1.66536,0.16547 2.42484,0.49642c0.75949,0.33095 1.42139,0.7807 1.9857,1.34926c0.56431,0.56855 1.01194,1.23258 1.34289,1.99206c0.33095,0.75949 0.49642,1.56777 0.49642,2.42484c0,0.56007 -0.07001,1.10529 -0.21003,1.63566c-0.14002,0.53037 -0.34792,1.03104 -0.62371,1.502c-0.27579,0.47097 -0.61947,0.90799 -1.03104,1.31107c-0.41157,0.40308 -0.8889,0.75737 -1.43199,1.06286l4.0605,6.50443c0.14426,0.2376 0.21639,0.4837 0.21639,0.73827c0,0.19518 -0.03394,0.37338 -0.10183,0.53461c-0.06789,0.16123 -0.16335,0.30337 -0.2864,0.42642c-0.12305,0.12305 -0.26731,0.21851 -0.43278,0.2864c-0.16547,0.06789 -0.34156,0.10183 -0.52825,0.10183c-0.47521,0 -0.86132,-0.22063 -1.15832,-0.6619l-4.49328,-7.19179h-3.79319v6.50443c0,0.37338 -0.13153,0.6916 -0.39459,0.95466c-0.26306,0.26306 -0.58128,0.39459 -0.95466,0.39459c-0.37338,0 -0.6916,-0.13153 -0.95466,-0.39459c-0.26306,-0.26306 -0.39459,-0.58128 -0.39459,-0.95466z" data-paper-data="{&quot;glyphName&quot;:&quot;R&quot;,&quot;glyphIndex&quot;:9,&quot;word&quot;:1}" fill-rule="nonzero"></path><path d="M341.20925,305.55089c0,-0.37338 0.13153,-0.6916 0.39459,-0.95466c0.26306,-0.26306 0.58128,-0.39459 0.95466,-0.39459c0.37338,0 0.6916,0.13153 0.95466,0.39459c0.26306,0.26306 0.39459,0.58128 0.39459,0.95466v7.53547l8.46468,-8.46468c0.28003,-0.28003 0.60674,-0.42005 0.98012,-0.42005c0.18669,0 0.36277,0.03394 0.52825,0.10183c0.16547,0.06789 0.30973,0.16335 0.43278,0.2864c0.12305,0.12305 0.21851,0.26731 0.2864,0.43278c0.06789,0.16547 0.10183,0.34156 0.10183,0.52825c0,0.37338 -0.13153,0.6916 -0.39459,0.95466l-6.66991,6.68264l6.80993,9.22841c0.16972,0.2376 0.25458,0.49218 0.25458,0.76373c0,0.1782 -0.03394,0.35216 -0.10183,0.52188c-0.06789,0.16972 -0.16123,0.31822 -0.28003,0.44551c-0.1188,0.12729 -0.25882,0.22912 -0.42005,0.30549c-0.16123,0.07637 -0.33519,0.11456 -0.52188,0.11456c-0.50067,0 -0.87829,-0.19093 -1.13287,-0.5728l-6.54262,-8.872l-1.79477,1.79477v6.30077c0,0.37338 -0.13153,0.6916 -0.39459,0.95466c-0.26306,0.26306 -0.58128,0.39459 -0.95466,0.39459c-0.37338,0 -0.6916,-0.13153 -0.95466,-0.39459c-0.26306,-0.26306 -0.39459,-0.58128 -0.39459,-0.95466z" data-paper-data="{&quot;glyphName&quot;:&quot;K&quot;,&quot;glyphIndex&quot;:10,&quot;word&quot;:1}" fill-rule="nonzero"></path><path d="M369.62,304.20163c0.18669,0 0.36277,0.03394 0.52825,0.10183c0.16547,0.06789 0.30973,0.16335 0.43278,0.2864c0.12305,0.12305 0.21851,0.26731 0.2864,0.43278c0.06789,0.16547 0.10183,0.34156 0.10183,0.52825c0,0.19518 -0.03394,0.37338 -0.10183,0.53461c-0.06789,0.16123 -0.16335,0.30337 -0.2864,0.42642c-0.12305,0.12305 -0.26731,0.21851 -0.43278,0.2864c-0.16547,0.06789 -0.34156,0.10183 -0.52825,0.10183h-11.77417c-0.19518,0 -0.37338,-0.03394 -0.53461,-0.10183c-0.16123,-0.06789 -0.30337,-0.16335 -0.42642,-0.2864c-0.12305,-0.12305 -0.21851,-0.26518 -0.2864,-0.42642c-0.06789,-0.16123 -0.10183,-0.33944 -0.10183,-0.53461c0,-0.18669 0.03394,-0.36277 0.10183,-0.52825c0.06789,-0.16547 0.16335,-0.30973 0.2864,-0.43278c0.12305,-0.12305 0.26518,-0.21851 0.42642,-0.2864c0.16123,-0.06789 0.33944,-0.10183 0.53461,-0.10183zM369.62,321.86925c0.18669,0 0.36277,0.03394 0.52825,0.10183c0.16547,0.06789 0.30973,0.16335 0.43278,0.2864c0.12305,0.12305 0.21851,0.26731 0.2864,0.43278c0.06789,0.16547 0.10183,0.34156 0.10183,0.52825c0,0.19518 -0.03394,0.37338 -0.10183,0.53461c-0.06789,0.16123 -0.16335,0.30337 -0.2864,0.42642c-0.12305,0.12305 -0.26731,0.21851 -0.43278,0.2864c-0.16547,0.06789 -0.34156,0.10183 -0.52825,0.10183h-11.77417c-0.19518,0 -0.37338,-0.03394 -0.53461,-0.10183c-0.16123,-0.06789 -0.30337,-0.16335 -0.42642,-0.2864c-0.12305,-0.12305 -0.21851,-0.26518 -0.2864,-0.42642c-0.06789,-0.16123 -0.10183,-0.33944 -0.10183,-0.53461c0,-0.18669 0.03394,-0.36277 0.10183,-0.52825c0.06789,-0.16547 0.16335,-0.30973 0.2864,-0.43278c0.12305,-0.12305 0.26518,-0.21851 0.42642,-0.2864c0.16123,-0.06789 0.33944,-0.10183 0.53461,-0.10183zM368.63988,313.03544c0.18669,0 0.36277,0.03394 0.52825,0.10183c0.16547,0.06789 0.30973,0.16335 0.43278,0.2864c0.12305,0.12305 0.21851,0.26731 0.2864,0.43278c0.06789,0.16547 0.10183,0.34156 0.10183,0.52825c0,0.19518 -0.03394,0.37338 -0.10183,0.53461c-0.06789,0.16123 -0.16335,0.30337 -0.2864,0.42642c-0.12305,0.12305 -0.26731,0.21851 -0.43278,0.2864c-0.16547,0.06789 -0.34156,0.10183 -0.52825,0.10183h-9.82666c-0.31398,-0.00849 -0.61523,-0.14002 -0.90375,-0.39459c-0.27155,-0.24609 -0.40732,-0.56431 -0.40732,-0.95466c0,-0.16972 0.03394,-0.33519 0.10183,-0.49642c0.06789,-0.16123 0.16123,-0.30337 0.28003,-0.42642c0.1188,-0.12305 0.2567,-0.22275 0.41369,-0.29913c0.15699,-0.07637 0.32883,-0.1188 0.51552,-0.12729z" data-paper-data="{&quot;glyphName&quot;:&quot;Ξ&quot;,&quot;glyphIndex&quot;:11,&quot;word&quot;:1}" fill-rule="nonzero"></path><path d="M386.90576,306.90014h-5.02789v16.31837c0,0.37338 -0.13153,0.6916 -0.39459,0.95466c-0.26306,0.26306 -0.58128,0.39459 -0.95466,0.39459c-0.37338,0 -0.6916,-0.13153 -0.95466,-0.39459c-0.26306,-0.26306 -0.39459,-0.58128 -0.39459,-0.95466v-16.31837h-5.02789c-0.37338,0 -0.6916,-0.13153 -0.95466,-0.39459c-0.26306,-0.26306 -0.39459,-0.58128 -0.39459,-0.95466c0,-0.37338 0.13153,-0.6916 0.39459,-0.95466c0.26306,-0.26306 0.58128,-0.39459 0.95466,-0.39459h12.75429c0.37338,0 0.6916,0.13153 0.95466,0.39459c0.26306,0.26306 0.39459,0.58128 0.39459,0.95466c0,0.37338 -0.13153,0.6916 -0.39459,0.95466c-0.26306,0.26306 -0.58128,0.39459 -0.95466,0.39459z" data-paper-data="{&quot;glyphName&quot;:&quot;T&quot;,&quot;glyphIndex&quot;:12,&quot;lastGlyphOfWord&quot;:true,&quot;word&quot;:1}" fill-rule="nonzero"></path><path d="M155.32044,290.41952h-78.06665v2.06353h79.09863c0.03381,0 0.06752,-0.00164 0.10114,-0.00492c0.03367,-0.00328 0.06708,-0.00819 0.10023,-0.01475c0.03315,-0.00656 0.06588,-0.01475 0.09819,-0.02458c0.03236,-0.00983 0.06415,-0.0213 0.09538,-0.03442c0.03123,-0.01264 0.06174,-0.02692 0.09152,-0.04284c0.02983,-0.01592 0.05879,-0.03324 0.08688,-0.05197c0.02809,-0.01873 0.05521,-0.03886 0.08133,-0.0604c0.02613,-0.02154 0.05116,-0.04425 0.07508,-0.06813c0.02388,-0.02388 0.04654,-0.04893 0.06799,-0.07515c0.02145,-0.02622 0.04156,-0.05338 0.06033,-0.08147c0.01878,-0.02809 0.03612,-0.05689 0.05204,-0.08639c0.01597,-0.02997 0.03041,-0.06064 0.04334,-0.09201c0.01292,-0.0309 0.0243,-0.06251 0.03413,-0.09482c0.00979,-0.03278 0.01798,-0.06555 0.02458,-0.09833c0.0066,-0.03324 0.01157,-0.06672 0.01489,-0.10044c0.00328,-0.03371 0.00492,-0.06743 0.00492,-0.10114v-4.70159h235.23186v4.70159c0,0.03371 0.00164,0.06743 0.00492,0.10114c0.00328,0.03371 0.00819,0.06719 0.01475,0.10044c0.00656,0.03278 0.01475,0.06555 0.02458,0.09833c0.00983,0.03231 0.0213,0.06391 0.03442,0.09482c0.01264,0.03137 0.02692,0.06204 0.04284,0.09201c0.01592,0.0295 0.03324,0.0583 0.05197,0.08639c0.01873,0.02809 0.03886,0.05525 0.0604,0.08147c0.02154,0.02622 0.04425,0.05127 0.06813,0.07515c0.02388,0.02388 0.04893,0.04659 0.07515,0.06813c0.02622,0.02154 0.05338,0.04167 0.08147,0.0604c0.02809,0.01873 0.05689,0.03605 0.08639,0.05197c0.02997,0.01592 0.06064,0.0302 0.09201,0.04284c0.0309,0.01311 0.06251,0.02458 0.09482,0.03442c0.03278,0.00983 0.06555,0.01803 0.09833,0.02458c0.03324,0.00656 0.06672,0.01147 0.10044,0.01475c0.03371,0.00328 0.06743,0.00492 0.10114,0.00492h79.0982v-2.06353h-78.06644v-4.70159c0,-0.03371 -0.00164,-0.06743 -0.00492,-0.10114c-0.00328,-0.03371 -0.00819,-0.06719 -0.01475,-0.10044c-0.00656,-0.03278 -0.01475,-0.06555 -0.02458,-0.09833c-0.00983,-0.03231 -0.0213,-0.06391 -0.03442,-0.09482c-0.01264,-0.03137 -0.02692,-0.06204 -0.04284,-0.09201c-0.01592,-0.0295 -0.03324,-0.0583 -0.05197,-0.08639c-0.01873,-0.02809 -0.03886,-0.05525 -0.0604,-0.08147c-0.02154,-0.02622 -0.04425,-0.05127 -0.06813,-0.07515c-0.02388,-0.02388 -0.04893,-0.04659 -0.07515,-0.06813c-0.02622,-0.02154 -0.05338,-0.04167 -0.08147,-0.0604c-0.02809,-0.01873 -0.05689,-0.03605 -0.08639,-0.05197c-0.02997,-0.01592 -0.06064,-0.0302 -0.09201,-0.04284c-0.0309,-0.01311 -0.06251,-0.02458 -0.09482,-0.03442c-0.03278,-0.00983 -0.06555,-0.01803 -0.09833,-0.02458c-0.03324,-0.00656 -0.06672,-0.01147 -0.10044,-0.01475c-0.03371,-0.00328 -0.06743,-0.00492 -0.10114,-0.00492h-237.2956c-0.03381,0 -0.06752,0.00164 -0.10114,0.00492c-0.03367,0.00328 -0.06708,0.00819 -0.10023,0.01475c-0.03315,0.00656 -0.06588,0.01475 -0.09819,0.02458c-0.03236,0.00983 -0.06415,0.0213 -0.09538,0.03442c-0.03123,0.01264 -0.06174,0.02692 -0.09152,0.04284c-0.02983,0.01592 -0.05879,0.03324 -0.08688,0.05197c-0.02809,0.01873 -0.05521,0.03886 -0.08133,0.0604c-0.02613,0.02154 -0.05116,0.04425 -0.07508,0.06813c-0.02388,0.02388 -0.04654,0.04893 -0.06799,0.07515c-0.02145,0.02622 -0.04156,0.05338 -0.06033,0.08147c-0.01878,0.02809 -0.03612,0.05689 -0.05204,0.08639c-0.01597,0.02997 -0.03041,0.06064 -0.04334,0.09201c-0.01292,0.0309 -0.0243,0.06251 -0.03413,0.09482c-0.00979,0.03278 -0.01798,0.06555 -0.02458,0.09833c-0.0066,0.03324 -0.01157,0.06672 -0.01489,0.10044c-0.00328,0.03371 -0.00492,0.06743 -0.00492,0.10114z" fill-rule="evenodd"></path><path d="M394.67977,338.34987h78.06644v-2.06353h-79.0982c-0.03371,0 -0.06743,0.00164 -0.10114,0.00492c-0.03371,0.00328 -0.06719,0.00819 -0.10044,0.01475c-0.03278,0.00656 -0.06555,0.01475 -0.09833,0.02458c-0.03231,0.00983 -0.06391,0.0213 -0.09482,0.03442c-0.03137,0.01264 -0.06204,0.02692 -0.09201,0.04284c-0.0295,0.01592 -0.0583,0.03324 -0.08639,0.05197c-0.02809,0.01873 -0.05525,0.03886 -0.08147,0.0604c-0.02622,0.02154 -0.05127,0.04425 -0.07515,0.06813c-0.02388,0.02388 -0.04659,0.04893 -0.06813,0.07515c-0.02154,0.02622 -0.04167,0.05338 -0.0604,0.08147c-0.01873,0.02809 -0.03605,0.05689 -0.05197,0.08639c-0.01592,0.02997 -0.0302,0.06064 -0.04284,0.09201c-0.01311,0.0309 -0.02458,0.06251 -0.03442,0.09482c-0.00983,0.03278 -0.01803,0.06555 -0.02458,0.09833c-0.00656,0.03324 -0.01147,0.06672 -0.01475,0.10044c-0.00328,0.03371 -0.00492,0.06743 -0.00492,0.10114v4.70159h-235.23186v-4.70159c0,-0.03371 -0.00164,-0.06743 -0.00492,-0.10114c-0.00332,-0.03371 -0.00829,-0.06719 -0.01489,-0.10044c-0.0066,-0.03278 -0.0148,-0.06555 -0.02458,-0.09833c-0.00983,-0.03231 -0.02121,-0.06391 -0.03413,-0.09482c-0.01292,-0.03137 -0.02737,-0.06204 -0.04334,-0.09201c-0.01592,-0.0295 -0.03327,-0.0583 -0.05204,-0.08639c-0.01878,-0.02809 -0.03889,-0.05525 -0.06033,-0.08147c-0.02145,-0.02622 -0.04411,-0.05127 -0.06799,-0.07515c-0.02393,-0.02388 -0.04895,-0.04659 -0.07508,-0.06813c-0.02613,-0.02154 -0.05324,-0.04167 -0.08133,-0.0604c-0.02809,-0.01873 -0.05705,-0.03605 -0.08688,-0.05197c-0.02978,-0.01592 -0.06029,-0.0302 -0.09152,-0.04284c-0.03123,-0.01311 -0.06302,-0.02458 -0.09538,-0.03442c-0.03231,-0.00983 -0.06504,-0.01803 -0.09819,-0.02458c-0.03315,-0.00656 -0.06656,-0.01147 -0.10023,-0.01475c-0.03362,-0.00328 -0.06733,-0.00492 -0.10114,-0.00492h-79.09863v2.06353h78.06665v4.70159c0,0.03371 0.00164,0.06743 0.00492,0.10114c0.00332,0.03371 0.00829,0.06719 0.01489,0.10044c0.0066,0.03278 0.0148,0.06555 0.02458,0.09833c0.00983,0.03231 0.02121,0.06391 0.03413,0.09482c0.01292,0.03137 0.02737,0.06204 0.04334,0.09201c0.01592,0.0295 0.03327,0.0583 0.05204,0.08639c0.01878,0.02809 0.03889,0.05525 0.06033,0.08147c0.02145,0.02622 0.04411,0.05127 0.06799,0.07515c0.02393,0.02388 0.04895,0.04659 0.07508,0.06813c0.02613,0.02154 0.05324,0.04167 0.08133,0.0604c0.02809,0.01873 0.05705,0.03605 0.08688,0.05197c0.02978,0.01592 0.06029,0.0302 0.09152,0.04284c0.03123,0.01311 0.06302,0.02458 0.09538,0.03442c0.03231,0.00983 0.06504,0.01803 0.09819,0.02458c0.03315,0.00656 0.06656,0.01147 0.10023,0.01475c0.03362,0.00328 0.06733,0.00492 0.10114,0.00492h237.2956c0.03371,0 0.06743,-0.00164 0.10114,-0.00492c0.03371,-0.00328 0.06719,-0.00819 0.10044,-0.01475c0.03278,-0.00656 0.06555,-0.01475 0.09833,-0.02458c0.03231,-0.00983 0.06391,-0.0213 0.09482,-0.03442c0.03137,-0.01264 0.06204,-0.02692 0.09201,-0.04284c0.0295,-0.01592 0.0583,-0.03324 0.08639,-0.05197c0.02809,-0.01873 0.05525,-0.03886 0.08147,-0.0604c0.02622,-0.02154 0.05127,-0.04425 0.07515,-0.06813c0.02388,-0.02388 0.04659,-0.04893 0.06813,-0.07515c0.02154,-0.02622 0.04167,-0.05338 0.0604,-0.08147c0.01873,-0.02809 0.03605,-0.05689 0.05197,-0.08639c0.01592,-0.02997 0.0302,-0.06064 0.04284,-0.09201c0.01311,-0.0309 0.02458,-0.06251 0.03442,-0.09482c0.00983,-0.03278 0.01803,-0.06555 0.02458,-0.09833c0.00656,-0.03324 0.01147,-0.06672 0.01475,-0.10044c0.00328,-0.03371 0.00492,-0.06743 0.00492,-0.10114z" fill-rule="evenodd"></path></g><g data-paper-data="{&quot;isContainerElementsWrapper&quot;:true}" fill-rule="evenodd"><path d="M275,106c-71.24464,0 -129,57.75529 -129,129.00014c0,16.90977 3.25354,33.0591 9.16873,47.85709c0.04643,-0.01896 0.09334,-0.03722 0.14068,-0.05408c0.04769,-0.01756 0.0958,-0.03301 0.14426,-0.04776c0.04851,-0.01498 0.09732,-0.02856 0.14644,-0.04074c0.04917,-0.01194 0.09861,-0.02318 0.14827,-0.03301c0.04973,-0.00983 0.09966,-0.01826 0.14974,-0.02599c0.05015,-0.00773 0.10044,-0.01405 0.1508,-0.01896c0.05043,-0.00492 0.10093,-0.00843 0.15157,-0.01124c0.05064,-0.00211 0.10128,-0.00351 0.15192,-0.00351h39.74901c-8.4062,-13.89757 -13.24425,-30.19439 -13.24425,-47.6218c0,-50.88917 41.2538,-92.14297 92.14283,-92.14297c50.88938,0 92.14311,41.2538 92.14311,92.14297c0,17.42741 -4.83785,33.72423 -13.24437,47.6218h39.74927c0.05057,0 0.10114,0.0014 0.15171,0.00351c0.05057,0.00281 0.10114,0.00632 0.15171,0.01124c0.05057,0.00492 0.10114,0.01124 0.15101,0.01896c0.04987,0.00773 0.09973,0.01615 0.1496,0.02599c0.04987,0.00983 0.09903,0.02107 0.1482,0.03301c0.04917,0.01217 0.0981,0.02575 0.14679,0.04074c0.04846,0.01475 0.09622,0.0302 0.14398,0.04776c0.04706,0.01686 0.09412,0.03442 0.14047,0.05408c5.91526,-14.79799 9.16859,-30.94732 9.16859,-47.85709c0,-71.24485 -57.75494,-129.00014 -129.00007,-129.00014zM277.5917,120.19663c0.0014,-0.23178 0.04284,-0.44789 0.12572,-0.64835c0.08288,-0.20038 0.19526,-0.37527 0.33713,-0.52459c0.14188,-0.14932 0.30763,-0.26598 0.49727,-0.35013c0.18964,-0.08414 0.39473,-0.12572 0.61527,-0.12495c0.22054,0.00084 0.42563,0.04397 0.61456,0.12951c0.18917,0.0855 0.35539,0.20345 0.49867,0.35385c0.14398,0.15037 0.25636,0.32603 0.33783,0.52705c0.08077,0.20101 0.12151,0.41748 0.1201,0.64926l-0.02388,6.4966c-0.00281,0.7464 -0.13696,1.39755 -0.40175,1.95347c-0.26479,0.55599 -0.63423,1.01968 -1.10762,1.39109c-0.47339,0.37141 -1.03598,0.64919 -1.68636,0.83342c-0.65109,0.18416 -1.36398,0.27476 -2.13868,0.27195c-0.76346,-0.00288 -1.46793,-0.09735 -2.1148,-0.28354c-0.64664,-0.18617 -1.20548,-0.46388 -1.67653,-0.83314c-0.47058,-0.36925 -0.83768,-0.83426 -1.1013,-1.39502c-0.26409,-0.56076 -0.39402,-1.21993 -0.39121,-1.97763l0.02388,-6.4966c0.0007,-0.23178 0.04284,-0.44789 0.12502,-0.64835c0.08288,-0.20038 0.19526,-0.37527 0.33713,-0.52459c0.14188,-0.14932 0.30763,-0.26598 0.49797,-0.35013c0.18964,-0.08407 0.39473,-0.12572 0.61527,-0.12495c0.22054,0.00084 0.42493,0.04404 0.61386,0.12951c0.18917,0.08555 0.35563,0.2035 0.49938,0.35385c0.14398,0.15037 0.25636,0.32603 0.33713,0.52712c0.08147,0.20101 0.12151,0.41741 0.12081,0.64926l-0.01545,6.44575c-0.0014,0.40709 0.059,0.75784 0.18261,1.05234c0.12362,0.2945 0.28516,0.53541 0.48533,0.72273c0.19947,0.18732 0.42844,0.32667 0.6848,0.41811c0.25706,0.09145 0.51834,0.13759 0.78453,0.13858c0.27111,0.00105 0.5359,-0.0432 0.79296,-0.13275c0.25777,-0.08948 0.48884,-0.22714 0.69323,-0.41299c0.20439,-0.18584 0.37014,-0.42556 0.49867,-0.71907c0.12853,-0.29352 0.19315,-0.64385 0.19455,-1.05094zM291.81165,123.6811c-0.1475,-0.21373 -0.19947,-0.45443 -0.15522,-0.72216c0.03933,-0.23424 0.13485,-0.42184 0.28726,-0.5628c0.15241,-0.14089 0.33854,-0.24604 0.55978,-0.31543c0.22054,-0.06939 0.46426,-0.10627 0.73186,-0.11062c0.2669,-0.00435 0.53449,0.01566 0.80209,0.06012c0.28446,0.04727 0.54292,0.10451 0.7754,0.17173c0.23248,0.06722 0.45513,0.15009 0.66794,0.24849c0.21281,0.0984 0.42493,0.21373 0.63493,0.34605c0.21001,0.13232 0.43546,0.28719 0.67497,0.46461c0.12783,0.09566 0.27462,0.1574 0.44249,0.18514c0.12783,0.02128 0.25636,0.01819 0.38419,-0.00927c0.12713,-0.02753 0.24302,-0.07571 0.34626,-0.14455c0.10325,-0.06883 0.19104,-0.15747 0.26338,-0.26577c0.07234,-0.10837 0.1201,-0.23227 0.14328,-0.37169c0.0398,-0.23983 0.00468,-0.46918 -0.10535,-0.68803c-0.10957,-0.21885 -0.269,-0.42436 -0.4776,-0.61667c-0.2086,-0.19231 -0.45583,-0.37085 -0.74099,-0.53569c-0.28516,-0.16477 -0.58577,-0.31079 -0.90323,-0.43792c-0.31676,-0.12713 -0.63704,-0.23613 -0.96012,-0.32709c-0.32308,-0.09089 -0.62369,-0.15944 -0.90253,-0.20579c-0.76978,-0.12776 -1.47706,-0.15634 -2.12253,-0.08576c-0.64477,0.07059 -1.21016,0.2289 -1.69479,0.47508c-0.48533,0.24618 -0.88076,0.57593 -1.18769,0.98934c-0.30623,0.41334 -0.5057,0.89895 -0.59841,1.45676c-0.07024,0.42387 -0.07796,0.80525 -0.02248,1.144c0.05549,0.33882 0.17699,0.6527 0.36382,0.94165c0.18683,0.28895 0.4453,0.56392 0.7747,0.82492c0.3287,0.261 0.73186,0.52572 1.20876,0.79402l0.74099,0.40667c0.06321,0.03343 0.11823,0.06408 0.16505,0.09194c0.04706,0.02788 0.09552,0.05591 0.14539,0.08428c0.04987,0.02831 0.10606,0.0578 0.16997,0.08843c0.06391,0.03062 0.14117,0.06497 0.23248,0.10304l0.41369,0.19771c0.07445,0.03526 0.14328,0.07101 0.20579,0.10725c0.06321,0.03617 0.12853,0.0715 0.19736,0.10585l0.35469,0.19638c0.16224,0.09004 0.31536,0.18844 0.45794,0.29527c0.14258,0.10683 0.26409,0.22433 0.36312,0.35251c0.09903,0.12825 0.16997,0.27041 0.21281,0.42654c0.04284,0.15613 0.04917,0.32625 0.01826,0.51033c-0.04074,0.2454 -0.13134,0.4453 -0.27181,0.59974c-0.13977,0.15438 -0.31536,0.26999 -0.52607,0.34675c-0.21001,0.07684 -0.4467,0.12067 -0.70938,0.13155c-0.26268,0.01082 -0.5359,-0.00737 -0.82035,-0.05457c-0.52466,-0.08702 -1.01491,-0.24014 -1.47144,-0.4592c-0.45653,-0.21907 -0.8632,-0.44705 -1.21929,-0.68382c-0.10957,-0.06413 -0.21141,-0.13261 -0.30553,-0.20551c-0.09341,-0.0729 -0.18542,-0.14117 -0.27532,-0.20481c-0.0899,-0.06356 -0.1791,-0.11996 -0.2683,-0.1692c-0.0892,-0.04924 -0.18402,-0.08218 -0.28446,-0.09882c-0.11167,-0.01854 -0.23037,-0.00379 -0.3561,0.04411c-0.12502,0.04797 -0.24302,0.1187 -0.35329,0.21218c-0.10957,0.09348 -0.20509,0.20228 -0.28586,0.32646c-0.08077,0.12418 -0.13275,0.25594 -0.15592,0.39536c-0.03652,0.21759 -0.0007,0.43413 0.10676,0.64968c0.10746,0.21562 0.27041,0.42465 0.48954,0.62714c0.21843,0.20256 0.48112,0.39522 0.78945,0.57818c0.30763,0.18289 0.64125,0.35006 1.00016,0.50134c0.35891,0.15129 0.73467,0.28396 1.12869,0.39803c0.39332,0.11406 0.78875,0.20404 1.18488,0.26978c0.76978,0.12776 1.47706,0.15501 2.12253,0.08161c0.64547,-0.0734 1.21297,-0.23852 1.70322,-0.49537c0.48954,-0.25685 0.88919,-0.60031 1.19822,-1.03043c0.30904,-0.43012 0.51272,-0.938 0.60965,-1.5237c0.0892,-0.53541 0.07164,-1.00971 -0.05197,-1.42284c-0.12291,-0.41313 -0.33362,-0.78755 -0.63002,-1.12342c-0.2964,-0.3358 -0.66935,-0.6442 -1.11886,-0.92515c-0.44881,-0.28087 -0.95451,-0.55964 -1.51639,-0.8363c-0.35048,-0.16709 -0.69814,-0.33095 -1.04441,-0.49151c-0.34556,-0.16063 -0.65109,-0.33172 -0.91658,-0.51328c-0.26479,-0.18156 -0.47128,-0.37913 -0.61948,-0.59286zM256.56176,131.44567c0.04966,-0.21106 0.0564,-0.43111 0.0203,-0.66008l-0.53302,-3.37617l1.70062,-0.26844c0.41327,-0.06525 0.7452,-0.07473 0.9958,-0.02845c0.2506,0.04631 0.45599,0.15986 0.61618,0.34064c0.16021,0.18072 0.29541,0.42984 0.40561,0.74731c0.11027,0.31747 0.23164,0.71479 0.36424,1.19183c0.09201,0.32891 0.19322,0.63493 0.30377,0.91798c0.11048,0.28312 0.24484,0.52663 0.40294,0.73066c0.15817,0.20396 0.34092,0.35539 0.54833,0.45436c0.20734,0.09889 0.4507,0.12628 0.72989,0.08225c0.30721,-0.04853 0.55212,-0.12867 0.73481,-0.24056c0.18268,-0.11182 0.31845,-0.24913 0.40723,-0.412c0.08878,-0.16288 0.13963,-0.3483 0.15255,-0.55641c0.01292,-0.20818 0.00042,-0.4323 -0.03744,-0.67244c-0.0177,-0.11167 -0.03835,-0.22433 -0.06195,-0.33797c-0.02367,-0.11357 -0.05078,-0.23094 -0.0814,-0.35209c-0.10873,-0.43504 -0.21298,-0.82356 -0.31276,-1.16556c-0.09981,-0.34198 -0.20762,-0.64413 -0.32344,-0.90632c-0.11582,-0.26219 -0.2454,-0.48498 -0.3889,-0.66843c-0.14342,-0.18339 -0.31578,-0.33222 -0.51694,-0.44642c-0.20123,-0.1142 -0.43574,-0.19455 -0.70348,-0.24098c-0.26781,-0.04643 -0.58394,-0.06377 -0.94846,-0.05204l-0.00527,-0.0335c0.48383,-0.16224 0.88361,-0.35846 1.19935,-0.58865c0.31564,-0.23016 0.55999,-0.48624 0.73298,-0.76824c0.17299,-0.28207 0.28249,-0.58556 0.32849,-0.91054c0.046,-0.32491 0.04172,-0.66057 -0.01299,-1.00683c-0.10051,-0.63669 -0.31192,-1.13276 -0.63423,-1.4883c-0.32231,-0.35553 -0.71753,-0.61084 -1.18558,-0.76592c-0.46812,-0.15508 -0.99342,-0.22813 -1.57588,-0.21914c-0.58247,0.00892 -1.18361,0.06237 -1.80359,0.16021l-3.35938,0.53042c-0.25692,0.04053 -0.49615,0.11125 -0.71781,0.21204c-0.22166,0.10086 -0.40891,0.22911 -0.56175,0.38489c-0.15283,0.15585 -0.2657,0.33819 -0.33861,0.54721c-0.0729,0.20902 -0.08906,0.44192 -0.04853,0.69885l1.42052,8.99742c0.03617,0.22904 0.11041,0.43623 0.22265,0.62173c0.11231,0.18549 0.24997,0.34121 0.41292,0.46714c0.16302,0.126 0.34465,0.21605 0.54496,0.27034c0.20036,0.05422 0.40943,0.06415 0.62721,0.02978c0.21787,-0.03442 0.41369,-0.1083 0.58759,-0.22159c0.17383,-0.11329 0.32028,-0.25524 0.43933,-0.4257c0.11905,-0.17046 0.20347,-0.36122 0.25313,-0.57228zM257.92848,125.06489c-0.2959,0.08393 -0.59462,0.14967 -0.89621,0.19729l-1.34038,0.21162l-0.52642,-3.33424l1.26502,-0.19975c0.34071,-0.05373 0.67075,-0.09299 0.99033,-0.11772c0.3195,-0.02465 0.60768,-0.00288 0.8646,0.06532c0.25692,0.0682 0.47472,0.19694 0.65347,0.38623c0.17868,0.18929 0.30159,0.49622 0.3686,0.92065c0.05816,0.3686 0.02929,0.67511 -0.08667,0.91953c-0.11598,0.24442 -0.2864,0.44305 -0.51125,0.59588c-0.2249,0.1529 -0.48526,0.27125 -0.78109,0.35518zM235.86803,127.49154c0.1581,0.01152 0.31522,-0.0078 0.47135,-0.05794l2.21236,-0.71121l2.5773,8.01784c0.07101,0.22075 0.17615,0.41411 0.31564,0.58008c0.13949,0.16604 0.29949,0.29871 0.47985,0.3981c0.18044,0.09938 0.3738,0.16049 0.58008,0.18325c0.20628,0.02276 0.41439,0.00042 0.62433,-0.06708c0.20993,-0.0675 0.39213,-0.17053 0.54651,-0.30925c0.15431,-0.13872 0.27722,-0.30145 0.36867,-0.48828c0.09138,-0.18676 0.14539,-0.38819 0.16203,-0.60438c0.01665,-0.21619 -0.01054,-0.43462 -0.08147,-0.65537l-2.57737,-8.01784l2.16397,-0.69555c0.15606,-0.05022 0.29506,-0.12607 0.41685,-0.22756c0.12179,-0.10149 0.21956,-0.21759 0.29338,-0.34823c0.07382,-0.13064 0.12095,-0.27048 0.14131,-0.41959c0.02037,-0.14904 0.00716,-0.29625 -0.03954,-0.44164c-0.04671,-0.14532 -0.12221,-0.27399 -0.22651,-0.38595c-0.1043,-0.11196 -0.22447,-0.19954 -0.36059,-0.26268c-0.13612,-0.06314 -0.28326,-0.10051 -0.44136,-0.11203c-0.15812,-0.01157 -0.31524,0.00775 -0.47135,0.05794l-7.37188,2.36969c-0.15613,0.05022 -0.29506,0.12607 -0.41685,0.22756c-0.12179,0.10149 -0.21956,0.21759 -0.29338,0.34823c-0.07382,0.13064 -0.12052,0.27181 -0.14005,0.42359c-0.01946,0.15178 -0.0059,0.30033 0.04081,0.44565c0.04678,0.14539 0.12179,0.27266 0.22525,0.38194c0.10346,0.10936 0.22321,0.19554 0.35933,0.25868c0.13612,0.06314 0.28326,0.10051 0.44136,0.11203zM306.29218,125.0651c-0.15592,-0.05015 -0.29499,-0.126 -0.4165,-0.22749c-0.12221,-0.10156 -0.21984,-0.21759 -0.29359,-0.34823c-0.07375,-0.13064 -0.12081,-0.27048 -0.14117,-0.41959c-0.02037,-0.14911 -0.00702,-0.29633 0.03933,-0.44164c0.04706,-0.14532 0.12221,-0.27399 0.22686,-0.38602c0.10395,-0.11196 0.22405,-0.19954 0.36031,-0.26268c0.13626,-0.06314 0.28305,-0.10051 0.44178,-0.11203c0.15803,-0.01152 0.31466,0.0078 0.47128,0.05801l7.37125,2.36969c0.15663,0.05015 0.29569,0.126 0.4172,0.22749c0.12151,0.10156 0.21984,0.21759 0.29359,0.34823c0.07375,0.13064 0.1201,0.27188 0.13977,0.42366c0.01967,0.15178 0.00562,0.30033 -0.04074,0.44565c-0.04706,0.14532 -0.12151,0.27266 -0.22546,0.38194c-0.10325,0.10929 -0.22335,0.19554 -0.35891,0.25868c-0.13626,0.06314 -0.28375,0.10051 -0.44178,0.11203c-0.15803,0.01152 -0.31536,-0.0078 -0.47128,-0.05801l-2.16397,-0.69555l-2.57695,8.01784c-0.07117,0.22068 -0.17653,0.41402 -0.31606,0.58001c-0.13907,0.16604 -0.30061,0.29829 -0.48392,0.39683c-0.18261,0.09847 -0.37787,0.15915 -0.58366,0.18191c-0.20649,0.02283 -0.41439,0.00042 -0.6244,-0.06708c-0.21001,-0.06743 -0.39192,-0.17053 -0.54643,-0.30925c-0.15452,-0.13872 -0.27603,-0.30103 -0.36452,-0.48695c-0.0892,-0.18591 -0.14188,-0.38693 -0.15803,-0.60312c-0.01686,-0.21619 0.01054,-0.43462 0.08147,-0.6553l2.57695,-8.01784zM275,364c-23.91762,0 -46.31499,-6.50946 -65.51726,-17.85255h131.03466c-19.20248,11.34309 -41.59929,17.85255 -65.5174,17.85255z" data-paper-data="{&quot;isBaseLogoContainer&quot;:true}"></path></g></g></g><g class="watermark-group" style="opacity:0.040000010281801224"><path class="watermark-path" d="M129.52,370.3a11.88,11.88,0,0,1,2.58,5.58,12,12,0,0,1,.11,3,11.81,11.81,0,0,1-.64,2.93,12.34,12.34,0,0,1-1.41,2.72,11.65,11.65,0,0,1-2.13,2.32,12,12,0,0,1-2.64,1.69,13,13,0,0,1-2.91.9,12.47,12.47,0,0,1-3,.12,12.17,12.17,0,0,1-2.93-.64,11.8,11.8,0,0,1-2.72-1.38,12.19,12.19,0,0,1-4-4.79,11.85,11.85,0,0,1-.89-2.92,12.14,12.14,0,0,1-.13-3,11.54,11.54,0,0,1,.64-2.92,11.67,11.67,0,0,1,3.5-5,11.44,11.44,0,0,1,2.67-1.69,11.64,11.64,0,0,1,2.92-.91,10.71,10.71,0,0,1,3-.12,11.68,11.68,0,0,1,5.66,2,11.7,11.7,0,0,1,2.34,2.12m-1.4,8.76a13,13,0,0,1-1.22,2.32,9.68,9.68,0,0,1-1.81,2,7.44,7.44,0,0,1-2.38,1.37,6.17,6.17,0,0,1-5.11-.46,8.73,8.73,0,0,1-3.85-4.58,6.69,6.69,0,0,1-.34-2.66,6.09,6.09,0,0,1,.77-2.47,7.15,7.15,0,0,1,1.75-2.11,9.58,9.58,0,0,1,1.09-.81,8.23,8.23,0,0,1,1.12-.63,8.14,8.14,0,0,1,1.19-.46,12.71,12.71,0,0,1,1.32-.37l2,2.38a12.83,12.83,0,0,0-1.56.17,7.86,7.86,0,0,0-1.23.32,4.5,4.5,0,0,0-1,.49,6.41,6.41,0,0,0-.93.67,4.49,4.49,0,0,0-1.15,1.39,3.87,3.87,0,0,0-.45,1.58,4.12,4.12,0,0,0,.26,1.63,6.11,6.11,0,0,0,2.36,2.82,4.43,4.43,0,0,0,1.57.53,3.91,3.91,0,0,0,1.62-.17,4.71,4.71,0,0,0,1.57-.89,10.5,10.5,0,0,0,.83-.79,5.71,5.71,0,0,0,.65-.93,10.13,10.13,0,0,0,.54-1.14,12.24,12.24,0,0,0,.44-1.49l2,2.33m-14.46,4.55a8.86,8.86,0,0,0,2.78,2.22,9,9,0,0,0,3.29.94,9.15,9.15,0,0,0,3.39-.37,8.68,8.68,0,0,0,3.11-1.69,8.8,8.8,0,0,0,2.22-2.78,9.15,9.15,0,0,0,1-3.29,8.95,8.95,0,0,0-4.83-8.76,9,9,0,0,0-6.73-.57,9,9,0,0,0-5.33,4.47,8.94,8.94,0,0,0-.57,6.71,8.76,8.76,0,0,0,1.7,3.12"></path><path class="watermark-path" d="M147,349c-.48.12-1.09.31-1.82.57a24.37,24.37,0,0,0-2.4,1A28.35,28.35,0,0,0,140,352a20.72,20.72,0,0,0-2.71,1.94c-.7.59-1.28,1.11-1.74,1.57a15.07,15.07,0,0,0-1.1,1.22,4.09,4.09,0,0,0-.59.92,2.32,2.32,0,0,0-.22.64,1.16,1.16,0,0,0,0,.47,1.83,1.83,0,0,0,.18.29,1.15,1.15,0,0,0,1,.37,5.54,5.54,0,0,0,1.51-.38q.87-.35,1.95-.9l2.26-1.18q1.2-.65,2.49-1.29c.87-.44,1.73-.83,2.59-1.17a18.94,18.94,0,0,1,2.6-.81,9.27,9.27,0,0,1,2.46-.29,6.25,6.25,0,0,1,2.24.49,5.12,5.12,0,0,1,1.89,1.47,6.35,6.35,0,0,1,1.41,2.61,6,6,0,0,1,.09,2.6,8.3,8.3,0,0,1-.9,2.52,17.79,17.79,0,0,1-1.62,2.37,23.92,23.92,0,0,1-2,2.15c-.72.67-1.41,1.29-2.09,1.87a33.79,33.79,0,0,1-5.33,3.7,32.29,32.29,0,0,1-4.91,2.28l-3.61-4.3a21.38,21.38,0,0,0,5.39-1.87,27.2,27.2,0,0,0,5.4-3.56,21.59,21.59,0,0,0,2.38-2.27,8.67,8.67,0,0,0,1.18-1.7,2.32,2.32,0,0,0,.27-1.19,1.34,1.34,0,0,0-.28-.74,1.21,1.21,0,0,0-1-.42,4.32,4.32,0,0,0-1.55.34,15.77,15.77,0,0,0-2,.88c-.72.37-1.48.77-2.27,1.21l-2.45,1.3c-.85.45-1.7.85-2.56,1.21a22.37,22.37,0,0,1-2.54.86,10,10,0,0,1-2.43.32,5.76,5.76,0,0,1-2.2-.45,5,5,0,0,1-1.89-1.45,6.12,6.12,0,0,1-1.31-2.41,6,6,0,0,1-.1-2.41,8.28,8.28,0,0,1,.81-2.38,14.06,14.06,0,0,1,1.49-2.24,22.37,22.37,0,0,1,1.85-2.05q1-1,2-1.77c.7-.59,1.44-1.15,2.23-1.7s1.62-1.06,2.44-1.53,1.63-.91,2.43-1.3,1.58-.75,2.3-1L147,349"></path><path class="watermark-path" d="M186.76,337.57l-10.6-12.63,3.92,18.24-4.66,3.91-17.27-7,10.6,12.63-4.86,4.07-15.09-18,6.59-5.54,18.69,7.52-4.15-19.71,6.57-5.52,15.09,18-4.83,4.05"></path><path class="watermark-path" d="M208.84,313.24l-10,8.42,1.16,4.82L194.56,331l-5.68-25.89,5.42-4.55,24.51,10.09-5.42,4.55-4.55-2m-11.23,3.45,6.57-5.52-8.83-3.87,2.26,9.39"></path><path class="watermark-path" d="M227.49,281.38c-.48.12-1.09.31-1.82.57a24.37,24.37,0,0,0-2.4,1,26.11,26.11,0,0,0-2.7,1.47,20.72,20.72,0,0,0-2.71,1.94c-.7.59-1.28,1.11-1.74,1.57a13.39,13.39,0,0,0-1.1,1.22,4.29,4.29,0,0,0-.59.91,2.48,2.48,0,0,0-.22.65,1.16,1.16,0,0,0,0,.47,1.83,1.83,0,0,0,.18.29,1.15,1.15,0,0,0,1,.37,5.54,5.54,0,0,0,1.51-.38q.87-.34,2-.9l2.26-1.18q1.2-.64,2.49-1.29c.87-.44,1.73-.83,2.59-1.17a18.94,18.94,0,0,1,2.6-.81,9.27,9.27,0,0,1,2.46-.29,6.08,6.08,0,0,1,2.24.49,5.09,5.09,0,0,1,1.89,1.46,6.47,6.47,0,0,1,1.41,2.61,6.07,6.07,0,0,1,.09,2.61,8.3,8.3,0,0,1-.9,2.52,16.32,16.32,0,0,1-1.63,2.36,21.41,21.41,0,0,1-2,2.16c-.72.67-1.41,1.29-2.1,1.86a33.36,33.36,0,0,1-5.32,3.71,31.92,31.92,0,0,1-4.92,2.28l-3.6-4.3a21.38,21.38,0,0,0,5.39-1.87,27.2,27.2,0,0,0,5.4-3.56,21.59,21.59,0,0,0,2.38-2.27,8.67,8.67,0,0,0,1.18-1.7A2.32,2.32,0,0,0,231,293a1.34,1.34,0,0,0-.28-.74,1.21,1.21,0,0,0-1-.42,4.32,4.32,0,0,0-1.55.34,16.54,16.54,0,0,0-2,.88c-.71.37-1.47.77-2.26,1.21l-2.46,1.3c-.84.44-1.7.85-2.55,1.21a24.53,24.53,0,0,1-2.54.86A10,10,0,0,1,214,298a5.76,5.76,0,0,1-2.2-.45,5,5,0,0,1-1.89-1.45,6.12,6.12,0,0,1-1.31-2.41,5.78,5.78,0,0,1-.1-2.41,8,8,0,0,1,.81-2.38,14.61,14.61,0,0,1,1.49-2.25,22.26,22.26,0,0,1,1.85-2q1-1,2-1.77c.7-.59,1.44-1.15,2.23-1.7s1.62-1.06,2.44-1.53,1.63-.91,2.43-1.31,1.58-.74,2.3-1l3.5,4.16"></path><path class="watermark-path" d="M261.64,274.74l-6.29-7.5L243,277.61l6.3,7.5-4.86,4.07-15.09-18,4.85-4.08,5.49,6.55L252,263.3l-5.49-6.55,4.86-4.07,15.09,18-4.86,4.08"></path><path class="watermark-path" d="M272.18,265.9l-15.09-18,4.86-4.08,15.09,18-4.86,4.08"></path><path class="watermark-path" d="M299.65,242.85l-22.51-2.18L287.51,253l-4.85,4.08-15.1-18,5.28-4.43,22.56,2.22L285,224.5l4.83-4.06,15.09,18-5.26,4.42"></path><path class="watermark-path" d="M306.68,205.52a31.88,31.88,0,0,1,5.29-3.66,34.48,34.48,0,0,1,5.14-2.35l3.69,4.39a20.77,20.77,0,0,0-2.37.61,20.47,20.47,0,0,0-2.61,1,25.12,25.12,0,0,0-2.76,1.49,23.9,23.9,0,0,0-2.8,2,20.42,20.42,0,0,0-2.8,2.77,12.77,12.77,0,0,0-1.64,2.52,7,7,0,0,0-.68,2.24,6,6,0,0,0,.66,3.64,8.16,8.16,0,0,0,.94,1.38,9.12,9.12,0,0,0,1.08,1.07,6.39,6.39,0,0,0,1.47.91,6.73,6.73,0,0,0,1.88.48,6.54,6.54,0,0,0,2.28-.18,11.67,11.67,0,0,0,2.74-1.07,19.38,19.38,0,0,0,3.18-2.22c.57-.48,1.06-.92,1.46-1.31a14.57,14.57,0,0,0,1-1.13,11.46,11.46,0,0,0,.81-1.05l.74-1.09-1.82-2.17-5.45,4.57-3.31-3.94,10.31-8.65,7.71,9.19a29,29,0,0,1-1.67,2.43q-1,1.26-2.1,2.52c-.74.84-1.5,1.65-2.3,2.44s-1.58,1.5-2.33,2.14a31,31,0,0,1-3.59,2.61,22.55,22.55,0,0,1-3.64,1.83,15.64,15.64,0,0,1-3.63.89,10.72,10.72,0,0,1-3.49-.15,10.45,10.45,0,0,1-3.28-1.33,12.54,12.54,0,0,1-3-2.67,12,12,0,0,1-2.08-3.44,10.45,10.45,0,0,1-.71-3.5,11.14,11.14,0,0,1,.51-3.51,15.72,15.72,0,0,1,1.56-3.43,21.62,21.62,0,0,1,2.42-3.28,30.3,30.3,0,0,1,3.15-3"></path><path class="watermark-path" d="M336.91,211.59l-15.1-18,4.86-4.08,11.79,14,13.13-11,3.31,3.94-18,15.1"></path><path class="watermark-path" d="M374.54,164.71a12.28,12.28,0,0,1,2.59,4.81,10.44,10.44,0,0,1,0,5,14.62,14.62,0,0,1-2.33,5,25.55,25.55,0,0,1-4.56,4.85,26.07,26.07,0,0,1-5.6,3.67,14.79,14.79,0,0,1-5.38,1.43,10.43,10.43,0,0,1-4.94-.89,13.24,13.24,0,0,1-6.87-8.18,10.48,10.48,0,0,1,0-5,14.51,14.51,0,0,1,2.36-5,25.23,25.23,0,0,1,4.57-4.89,25,25,0,0,1,5.59-3.64,14.45,14.45,0,0,1,5.35-1.43,10.31,10.31,0,0,1,4.93.92,12.22,12.22,0,0,1,4.28,3.38m-4.91,4.11a8.36,8.36,0,0,0-2-1.72,5.5,5.5,0,0,0-2.65-.85,7.72,7.72,0,0,0-3.32.57,14.49,14.49,0,0,0-4,2.52,16.72,16.72,0,0,0-2.38,2.4,10.15,10.15,0,0,0-1.39,2.24,6.71,6.71,0,0,0-.56,2.1,5.69,5.69,0,0,0,.1,1.9,6.21,6.21,0,0,0,.61,1.69,9.85,9.85,0,0,0,1,1.44,10.48,10.48,0,0,0,1.26,1.23,6.67,6.67,0,0,0,1.57.92,6.1,6.1,0,0,0,1.85.41,6.8,6.8,0,0,0,2.15-.2,11.06,11.06,0,0,0,2.45-1,17.67,17.67,0,0,0,2.77-1.94,14.39,14.39,0,0,0,3.18-3.52,7.74,7.74,0,0,0,1.14-3.17,5.54,5.54,0,0,0-.37-2.74,8.52,8.52,0,0,0-1.36-2.3"></path><path class="watermark-path" d="M382.66,141.76A32.3,32.3,0,0,1,388,138.1a34.12,34.12,0,0,1,5.15-2.35l3.69,4.4a19.62,19.62,0,0,0-2.37.6,22.08,22.08,0,0,0-2.61,1,26,26,0,0,0-2.77,1.49,23.9,23.9,0,0,0-2.8,2,21,21,0,0,0-2.8,2.78,13.19,13.19,0,0,0-1.64,2.51,7.29,7.29,0,0,0-.68,2.24,6.36,6.36,0,0,0,.06,2,5.8,5.8,0,0,0,.61,1.68,8.12,8.12,0,0,0,.93,1.38,9.16,9.16,0,0,0,1.08,1.08,6.56,6.56,0,0,0,1.48.9,6,6,0,0,0,1.87.48,6.76,6.76,0,0,0,2.28-.17,12,12,0,0,0,2.74-1.08,18.57,18.57,0,0,0,3.18-2.22c.58-.48,1.06-.92,1.46-1.31s.75-.77,1.05-1.12.57-.72.81-1.06l.73-1.09-1.82-2.17-5.45,4.57-3.3-3.94,10.3-8.65,7.71,9.19a29,29,0,0,1-1.67,2.43q-1,1.26-2.1,2.52c-.73.84-1.5,1.66-2.3,2.44s-1.57,1.5-2.33,2.14a31,31,0,0,1-3.59,2.61,22.15,22.15,0,0,1-3.64,1.83,15.56,15.56,0,0,1-3.62.89,11,11,0,0,1-3.49-.14,10.84,10.84,0,0,1-3.28-1.33,12.82,12.82,0,0,1-3-2.68,12.12,12.12,0,0,1-2.08-3.43A10.71,10.71,0,0,1,375,155a11.18,11.18,0,0,1,.51-3.51,15.51,15.51,0,0,1,1.57-3.43,21.44,21.44,0,0,1,2.42-3.28,30.19,30.19,0,0,1,3.14-3"></path><path class="watermark-path" d="M428.63,119.31a12.26,12.26,0,0,1,2.59,4.82,10.44,10.44,0,0,1,0,5,14.53,14.53,0,0,1-2.34,5,25.29,25.29,0,0,1-4.56,4.86,26,26,0,0,1-5.59,3.67,14.84,14.84,0,0,1-5.38,1.43,10.61,10.61,0,0,1-4.95-.89,12.15,12.15,0,0,1-4.3-3.37,12,12,0,0,1-2.56-4.81,10.48,10.48,0,0,1,0-5,14.39,14.39,0,0,1,2.35-5,27.89,27.89,0,0,1,10.16-8.53,14.49,14.49,0,0,1,5.36-1.43,10.27,10.27,0,0,1,4.92.92,12.21,12.21,0,0,1,4.28,3.37m-4.91,4.12a8.17,8.17,0,0,0-2-1.72,5.58,5.58,0,0,0-2.65-.86,7.86,7.86,0,0,0-3.31.58,14.49,14.49,0,0,0-4,2.52,16.21,16.21,0,0,0-2.38,2.4,9.85,9.85,0,0,0-1.4,2.24,7,7,0,0,0-.56,2.1,6,6,0,0,0,.1,1.9,6.23,6.23,0,0,0,.62,1.69,8.49,8.49,0,0,0,1,1.44,9.18,9.18,0,0,0,1.26,1.23,6.67,6.67,0,0,0,1.57.92,6,6,0,0,0,1.84.41,6.86,6.86,0,0,0,2.16-.2,11.26,11.26,0,0,0,2.45-1,17.62,17.62,0,0,0,2.76-1.94,14.67,14.67,0,0,0,3.19-3.52,7.71,7.71,0,0,0,1.13-3.17,5.53,5.53,0,0,0-.36-2.74,8.55,8.55,0,0,0-1.37-2.3"></path></g></svg>