<svg xmlns:mydata="http://www.w3.org/2000/svg" mydata:contrastcolor="ffffff" mydata:template="SingleColorHex1" mydata:presentation="2.5" mydata:layouttype="undefined" mydata:specialfontid="undefined" mydata:id1="008" mydata:id2="027" mydata:companyname="Dagracemarket" mydata:companytagline="trust" version="1.1" xmlns="http://www.w3.org/2000/svg" xmlns:xlink="http://www.w3.org/1999/xlink" viewBox="0 0 550 470"><g fill="#00558c" fill-rule="evenodd" stroke="none" stroke-width="1" stroke-linecap="butt" stroke-linejoin="miter" stroke-miterlimit="10" stroke-dasharray="" stroke-dashoffset="0" font-family="none" font-weight="none" font-size="none" text-anchor="none" style="mix-blend-mode: normal"><g data-paper-data="{&quot;isGlobalGroup&quot;:true,&quot;bounds&quot;:{&quot;x&quot;:145.99999999999997,&quot;y&quot;:106,&quot;width&quot;:258,&quot;height&quot;:258}}"><g data-paper-data="{&quot;fillRule&quot;:&quot;evenodd&quot;,&quot;fillRuleOriginal&quot;:&quot;evenodd&quot;,&quot;isIcon&quot;:true,&quot;iconStyle&quot;:&quot;standalone&quot;,&quot;selectedEffects&quot;:{&quot;container&quot;:&quot;&quot;,&quot;transformation&quot;:&quot;&quot;,&quot;pattern&quot;:&quot;&quot;},&quot;bounds&quot;:{&quot;x&quot;:213.683504783043,&quot;y&quot;:185.38030496406262,&quot;width&quot;:123.00374533459595,&quot;height&quot;:87.80815476590314},&quot;iconType&quot;:&quot;icon&quot;,&quot;rawIconId&quot;:&quot;101810&quot;,&quot;combineTerms&quot;:&quot;store&quot;,&quot;isDetailed&quot;:false,&quot;suitableAsStandaloneIcon&quot;:true}"><path d="M336.68725,210.09766c0,3.37999 -2.75019,6.13018 -6.13155,6.13018c-1.23209,0 -2.38029,-0.36028 -3.34148,-0.98869v51.50836h8.65073v6.44095h-121.71115v-6.44095h8.41559v-51.18384c-0.83056,0.42078 -1.76425,0.66417 -2.75707,0.66417c-2.84645,0 -5.25837,-1.92376 -5.92804,-4.64783l-0.20077,-0.64905v-6.96211h0.64217l8.24508,-13.09367v-5.49488h104.64346v5.26387l9.16089,13.32468h0.18976v0.2764l0.01788,1.02169h-0.01788v3.63163c0.0825,0.40428 0.12238,0.80718 0.12238,1.19908zM325.91337,186.67702h-102.0459v3.26173h102.0459zM251.18926,191.23547l0.24339,0.06875l-3.55462,12.66464h10.22659l-0.09763,-0.0165l2.11902,-12.71689zM325.40183,203.96886h1.81237l7.59328,-0.00138l-7.58916,-11.03652l-0.64905,-0.94332l-0.51841,-0.75218h-6.85348l6.51521,12.57251zM223.86884,191.25059l-1.29809,2.05989l-6.71185,10.65837h9.10726l-0.3094,-0.15676l6.40245,-12.57526h-7.18213zM240.75227,191.23684h-8.99175l0.30802,0.15676l-6.40245,12.57526h10.39435l-0.29152,-0.11551zM250.44121,191.23684h-8.97938l0.2929,0.11414l-4.98335,12.61788h10.3586l-0.24339,-0.06875zM261.00882,191.23684l0.10038,0.0165l-2.11627,12.71552h10.14271l0.6683,-12.73202zM279.47361,191.23684h-8.69748l-0.66967,12.73202h10.15234zM280.44718,191.23684l0.78655,12.73202l10.14409,0.00138l-2.23728,-12.71139l0.12376,-0.022zM299.06737,191.23684h-8.94363l2.23866,12.71276l-0.11963,0.02063h10.24584l-3.67151,-12.66051zM308.79204,191.23684h-8.98076l3.67151,12.66051l-0.25027,0.0715h10.36135l-5.09748,-12.61239zM314.30343,203.96886h10.39573l-6.51658,-12.57113l0.31077,-0.16089h-8.99313l5.09748,12.61376zM214.98159,205.26695v5.31612l0.07563,0.24614c0.3644,2.37617 2.36517,4.09916 4.75508,4.09916c1.0272,0 1.97189,-0.33277 2.75707,-0.88556c0.23377,-0.16364 0.44828,-0.34653 0.64905,-0.54866c0.24477,-0.24614 0.46203,-0.51703 0.64905,-0.81406c0.34515,-0.54866 0.59679,-1.16746 0.70267,-1.8495l0.08525,-0.55004h1.39297l0.08388,0.55004c0.3644,2.37617 2.36517,4.09916 4.75508,4.09916c2.39129,0 4.39344,-1.72299 4.75783,-4.09916l0.08525,-0.55004h1.39297l0.08388,0.55004c0.3644,2.37617 2.36517,4.09916 4.75508,4.09916c2.38992,0 4.38931,-1.72299 4.75508,-4.09916l0.08388,-0.55004h1.3861l0.08525,0.55004c0.3644,2.37617 2.36517,4.09916 4.75646,4.09916c2.39129,0 4.39206,-1.72299 4.75646,-4.09916l0.08525,-0.55004h1.38747l0.08525,0.55004c0.36578,2.37479 2.36654,4.09916 4.75508,4.09916c2.39129,0 4.39068,-1.72299 4.75646,-4.09916l0.08525,-0.55004h1.39435l0.08525,0.55004c0.3644,2.37479 2.36379,4.09779 4.75508,4.09779c2.39129,0 4.39206,-1.72299 4.75646,-4.09916l0.08525,-0.55004h1.39435l0.08525,0.55004c0.36715,2.37617 2.36791,4.09916 4.75646,4.09916c2.38992,0 4.38931,-1.72299 4.75508,-4.09916l0.08525,-0.55004h1.39297l0.08525,0.55004c0.36715,2.37617 2.36791,4.09916 4.75646,4.09916c2.38992,0 4.38931,-1.72299 4.75371,-4.09779l0.08525,-0.55004h1.39847l0.08525,0.55004c0.36578,2.37617 2.36517,4.09916 4.75508,4.09916c2.38992,0 4.39068,-1.72299 4.75508,-4.09779l0.08525,-0.55004h1.38747l0.08525,0.55004c0.36715,2.37617 2.36791,4.09916 4.75783,4.09916c2.38992,0 4.39068,-1.72299 4.75646,-4.09916l0.08525,-0.55004h1.39297l0.08525,0.55004c0.0275,0.16226 0.07563,0.3149 0.11551,0.47028c0.13888,0.53766 0.35752,1.0327 0.65042,1.47548c0.19114,0.28602 0.40703,0.54866 0.65042,0.78655c0.86906,0.84568 2.04202,1.36685 3.34148,1.36685c2.66631,0 4.83484,-2.16853 4.83484,-4.83346c0,-0.32452 -0.03575,-0.66142 -0.10588,-1.00107l-0.01512,-0.13201v-3.69763zM257.12142,266.74751h68.78232v-52.65381c-0.35477,-0.41941 -0.66004,-0.88556 -0.89656,-1.39572c-0.9777,2.11765 -3.09947,3.52988 -5.53614,3.52988c-2.43942,0 -4.55844,-1.41085 -5.53614,-3.5285c-0.97907,2.11765 -3.09672,3.5285 -5.53751,3.5285c-2.43804,0 -4.55707,-1.41222 -5.53476,-3.53125c-0.9777,2.11902 -3.09672,3.53125 -5.53751,3.53125c-2.43667,0 -4.5557,-1.41085 -5.53338,-3.52988c-0.98182,2.11902 -3.09672,3.52988 -5.53614,3.52988c-2.43804,0 -4.55707,-1.41222 -5.53476,-3.52988c-0.98044,2.11765 -3.09947,3.52988 -5.53889,3.52988c-2.43942,0 -4.55844,-1.41085 -5.53614,-3.5285c-0.97907,2.11765 -3.09947,3.5285 -5.53751,3.5285c-2.43804,0 -4.55707,-1.41085 -5.53614,-3.5285c-0.97907,2.11765 -3.09809,3.5285 -5.53751,3.5285c-2.43942,0 -4.55844,-1.41085 -5.53751,-3.5285c-0.97907,2.11765 -3.09672,3.5285 -5.53614,3.5285c-2.43942,0 -4.55707,-1.41085 -5.53614,-3.5285c-0.98044,2.11765 -3.09947,3.5285 -5.53889,3.5285c-2.43942,0 -4.55844,-1.41085 -5.53614,-3.5285c-0.35615,0.76868 -0.86494,1.4411 -1.48236,1.98976v52.0584h8.70574v-47.28407h24.54822zM261.50248,218.81577v40.81149h58.70011v-40.81149zM262.7992,220.11249h27.34242v33.77512h-27.34242zM318.90313,253.88898h-27.46343v-33.77649h27.46343zM313.47975,242.13328l0.91581,-0.91581l-16.48328,-16.48328l-0.45928,0.45928l-0.45928,0.45791zM313.35324,237.58309l0.45928,-0.45928l-11.80795,-11.80658l-0.91719,0.91719l11.80795,11.8052zM267.92693,232.27522l-0.91719,0.91719l16.48053,16.48191l0.91857,-0.91857zM267.94481,236.92992l11.80658,11.80658l0.91581,-0.91581l-11.8052,-11.80658zM318.90313,258.33054h-56.10393v-3.14484h56.10393zM215.45188,271.89037h119.11635v-3.84614h-119.11635z" data-paper-data="{&quot;isPathIcon&quot;:true}"></path></g><g data-paper-data="{&quot;isContainerElementsWrapper&quot;:true}"><path d="M183.7835,143.78356c-11.9007,11.90078 -21.11507,25.56815 -27.6431,41.00212c-6.76027,15.98244 -10.1404,32.72061 -10.1404,50.2145c0,17.49373 3.38013,34.23191 10.1404,50.21454c6.52815,15.43382 15.74254,29.10109 27.64316,41.00179c11.90059,11.90109 25.56794,21.11555 41.00208,27.64339c15.98262,6.76007 32.72075,10.14011 50.21436,10.14011c17.49385,0 34.23209,-3.38004 50.21471,-10.14011c15.43382,-6.52784 29.10109,-15.74231 41.00179,-27.64339c11.90109,-11.9007 21.11555,-25.56796 27.64339,-41.00179c6.76007,-15.98262 10.14011,-32.7208 10.14011,-50.21454c0,-17.49366 -3.38004,-34.23182 -10.14011,-50.21449c-6.52784,-15.43409 -15.74231,-29.10146 -27.64339,-41.00212c-11.9007,-11.9007 -25.56796,-21.11499 -41.00179,-27.64287c-15.98224,-6.76046 -32.72048,-10.14069 -50.21471,-10.14069c-17.4937,0 -34.23182,3.38023 -50.21436,10.14069c-15.43421,6.52804 -29.10159,15.74233 -41.00213,27.64287zM148.45285,235.00017c0,-17.16218 3.31543,-33.58189 9.9463,-49.25913c6.40383,-15.14038 15.44336,-28.54814 27.11857,-40.22328c11.67521,-11.67521 25.08298,-20.71466 40.2233,-27.11834c15.67718,-6.63106 32.09685,-9.94658 49.25899,-9.94658c17.16264,0 33.58238,3.31553 49.25922,9.94658c15.14036,6.40368 28.54805,15.44312 40.22307,27.11834c11.6754,11.67513 20.71502,25.08289 27.11886,40.22326c6.63067,15.67728 9.94601,32.097 9.94601,49.25914c0,17.16214 -3.31534,33.58182 -9.94601,49.25905c-6.40345,15.13997 -15.44307,28.54766 -27.11886,40.22307c-11.67502,11.6754 -25.08271,20.71502 -40.22307,27.11886c-15.67722,6.63067 -32.09696,9.94601 -49.25922,9.94601c-17.16207,0 -33.58173,-3.31534 -49.25899,-9.94601c-15.1404,-6.40383 -28.54816,-15.44345 -40.2233,-27.11886c-11.67521,-11.6754 -20.71473,-25.08309 -27.11857,-40.22307c-6.63086,-15.67684 -9.9463,-32.09652 -9.9463,-49.25905z" data-paper-data="{&quot;isAdditionalOutlinePath&quot;:true}"></path><path d="M152.37707,235.00017c0,-67.72302 54.90005,-122.62311 122.62293,-122.62311c67.72319,0 122.62351,54.90008 122.62351,122.62311c0,67.72302 -54.90032,122.62334 -122.62351,122.62334c-67.72288,0 -122.62293,-54.90032 -122.62293,-122.62334zM282.71961,145.06602c-0.29866,-0.29832 -0.65972,-0.44736 -1.08316,-0.44707l-11.82868,0.00682l-0.00404,-6.9614l8.49255,-0.00491c0.42344,-0.00023 0.7845,-0.14968 1.08258,-0.44834c0.29847,-0.29866 0.44751,-0.65981 0.44713,-1.08345c0,-0.42367 -0.14962,-0.78467 -0.44828,-1.08299c-0.29866,-0.29832 -0.65972,-0.4473 -1.08316,-0.44707l-8.49255,0.00491l-0.00404,-6.9614l11.82868,-0.00687c0.42344,-0.00023 0.7845,-0.14968 1.08258,-0.44834c0.29866,-0.29866 0.44771,-0.65977 0.44713,-1.08345c0,-0.42367 -0.14962,-0.78461 -0.44828,-1.08276c-0.29866,-0.29866 -0.65972,-0.44771 -1.08316,-0.44713l-13.35955,0.00751c-0.22156,0 -0.42377,0.0387 -0.60663,0.11611c-0.1829,0.07683 -0.34413,0.18544 -0.4837,0.32524c-0.13951,0.1398 -0.24771,0.30328 -0.32466,0.49109c-0.07691,0.18782 -0.11531,0.38765 -0.11519,0.59946l0.01161,20.04649c0.00012,0.22148 0.03876,0.42362 0.11594,0.60657c0.07712,0.1829 0.18549,0.34407 0.32524,0.48364c0.13968,0.13951 0.30103,0.24771 0.48398,0.32466c0.18301,0.07695 0.3852,0.11531 0.60669,0.11519l13.35955,-0.00774c0.42344,-0.00023 0.7845,-0.14968 1.08316,-0.44834c0.29809,-0.29866 0.44713,-0.65983 0.44713,-1.08351c-0.00058,-0.42362 -0.1502,-0.78461 -0.44886,-1.08293zM285.83044,146.39395l4.97445,-19.41947c0.05257,-0.20519 0.1398,-0.38919 0.26054,-0.55192c0.12131,-0.16279 0.26689,-0.2945 0.43673,-0.39508c0.16984,-0.10057 0.35297,-0.16551 0.54938,-0.19474c0.19641,-0.02923 0.40207,-0.01635 0.61639,0.03859c0.57826,0.14818 0.94856,0.52627 1.11089,1.1344l4.09694,18.9256l12.69232,-14.62468c0.47197,-0.44563 0.9786,-0.59918 1.51931,-0.46059c0.20508,0.05257 0.38936,0.13945 0.55169,0.26065c0.16291,0.12126 0.29462,0.26678 0.39514,0.43667c0.10052,0.16988 0.16483,0.35531 0.19295,0.55631c0.02831,0.20103 0.01618,0.40409 -0.03639,0.60934l-4.97503,19.41941c-0.10514,0.41045 -0.3391,0.72315 -0.70247,0.93822c-0.36317,0.21509 -0.75003,0.27007 -1.16057,0.16493c-0.41016,-0.10514 -0.72326,-0.33933 -0.93816,-0.70252c-0.2149,-0.36325 -0.26978,-0.75001 -0.16464,-1.16045l3.36155,-13.12351l-10.49134,12.08737c-0.41593,0.42027 -0.90812,0.55752 -1.47714,0.41177c-0.61523,-0.15771 -0.99131,-0.57208 -1.12764,-1.24312l-3.35693,-15.47087l-3.36213,13.12351c-0.10514,0.41039 -0.3391,0.72315 -0.70247,0.93822c-0.36317,0.21505 -0.75003,0.27001 -1.16057,0.16487c-0.41016,-0.10508 -0.72326,-0.33927 -0.93816,-0.70252c-0.2149,-0.36319 -0.26978,-0.75001 -0.16464,-1.1604zM261.63901,143.22488c0.20618,-0.04858 0.40767,-0.05407 0.60449,-0.01635c0.19682,0.03767 0.37867,0.10606 0.54551,0.20525c0.16684,0.09919 0.3116,0.23073 0.4343,0.39467c0.12274,0.16399 0.20843,0.34906 0.25707,0.55521c0.09278,0.3936 0.02211,0.78617 -0.21201,1.17773c-1.69658,2.16085 -3.8569,3.55061 -6.48094,4.16927c-3.11137,0.73351 -6.02204,0.26229 -8.732,-1.41365c-2.70996,-1.6759 -4.43169,-4.06954 -5.1652,-7.18092c-0.73135,-3.10198 -0.25905,-6.00795 1.41689,-8.71791c1.68311,-2.72155 4.07565,-4.44798 7.17762,-5.17929c2.66157,-0.62748 5.27196,-0.31796 7.83116,0.92857c0.32208,0.19114 0.53394,0.50226 0.63557,0.93337c0.05084,0.21553 0.05973,0.42119 0.02675,0.61691c-0.03299,0.19578 -0.10144,0.37758 -0.20531,0.54551c-0.10381,0.16793 -0.2383,0.31091 -0.40334,0.42899c-0.1651,0.11802 -0.35071,0.20138 -0.55689,0.24996c-0.3655,0.08619 -0.74071,0.02623 -1.12562,-0.17978c-0.84481,-0.39437 -1.7313,-0.64042 -2.65949,-0.73817c-0.92822,-0.09769 -1.87494,-0.03281 -2.84019,0.1948c-2.28667,0.5391 -4.04953,1.81041 -5.28859,3.81394c-1.22473,1.98034 -1.56753,4.11385 -1.0284,6.40052c0.54129,2.29601 1.80215,4.05639 3.78245,5.28108c1.99197,1.23191 4.13594,1.5772 6.43195,1.03591c1.9587,-0.4618 3.54052,-1.47281 4.74563,-3.03302c0.20387,-0.22616 0.47341,-0.38364 0.80859,-0.4726zM224.57097,138.02739l2.04385,21.19198c0.00942,0.25407 0.06614,0.48422 0.17013,0.69062c0.19069,0.37833 0.48433,0.63464 0.88091,0.76901c0.39658,0.13437 0.78403,0.10624 1.16236,-0.0844c0.37827,-0.19069 0.63355,-0.48647 0.76578,-0.88732c0.06822,-0.20693 0.09774,-0.40507 0.08856,-0.59455l-0.68866,-7.33522l6.60346,-3.32804l5.47351,4.92373c0.14679,0.1201 0.32368,0.21426 0.53055,0.28255c0.39231,0.13651 0.77762,0.10947 1.15595,-0.08122c0.37833,-0.19064 0.63355,-0.48641 0.76578,-0.88732c0.13223,-0.40086 0.103,-0.79045 -0.08769,-1.16877c-0.09965,-0.1978 -0.2272,-0.36533 -0.38266,-0.50259l-15.87658,-14.30146c-0.56994,-0.48907 -1.16017,-0.57976 -1.77061,-0.27209c-0.59328,0.29901 -0.8715,0.82738 -0.83464,1.58511zM327.6225,139.19911l-16.49869,13.45637c-0.20566,0.14875 -0.36567,0.32362 -0.48006,0.5246c-0.20912,0.36851 -0.25938,0.75503 -0.15135,1.15953c0.1086,0.40455 0.34661,0.7113 0.71517,0.92031c0.36856,0.20901 0.75619,0.2573 1.16346,0.14494c0.2097,-0.058 0.39109,-0.14338 0.5436,-0.25615l5.72082,-4.64199l6.43253,3.64808l-1.06063,7.28554c-0.01849,0.18873 0.00116,0.38809 0.0595,0.59814c0.10398,0.40213 0.34026,0.70772 0.70882,0.91673c0.36856,0.20901 0.75619,0.2573 1.16288,0.14494c0.40669,-0.11242 0.7146,-0.35285 0.92372,-0.72136c0.10918,-0.1926 0.17793,-0.39167 0.20623,-0.59721l3.09177,-21.14316c0.0907,-0.74556 -0.16117,-1.28691 -0.75561,-1.62416c-0.57826,-0.32778 -1.17212,-0.26614 -1.78216,0.18486zM227.99913,141.5883l5.16266,4.65996l-4.48827,2.26198zM326.56187,144.02677l-1.01384,6.88046l-4.37134,-2.4796zM212.57487,171.26301l-12.75089,-15.46862c-0.13472,-0.16348 -0.23211,-0.34211 -0.29208,-0.53603c-0.06,-0.19387 -0.08053,-0.38907 -0.06158,-0.5856c0.01895,-0.19653 0.07446,-0.38266 0.16666,-0.55851c0.09214,-0.17579 0.22368,-0.33413 0.39456,-0.47497l4.30179,-3.54601c0.75039,-0.61853 1.57749,-1.05699 2.4813,-1.31539c0.90381,-0.25838 1.80791,-0.3423 2.71232,-0.25176c0.90441,0.09052 1.77555,0.34881 2.61344,0.77491c0.83789,0.42616 1.56611,1.01436 2.18467,1.76477c0.40421,0.4904 0.7364,1.01823 0.99658,1.58367c0.26018,0.56538 0.43949,1.15381 0.53792,1.76517c0.09844,0.61142 0.11294,1.24208 0.04351,1.89203c-0.06943,0.6499 -0.23166,1.30459 -0.48669,1.96401l8.24942,2.7644c0.2978,0.10387 0.53852,0.26729 0.72228,0.49017c0.14084,0.17088 0.23974,0.35141 0.29664,0.54158c0.05696,0.19017 0.07597,0.38353 0.05702,0.58005c-0.01895,0.19653 -0.07631,0.38422 -0.17221,0.56307c-0.0959,0.17885 -0.22553,0.33569 -0.38901,0.47041c-0.41605,0.34295 -0.91334,0.42843 -1.49187,0.25643l-9.12438,-3.05382l-3.32107,2.73759l4.69431,5.69488c0.26947,0.32689 0.38397,0.70042 0.3435,1.12059c-0.04046,0.42017 -0.22415,0.76499 -0.55105,1.03446c-0.32691,0.26947 -0.70045,0.38399 -1.12062,0.34355c-0.42017,-0.0405 -0.765,-0.2242 -1.03447,-0.55105zM329.21749,164.14818l13.50224,-14.81757c0.14269,-0.15661 0.3056,-0.27833 0.48872,-0.36521c0.1837,-0.08694 0.37376,-0.13495 0.57133,-0.14413c0.19699,-0.00913 0.38936,0.01941 0.57653,0.08567c0.18717,0.06632 0.36221,0.174 0.52627,0.32316l4.12063,3.7549c0.71864,0.65498 1.27033,1.41146 1.65391,2.26944c0.38416,0.85798 0.59559,1.74103 0.6343,2.64915c0.0387,0.90806 -0.09301,1.80706 -0.39571,2.69698c-0.30309,0.88987 -0.78199,1.69422 -1.4367,2.41305c-0.42806,0.46972 -0.9035,0.87346 -1.4263,1.21129c-0.52281,0.33777 -1.07969,0.59883 -1.67124,0.78305c-0.59097,0.18422 -1.21314,0.28809 -1.8665,0.3116c-0.65336,0.02357 -1.32405,-0.04408 -2.01323,-0.20294l-1.56553,8.55829c-0.06066,0.30952 -0.18775,0.57104 -0.38243,0.78455c-0.14904,0.16366 -0.31368,0.28717 -0.49392,0.37053c-0.18024,0.08336 -0.36914,0.12957 -0.56613,0.13876c-0.19757,0.00919 -0.39109,-0.02103 -0.58173,-0.09052c-0.19064,-0.06955 -0.36452,-0.17562 -0.52107,-0.3183c-0.3986,-0.36317 -0.55381,-0.84329 -0.46561,-1.44034l1.72786,-9.46549l-3.18131,-2.89882l-4.97098,5.45514c-0.28538,0.31316 -0.63892,0.47954 -1.06063,0.49912c-0.42171,0.01958 -0.78912,-0.11328 -1.10222,-0.39866c-0.31311,-0.28532 -0.47948,-0.6388 -0.49912,-1.06046c-0.01964,-0.42171 0.11323,-0.78912 0.3986,-1.10222zM203.16039,155.02815l5.13526,6.22982l3.12047,-2.57226c0.43092,-0.35522 0.76847,-0.77069 1.01265,-1.24647c0.24418,-0.47584 0.38768,-0.97155 0.43051,-1.48725c0.04282,-0.5157 -0.00867,-1.02857 -0.1545,-1.53849c-0.14582,-0.50994 -0.39328,-0.97665 -0.74237,-1.40014c-0.35521,-0.4309 -0.77072,-0.76849 -1.24651,-1.01262c-0.47579,-0.24419 -0.97122,-0.39109 -1.48627,-0.44072c-0.51505,-0.0496 -1.0294,0.00004 -1.54305,0.14893c-0.51365,0.14893 -0.98222,0.39791 -1.40572,0.747zM343.95193,152.52446l-5.43775,5.9676l2.98894,2.72373c0.41247,0.37613 0.87173,0.65128 1.37778,0.82545c0.50547,0.17417 1.01673,0.24581 1.53318,0.21501c0.51645,-0.03081 1.01673,-0.15459 1.50083,-0.37134c0.4841,-0.21675 0.91101,-0.52795 1.28073,-0.9336c0.37607,-0.41276 0.65105,-0.87202 0.82551,-1.37761c0.17388,-0.50565 0.24898,-1.0169 0.2253,-1.53381c-0.02426,-0.51685 -0.14615,-1.01898 -0.36683,-1.50626c-0.2201,-0.48734 -0.5332,-0.9158 -0.93874,-1.28547zM199.21313,235.00017c0,-41.85601 33.93098,-75.78699 75.78687,-75.78699c41.85618,0 75.7871,33.93098 75.7871,75.78699c0,41.85601 -33.93092,75.78693 -75.7871,75.78693c-41.85589,0 -75.78687,-33.93092 -75.78687,-75.78693zM209.27225,173.20079c-0.06672,-0.45135 -0.26061,-0.79992 -0.58167,-1.04578l-5.37774,-4.11849c-0.16054,-0.12293 -0.34026,-0.20901 -0.53904,-0.25823c-0.19884,-0.04918 -0.39612,-0.06079 -0.59184,-0.03483c-0.19572,0.026 -0.38173,0.08671 -0.55793,0.1822c-0.17619,0.09543 -0.32576,0.22345 -0.44869,0.38399l-3.36328,4.39168c-0.13466,0.17579 -0.22703,0.35972 -0.27712,0.5518c-0.05009,0.19208 -0.0621,0.38601 -0.03616,0.58173c0.02596,0.19572 0.09004,0.38123 0.19225,0.55654c0.10225,0.17533 0.23743,0.32737 0.40559,0.4562c0.34399,0.26342 0.72186,0.36783 1.13359,0.31322c0.41172,-0.05459 0.74926,-0.25389 1.01268,-0.59785l2.42368,-3.16473l3.55462,2.72223c-0.11095,1.64929 -0.69625,3.16574 -1.75588,4.54935c-1.43428,1.87285 -3.31229,2.96322 -5.63405,3.27111c-2.30828,0.30609 -4.39884,-0.25801 -6.2717,-1.69231c-1.86519,-1.42844 -2.95084,-3.2968 -3.25693,-5.60506c-0.3097,-2.33523 0.24973,-4.43547 1.67818,-6.3007c0.60299,-0.78733 1.29459,-1.43711 2.07487,-1.94923c0.78028,-0.51212 1.62226,-0.88299 2.52581,-1.11274c0.41668,-0.06898 0.74498,-0.26019 0.98501,-0.57358c0.12882,-0.16816 0.21969,-0.35019 0.27273,-0.54609c0.05297,-0.19595 0.06655,-0.39173 0.04055,-0.58745c-0.02594,-0.19578 -0.0881,-0.37983 -0.18653,-0.55221c-0.09838,-0.17238 -0.23552,-0.32587 -0.41131,-0.46053c-0.35932,-0.27515 -0.72026,-0.38179 -1.08293,-0.31998c-2.77012,0.65579 -4.98648,2.06917 -6.6491,4.24015c-1.93779,2.53026 -2.69635,5.38148 -2.27568,8.55367c0.41886,3.15865 1.89342,5.70686 4.42368,7.64462c2.53793,1.94362 5.38622,2.706 8.54489,2.28713c3.15867,-0.41887 5.7098,-1.89726 7.6534,-4.43516c1.6392,-2.1404 2.43121,-4.58397 2.37603,-7.33069zM359.93302,164.69449c-0.41709,-0.06672 -0.79721,0.02415 -1.14035,0.27255l-16.23758,11.75566c-0.34315,0.2484 -0.54822,0.58104 -0.61523,0.99785c-0.06643,0.41681 0.02426,0.7968 0.27267,1.13996c0.2484,0.34316 0.58115,0.54811 0.99824,0.61485c0.4167,0.06674 0.79663,-0.02411 1.13977,-0.27255l5.79072,-4.19237l2.84394,0.45533l-3.80059,11.91635c-0.18178,0.48806 -0.1061,0.96216 0.22703,1.42231c0.1242,0.1716 0.27498,0.30609 0.45291,0.40343c0.17735,0.09734 0.36394,0.15829 0.55978,0.18278c0.19641,0.02449 0.39514,0.0115 0.59617,-0.03905c0.20103,-0.05055 0.38358,-0.13506 0.54707,-0.25366c0.24956,-0.18068 0.4271,-0.42806 0.53263,-0.74213l3.95079,-12.39922l10.57973,1.68369c0.4167,0.06674 0.79663,-0.02411 1.13977,-0.27255c0.17157,-0.12424 0.31079,-0.27259 0.41767,-0.44508c0.10687,-0.1725 0.17619,-0.3562 0.20739,-0.55117c0.0312,-0.19497 0.02311,-0.39109 -0.02484,-0.58831c-0.04776,-0.19726 -0.13364,-0.38168 -0.25765,-0.55325c-0.2484,-0.3432 -0.59502,-0.5503 -1.03868,-0.6213l-13.41154,-2.14749l6.92529,-5.01396c0.34315,-0.2484 0.54822,-0.58104 0.61523,-0.99784c0.06643,-0.4168 -0.02426,-0.7968 -0.27267,-1.13995c-0.2484,-0.3432 -0.58115,-0.54817 -0.99766,-0.61489zM360.42636,204.71364c0.17042,0.3878 0.17908,0.77837 0.02657,1.17178c-0.15309,0.39346 -0.42344,0.67549 -0.81165,0.84608c-0.38763,0.17065 -0.77814,0.17949 -1.17155,0.02646c-0.3934,-0.15297 -0.67531,-0.42333 -0.84631,-0.81113l-5.38056,-12.22809c-0.08896,-0.20271 -0.13518,-0.40328 -0.13807,-0.60177c-0.00347,-0.19843 0.03062,-0.38971 0.10225,-0.5737c0.07163,-0.18405 0.17562,-0.34811 0.31195,-0.4923c0.13633,-0.14419 0.30617,-0.26088 0.50894,-0.35008l18.34844,-8.0738c0.1941,-0.08531 0.39225,-0.13053 0.59502,-0.13564c0.20296,-0.00511 0.39648,0.02811 0.58057,0.09967c0.18428,0.07156 0.34834,0.17555 0.49219,0.31198c0.14442,0.13642 0.26111,0.30598 0.35008,0.50869l5.38056,12.22809c0.17099,0.3878 0.17966,0.77837 0.02657,1.17178c-0.15289,0.39344 -0.42325,0.67547 -0.81107,0.84608c-0.38763,0.17065 -0.77814,0.17943 -1.17155,0.02646c-0.3934,-0.15297 -0.67589,-0.42339 -0.84631,-0.81113l-4.76417,-10.82683l-6.37187,2.80371l3.42047,7.7731c0.17042,0.3878 0.17966,0.77837 0.02657,1.17183c-0.15309,0.3934 -0.42344,0.67543 -0.81107,0.84602c-0.38782,0.17065 -0.77853,0.17947 -1.17212,0.02646c-0.39321,-0.15297 -0.67512,-0.42335 -0.84573,-0.81113l-3.42047,-7.7731l-6.37187,2.80374zM189.55279,206.99451l-14.9959,-15.113c-0.50813,-0.5633 -0.62719,-1.14844 -0.35713,-1.75547c0.27792,-0.62459 0.79224,-0.92794 1.54306,-0.91003l21.34362,1.02297c0.20722,0.00791 0.41201,0.05684 0.61437,0.14685c0.38705,0.17221 0.65631,0.45533 0.80766,0.84943c0.15141,0.39404 0.14096,0.78455 -0.03125,1.17166c-0.17221,0.38705 -0.45337,0.65186 -0.84348,0.79449c-0.20338,0.0781 -0.39989,0.11712 -0.58953,0.11704l-7.35411,-0.34742l-3.00581,6.7562l5.17594,5.24301c0.12703,0.14084 0.22963,0.31293 0.30779,0.51634c0.15135,0.39404 0.14096,0.78461 -0.03125,1.17166c-0.17221,0.38705 -0.45441,0.65411 -0.84648,0.80108c-0.39207,0.14696 -0.78167,0.13437 -1.16871,-0.03784c-0.21114,-0.09393 -0.40074,-0.23627 -0.56879,-0.42697zM186.41122,192.80847l-6.94638,-0.33997l4.90333,4.93205zM380.65227,216.09693l1.08316,5.60112c0.0803,0.41593 0.2952,0.74209 0.64527,0.97848c0.3495,0.23639 0.7325,0.31438 1.14844,0.2339c0.41593,-0.08041 0.74175,-0.29549 0.97802,-0.64522c0.23685,-0.34973 0.31484,-0.73256 0.23396,-1.1485l-2.74747,-14.2084c-0.08049,-0.41593 -0.29558,-0.74209 -0.64527,-0.97848c-0.3495,-0.23639 -0.7325,-0.31438 -1.14844,-0.2339c-0.41593,0.08041 -0.74233,0.29549 -0.9786,0.64522c-0.23627,0.34973 -0.31426,0.73256 -0.23396,1.1485l1.08316,5.60112l-18.1786,3.5155c-0.41593,0.08041 -0.74233,0.29549 -0.9786,0.64522c-0.23647,0.34973 -0.31445,0.73256 -0.23396,1.1485c0.08049,0.41597 0.29558,0.74215 0.64527,0.97854c0.35008,0.23639 0.7325,0.31432 1.14844,0.2339zM166.1161,216.71309c0.60353,-3.11958 2.23092,-5.57522 4.88219,-7.36693c1.33128,-0.89969 2.70975,-1.49846 4.13548,-1.79637c1.42573,-0.29789 2.93266,-0.29321 4.52079,0.01404c3.12901,0.60534 5.58937,2.23364 7.38108,4.88491c1.78412,2.63998 2.37352,5.52448 1.76818,8.65349l-0.84492,4.36742c-0.04021,0.20797 -0.11837,0.39635 -0.23437,0.56515c-0.116,0.16874 -0.25343,0.30889 -0.41229,0.42038c-0.15886,0.11144 -0.33823,0.18954 -0.53811,0.23419c-0.19988,0.04471 -0.4038,0.04697 -0.61177,0.0067l-19.68162,-3.80758c-0.20797,-0.04021 -0.39635,-0.11837 -0.56515,-0.23437c-0.1688,-0.116 -0.30612,-0.25534 -0.41195,-0.41801c-0.10583,-0.16268 -0.18105,-0.34395 -0.22576,-0.54383c-0.04471,-0.19988 -0.04691,-0.40386 -0.0067,-0.61183zM185.79772,220.52067c0.44439,-2.29715 0.0109,-4.41596 -1.30048,-6.35644c-0.66334,-0.98156 -1.44017,-1.76932 -2.3305,-2.36325c-0.89033,-0.59392 -1.92155,-1.00425 -3.09374,-1.23105c-2.28767,-0.44258 -4.40741,-0.00435 -6.35922,1.3147c-1.95183,1.31897 -3.14896,3.12233 -3.59153,5.41002l-0.55417,2.86434l16.67546,3.22603zM292.4692,330.72071c-0.08088,0.01675 -0.1606,0.01733 -0.23916,0.00289c-0.07857,-0.01444 -0.1502,-0.04159 -0.2149,-0.08088c-0.0647,-0.03928 -0.11958,-0.08896 -0.1658,-0.14962c-0.04564,-0.06066 -0.07568,-0.12882 -0.09127,-0.20392c-0.0154,-0.07548 -0.01386,-0.15078 0.00462,-0.22587c0.01791,-0.07452 0.04968,-0.14269 0.09359,-0.20392c0.04448,-0.06123 0.09994,-0.11438 0.16637,-0.15829c0.06701,-0.0439 0.14096,-0.07394 0.22183,-0.0907l3.82543,-0.77468c0.08088,-0.01675 0.1606,-0.01733 0.23916,-0.00289c0.07857,0.01463 0.1502,0.04159 0.2149,0.08088c0.0647,0.03928 0.11997,0.08993 0.1658,0.15193c0.04621,0.06181 0.07683,0.13056 0.09185,0.20566c0.0156,0.07568 0.01386,0.1502 -0.00462,0.22356c-0.01849,0.07337 -0.04968,0.14096 -0.09416,0.20219c-0.04448,0.06123 -0.09994,0.11438 -0.16637,0.15829c-0.06701,0.0439 -0.14096,0.07394 -0.22183,0.0907l-1.12302,0.22761l0.84284,4.16049c0.02349,0.11438 0.02503,0.2253 0.00462,0.33275c-0.0208,0.10745 -0.05892,0.20508 -0.11496,0.29346c-0.05661,0.08839 -0.12709,0.16348 -0.21201,0.22414c-0.0855,0.06066 -0.18255,0.10225 -0.29115,0.1242c-0.10918,0.02253 -0.21432,0.02195 -0.31657,-0.00116c-0.10225,-0.02311 -0.19526,-0.06412 -0.28018,-0.1242c-0.08492,-0.06008 -0.15771,-0.13518 -0.21837,-0.22645c-0.06066,-0.0907 -0.10225,-0.19352 -0.12536,-0.30791l-0.84284,-4.16049zM253.706,329.94603c-0.08099,-0.01618 -0.15488,-0.04679 -0.22154,-0.0907c-0.06666,-0.0439 -0.12218,-0.09647 -0.16643,-0.15829c-0.04431,-0.06123 -0.07573,-0.12825 -0.09428,-0.20219c-0.01854,-0.07337 -0.02016,-0.14789 -0.00485,-0.22299c0.01525,-0.07568 0.04587,-0.14442 0.09185,-0.20623c0.04598,-0.062 0.10131,-0.11265 0.16597,-0.15193c0.06464,-0.03928 0.13628,-0.06586 0.21484,-0.08088c0.07857,-0.01444 0.15834,-0.01329 0.23933,0.00289l3.82543,0.77468c0.08103,0.01656 0.15488,0.04679 0.22154,0.0907c0.06666,0.04448 0.12218,0.09705 0.16643,0.15829c0.04431,0.06123 0.07556,0.1294 0.09382,0.2045c0.01831,0.07452 0.01976,0.1502 0.00451,0.2253c-0.01531,0.07568 -0.04575,0.14327 -0.09151,0.20392c-0.04569,0.06066 -0.10086,0.11034 -0.16551,0.14962c-0.06464,0.03928 -0.13628,0.06643 -0.21484,0.08088c-0.07857,0.01444 -0.15834,0.01386 -0.23933,-0.00289l-1.1229,-0.22703l-0.8429,4.16049c-0.02317,0.11438 -0.06505,0.21721 -0.12565,0.30791c-0.0606,0.09127 -0.13402,0.16637 -0.22021,0.22587c-0.08625,0.06008 -0.18041,0.10109 -0.28243,0.1242c-0.10208,0.02253 -0.20756,0.02311 -0.31651,0.00116c-0.10895,-0.02195 -0.20594,-0.06355 -0.29104,-0.1242c-0.08509,-0.06123 -0.15505,-0.13576 -0.20987,-0.22356c-0.05488,-0.08839 -0.09249,-0.18601 -0.11288,-0.29346c-0.02045,-0.10745 -0.01906,-0.21837 0.00416,-0.33275l0.84284,-4.16049zM284.48675,332.65653c-0.10052,-0.08376 -0.15771,-0.19352 -0.17215,-0.32986c-0.01271,-0.119 0.00867,-0.22299 0.06412,-0.31195c0.05488,-0.08896 0.13171,-0.16522 0.22934,-0.22819c0.09821,-0.06355 0.21143,-0.1138 0.34083,-0.15193c0.1294,-0.03813 0.26227,-0.06412 0.39803,-0.07857c0.14442,-0.01502 0.27787,-0.02195 0.39976,-0.02022c0.12189,0.00173 0.24147,0.01213 0.35816,0.0312c0.11669,0.01906 0.23454,0.04679 0.3547,0.08319c0.11958,0.03582 0.24956,0.08088 0.38994,0.13518c0.0751,0.02946 0.15482,0.03986 0.23974,0.03062c0.06509,-0.00693 0.1269,-0.02561 0.18544,-0.05604c0.05835,-0.03062 0.10803,-0.06932 0.14904,-0.11669c0.04102,-0.04737 0.07163,-0.10167 0.09243,-0.16406c0.0208,-0.06239 0.02734,-0.12902 0.01964,-0.19988c-0.01271,-0.12189 -0.06066,-0.22876 -0.14327,-0.32062c-0.08261,-0.09127 -0.18775,-0.16984 -0.31484,-0.23512c-0.12709,-0.06586 -0.27093,-0.11958 -0.43153,-0.16117c-0.1606,-0.04198 -0.32639,-0.0726 -0.49739,-0.09185c-0.17157,-0.01906 -0.34141,-0.02946 -0.51067,-0.03004c-0.16926,-0.00116 -0.32466,0.00578 -0.46619,0.0208c-0.39109,0.04102 -0.73886,0.12189 -1.04272,0.24263c-0.30386,0.12074 -0.55747,0.27382 -0.76023,0.4581c-0.20277,0.18486 -0.35065,0.39803 -0.44424,0.64008c-0.09359,0.24205 -0.12536,0.50432 -0.0959,0.78796c0.02311,0.21548 0.07048,0.40149 0.14269,0.55862c0.07221,0.15771 0.17331,0.29346 0.30328,0.409c0.1294,0.11554 0.29173,0.21432 0.48641,0.29693c0.19526,0.08261 0.42633,0.15771 0.69438,0.22414l0.4142,0.09821c0.03524,0.00751 0.06643,0.01502 0.09301,0.02253c0.026,0.00693 0.05372,0.01444 0.08145,0.02137c0.02811,0.00693 0.05969,0.01367 0.09474,0.02022c0.03466,0.00635 0.07683,0.01271 0.12651,0.01906l0.22761,0.04044c0.04102,0.00693 0.07914,0.0156 0.11438,0.02426c0.03524,0.00924 0.07221,0.01791 0.11034,0.02542l0.19815,0.04795c0.09127,0.02195 0.1785,0.0491 0.26227,0.08203c0.08376,0.03235 0.15829,0.07337 0.22356,0.12247c0.06528,0.0491 0.119,0.1086 0.1606,0.1785c0.04159,0.07048 0.06759,0.15251 0.07741,0.24552c0.01329,0.12478 -0.00404,0.23396 -0.05141,0.32813c-0.04737,0.09359 -0.11708,0.17331 -0.20912,0.23916c-0.09185,0.06528 -0.20103,0.11843 -0.32755,0.15886c-0.12594,0.04044 -0.26111,0.06817 -0.40554,0.08319c-0.26689,0.02831 -0.52569,0.01964 -0.77699,-0.02542c-0.25072,-0.04564 -0.4789,-0.10167 -0.68398,-0.16926c-0.06181,-0.01618 -0.12016,-0.03582 -0.17562,-0.05892c-0.05546,-0.02253 -0.10918,-0.04333 -0.16175,-0.06239c-0.05199,-0.01906 -0.10283,-0.03466 -0.15309,-0.04621c-0.04968,-0.01213 -0.10052,-0.0156 -0.15135,-0.00982c-0.05661,0.00578 -0.11207,0.02888 -0.16695,0.06874c-0.0543,0.04044 -0.10225,0.0907 -0.14327,0.15078c-0.04102,0.06008 -0.07279,0.12594 -0.09532,0.19699c-0.02253,0.07106 -0.03004,0.14211 -0.02253,0.21259c0.01155,0.11092 0.05777,0.21143 0.13922,0.30155c0.08088,0.0907 0.18833,0.17042 0.32177,0.23916c0.13325,0.06932 0.28692,0.12767 0.46099,0.17504c0.17388,0.04795 0.35816,0.08434 0.55284,0.10976c0.19468,0.02542 0.39571,0.03928 0.60195,0.04217c0.20681,0.00231 0.41073,-0.00693 0.61177,-0.02773c0.39109,-0.04102 0.73886,-0.12247 1.04272,-0.24494c0.30386,-0.12189 0.55747,-0.27844 0.76081,-0.46908c0.20392,-0.19006 0.35181,-0.41073 0.44424,-0.66145c0.09301,-0.25014 0.12362,-0.52396 0.09243,-0.82205c-0.02888,-0.27209 -0.10052,-0.50028 -0.21605,-0.68398c-0.11554,-0.18428 -0.26747,-0.33852 -0.45695,-0.46157c-0.1889,-0.12362 -0.41189,-0.22356 -0.6678,-0.29982c-0.25591,-0.07625 -0.5384,-0.14384 -0.84862,-0.20277c-0.19237,-0.03466 -0.38358,-0.06759 -0.57364,-0.09936c-0.18948,-0.0312 -0.36048,-0.07337 -0.51356,-0.12651c-0.15366,-0.05257 -0.28018,-0.12074 -0.38069,-0.20508zM263.71319,336.22663c0.05124,-0.09647 0.08267,-0.20277 0.09434,-0.31888l0.17232,-1.71457l0.86347,0.08723c0.20987,0.0208 0.3729,0.05892 0.48913,0.11323c0.11623,0.05488 0.20184,0.13633 0.25684,0.24494c0.05494,0.1086 0.08896,0.24783 0.10208,0.41651c0.01311,0.16868 0.02143,0.37781 0.02501,0.62737c0.00272,0.17215 0.01294,0.33448 0.03056,0.48641c0.01768,0.15251 0.05199,0.28826 0.103,0.40785c0.05095,0.12016 0.12068,0.21721 0.20912,0.29173c0.08844,0.0751 0.20358,0.11958 0.34534,0.13345c0.15598,0.01618 0.28567,0.00809 0.38901,-0.02311c0.10341,-0.0312 0.18717,-0.0803 0.25129,-0.14847c0.06412,-0.06817 0.11265,-0.15193 0.14558,-0.25187c0.03297,-0.09975 0.05557,-0.21066 0.06782,-0.33275c0.00572,-0.05661 0.01005,-0.11438 0.01306,-0.17273c0.003,-0.05835 0.00479,-0.119 0.00543,-0.18197c0.00266,-0.22587 0.00156,-0.42864 -0.00335,-0.6083c-0.00485,-0.17966 -0.01872,-0.34083 -0.04165,-0.48294c-0.02288,-0.14269 -0.0576,-0.26805 -0.10404,-0.37607c-0.04645,-0.10745 -0.11138,-0.20219 -0.19485,-0.28364c-0.08348,-0.08145 -0.18757,-0.15078 -0.31218,-0.20739c-0.12461,-0.05719 -0.27648,-0.10629 -0.45568,-0.14673l0.00168,-0.01733c0.25667,-0.01733 0.47671,-0.06181 0.66006,-0.13345c0.18336,-0.07163 0.33529,-0.16522 0.45574,-0.28076c0.12043,-0.11515 0.21267,-0.24898 0.27671,-0.40149c0.06401,-0.15309 0.10485,-0.31715 0.12253,-0.49277c0.03247,-0.3235 -0.00711,-0.59213 -0.11871,-0.80703c-0.11161,-0.21432 -0.27163,-0.38936 -0.48,-0.52512c-0.20837,-0.13518 -0.4551,-0.23801 -0.74025,-0.30848c-0.28509,-0.0699 -0.58502,-0.12074 -0.8998,-0.15251l-1.70573,-0.17157c-0.13044,-0.01329 -0.25615,-0.00924 -0.37711,0.01155c-0.12091,0.0208 -0.22865,0.0595 -0.3231,0.11554c-0.09445,0.05661 -0.17284,0.13113 -0.23512,0.22356c-0.06233,0.09243 -0.1,0.20392 -0.11311,0.33448l-0.45914,4.56833c-0.01167,0.11611 -0.00202,0.22703 0.02894,0.33159c0.03102,0.10514 0.07822,0.19872 0.14153,0.28076c0.06337,0.08203 0.14038,0.14962 0.23107,0.20161c0.09075,0.05199 0.19139,0.08376 0.30201,0.09474c0.11057,0.01098 0.21553,0 0.31478,-0.03293c0.0993,-0.03293 0.18885,-0.08319 0.26874,-0.15135c0.07984,-0.06759 0.1454,-0.1502 0.19664,-0.24667zM276.29344,331.96562c-0.00058,-0.11669 0.02022,-0.22587 0.06123,-0.32697c0.04102,-0.10167 0.09705,-0.19006 0.16811,-0.26574c0.07106,-0.07568 0.15424,-0.1346 0.25014,-0.17793c0.09532,-0.04275 0.19815,-0.06412 0.30964,-0.0647c0.11092,0 0.21432,0.0208 0.31022,0.06355c0.09532,0.04275 0.17966,0.10167 0.25245,0.17677c0.07279,0.07568 0.12998,0.16348 0.17157,0.26458c0.04159,0.10109 0.06239,0.21028 0.06239,0.32697l0.00693,3.2749c0.00058,0.37607 -0.0647,0.70478 -0.19699,0.98553c-0.13171,0.28133 -0.31657,0.51587 -0.554,0.70478c-0.23743,0.18833 -0.52049,0.32986 -0.84804,0.4246c-0.32755,0.09474 -0.68629,0.14269 -1.07681,0.14327c-0.38474,0.00116 -0.74059,-0.04448 -1.06698,-0.13633c-0.32639,-0.09185 -0.60888,-0.2305 -0.84746,-0.41536c-0.23801,-0.18486 -0.4246,-0.41767 -0.5592,-0.69958c-0.1346,-0.28191 -0.20219,-0.61408 -0.20277,-0.99593l-0.00693,-3.2749c-0.00039,-0.11669 0.02003,-0.22568 0.06123,-0.32697c0.04121,-0.10129 0.09744,-0.18967 0.16868,-0.26516c0.07106,-0.07568 0.15424,-0.13518 0.24956,-0.17793c0.09532,-0.04333 0.19872,-0.0647 0.30964,-0.0647c0.11149,-0.00058 0.21432,0.0208 0.31022,0.06297c0.09532,0.04275 0.17966,0.10167 0.25245,0.17735c0.07279,0.0751 0.12998,0.16348 0.17157,0.26458c0.04159,0.10109 0.06239,0.21028 0.06297,0.32697l0.01098,3.2489c0,0.20508 0.03177,0.38185 0.09474,0.52974c0.06297,0.14847 0.14558,0.2692 0.24667,0.36279c0.10129,0.09397 0.21682,0.16368 0.34661,0.20912c0.12998,0.04506 0.26169,0.06759 0.39571,0.06759c0.13691,-0.00058 0.26978,-0.02369 0.39976,-0.06932c0.1294,-0.04564 0.24552,-0.11611 0.34777,-0.21028c0.10225,-0.09416 0.18544,-0.21548 0.24956,-0.36394c0.06355,-0.14827 0.09513,-0.32504 0.09474,-0.53032zM265.19622,333.29083c-0.15497,0.00308 -0.30902,-0.00308 -0.46215,-0.01849l-0.68057,-0.06817l0.17013,-1.6932l0.64227,0.0647c0.17302,0.01733 0.33899,0.04044 0.49791,0.06932c0.15892,0.02888 0.29664,0.07625 0.41316,0.14269c0.11652,0.06586 0.20623,0.15655 0.26914,0.27151c0.06291,0.11554 0.08353,0.28076 0.06187,0.49623c-0.01883,0.18717 -0.0721,0.33275 -0.15996,0.43731c-0.08781,0.10398 -0.1963,0.17908 -0.32553,0.22472c-0.12917,0.04621 -0.27128,0.07048 -0.42627,0.07337z" data-paper-data="{&quot;isBaseLogoContainer&quot;:true}"></path></g></g></g><g class="watermark-group" style="opacity:0.040000010281801224"><path class="watermark-path" d="M129.52,370.3a11.88,11.88,0,0,1,2.58,5.58,12,12,0,0,1,.11,3,11.81,11.81,0,0,1-.64,2.93,12.34,12.34,0,0,1-1.41,2.72,11.65,11.65,0,0,1-2.13,2.32,12,12,0,0,1-2.64,1.69,13,13,0,0,1-2.91.9,12.47,12.47,0,0,1-3,.12,12.17,12.17,0,0,1-2.93-.64,11.8,11.8,0,0,1-2.72-1.38,12.19,12.19,0,0,1-4-4.79,11.85,11.85,0,0,1-.89-2.92,12.14,12.14,0,0,1-.13-3,11.54,11.54,0,0,1,.64-2.92,11.67,11.67,0,0,1,3.5-5,11.44,11.44,0,0,1,2.67-1.69,11.64,11.64,0,0,1,2.92-.91,10.71,10.71,0,0,1,3-.12,11.68,11.68,0,0,1,5.66,2,11.7,11.7,0,0,1,2.34,2.12m-1.4,8.76a13,13,0,0,1-1.22,2.32,9.68,9.68,0,0,1-1.81,2,7.44,7.44,0,0,1-2.38,1.37,6.17,6.17,0,0,1-5.11-.46,8.73,8.73,0,0,1-3.85-4.58,6.69,6.69,0,0,1-.34-2.66,6.09,6.09,0,0,1,.77-2.47,7.15,7.15,0,0,1,1.75-2.11,9.58,9.58,0,0,1,1.09-.81,8.23,8.23,0,0,1,1.12-.63,8.14,8.14,0,0,1,1.19-.46,12.71,12.71,0,0,1,1.32-.37l2,2.38a12.83,12.83,0,0,0-1.56.17,7.86,7.86,0,0,0-1.23.32,4.5,4.5,0,0,0-1,.49,6.41,6.41,0,0,0-.93.67,4.49,4.49,0,0,0-1.15,1.39,3.87,3.87,0,0,0-.45,1.58,4.12,4.12,0,0,0,.26,1.63,6.11,6.11,0,0,0,2.36,2.82,4.43,4.43,0,0,0,1.57.53,3.91,3.91,0,0,0,1.62-.17,4.71,4.71,0,0,0,1.57-.89,10.5,10.5,0,0,0,.83-.79,5.71,5.71,0,0,0,.65-.93,10.13,10.13,0,0,0,.54-1.14,12.24,12.24,0,0,0,.44-1.49l2,2.33m-14.46,4.55a8.86,8.86,0,0,0,2.78,2.22,9,9,0,0,0,3.29.94,9.15,9.15,0,0,0,3.39-.37,8.68,8.68,0,0,0,3.11-1.69,8.8,8.8,0,0,0,2.22-2.78,9.15,9.15,0,0,0,1-3.29,8.95,8.95,0,0,0-4.83-8.76,9,9,0,0,0-6.73-.57,9,9,0,0,0-5.33,4.47,8.94,8.94,0,0,0-.57,6.71,8.76,8.76,0,0,0,1.7,3.12"></path><path class="watermark-path" d="M147,349c-.48.12-1.09.31-1.82.57a24.37,24.37,0,0,0-2.4,1A28.35,28.35,0,0,0,140,352a20.72,20.72,0,0,0-2.71,1.94c-.7.59-1.28,1.11-1.74,1.57a15.07,15.07,0,0,0-1.1,1.22,4.09,4.09,0,0,0-.59.92,2.32,2.32,0,0,0-.22.64,1.16,1.16,0,0,0,0,.47,1.83,1.83,0,0,0,.18.29,1.15,1.15,0,0,0,1,.37,5.54,5.54,0,0,0,1.51-.38q.87-.35,1.95-.9l2.26-1.18q1.2-.65,2.49-1.29c.87-.44,1.73-.83,2.59-1.17a18.94,18.94,0,0,1,2.6-.81,9.27,9.27,0,0,1,2.46-.29,6.25,6.25,0,0,1,2.24.49,5.12,5.12,0,0,1,1.89,1.47,6.35,6.35,0,0,1,1.41,2.61,6,6,0,0,1,.09,2.6,8.3,8.3,0,0,1-.9,2.52,17.79,17.79,0,0,1-1.62,2.37,23.92,23.92,0,0,1-2,2.15c-.72.67-1.41,1.29-2.09,1.87a33.79,33.79,0,0,1-5.33,3.7,32.29,32.29,0,0,1-4.91,2.28l-3.61-4.3a21.38,21.38,0,0,0,5.39-1.87,27.2,27.2,0,0,0,5.4-3.56,21.59,21.59,0,0,0,2.38-2.27,8.67,8.67,0,0,0,1.18-1.7,2.32,2.32,0,0,0,.27-1.19,1.34,1.34,0,0,0-.28-.74,1.21,1.21,0,0,0-1-.42,4.32,4.32,0,0,0-1.55.34,15.77,15.77,0,0,0-2,.88c-.72.37-1.48.77-2.27,1.21l-2.45,1.3c-.85.45-1.7.85-2.56,1.21a22.37,22.37,0,0,1-2.54.86,10,10,0,0,1-2.43.32,5.76,5.76,0,0,1-2.2-.45,5,5,0,0,1-1.89-1.45,6.12,6.12,0,0,1-1.31-2.41,6,6,0,0,1-.1-2.41,8.28,8.28,0,0,1,.81-2.38,14.06,14.06,0,0,1,1.49-2.24,22.37,22.37,0,0,1,1.85-2.05q1-1,2-1.77c.7-.59,1.44-1.15,2.23-1.7s1.62-1.06,2.44-1.53,1.63-.91,2.43-1.3,1.58-.75,2.3-1L147,349"></path><path class="watermark-path" d="M186.76,337.57l-10.6-12.63,3.92,18.24-4.66,3.91-17.27-7,10.6,12.63-4.86,4.07-15.09-18,6.59-5.54,18.69,7.52-4.15-19.71,6.57-5.52,15.09,18-4.83,4.05"></path><path class="watermark-path" d="M208.84,313.24l-10,8.42,1.16,4.82L194.56,331l-5.68-25.89,5.42-4.55,24.51,10.09-5.42,4.55-4.55-2m-11.23,3.45,6.57-5.52-8.83-3.87,2.26,9.39"></path><path class="watermark-path" d="M227.49,281.38c-.48.12-1.09.31-1.82.57a24.37,24.37,0,0,0-2.4,1,26.11,26.11,0,0,0-2.7,1.47,20.72,20.72,0,0,0-2.71,1.94c-.7.59-1.28,1.11-1.74,1.57a13.39,13.39,0,0,0-1.1,1.22,4.29,4.29,0,0,0-.59.91,2.48,2.48,0,0,0-.22.65,1.16,1.16,0,0,0,0,.47,1.83,1.83,0,0,0,.18.29,1.15,1.15,0,0,0,1,.37,5.54,5.54,0,0,0,1.51-.38q.87-.34,2-.9l2.26-1.18q1.2-.64,2.49-1.29c.87-.44,1.73-.83,2.59-1.17a18.94,18.94,0,0,1,2.6-.81,9.27,9.27,0,0,1,2.46-.29,6.08,6.08,0,0,1,2.24.49,5.09,5.09,0,0,1,1.89,1.46,6.47,6.47,0,0,1,1.41,2.61,6.07,6.07,0,0,1,.09,2.61,8.3,8.3,0,0,1-.9,2.52,16.32,16.32,0,0,1-1.63,2.36,21.41,21.41,0,0,1-2,2.16c-.72.67-1.41,1.29-2.1,1.86a33.36,33.36,0,0,1-5.32,3.71,31.92,31.92,0,0,1-4.92,2.28l-3.6-4.3a21.38,21.38,0,0,0,5.39-1.87,27.2,27.2,0,0,0,5.4-3.56,21.59,21.59,0,0,0,2.38-2.27,8.67,8.67,0,0,0,1.18-1.7A2.32,2.32,0,0,0,231,293a1.34,1.34,0,0,0-.28-.74,1.21,1.21,0,0,0-1-.42,4.32,4.32,0,0,0-1.55.34,16.54,16.54,0,0,0-2,.88c-.71.37-1.47.77-2.26,1.21l-2.46,1.3c-.84.44-1.7.85-2.55,1.21a24.53,24.53,0,0,1-2.54.86A10,10,0,0,1,214,298a5.76,5.76,0,0,1-2.2-.45,5,5,0,0,1-1.89-1.45,6.12,6.12,0,0,1-1.31-2.41,5.78,5.78,0,0,1-.1-2.41,8,8,0,0,1,.81-2.38,14.61,14.61,0,0,1,1.49-2.25,22.26,22.26,0,0,1,1.85-2q1-1,2-1.77c.7-.59,1.44-1.15,2.23-1.7s1.62-1.06,2.44-1.53,1.63-.91,2.43-1.31,1.58-.74,2.3-1l3.5,4.16"></path><path class="watermark-path" d="M261.64,274.74l-6.29-7.5L243,277.61l6.3,7.5-4.86,4.07-15.09-18,4.85-4.08,5.49,6.55L252,263.3l-5.49-6.55,4.86-4.07,15.09,18-4.86,4.08"></path><path class="watermark-path" d="M272.18,265.9l-15.09-18,4.86-4.08,15.09,18-4.86,4.08"></path><path class="watermark-path" d="M299.65,242.85l-22.51-2.18L287.51,253l-4.85,4.08-15.1-18,5.28-4.43,22.56,2.22L285,224.5l4.83-4.06,15.09,18-5.26,4.42"></path><path class="watermark-path" d="M306.68,205.52a31.88,31.88,0,0,1,5.29-3.66,34.48,34.48,0,0,1,5.14-2.35l3.69,4.39a20.77,20.77,0,0,0-2.37.61,20.47,20.47,0,0,0-2.61,1,25.12,25.12,0,0,0-2.76,1.49,23.9,23.9,0,0,0-2.8,2,20.42,20.42,0,0,0-2.8,2.77,12.77,12.77,0,0,0-1.64,2.52,7,7,0,0,0-.68,2.24,6,6,0,0,0,.66,3.64,8.16,8.16,0,0,0,.94,1.38,9.12,9.12,0,0,0,1.08,1.07,6.39,6.39,0,0,0,1.47.91,6.73,6.73,0,0,0,1.88.48,6.54,6.54,0,0,0,2.28-.18,11.67,11.67,0,0,0,2.74-1.07,19.38,19.38,0,0,0,3.18-2.22c.57-.48,1.06-.92,1.46-1.31a14.57,14.57,0,0,0,1-1.13,11.46,11.46,0,0,0,.81-1.05l.74-1.09-1.82-2.17-5.45,4.57-3.31-3.94,10.31-8.65,7.71,9.19a29,29,0,0,1-1.67,2.43q-1,1.26-2.1,2.52c-.74.84-1.5,1.65-2.3,2.44s-1.58,1.5-2.33,2.14a31,31,0,0,1-3.59,2.61,22.55,22.55,0,0,1-3.64,1.83,15.64,15.64,0,0,1-3.63.89,10.72,10.72,0,0,1-3.49-.15,10.45,10.45,0,0,1-3.28-1.33,12.54,12.54,0,0,1-3-2.67,12,12,0,0,1-2.08-3.44,10.45,10.45,0,0,1-.71-3.5,11.14,11.14,0,0,1,.51-3.51,15.72,15.72,0,0,1,1.56-3.43,21.62,21.62,0,0,1,2.42-3.28,30.3,30.3,0,0,1,3.15-3"></path><path class="watermark-path" d="M336.91,211.59l-15.1-18,4.86-4.08,11.79,14,13.13-11,3.31,3.94-18,15.1"></path><path class="watermark-path" d="M374.54,164.71a12.28,12.28,0,0,1,2.59,4.81,10.44,10.44,0,0,1,0,5,14.62,14.62,0,0,1-2.33,5,25.55,25.55,0,0,1-4.56,4.85,26.07,26.07,0,0,1-5.6,3.67,14.79,14.79,0,0,1-5.38,1.43,10.43,10.43,0,0,1-4.94-.89,13.24,13.24,0,0,1-6.87-8.18,10.48,10.48,0,0,1,0-5,14.51,14.51,0,0,1,2.36-5,25.23,25.23,0,0,1,4.57-4.89,25,25,0,0,1,5.59-3.64,14.45,14.45,0,0,1,5.35-1.43,10.31,10.31,0,0,1,4.93.92,12.22,12.22,0,0,1,4.28,3.38m-4.91,4.11a8.36,8.36,0,0,0-2-1.72,5.5,5.5,0,0,0-2.65-.85,7.72,7.72,0,0,0-3.32.57,14.49,14.49,0,0,0-4,2.52,16.72,16.72,0,0,0-2.38,2.4,10.15,10.15,0,0,0-1.39,2.24,6.71,6.71,0,0,0-.56,2.1,5.69,5.69,0,0,0,.1,1.9,6.21,6.21,0,0,0,.61,1.69,9.85,9.85,0,0,0,1,1.44,10.48,10.48,0,0,0,1.26,1.23,6.67,6.67,0,0,0,1.57.92,6.1,6.1,0,0,0,1.85.41,6.8,6.8,0,0,0,2.15-.2,11.06,11.06,0,0,0,2.45-1,17.67,17.67,0,0,0,2.77-1.94,14.39,14.39,0,0,0,3.18-3.52,7.74,7.74,0,0,0,1.14-3.17,5.54,5.54,0,0,0-.37-2.74,8.52,8.52,0,0,0-1.36-2.3"></path><path class="watermark-path" d="M382.66,141.76A32.3,32.3,0,0,1,388,138.1a34.12,34.12,0,0,1,5.15-2.35l3.69,4.4a19.62,19.62,0,0,0-2.37.6,22.08,22.08,0,0,0-2.61,1,26,26,0,0,0-2.77,1.49,23.9,23.9,0,0,0-2.8,2,21,21,0,0,0-2.8,2.78,13.19,13.19,0,0,0-1.64,2.51,7.29,7.29,0,0,0-.68,2.24,6.36,6.36,0,0,0,.06,2,5.8,5.8,0,0,0,.61,1.68,8.12,8.12,0,0,0,.93,1.38,9.16,9.16,0,0,0,1.08,1.08,6.56,6.56,0,0,0,1.48.9,6,6,0,0,0,1.87.48,6.76,6.76,0,0,0,2.28-.17,12,12,0,0,0,2.74-1.08,18.57,18.57,0,0,0,3.18-2.22c.58-.48,1.06-.92,1.46-1.31s.75-.77,1.05-1.12.57-.72.81-1.06l.73-1.09-1.82-2.17-5.45,4.57-3.3-3.94,10.3-8.65,7.71,9.19a29,29,0,0,1-1.67,2.43q-1,1.26-2.1,2.52c-.73.84-1.5,1.66-2.3,2.44s-1.57,1.5-2.33,2.14a31,31,0,0,1-3.59,2.61,22.15,22.15,0,0,1-3.64,1.83,15.56,15.56,0,0,1-3.62.89,11,11,0,0,1-3.49-.14,10.84,10.84,0,0,1-3.28-1.33,12.82,12.82,0,0,1-3-2.68,12.12,12.12,0,0,1-2.08-3.43A10.71,10.71,0,0,1,375,155a11.18,11.18,0,0,1,.51-3.51,15.51,15.51,0,0,1,1.57-3.43,21.44,21.44,0,0,1,2.42-3.28,30.19,30.19,0,0,1,3.14-3"></path><path class="watermark-path" d="M428.63,119.31a12.26,12.26,0,0,1,2.59,4.82,10.44,10.44,0,0,1,0,5,14.53,14.53,0,0,1-2.34,5,25.29,25.29,0,0,1-4.56,4.86,26,26,0,0,1-5.59,3.67,14.84,14.84,0,0,1-5.38,1.43,10.61,10.61,0,0,1-4.95-.89,12.15,12.15,0,0,1-4.3-3.37,12,12,0,0,1-2.56-4.81,10.48,10.48,0,0,1,0-5,14.39,14.39,0,0,1,2.35-5,27.89,27.89,0,0,1,10.16-8.53,14.49,14.49,0,0,1,5.36-1.43,10.27,10.27,0,0,1,4.92.92,12.21,12.21,0,0,1,4.28,3.37m-4.91,4.12a8.17,8.17,0,0,0-2-1.72,5.58,5.58,0,0,0-2.65-.86,7.86,7.86,0,0,0-3.31.58,14.49,14.49,0,0,0-4,2.52,16.21,16.21,0,0,0-2.38,2.4,9.85,9.85,0,0,0-1.4,2.24,7,7,0,0,0-.56,2.1,6,6,0,0,0,.1,1.9,6.23,6.23,0,0,0,.62,1.69,8.49,8.49,0,0,0,1,1.44,9.18,9.18,0,0,0,1.26,1.23,6.67,6.67,0,0,0,1.57.92,6,6,0,0,0,1.84.41,6.86,6.86,0,0,0,2.16-.2,11.26,11.26,0,0,0,2.45-1,17.62,17.62,0,0,0,2.76-1.94,14.67,14.67,0,0,0,3.19-3.52,7.71,7.71,0,0,0,1.13-3.17,5.53,5.53,0,0,0-.36-2.74,8.55,8.55,0,0,0-1.37-2.3"></path></g></svg>